<svg width="1200" height="1202" viewBox="0 0 1200 1202" fill="none" xmlns="http://www.w3.org/2000/svg">
<path d="M735.729 1C1053.73 62 1215.23 320.5 1198.23 616M743.229 345.17C927.831 211.809 1186.65 337.332 1196.22 564.865L1198.38 616.221M737.58 190.034C920.814 247.977 1037.61 427.531 1016.1 618.5M1181.74 432.313L737.421 546.241M1033.41 169.264L737.197 455.223M771.241 14.5493L737.063 138.731M954.008 612.804L954.457 582.574C956.579 439.8 868.733 311.101 735 261.057C901.646 309.653 977.66 439.716 954.008 612.804ZM819.189 140.483L791.956 106.963L825.473 134.196L824.785 132.749L824.635 132.899L822.475 130.74L823.392 129.823L815.731 113.707L835.219 136.114L835.329 136.005L830.991 113.708L843.605 138.319L844.441 137.484L846.601 139.642L845.068 141.176L852.993 156.638C853.701 157.198 854.308 157.874 854.79 158.637C855.889 160.386 856.277 162.489 855.875 164.515C855.473 166.541 854.312 168.337 852.629 169.534C850.946 170.732 848.868 171.24 846.822 170.956C844.777 170.671 842.917 169.614 841.625 168.003L798.7 145.998L821.302 150.393L798.699 130.739L819.189 140.483ZM802.965 117.973L834.667 156.992L822.474 137.484L841.989 149.679L802.965 117.973ZM824.596 128.619L824.636 128.578L826.796 130.738L825.987 131.546L828.365 136.545L845.757 150.676L822.206 123.596L824.596 128.619ZM842.749 140.11L842.281 139.642L842.431 139.492L838.23 131.31L837.734 131.806L836.666 130.738L837.504 129.9L834.716 124.468L837.489 138.727L848.596 151.5L842.749 140.11ZM841.899 166.77C842.911 168.374 844.519 169.51 846.368 169.929C848.217 170.348 850.157 170.015 851.761 169.005C852.957 168.25 853.903 167.158 854.479 165.866C855.055 164.575 855.235 163.141 854.996 161.747C854.757 160.353 854.109 159.061 853.136 158.035C852.163 157.009 850.907 156.294 849.528 155.981C848.148 155.669 846.707 155.772 845.387 156.279C844.066 156.786 842.926 157.672 842.109 158.827C841.292 159.982 840.837 161.353 840.799 162.767C840.762 164.181 841.145 165.574 841.899 166.77ZM813.875 151.992L812.961 151.077L813.524 150.514L809.459 149.725L813.875 151.992ZM814.778 150.758L815.097 151.077L814.078 152.096L836.495 163.607L823.719 152.496L814.778 150.758ZM835.671 160.767L821.539 143.374L808.588 137.216L819.364 146.586L818.777 145.999L819.845 144.931L820.913 145.999L819.878 147.034L835.671 160.767ZM1042.95 368.719C1042.7 368.846 1042.41 368.931 1042.12 368.972C1041.82 369.012 1041.52 369.005 1041.23 368.953C1040.94 368.901 1040.66 368.804 1040.42 368.667C1040.17 368.53 1039.97 368.357 1039.81 368.157C1039.65 367.957 1039.54 367.733 1039.49 367.5C1039.44 367.267 1039.44 367.028 1039.51 366.797C1039.58 366.566 1039.7 366.348 1039.87 366.154C1040.04 365.961 1040.26 365.796 1040.52 365.67C1040.59 365.632 1040.67 365.608 1040.75 365.58C1039.96 366.04 1039.73 366.897 1040.26 367.561C1040.53 367.895 1040.95 368.133 1041.44 368.22C1041.93 368.308 1042.44 368.239 1042.86 368.028C1043.26 367.827 1043.55 367.512 1043.67 367.148C1043.79 366.784 1043.73 366.399 1043.5 366.069C1043.56 366.123 1043.61 366.174 1043.66 366.234C1043.98 366.638 1044.09 367.127 1043.96 367.593C1043.82 368.059 1043.46 368.464 1042.95 368.719ZM1043.85 267.354C1043.79 267.354 1043.72 267.335 1043.66 267.296C1043.51 267.192 1043.47 266.983 1043.57 266.828C1043.82 266.467 1044.08 266.094 1044.37 265.719C1044.48 265.571 1044.69 265.541 1044.84 265.654C1044.99 265.766 1045.02 265.977 1044.9 266.125C1044.63 266.49 1044.37 266.854 1044.13 267.206C1044.06 267.302 1043.96 267.354 1043.85 267.354ZM1058.51 257.504C1058.46 257.53 1058.41 257.542 1058.36 257.542C1058.24 257.542 1058.12 257.476 1058.06 257.36C1058.02 257.283 1057.97 257.217 1057.91 257.158C1057.76 257.001 1057.53 256.909 1057.23 256.886C1057.04 256.871 1056.9 256.709 1056.92 256.524C1056.93 256.338 1057.09 256.2 1057.28 256.214C1057.74 256.252 1058.12 256.409 1058.39 256.682C1058.5 256.789 1058.59 256.913 1058.66 257.05C1058.74 257.216 1058.68 257.419 1058.51 257.504ZM1042.5 269.681C1042.45 269.681 1042.4 269.671 1042.36 269.649C1042.19 269.57 1042.12 269.37 1042.2 269.201C1042.38 268.814 1042.59 268.405 1042.84 267.985C1042.93 267.825 1043.14 267.771 1043.3 267.864C1043.46 267.959 1043.52 268.165 1043.42 268.325C1043.19 268.728 1042.98 269.119 1042.8 269.488C1042.75 269.61 1042.63 269.681 1042.5 269.681ZM1049.4 269.825C1049.43 269.798 1049.47 269.768 1049.5 269.741C1049.29 269.561 1049.07 269.373 1048.86 269.18C1048.77 269.248 1048.69 269.318 1048.61 269.383C1048.54 269.433 1048.47 269.457 1048.4 269.457C1048.3 269.457 1048.2 269.414 1048.13 269.331C1048.02 269.186 1048.04 268.974 1048.19 268.858C1048.24 268.814 1048.3 268.767 1048.35 268.722C1047.96 268.366 1047.57 267.995 1047.17 267.595C1041.83 262.254 1040.35 257.974 1041.66 256.659C1042.76 255.561 1045.93 256.416 1050.05 259.837C1050.38 259.566 1050.71 259.305 1051.04 259.061C1051.19 258.95 1051.4 258.98 1051.51 259.128C1051.62 259.277 1051.59 259.488 1051.44 259.6C1051.16 259.814 1050.87 260.044 1050.58 260.28C1050.79 260.463 1051 260.654 1051.22 260.851C1051.54 260.586 1051.85 260.329 1052.16 260.092C1052.31 259.979 1052.52 260.006 1052.63 260.153C1052.75 260.3 1052.72 260.512 1052.57 260.625C1052.29 260.841 1052.01 261.073 1051.72 261.313C1052.01 261.587 1052.3 261.871 1052.6 262.169C1053.03 262.595 1053.42 263.013 1053.8 263.424C1053.81 263.356 1053.83 263.289 1053.87 263.232C1054.17 262.875 1054.44 262.523 1054.69 262.185C1054.81 262.036 1055.02 262.006 1055.17 262.117C1055.31 262.228 1055.35 262.439 1055.23 262.588C1054.98 262.934 1054.69 263.294 1054.39 263.66C1054.33 263.741 1054.23 263.783 1054.13 263.783C1054.13 263.783 1054.13 263.782 1054.13 263.782C1058.22 268.359 1059.29 271.925 1058.11 273.105C1057.81 273.401 1057.37 273.555 1056.79 273.555C1055.29 273.555 1052.9 272.499 1050.03 270.178C1049.96 270.237 1049.88 270.297 1049.81 270.355C1049.75 270.403 1049.68 270.427 1049.6 270.427C1049.5 270.427 1049.41 270.383 1049.34 270.298C1049.22 270.152 1049.25 269.94 1049.4 269.825ZM1050.04 269.301C1050.17 269.194 1050.3 269.088 1050.42 268.979C1050.57 268.859 1050.78 268.874 1050.9 269.016C1051.02 269.157 1051 269.369 1050.86 269.49C1050.77 269.573 1050.67 269.652 1050.57 269.733C1053.96 272.412 1056.81 273.456 1057.63 272.628C1058.46 271.802 1057.42 268.961 1054.75 265.581C1054.74 265.605 1054.73 265.63 1054.71 265.652C1054.54 265.848 1054.37 266.043 1054.19 266.238C1055.97 268.412 1057.46 270.769 1056.62 271.612C1056.45 271.776 1056.23 271.858 1055.95 271.858C1055.35 271.858 1054.48 271.483 1053.32 270.727C1051.82 269.748 1050.02 268.245 1048.27 266.495C1046.52 264.745 1045.02 262.952 1044.04 261.447C1042.93 259.742 1042.64 258.665 1043.16 258.152C1044.43 256.875 1049.17 260.941 1051.5 263.269C1051.87 263.642 1052.29 264.079 1052.73 264.553C1052.82 264.45 1052.91 264.347 1053 264.245C1053.13 264.107 1053.34 264.094 1053.48 264.217C1053.62 264.341 1053.63 264.553 1053.51 264.693C1053.4 264.813 1053.29 264.934 1053.18 265.055C1053.37 265.271 1053.56 265.492 1053.76 265.717C1053.91 265.549 1054.05 265.381 1054.2 265.213C1054.24 265.159 1054.31 265.129 1054.37 265.113C1053.71 264.309 1052.96 263.481 1052.12 262.645C1050.02 260.535 1047.78 258.809 1045.83 257.783C1044.68 257.174 1043.69 256.858 1042.99 256.858C1042.62 256.858 1042.33 256.949 1042.14 257.135C1041.61 257.667 1041.85 259.048 1042.79 260.829C1043.81 262.776 1045.54 265.009 1047.65 267.119C1048.06 267.53 1048.47 267.919 1048.88 268.288C1048.99 268.193 1049.1 268.1 1049.21 268.003C1049.35 267.88 1049.56 267.896 1049.68 268.037C1049.81 268.177 1049.79 268.389 1049.65 268.511C1049.56 268.589 1049.47 268.664 1049.38 268.74C1049.6 268.934 1049.82 269.12 1050.04 269.301ZM1053.3 266.216C1053.12 265.999 1052.93 265.777 1052.72 265.549C1052.68 265.597 1052.64 265.645 1052.59 265.693C1052.52 265.763 1052.43 265.798 1052.34 265.798C1052.26 265.798 1052.18 265.767 1052.11 265.706C1051.98 265.578 1051.97 265.365 1052.1 265.23C1052.16 265.168 1052.21 265.108 1052.27 265.047C1051.89 264.627 1051.47 264.194 1051.02 263.745C1047.39 260.113 1044.64 258.568 1043.83 258.568C1043.74 258.568 1043.67 258.588 1043.63 258.628C1043.53 258.733 1043.5 259.377 1044.61 261.08C1045.56 262.547 1047.03 264.301 1048.75 266.019C1049.2 266.469 1049.65 266.901 1050.1 267.313C1050.11 267.238 1050.14 267.166 1050.2 267.11C1050.52 266.813 1050.84 266.505 1051.17 266.185C1051.3 266.054 1051.51 266.055 1051.64 266.187C1051.77 266.319 1051.77 266.532 1051.64 266.663C1051.31 266.988 1050.98 267.302 1050.66 267.604C1050.62 267.644 1050.56 267.666 1050.51 267.679C1050.78 267.922 1051.05 268.159 1051.32 268.383C1051.31 268.278 1051.34 268.169 1051.42 268.092C1051.74 267.793 1052.07 267.481 1052.38 267.166C1052.51 267.035 1052.73 267.035 1052.86 267.167C1052.99 267.298 1052.99 267.512 1052.86 267.643C1052.54 267.964 1052.21 268.281 1051.88 268.586C1051.82 268.64 1051.75 268.666 1051.67 268.671C1052.38 269.247 1053.06 269.755 1053.69 270.163C1055.39 271.27 1056.04 271.242 1056.14 271.136C1056.42 270.853 1055.71 269.185 1053.72 266.722C1053.67 266.751 1053.61 266.772 1053.55 266.772C1053.47 266.772 1053.39 266.742 1053.33 266.682C1053.19 266.558 1053.18 266.353 1053.3 266.216ZM1042.11 270.275C1042.28 270.328 1042.38 270.516 1042.33 270.694C1042.21 271.113 1042.14 271.485 1042.14 271.799C1042.14 271.835 1042.14 271.871 1042.14 271.906C1042.15 272.092 1042.01 272.25 1041.83 272.259C1041.82 272.259 1041.81 272.259 1041.81 272.259C1041.63 272.259 1041.48 272.119 1041.47 271.939C1041.47 271.893 1041.47 271.846 1041.47 271.799C1041.47 271.42 1041.54 270.983 1041.69 270.501C1041.74 270.323 1041.93 270.223 1042.11 270.275ZM1047.23 271.361C1047.58 271.137 1047.96 270.888 1048.33 270.623C1048.48 270.515 1048.69 270.551 1048.8 270.702C1048.91 270.854 1048.87 271.064 1048.72 271.172C1048.34 271.445 1047.95 271.7 1047.58 271.932C1047.53 271.966 1047.47 271.983 1047.41 271.983C1047.29 271.983 1047.18 271.927 1047.12 271.825C1047.02 271.667 1047.07 271.46 1047.23 271.361ZM1042.58 272.774C1042.75 272.877 1042.99 272.93 1043.27 272.93C1043.4 272.92 1043.53 272.92 1043.67 272.9C1043.85 272.875 1044.03 273.003 1044.05 273.187C1044.08 273.371 1043.95 273.541 1043.77 273.567C1043.59 273.591 1043.43 273.603 1043.28 273.603C1042.87 273.606 1042.52 273.52 1042.24 273.353C1042.08 273.259 1042.02 273.052 1042.12 272.892C1042.21 272.732 1042.42 272.68 1042.58 272.774ZM1044.89 272.564C1045.27 272.422 1045.67 272.239 1046.08 272.021C1046.25 271.934 1046.45 271.998 1046.54 272.163C1046.62 272.327 1046.56 272.531 1046.4 272.617C1045.96 272.847 1045.53 273.041 1045.14 273.193C1045.1 273.208 1045.06 273.215 1045.02 273.215C1044.88 273.215 1044.75 273.133 1044.7 272.999C1044.63 272.826 1044.72 272.631 1044.89 272.564ZM1058.12 260.153C1058.08 260.153 1058.03 260.145 1057.99 260.129C1057.82 260.062 1057.73 259.866 1057.8 259.693C1057.98 259.243 1058.1 258.832 1058.15 258.472C1058.18 258.288 1058.36 258.165 1058.54 258.191C1058.72 258.22 1058.85 258.392 1058.82 258.576C1058.75 258.985 1058.62 259.443 1058.43 259.939C1058.38 260.072 1058.25 260.153 1058.12 260.153ZM1057.71 260.739C1057.87 260.827 1057.93 261.03 1057.85 261.194C1057.64 261.576 1057.41 261.975 1057.16 262.381C1057.09 262.482 1056.98 262.538 1056.87 262.538C1056.81 262.538 1056.75 262.521 1056.69 262.486C1056.54 262.386 1056.49 262.179 1056.59 262.022C1056.83 261.63 1057.06 261.246 1057.25 260.879C1057.34 260.715 1057.54 260.652 1057.71 260.739ZM1056.02 257.051C1055.65 257.157 1055.24 257.313 1054.81 257.514C1054.77 257.535 1054.72 257.545 1054.67 257.545C1054.54 257.545 1054.42 257.472 1054.37 257.35C1054.29 257.181 1054.36 256.981 1054.53 256.903C1054.99 256.688 1055.43 256.52 1055.83 256.404C1056.01 256.353 1056.2 256.456 1056.25 256.634C1056.3 256.813 1056.2 256.999 1056.02 257.051ZM1053.65 258.125C1053.28 258.335 1052.91 258.572 1052.52 258.828C1052.47 258.867 1052.4 258.886 1052.34 258.886C1052.23 258.886 1052.12 258.833 1052.06 258.737C1051.95 258.583 1052 258.373 1052.15 258.27C1052.54 258.005 1052.93 257.76 1053.31 257.542C1053.47 257.449 1053.68 257.504 1053.77 257.665C1053.86 257.826 1053.81 258.032 1053.65 258.125ZM1056.32 263.044C1056.47 263.152 1056.5 263.362 1056.39 263.514C1056.14 263.87 1055.86 264.236 1055.57 264.602C1055.51 264.686 1055.41 264.73 1055.31 264.73C1055.24 264.73 1055.16 264.707 1055.1 264.658C1054.96 264.543 1054.93 264.331 1055.05 264.185C1055.33 263.827 1055.6 263.47 1055.85 263.122C1055.95 262.971 1056.16 262.936 1056.32 263.044ZM1043.46 271.226C1043.57 271.079 1043.78 271.051 1043.93 271.164C1044.01 271.229 1044.23 271.273 1044.89 271.001C1045.06 270.93 1045.25 271.012 1045.32 271.183C1045.4 271.355 1045.31 271.552 1045.14 271.623C1044.73 271.794 1044.39 271.877 1044.11 271.877C1043.87 271.877 1043.67 271.817 1043.52 271.698C1043.37 271.585 1043.34 271.373 1043.46 271.226ZM1044.04 270.288C1043.99 270.421 1043.86 270.503 1043.72 270.503C1043.68 270.503 1043.64 270.496 1043.6 270.48C1043.43 270.413 1043.34 270.218 1043.41 270.045C1043.55 269.681 1043.76 269.26 1044.04 268.793C1044.14 268.634 1044.35 268.583 1044.51 268.678C1044.66 268.774 1044.72 268.98 1044.62 269.14C1044.36 269.573 1044.16 269.96 1044.04 270.288ZM1054.43 258.559C1054.6 258.469 1054.8 258.528 1054.89 258.691C1054.98 258.854 1054.92 259.058 1054.76 259.148C1054.42 259.337 1054.04 259.571 1053.64 259.843C1053.59 259.883 1053.52 259.902 1053.45 259.902C1053.35 259.902 1053.24 259.851 1053.18 259.755C1053.07 259.602 1053.11 259.393 1053.26 259.288C1053.68 259.003 1054.07 258.758 1054.43 258.559ZM1047.13 269.664C1047.28 269.556 1047.49 269.59 1047.6 269.74C1047.71 269.891 1047.67 270.102 1047.52 270.21C1047.12 270.499 1046.74 270.756 1046.38 270.974C1046.33 271.007 1046.27 271.023 1046.21 271.023C1046.09 271.023 1045.98 270.966 1045.92 270.863C1045.82 270.704 1045.87 270.497 1046.03 270.4C1046.37 270.19 1046.74 269.943 1047.13 269.664ZM1045.07 268.18C1045.01 268.18 1044.94 268.16 1044.88 268.118C1044.73 268.009 1044.69 267.799 1044.8 267.648C1045.05 267.298 1045.33 266.932 1045.62 266.559C1045.74 266.414 1045.95 266.39 1046.1 266.506C1046.24 266.621 1046.27 266.833 1046.15 266.979C1045.86 267.342 1045.59 267.699 1045.35 268.039C1045.28 268.131 1045.18 268.18 1045.07 268.18ZM1056.11 259.971C1056.19 259.804 1056.39 259.735 1056.56 259.818C1056.73 259.9 1056.8 260.102 1056.71 260.268C1056.54 260.631 1056.3 261.034 1056.02 261.468C1055.95 261.567 1055.85 261.621 1055.74 261.621C1055.67 261.621 1055.61 261.603 1055.55 261.566C1055.4 261.465 1055.35 261.256 1055.46 261.101C1055.72 260.689 1055.94 260.309 1056.11 259.971ZM1056.81 259.177C1056.63 259.177 1056.48 259.023 1056.48 258.837C1056.48 258.745 1056.46 258.678 1056.43 258.648C1056.37 258.589 1056.17 258.586 1055.91 258.65C1055.73 258.695 1055.55 258.586 1055.51 258.406C1055.46 258.226 1055.57 258.042 1055.75 257.997C1056.27 257.865 1056.66 257.925 1056.9 258.172C1057.07 258.334 1057.15 258.558 1057.15 258.844C1057.15 259.03 1057 259.177 1056.81 259.177ZM1050.07 266.026C1049.51 266.026 1049.06 265.572 1049.06 265.016C1049.06 264.459 1049.51 264.006 1050.07 264.006C1050.63 264.006 1051.08 264.459 1051.08 265.016C1051.08 265.573 1050.63 266.026 1050.07 266.026ZM1050.07 264.679C1049.88 264.679 1049.73 264.83 1049.73 265.016C1049.73 265.201 1049.88 265.352 1050.07 265.352C1050.26 265.352 1050.41 265.201 1050.41 265.016C1050.41 264.83 1050.26 264.679 1050.07 264.679ZM1024.51 423.614C1024.51 423.614 1024.52 423.613 1024.53 423.613C1024.81 423.602 1025.03 423.366 1025.01 423.086C1025.01 423.009 1025.01 422.931 1025.01 422.853C1025.01 422.573 1024.78 422.346 1024.5 422.346C1024.22 422.346 1024 422.573 1024 422.853C1024 422.945 1024 423.036 1024 423.127C1024.01 423.4 1024.24 423.614 1024.51 423.614ZM1038.19 432.45C1038.19 432.45 1038.2 432.45 1038.2 432.45C1038.37 432.447 1038.55 432.442 1038.72 432.434C1039 432.42 1039.22 432.183 1039.21 431.903C1039.19 431.624 1038.96 431.407 1038.68 431.421C1038.51 431.428 1038.35 431.434 1038.18 431.436C1037.9 431.44 1037.68 431.671 1037.68 431.951C1037.69 432.228 1037.91 432.45 1038.19 432.45ZM1036.41 432.393C1036.67 432.393 1036.89 432.191 1036.91 431.925C1036.93 431.646 1036.72 431.402 1036.44 431.381C1036.28 431.368 1036.11 431.353 1035.95 431.336C1035.67 431.308 1035.42 431.51 1035.39 431.788C1035.36 432.067 1035.57 432.316 1035.84 432.345C1036.02 432.363 1036.19 432.378 1036.37 432.392C1036.38 432.393 1036.39 432.393 1036.41 432.393ZM1040.47 432.249C1040.5 432.249 1040.53 432.246 1040.56 432.242C1040.73 432.213 1040.91 432.182 1041.08 432.148C1041.35 432.093 1041.53 431.826 1041.47 431.552C1041.42 431.277 1041.15 431.099 1040.88 431.153C1040.72 431.185 1040.56 431.215 1040.39 431.241C1040.12 431.286 1039.93 431.547 1039.98 431.823C1040.02 432.072 1040.23 432.249 1040.47 432.249ZM1034.13 432.082C1034.37 432.082 1034.58 431.915 1034.63 431.674C1034.68 431.399 1034.51 431.132 1034.23 431.078C1034.07 431.045 1033.91 431.01 1033.75 430.974C1033.47 430.911 1033.2 431.082 1033.14 431.355C1033.08 431.628 1033.25 431.9 1033.52 431.962C1033.69 432.001 1033.86 432.037 1034.03 432.072C1034.07 432.079 1034.1 432.082 1034.13 432.082ZM1042.7 431.701C1042.76 431.701 1042.81 431.692 1042.86 431.675C1043.03 431.618 1043.2 431.559 1043.36 431.497C1043.63 431.397 1043.76 431.105 1043.66 430.843C1043.56 430.581 1043.27 430.449 1043 430.548C1042.85 430.606 1042.7 430.661 1042.54 430.713C1042.28 430.802 1042.13 431.09 1042.22 431.355C1042.29 431.567 1042.49 431.701 1042.7 431.701ZM1031.91 431.489C1032.13 431.489 1032.32 431.356 1032.39 431.145C1032.48 430.88 1032.34 430.592 1032.08 430.502C1031.92 430.449 1031.77 430.393 1031.61 430.336C1031.35 430.238 1031.06 430.37 1030.96 430.633C1030.86 430.895 1030.99 431.187 1031.26 431.285C1031.42 431.346 1031.58 431.405 1031.75 431.462C1031.81 431.48 1031.86 431.489 1031.91 431.489ZM1044.8 430.778C1044.89 430.778 1044.97 430.757 1045.05 430.713C1045.21 430.625 1045.36 430.533 1045.51 430.44C1045.75 430.291 1045.82 429.978 1045.67 429.741C1045.52 429.504 1045.21 429.432 1044.97 429.581C1044.84 429.665 1044.7 429.749 1044.55 429.829C1044.31 429.966 1044.22 430.275 1044.36 430.519C1044.45 430.684 1044.63 430.778 1044.8 430.778ZM1029.8 430.596C1029.98 430.596 1030.16 430.495 1030.25 430.321C1030.38 430.072 1030.28 429.766 1030.03 429.638C1029.89 429.562 1029.74 429.484 1029.6 429.405C1029.36 429.267 1029.05 429.354 1028.91 429.598C1028.77 429.842 1028.86 430.151 1029.1 430.288C1029.26 430.374 1029.41 430.458 1029.57 430.539C1029.64 430.577 1029.72 430.596 1029.8 430.596ZM1046.66 429.435C1046.78 429.435 1046.91 429.389 1047 429.298C1047.14 429.173 1047.27 429.044 1047.39 428.915C1047.58 428.711 1047.57 428.39 1047.37 428.198C1047.16 428.006 1046.84 428.017 1046.65 428.22C1046.54 428.334 1046.43 428.448 1046.31 428.558C1046.11 428.749 1046.1 429.07 1046.29 429.274C1046.39 429.381 1046.52 429.435 1046.66 429.435ZM1027.86 429.373C1028.01 429.373 1028.16 429.305 1028.26 429.175C1028.43 428.953 1028.39 428.635 1028.17 428.464C1028.04 428.364 1027.91 428.262 1027.79 428.159C1027.58 427.979 1027.26 428.006 1027.08 428.221C1026.89 428.435 1026.92 428.755 1027.14 428.935C1027.27 429.047 1027.41 429.16 1027.55 429.269C1027.64 429.339 1027.75 429.373 1027.86 429.373ZM1026.2 427.791C1026.32 427.791 1026.43 427.753 1026.53 427.675C1026.74 427.497 1026.77 427.177 1026.59 426.962C1026.49 426.837 1026.39 426.71 1026.3 426.583C1026.13 426.357 1025.82 426.308 1025.59 426.473C1025.36 426.638 1025.32 426.956 1025.48 427.181C1025.59 427.324 1025.7 427.467 1025.81 427.607C1025.91 427.729 1026.06 427.791 1026.2 427.791ZM1048.06 427.633C1048.24 427.633 1048.42 427.535 1048.51 427.363C1048.6 427.199 1048.68 427.03 1048.75 426.861C1048.86 426.603 1048.74 426.306 1048.48 426.198C1048.22 426.089 1047.92 426.211 1047.81 426.469C1047.75 426.609 1047.69 426.751 1047.61 426.888C1047.48 427.136 1047.58 427.442 1047.83 427.574C1047.9 427.614 1047.98 427.633 1048.06 427.633ZM1025.01 425.842C1025.07 425.842 1025.14 425.829 1025.2 425.802C1025.46 425.694 1025.58 425.397 1025.48 425.139C1025.42 424.994 1025.36 424.845 1025.31 424.697C1025.22 424.432 1024.94 424.288 1024.67 424.376C1024.4 424.464 1024.26 424.751 1024.35 425.017C1024.41 425.189 1024.47 425.361 1024.54 425.53C1024.62 425.724 1024.81 425.842 1025.01 425.842ZM1044.93 412.166C1044.93 412.166 1044.94 412.166 1044.94 412.166C1045.02 412.165 1045.1 412.165 1045.19 412.165C1045.47 412.165 1045.69 411.938 1045.69 411.658C1045.69 411.378 1045.47 411.151 1045.19 411.151C1045.1 411.151 1045.01 411.152 1044.93 411.153C1044.65 411.156 1044.42 411.386 1044.43 411.666C1044.43 411.944 1044.66 412.166 1044.93 412.166ZM1040.45 428.399C1040.7 428.399 1040.92 428.213 1040.96 427.957C1040.99 427.68 1040.8 427.425 1040.52 427.389C1040.36 427.368 1040.19 427.344 1040.03 427.317C1039.75 427.272 1039.49 427.459 1039.45 427.735C1039.4 428.011 1039.59 428.272 1039.87 428.318C1040.04 428.346 1040.21 428.372 1040.39 428.395C1040.41 428.398 1040.43 428.399 1040.45 428.399ZM1038.21 427.928C1038.43 427.928 1038.63 427.785 1038.69 427.564C1038.77 427.296 1038.62 427.014 1038.35 426.935C1038.19 426.888 1038.04 426.839 1037.88 426.787C1037.62 426.698 1037.33 426.841 1037.24 427.106C1037.15 427.371 1037.29 427.659 1037.56 427.748C1037.73 427.804 1037.9 427.857 1038.06 427.907C1038.11 427.921 1038.16 427.928 1038.21 427.928ZM1036.07 427.089C1036.26 427.089 1036.44 426.987 1036.53 426.81C1036.65 426.56 1036.55 426.255 1036.3 426.129C1036.16 426.056 1036.01 425.979 1035.87 425.9C1035.63 425.762 1035.32 425.849 1035.18 426.093C1035.04 426.337 1035.13 426.646 1035.37 426.783C1035.53 426.87 1035.69 426.954 1035.85 427.035C1035.92 427.071 1036 427.089 1036.07 427.089ZM1034.15 425.841C1034.3 425.841 1034.44 425.779 1034.54 425.658C1034.72 425.443 1034.69 425.124 1034.48 424.944C1034.35 424.841 1034.23 424.734 1034.12 424.627C1033.91 424.435 1033.59 424.445 1033.4 424.649C1033.21 424.853 1033.22 425.174 1033.42 425.366C1033.55 425.487 1033.69 425.608 1033.83 425.724C1033.92 425.802 1034.04 425.841 1034.15 425.841ZM1032.63 424.138C1032.72 424.138 1032.81 424.113 1032.9 424.058C1033.13 423.908 1033.2 423.594 1033.05 423.358C1032.97 423.226 1032.89 423.09 1032.82 422.955C1032.69 422.707 1032.38 422.612 1032.13 422.742C1031.89 422.872 1031.79 423.179 1031.92 423.427C1032.01 423.587 1032.1 423.748 1032.2 423.904C1032.3 424.056 1032.46 424.138 1032.63 424.138ZM1031.81 422.013C1031.83 422.013 1031.86 422.011 1031.88 422.007C1032.16 421.965 1032.35 421.706 1032.31 421.43C1032.28 421.279 1032.27 421.125 1032.26 420.973C1032.25 420.694 1032.01 420.479 1031.73 420.492C1031.45 420.506 1031.24 420.744 1031.25 421.024C1031.26 421.21 1031.28 421.398 1031.31 421.583C1031.34 421.833 1031.56 422.013 1031.81 422.013ZM1031.94 419.737C1032.16 419.737 1032.37 419.583 1032.43 419.352C1032.47 419.201 1032.51 419.049 1032.56 418.9C1032.65 418.635 1032.5 418.348 1032.24 418.259C1031.97 418.17 1031.69 418.314 1031.6 418.58C1031.54 418.753 1031.49 418.93 1031.44 419.107C1031.38 419.379 1031.54 419.654 1031.81 419.721C1031.85 419.732 1031.9 419.737 1031.94 419.737ZM1032.85 417.643C1033.02 417.643 1033.18 417.561 1033.28 417.41C1033.36 417.278 1033.45 417.145 1033.55 417.016C1033.72 416.79 1033.67 416.473 1033.44 416.307C1033.21 416.141 1032.9 416.19 1032.73 416.416C1032.62 416.563 1032.52 416.713 1032.43 416.863C1032.27 417.099 1032.34 417.412 1032.58 417.563C1032.66 417.618 1032.76 417.643 1032.85 417.643ZM1034.33 415.896C1034.46 415.896 1034.58 415.852 1034.68 415.761C1034.79 415.653 1034.92 415.545 1035.04 415.44C1035.26 415.26 1035.28 414.94 1035.1 414.726C1034.92 414.512 1034.6 414.484 1034.39 414.664C1034.25 414.779 1034.12 414.898 1033.99 415.017C1033.78 415.208 1033.77 415.528 1033.96 415.734C1034.06 415.842 1034.2 415.896 1034.33 415.896ZM1036.17 414.519C1036.26 414.519 1036.35 414.495 1036.43 414.444C1036.57 414.36 1036.71 414.276 1036.85 414.195C1037.1 414.058 1037.18 413.749 1037.05 413.505C1036.91 413.261 1036.6 413.174 1036.36 413.312C1036.2 413.399 1036.05 413.489 1035.9 413.58C1035.66 413.726 1035.59 414.038 1035.73 414.277C1035.83 414.433 1035.99 414.519 1036.17 414.519ZM1038.21 413.484C1038.28 413.484 1038.34 413.472 1038.4 413.446C1038.56 413.384 1038.71 413.323 1038.86 413.265C1039.13 413.167 1039.26 412.875 1039.16 412.613C1039.06 412.35 1038.77 412.217 1038.51 412.316C1038.34 412.378 1038.18 412.442 1038.02 412.508C1037.76 412.615 1037.64 412.911 1037.74 413.17C1037.82 413.366 1038.01 413.484 1038.21 413.484ZM1040.39 412.761C1040.43 412.761 1040.47 412.756 1040.52 412.745C1040.68 412.704 1040.84 412.665 1041 412.628C1041.27 412.566 1041.44 412.294 1041.38 412.021C1041.32 411.748 1041.05 411.577 1040.77 411.64C1040.6 411.679 1040.43 411.72 1040.26 411.764C1039.99 411.834 1039.83 412.11 1039.9 412.381C1039.96 412.61 1040.16 412.761 1040.39 412.761ZM1042.64 412.328C1042.66 412.328 1042.69 412.326 1042.71 412.323C1042.87 412.302 1043.04 412.283 1043.2 412.266C1043.48 412.237 1043.68 411.988 1043.65 411.71C1043.63 411.431 1043.38 411.229 1043.1 411.258C1042.92 411.276 1042.75 411.296 1042.58 411.318C1042.3 411.354 1042.1 411.608 1042.14 411.886C1042.17 412.141 1042.39 412.328 1042.64 412.328ZM1061.73 426.159C1062.01 426.159 1062.24 425.932 1062.24 425.652C1062.24 425.56 1062.24 425.469 1062.23 425.378C1062.22 425.098 1061.99 424.882 1061.71 424.892C1061.43 424.904 1061.21 425.14 1061.22 425.42C1061.22 425.497 1061.23 425.574 1061.23 425.652C1061.23 425.932 1061.45 426.159 1061.73 426.159ZM1061.4 424.155C1061.46 424.155 1061.51 424.147 1061.57 424.129C1061.83 424.041 1061.97 423.754 1061.89 423.488C1061.83 423.316 1061.76 423.144 1061.69 422.975C1061.59 422.717 1061.29 422.595 1061.03 422.703C1060.77 422.811 1060.65 423.108 1060.76 423.366C1060.82 423.512 1060.87 423.66 1060.92 423.808C1060.99 424.021 1061.19 424.155 1061.4 424.155ZM1037.95 422.347C1038.15 422.347 1038.34 422.23 1038.42 422.037C1038.48 421.896 1038.55 421.755 1038.62 421.617C1038.75 421.37 1038.66 421.063 1038.41 420.932C1038.16 420.801 1037.86 420.895 1037.72 421.142C1037.64 421.307 1037.56 421.475 1037.49 421.644C1037.38 421.902 1037.5 422.199 1037.76 422.308C1037.82 422.334 1037.89 422.347 1037.95 422.347ZM1060.34 422.13C1060.45 422.13 1060.55 422.098 1060.64 422.032C1060.87 421.867 1060.92 421.55 1060.75 421.324C1060.65 421.18 1060.54 421.037 1060.42 420.898C1060.24 420.682 1059.92 420.652 1059.71 420.83C1059.49 421.008 1059.46 421.328 1059.64 421.544C1059.74 421.668 1059.84 421.795 1059.94 421.923C1060.03 422.058 1060.19 422.13 1060.34 422.13ZM1058.77 420.465C1058.92 420.465 1059.06 420.404 1059.16 420.285C1059.34 420.07 1059.31 419.75 1059.1 419.57C1058.96 419.458 1058.82 419.346 1058.68 419.237C1058.46 419.066 1058.14 419.108 1057.97 419.33C1057.8 419.552 1057.84 419.87 1058.07 420.041C1058.2 420.141 1058.32 420.244 1058.45 420.346C1058.54 420.426 1058.66 420.465 1058.77 420.465ZM1039.22 420.444C1039.35 420.444 1039.49 420.391 1039.59 420.285C1039.69 420.171 1039.81 420.057 1039.92 419.947C1040.13 419.756 1040.14 419.435 1039.95 419.231C1039.76 419.026 1039.43 419.016 1039.23 419.207C1039.1 419.332 1038.97 419.461 1038.85 419.59C1038.65 419.794 1038.66 420.115 1038.87 420.307C1038.97 420.399 1039.09 420.444 1039.22 420.444ZM1056.88 419.166C1057.06 419.166 1057.23 419.073 1057.32 418.907C1057.46 418.663 1057.38 418.354 1057.13 418.217C1056.98 418.132 1056.82 418.047 1056.67 417.966C1056.42 417.838 1056.11 417.935 1055.98 418.184C1055.85 418.433 1055.95 418.739 1056.2 418.867C1056.35 418.943 1056.49 419.021 1056.63 419.1C1056.71 419.145 1056.8 419.166 1056.88 419.166ZM1040.99 419.002C1041.09 419.002 1041.18 418.977 1041.26 418.925C1041.4 418.84 1041.54 418.756 1041.68 418.677C1041.93 418.54 1042.01 418.231 1041.87 417.986C1041.74 417.742 1041.43 417.656 1041.18 417.793C1041.03 417.88 1040.87 417.972 1040.72 418.065C1040.49 418.214 1040.42 418.527 1040.56 418.764C1040.66 418.918 1040.83 419.002 1040.99 419.002ZM1054.8 418.202C1055.01 418.202 1055.2 418.076 1055.28 417.873C1055.37 417.611 1055.24 417.318 1054.98 417.22C1054.82 417.159 1054.65 417.1 1054.48 417.043C1054.22 416.953 1053.93 417.095 1053.84 417.36C1053.75 417.625 1053.89 417.913 1054.16 418.003C1054.31 418.056 1054.47 418.112 1054.62 418.169C1054.68 418.191 1054.74 418.202 1054.8 418.202ZM1043.05 417.99C1043.11 417.99 1043.17 417.979 1043.23 417.957C1043.38 417.899 1043.54 417.844 1043.69 417.792C1043.96 417.703 1044.1 417.416 1044.01 417.15C1043.92 416.885 1043.64 416.742 1043.37 416.831C1043.2 416.887 1043.04 416.947 1042.87 417.009C1042.61 417.108 1042.48 417.401 1042.58 417.662C1042.65 417.865 1042.85 417.99 1043.05 417.99ZM1052.6 417.544C1052.83 417.544 1053.04 417.385 1053.1 417.15C1053.16 416.877 1052.99 416.605 1052.72 416.543C1052.55 416.504 1052.37 416.467 1052.2 416.433C1051.93 416.378 1051.66 416.557 1051.61 416.831C1051.55 417.106 1051.73 417.373 1052 417.427C1052.17 417.46 1052.33 417.495 1052.49 417.531C1052.53 417.54 1052.57 417.544 1052.6 417.544ZM1045.26 417.362C1045.29 417.362 1045.32 417.358 1045.36 417.352C1045.52 417.32 1045.68 417.29 1045.84 417.264C1046.12 417.219 1046.3 416.958 1046.26 416.682C1046.21 416.405 1045.95 416.217 1045.68 416.263C1045.5 416.292 1045.33 416.323 1045.16 416.357C1044.88 416.412 1044.71 416.679 1044.76 416.953C1044.81 417.195 1045.02 417.362 1045.26 417.362ZM1050.34 417.171C1050.59 417.171 1050.82 416.977 1050.84 416.717C1050.87 416.438 1050.67 416.189 1050.39 416.16C1050.22 416.142 1050.04 416.127 1049.87 416.113C1049.59 416.093 1049.35 416.301 1049.32 416.58C1049.3 416.859 1049.51 417.103 1049.79 417.124C1049.96 417.137 1050.12 417.152 1050.29 417.169C1050.3 417.17 1050.32 417.171 1050.34 417.171ZM1047.53 417.085C1047.54 417.085 1047.55 417.085 1047.56 417.084C1047.72 417.077 1047.89 417.071 1048.05 417.069C1048.33 417.065 1048.56 416.834 1048.55 416.554C1048.55 416.274 1048.31 416.052 1048.04 416.055C1047.86 416.058 1047.69 416.063 1047.51 416.072C1047.23 416.085 1047.02 416.322 1047.03 416.602C1047.04 416.873 1047.27 417.085 1047.53 417.085ZM1041.05 437.354C1041.14 437.354 1041.22 437.354 1041.31 437.353C1041.59 437.349 1041.81 437.119 1041.81 436.839C1041.81 436.561 1041.58 436.339 1041.3 436.339C1041.3 436.339 1041.3 436.339 1041.3 436.339C1041.21 436.34 1041.13 436.341 1041.05 436.341C1040.77 436.341 1040.54 436.568 1040.54 436.847C1040.54 437.127 1040.77 437.354 1041.05 437.354ZM1043.08 437.251C1043.1 437.251 1043.12 437.25 1043.14 437.248C1043.31 437.23 1043.49 437.21 1043.66 437.188C1043.94 437.152 1044.13 436.897 1044.1 436.62C1044.06 436.342 1043.8 436.147 1043.53 436.182C1043.36 436.203 1043.2 436.223 1043.03 436.24C1042.75 436.268 1042.55 436.517 1042.58 436.796C1042.61 437.057 1042.83 437.251 1043.08 437.251ZM1045.35 436.879C1045.39 436.879 1045.43 436.875 1045.46 436.866C1045.63 436.827 1045.8 436.786 1045.97 436.742C1046.24 436.672 1046.41 436.396 1046.34 436.124C1046.27 435.853 1045.99 435.69 1045.72 435.76C1045.56 435.802 1045.4 435.841 1045.24 435.878C1044.96 435.94 1044.79 436.212 1044.86 436.485C1044.91 436.72 1045.12 436.879 1045.35 436.879ZM1047.55 436.222C1047.61 436.222 1047.67 436.212 1047.73 436.19C1047.89 436.128 1048.06 436.064 1048.22 435.998C1048.48 435.891 1048.6 435.595 1048.49 435.336C1048.39 435.077 1048.09 434.953 1047.83 435.06C1047.68 435.122 1047.53 435.182 1047.37 435.24C1047.11 435.339 1046.98 435.631 1047.07 435.893C1047.15 436.097 1047.34 436.222 1047.55 436.222ZM1049.63 435.259C1049.72 435.259 1049.8 435.238 1049.88 435.194C1050.03 435.107 1050.19 435.016 1050.34 434.926C1050.57 434.779 1050.65 434.467 1050.5 434.229C1050.36 433.99 1050.04 433.915 1049.81 434.062C1049.67 434.146 1049.53 434.229 1049.38 434.31C1049.14 434.447 1049.05 434.757 1049.19 435.001C1049.28 435.166 1049.45 435.259 1049.63 435.259ZM1051.52 433.961C1051.64 433.961 1051.75 433.922 1051.85 433.842C1051.98 433.727 1052.12 433.608 1052.25 433.488C1052.45 433.298 1052.47 432.977 1052.28 432.772C1052.09 432.566 1051.76 432.554 1051.56 432.744C1051.44 432.853 1051.32 432.961 1051.19 433.065C1050.98 433.246 1050.95 433.565 1051.13 433.78C1051.23 433.899 1051.38 433.961 1051.52 433.961ZM1053.09 432.297C1053.25 432.297 1053.4 432.225 1053.5 432.089C1053.61 431.943 1053.71 431.793 1053.81 431.643C1053.96 431.407 1053.89 431.093 1053.66 430.942C1053.42 430.791 1053.11 430.86 1052.96 431.096C1052.87 431.228 1052.78 431.361 1052.69 431.49C1052.52 431.716 1052.57 432.033 1052.8 432.199C1052.89 432.265 1052.99 432.297 1053.09 432.297ZM1054.16 430.273C1054.37 430.273 1054.57 430.139 1054.64 429.926C1054.7 429.753 1054.75 429.575 1054.79 429.399C1054.86 429.127 1054.69 428.852 1054.42 428.784C1054.15 428.716 1053.88 428.882 1053.81 429.153C1053.77 429.305 1053.73 429.457 1053.68 429.605C1053.59 429.871 1053.73 430.158 1054 430.247C1054.05 430.264 1054.1 430.273 1054.16 430.273ZM1054.48 428.014C1054.49 428.014 1054.5 428.014 1054.51 428.013C1054.79 427.999 1055 427.761 1054.99 427.482C1054.98 427.296 1054.96 427.108 1054.93 426.923C1054.89 426.646 1054.63 426.456 1054.35 426.498C1054.08 426.54 1053.89 426.799 1053.93 427.076C1053.95 427.227 1053.97 427.38 1053.97 427.532C1053.99 427.803 1054.21 428.014 1054.48 428.014ZM1053.87 425.822C1053.95 425.822 1054.03 425.803 1054.1 425.764C1054.35 425.633 1054.45 425.327 1054.31 425.079C1054.23 424.918 1054.14 424.758 1054.04 424.602C1053.89 424.366 1053.57 424.296 1053.34 424.447C1053.1 424.598 1053.03 424.911 1053.18 425.147C1053.27 425.279 1053.35 425.415 1053.42 425.551C1053.51 425.724 1053.68 425.822 1053.87 425.822ZM1052.47 424.017C1052.6 424.017 1052.74 423.963 1052.84 423.857C1053.03 423.653 1053.02 423.332 1052.81 423.14C1052.68 423.019 1052.55 422.898 1052.41 422.782C1052.19 422.603 1051.87 422.632 1051.69 422.847C1051.51 423.063 1051.54 423.382 1051.76 423.561C1051.88 423.664 1052 423.771 1052.12 423.879C1052.22 423.971 1052.34 424.017 1052.47 424.017ZM1050.61 422.671C1050.79 422.671 1050.96 422.578 1051.05 422.413C1051.19 422.169 1051.1 421.86 1050.86 421.723C1050.71 421.636 1050.55 421.552 1050.39 421.471C1050.14 421.345 1049.84 421.445 1049.71 421.695C1049.58 421.945 1049.68 422.25 1049.93 422.376C1050.08 422.45 1050.22 422.527 1050.36 422.606C1050.44 422.65 1050.53 422.671 1050.61 422.671ZM1048.51 421.745C1048.73 421.745 1048.92 421.612 1048.99 421.4C1049.08 421.134 1048.94 420.847 1048.68 420.758C1048.51 420.702 1048.34 420.649 1048.17 420.599C1047.9 420.519 1047.62 420.673 1047.54 420.941C1047.46 421.21 1047.62 421.492 1047.88 421.571C1048.04 421.617 1048.2 421.667 1048.35 421.719C1048.41 421.737 1048.46 421.745 1048.51 421.745ZM1046.29 421.195C1046.53 421.195 1046.75 421.019 1046.79 420.771C1046.83 420.494 1046.65 420.233 1046.37 420.188C1046.2 420.16 1046.02 420.134 1045.85 420.111C1045.57 420.076 1045.32 420.271 1045.28 420.548C1045.24 420.826 1045.44 421.08 1045.72 421.116C1045.88 421.138 1046.04 421.162 1046.2 421.188C1046.23 421.193 1046.26 421.195 1046.29 421.195ZM1031.21 415.009C1031.31 415.009 1031.41 414.979 1031.5 414.916C1031.57 414.869 1031.63 414.823 1031.7 414.778C1031.93 414.621 1031.99 414.306 1031.84 414.074C1031.68 413.842 1031.37 413.781 1031.13 413.937C1031.06 413.987 1030.99 414.037 1030.92 414.088C1030.69 414.249 1030.63 414.566 1030.79 414.794C1030.89 414.934 1031.05 415.009 1031.21 415.009ZM1038.21 429.832C1038.48 429.832 1038.7 429.622 1038.72 429.351C1038.73 429.072 1038.52 428.833 1038.24 428.819C1038.08 428.811 1037.91 428.8 1037.75 428.787C1037.47 428.763 1037.23 428.971 1037.2 429.25C1037.18 429.529 1037.39 429.774 1037.67 429.797C1037.84 429.811 1038.01 429.823 1038.19 429.832C1038.19 429.832 1038.2 429.832 1038.21 429.832ZM1039.97 429.824C1039.98 429.824 1039.99 429.824 1040 429.823C1040.18 429.813 1040.35 429.8 1040.52 429.784C1040.8 429.758 1041.01 429.511 1040.98 429.233C1040.95 428.954 1040.71 428.749 1040.43 428.774C1040.27 428.789 1040.1 428.802 1039.94 428.811C1039.66 428.828 1039.45 429.068 1039.47 429.348C1039.48 429.617 1039.71 429.824 1039.97 429.824ZM1035.97 429.555C1036.2 429.555 1036.41 429.388 1036.46 429.147C1036.52 428.872 1036.34 428.605 1036.07 428.55C1035.91 428.519 1035.75 428.484 1035.59 428.447C1035.32 428.383 1035.05 428.552 1034.98 428.824C1034.92 429.096 1035.09 429.37 1035.36 429.434C1035.53 429.473 1035.7 429.511 1035.87 429.545C1035.9 429.551 1035.93 429.555 1035.97 429.555ZM1042.22 429.525C1042.25 429.525 1042.29 429.522 1042.32 429.514C1042.49 429.479 1042.66 429.44 1042.83 429.398C1043.1 429.331 1043.27 429.057 1043.2 428.785C1043.13 428.513 1042.86 428.347 1042.59 428.414C1042.43 428.452 1042.27 428.489 1042.11 428.522C1041.84 428.58 1041.66 428.848 1041.72 429.122C1041.77 429.361 1041.98 429.525 1042.22 429.525ZM1033.79 428.936C1033.99 428.936 1034.19 428.811 1034.26 428.608C1034.36 428.346 1034.23 428.054 1033.97 427.955C1033.82 427.898 1033.67 427.838 1033.52 427.775C1033.26 427.666 1032.96 427.787 1032.86 428.045C1032.75 428.302 1032.87 428.6 1033.12 428.709C1033.28 428.777 1033.45 428.842 1033.61 428.904C1033.67 428.926 1033.73 428.936 1033.79 428.936ZM1044.39 428.884C1044.45 428.884 1044.51 428.872 1044.57 428.849C1044.73 428.785 1044.9 428.718 1045.05 428.649C1045.31 428.536 1045.43 428.237 1045.32 427.981C1045.2 427.724 1044.9 427.607 1044.65 427.72C1044.5 427.784 1044.35 427.846 1044.2 427.904C1043.94 428.006 1043.81 428.3 1043.91 428.561C1043.99 428.761 1044.18 428.884 1044.39 428.884ZM1031.76 427.943C1031.93 427.943 1032.09 427.858 1032.19 427.704C1032.34 427.466 1032.26 427.153 1032.03 427.005C1031.92 426.937 1031.81 426.867 1031.7 426.796L1031.62 426.743C1031.39 426.584 1031.08 426.643 1030.92 426.873C1030.76 427.104 1030.82 427.42 1031.05 427.578L1031.13 427.634C1031.25 427.714 1031.37 427.792 1031.49 427.867C1031.57 427.919 1031.67 427.943 1031.76 427.943ZM1029.97 426.562C1030.1 426.562 1030.24 426.51 1030.34 426.405C1030.53 426.202 1030.52 425.882 1030.32 425.689C1030.2 425.578 1030.09 425.464 1029.98 425.351C1029.79 425.147 1029.47 425.139 1029.26 425.331C1029.06 425.524 1029.05 425.845 1029.25 426.048C1029.36 426.174 1029.49 426.3 1029.62 426.422C1029.72 426.516 1029.84 426.562 1029.97 426.562ZM1028.54 424.816C1028.63 424.816 1028.72 424.792 1028.8 424.74C1029.04 424.593 1029.11 424.281 1028.97 424.043C1028.89 423.909 1028.81 423.772 1028.73 423.635C1028.6 423.388 1028.3 423.294 1028.05 423.425C1027.8 423.556 1027.71 423.863 1027.84 424.11C1027.92 424.267 1028.01 424.423 1028.11 424.576C1028.2 424.731 1028.37 424.816 1028.54 424.816ZM1027.66 422.738C1027.7 422.738 1027.74 422.734 1027.78 422.724C1028.05 422.659 1028.22 422.386 1028.15 422.113C1028.12 421.963 1028.09 421.81 1028.06 421.658C1028.02 421.382 1027.76 421.193 1027.48 421.237C1027.21 421.281 1027.02 421.541 1027.06 421.818C1027.09 421.995 1027.13 422.174 1027.17 422.349C1027.22 422.582 1027.43 422.738 1027.66 422.738ZM1027.53 420.49C1027.78 420.49 1028 420.302 1028.03 420.046C1028.05 419.895 1028.08 419.742 1028.11 419.591C1028.17 419.317 1027.99 419.048 1027.72 418.99C1027.44 418.933 1027.17 419.108 1027.12 419.382C1027.08 419.56 1027.05 419.741 1027.03 419.92C1026.99 420.198 1027.19 420.451 1027.47 420.486C1027.49 420.489 1027.51 420.49 1027.53 420.49ZM1028.2 418.339C1028.39 418.339 1028.56 418.238 1028.65 418.062C1028.72 417.925 1028.8 417.787 1028.88 417.652C1029.02 417.411 1028.95 417.1 1028.71 416.957C1028.47 416.813 1028.15 416.892 1028.01 417.132C1027.92 417.287 1027.83 417.445 1027.75 417.602C1027.62 417.852 1027.72 418.157 1027.97 418.284C1028.05 418.322 1028.12 418.339 1028.2 418.339ZM1029.5 416.494C1029.64 416.494 1029.78 416.439 1029.88 416.331C1029.98 416.215 1030.09 416.1 1030.21 415.988C1030.41 415.792 1030.41 415.471 1030.22 415.271C1030.02 415.071 1029.7 415.068 1029.5 415.264C1029.37 415.387 1029.25 415.515 1029.13 415.643C1028.94 415.849 1028.95 416.17 1029.16 416.36C1029.26 416.449 1029.38 416.494 1029.5 416.494ZM1057.74 416.844C1057.9 416.844 1058.06 416.765 1058.16 416.62C1058.32 416.389 1058.26 416.073 1058.03 415.917C1057.95 415.868 1057.88 415.819 1057.81 415.771C1057.57 415.619 1057.26 415.686 1057.11 415.921C1056.95 416.156 1057.02 416.47 1057.26 416.622C1057.32 416.667 1057.39 416.711 1057.46 416.757C1057.55 416.815 1057.64 416.844 1057.74 416.844ZM1037.17 425.786C1037.29 425.786 1037.41 425.743 1037.51 425.655C1037.72 425.466 1037.73 425.146 1037.55 424.938C1037.44 424.819 1037.33 424.695 1037.24 424.571C1037.06 424.351 1036.75 424.312 1036.53 424.485C1036.3 424.657 1036.27 424.976 1036.44 425.196C1036.55 425.34 1036.67 425.482 1036.8 425.62C1036.9 425.73 1037.03 425.786 1037.17 425.786ZM1035.94 423.827C1036 423.827 1036.06 423.816 1036.12 423.793C1036.38 423.693 1036.51 423.399 1036.41 423.138C1036.36 422.992 1036.31 422.842 1036.27 422.694C1036.19 422.424 1035.91 422.266 1035.64 422.341C1035.37 422.416 1035.21 422.695 1035.29 422.965C1035.34 423.145 1035.4 423.326 1035.47 423.502C1035.54 423.704 1035.74 423.827 1035.94 423.827ZM1035.61 421.544C1035.87 421.544 1036.09 421.346 1036.12 421.082C1036.13 420.929 1036.15 420.774 1036.18 420.622C1036.23 420.347 1036.05 420.081 1035.78 420.027C1035.51 419.974 1035.24 420.153 1035.19 420.428C1035.15 420.614 1035.12 420.804 1035.11 420.992C1035.08 421.271 1035.29 421.517 1035.57 421.542C1035.58 421.543 1035.6 421.544 1035.61 421.544ZM1036.32 419.347C1036.5 419.347 1036.67 419.255 1036.76 419.092C1036.84 418.957 1036.92 418.822 1037.01 418.69C1037.17 418.46 1037.12 418.144 1036.88 417.985C1036.65 417.826 1036.34 417.884 1036.18 418.115C1036.07 418.27 1035.97 418.429 1035.88 418.587C1035.74 418.83 1035.83 419.14 1036.07 419.279C1036.15 419.325 1036.23 419.347 1036.32 419.347ZM1037.8 417.566C1037.92 417.566 1038.04 417.524 1038.14 417.439C1038.26 417.334 1038.38 417.229 1038.51 417.128C1038.73 416.955 1038.77 416.636 1038.6 416.416C1038.43 416.195 1038.11 416.157 1037.89 416.329C1037.74 416.443 1037.6 416.56 1037.47 416.679C1037.26 416.864 1037.24 417.184 1037.42 417.394C1037.52 417.508 1037.66 417.566 1037.8 417.566ZM1039.71 416.245C1039.8 416.245 1039.88 416.224 1039.96 416.181C1040.1 416.101 1040.25 416.022 1040.4 415.946C1040.65 415.819 1040.75 415.514 1040.62 415.264C1040.5 415.015 1040.19 414.916 1039.94 415.043C1039.78 415.124 1039.62 415.209 1039.47 415.295C1039.22 415.431 1039.14 415.74 1039.27 415.984C1039.36 416.151 1039.54 416.245 1039.71 416.245ZM1055.95 415.824C1056.14 415.824 1056.32 415.717 1056.41 415.535C1056.53 415.282 1056.42 414.979 1056.17 414.859C1056.01 414.783 1055.84 414.709 1055.68 414.638C1055.42 414.527 1055.13 414.645 1055.01 414.902C1054.9 415.158 1055.02 415.457 1055.28 415.568C1055.43 415.634 1055.58 415.704 1055.73 415.775C1055.8 415.808 1055.88 415.824 1055.95 415.824ZM1041.83 415.279C1041.89 415.279 1041.95 415.269 1042 415.248C1042.16 415.19 1042.32 415.135 1042.48 415.083C1042.74 414.994 1042.89 414.707 1042.8 414.442C1042.71 414.176 1042.42 414.032 1042.16 414.12C1041.99 414.177 1041.82 414.236 1041.65 414.296C1041.39 414.393 1041.26 414.684 1041.35 414.947C1041.43 415.152 1041.62 415.279 1041.83 415.279ZM1053.78 414.987C1054 414.987 1054.2 414.846 1054.27 414.628C1054.35 414.36 1054.2 414.077 1053.93 413.995C1053.76 413.943 1053.59 413.894 1053.42 413.847C1053.15 413.773 1052.87 413.932 1052.8 414.202C1052.72 414.472 1052.88 414.751 1053.15 414.825C1053.31 414.869 1053.47 414.916 1053.63 414.964C1053.68 414.979 1053.73 414.987 1053.78 414.987ZM1044.06 414.629C1044.1 414.629 1044.14 414.625 1044.17 414.617C1044.34 414.581 1044.5 414.547 1044.67 414.515C1044.94 414.463 1045.12 414.197 1045.07 413.922C1045.02 413.647 1044.75 413.467 1044.48 413.52C1044.3 413.553 1044.13 413.589 1043.95 413.627C1043.68 413.687 1043.51 413.958 1043.57 414.231C1043.62 414.468 1043.83 414.629 1044.06 414.629ZM1051.52 414.453C1051.76 414.453 1051.98 414.279 1052.02 414.031C1052.06 413.755 1051.88 413.493 1051.6 413.447C1051.43 413.417 1051.25 413.39 1051.08 413.365C1050.8 413.326 1050.54 413.519 1050.5 413.796C1050.47 414.073 1050.66 414.33 1050.94 414.369C1051.1 414.392 1051.27 414.418 1051.43 414.446C1051.46 414.451 1051.49 414.453 1051.52 414.453ZM1046.36 414.269C1046.38 414.269 1046.39 414.268 1046.41 414.267C1046.58 414.251 1046.75 414.237 1046.91 414.226C1047.19 414.207 1047.4 413.965 1047.38 413.685C1047.36 413.406 1047.12 413.195 1046.84 413.214C1046.67 413.226 1046.49 413.241 1046.31 413.258C1046.04 413.284 1045.83 413.531 1045.86 413.81C1045.88 414.072 1046.1 414.269 1046.36 414.269ZM1049.21 414.204C1049.47 414.204 1049.7 413.992 1049.71 413.721C1049.72 413.442 1049.51 413.204 1049.23 413.19C1049.05 413.182 1048.88 413.176 1048.7 413.171C1048.42 413.166 1048.19 413.387 1048.18 413.667C1048.17 413.947 1048.4 414.179 1048.68 414.185C1048.84 414.189 1049.01 414.195 1049.18 414.203C1049.19 414.203 1049.2 414.204 1049.21 414.204ZM1054.82 434.655C1054.92 434.655 1055.01 434.627 1055.1 434.568C1055.17 434.519 1055.25 434.469 1055.32 434.418C1055.55 434.257 1055.6 433.94 1055.44 433.712C1055.28 433.483 1054.96 433.428 1054.73 433.59C1054.67 433.636 1054.6 433.683 1054.53 433.728C1054.3 433.885 1054.24 434.2 1054.4 434.432C1054.5 434.577 1054.66 434.655 1054.82 434.655ZM1056.38 433.387C1056.51 433.387 1056.64 433.339 1056.74 433.242C1056.86 433.118 1056.99 432.99 1057.11 432.862C1057.29 432.656 1057.28 432.335 1057.08 432.146C1056.87 431.956 1056.55 431.97 1056.36 432.176C1056.25 432.291 1056.14 432.406 1056.03 432.518C1055.83 432.714 1055.82 433.035 1056.02 433.235C1056.12 433.336 1056.25 433.387 1056.38 433.387ZM1057.79 431.619C1057.96 431.619 1058.13 431.53 1058.22 431.37C1058.31 431.216 1058.4 431.057 1058.48 430.899C1058.61 430.649 1058.51 430.344 1058.26 430.218C1058.01 430.092 1057.7 430.192 1057.58 430.442C1057.51 430.58 1057.43 430.718 1057.35 430.853C1057.21 431.094 1057.29 431.405 1057.53 431.548C1057.61 431.596 1057.7 431.619 1057.79 431.619ZM1058.62 429.522C1058.85 429.522 1059.06 429.359 1059.11 429.12C1059.15 428.943 1059.18 428.763 1059.2 428.585C1059.24 428.307 1059.04 428.053 1058.77 428.016C1058.49 427.981 1058.23 428.176 1058.2 428.454C1058.18 428.605 1058.15 428.759 1058.12 428.91C1058.06 429.184 1058.24 429.453 1058.51 429.511C1058.55 429.519 1058.58 429.522 1058.62 429.522ZM1058.68 427.271C1058.71 427.271 1058.73 427.269 1058.76 427.265C1059.03 427.222 1059.22 426.963 1059.18 426.686C1059.15 426.509 1059.12 426.33 1059.08 426.153C1059.01 425.881 1058.74 425.713 1058.47 425.777C1058.19 425.842 1058.03 426.115 1058.09 426.387C1058.13 426.538 1058.16 426.69 1058.18 426.842C1058.22 427.092 1058.43 427.271 1058.68 427.271ZM1057.96 425.136C1058.04 425.136 1058.12 425.117 1058.2 425.076C1058.44 424.945 1058.54 424.638 1058.4 424.391C1058.32 424.235 1058.23 424.078 1058.14 423.926C1057.99 423.688 1057.68 423.615 1057.44 423.763C1057.2 423.911 1057.13 424.223 1057.28 424.461C1057.36 424.594 1057.44 424.731 1057.51 424.868C1057.6 425.039 1057.78 425.136 1057.96 425.136ZM1056.63 423.313C1056.75 423.313 1056.88 423.267 1056.98 423.173C1057.18 422.98 1057.19 422.659 1056.99 422.457C1056.87 422.33 1056.75 422.204 1056.62 422.083C1056.42 421.89 1056.09 421.898 1055.9 422.102C1055.71 422.305 1055.72 422.626 1055.92 422.818C1056.04 422.928 1056.15 423.041 1056.26 423.155C1056.36 423.26 1056.49 423.313 1056.63 423.313ZM1054.9 421.854C1055.06 421.854 1055.22 421.777 1055.32 421.634C1055.48 421.404 1055.42 421.088 1055.19 420.929L1055.1 420.87C1054.99 420.792 1054.87 420.715 1054.75 420.64C1054.51 420.493 1054.2 420.566 1054.05 420.803C1053.9 421.041 1053.97 421.354 1054.21 421.502C1054.32 421.569 1054.61 421.764 1054.61 421.764C1054.7 421.825 1054.8 421.854 1054.9 421.854ZM1041.39 420.828C1041.45 420.828 1041.52 420.814 1041.59 420.785C1041.74 420.721 1041.89 420.659 1042.04 420.601C1042.3 420.499 1042.43 420.205 1042.32 419.944C1042.22 419.683 1041.93 419.555 1041.67 419.656C1041.5 419.72 1041.34 419.787 1041.18 419.856C1040.93 419.969 1040.81 420.268 1040.92 420.524C1041.01 420.714 1041.19 420.828 1041.39 420.828ZM1052.91 420.771C1053.11 420.771 1053.3 420.655 1053.38 420.462C1053.49 420.204 1053.37 419.907 1053.11 419.798C1052.95 419.731 1052.79 419.665 1052.63 419.603C1052.37 419.504 1052.07 419.636 1051.97 419.898C1051.87 420.16 1052.01 420.453 1052.27 420.552C1052.42 420.609 1052.57 420.669 1052.72 420.731C1052.78 420.759 1052.85 420.771 1052.91 420.771ZM1043.53 420.106C1043.57 420.106 1043.61 420.101 1043.65 420.091C1043.81 420.053 1043.97 420.017 1044.13 419.983C1044.4 419.926 1044.58 419.657 1044.52 419.383C1044.46 419.109 1044.19 418.934 1043.92 418.991C1043.75 419.027 1043.58 419.066 1043.41 419.107C1043.14 419.174 1042.97 419.449 1043.04 419.72C1043.1 419.951 1043.3 420.106 1043.53 420.106ZM1050.76 420.073C1050.99 420.073 1051.2 419.916 1051.26 419.682C1051.32 419.41 1051.15 419.137 1050.88 419.073C1050.71 419.033 1050.54 418.996 1050.37 418.962C1050.1 418.907 1049.83 419.085 1049.77 419.359C1049.72 419.634 1049.9 419.901 1050.17 419.956C1050.33 419.988 1050.49 420.023 1050.65 420.059C1050.69 420.068 1050.73 420.073 1050.76 420.073ZM1045.76 419.733C1045.78 419.733 1045.79 419.733 1045.81 419.731C1045.97 419.716 1046.13 419.704 1046.3 419.694C1046.57 419.678 1046.79 419.438 1046.77 419.158C1046.75 418.879 1046.51 418.667 1046.23 418.682C1046.06 418.693 1045.89 418.706 1045.72 418.722C1045.44 418.747 1045.23 418.994 1045.26 419.273C1045.28 419.536 1045.5 419.733 1045.76 419.733ZM1048.53 419.721C1048.79 419.721 1049.01 419.521 1049.03 419.256C1049.06 418.977 1048.85 418.732 1048.57 418.709C1048.4 418.695 1048.22 418.683 1048.05 418.674C1047.77 418.659 1047.53 418.875 1047.52 419.155C1047.51 419.435 1047.72 419.673 1048 419.687C1048.16 419.695 1048.32 419.706 1048.49 419.719C1048.5 419.721 1048.51 419.721 1048.53 419.721ZM1028.7 432.816C1028.87 432.816 1029.03 432.734 1029.13 432.585C1029.28 432.35 1029.21 432.036 1028.98 431.883C1028.91 431.839 1028.84 431.795 1028.78 431.75C1028.54 431.593 1028.23 431.653 1028.07 431.885C1027.92 432.117 1027.98 432.432 1028.21 432.589C1028.28 432.638 1028.35 432.687 1028.43 432.734C1028.51 432.79 1028.61 432.816 1028.7 432.816ZM1037.55 435.333C1037.82 435.333 1038.05 435.114 1038.06 434.838C1038.06 434.558 1037.84 434.326 1037.56 434.319C1037.39 434.315 1037.22 434.309 1037.06 434.301C1036.78 434.286 1036.54 434.502 1036.53 434.782C1036.51 435.061 1036.73 435.299 1037.01 435.313C1037.18 435.322 1037.36 435.329 1037.54 435.333C1037.54 435.333 1037.54 435.333 1037.55 435.333ZM1039.36 435.295C1039.37 435.295 1039.38 435.294 1039.39 435.294C1039.57 435.282 1039.75 435.268 1039.92 435.251C1040.2 435.225 1040.4 434.977 1040.38 434.698C1040.35 434.42 1040.1 434.216 1039.83 434.241C1039.66 434.257 1039.49 434.271 1039.32 434.282C1039.04 434.301 1038.83 434.542 1038.85 434.822C1038.87 435.09 1039.09 435.295 1039.36 435.295ZM1035.23 435.143C1035.48 435.143 1035.7 434.96 1035.73 434.707C1035.77 434.429 1035.58 434.173 1035.3 434.134C1035.13 434.11 1034.97 434.084 1034.8 434.056C1034.53 434.01 1034.27 434.196 1034.22 434.472C1034.17 434.748 1034.36 435.009 1034.63 435.056C1034.81 435.085 1034.98 435.113 1035.16 435.137C1035.18 435.141 1035.21 435.143 1035.23 435.143ZM1041.67 434.999C1041.7 434.999 1041.73 434.996 1041.76 434.989C1041.94 434.956 1042.11 434.92 1042.28 434.882C1042.56 434.821 1042.73 434.551 1042.67 434.277C1042.61 434.004 1042.34 433.832 1042.06 433.892C1041.9 433.928 1041.74 433.962 1041.57 433.994C1041.3 434.046 1041.12 434.312 1041.17 434.587C1041.21 434.83 1041.43 434.999 1041.67 434.999ZM1032.95 434.675C1033.17 434.675 1033.38 434.527 1033.44 434.302C1033.51 434.032 1033.35 433.753 1033.08 433.679C1032.92 433.635 1032.76 433.589 1032.6 433.54C1032.33 433.458 1032.05 433.609 1031.97 433.877C1031.89 434.145 1032.04 434.428 1032.31 434.51C1032.48 434.561 1032.65 434.611 1032.82 434.657C1032.86 434.669 1032.91 434.675 1032.95 434.675ZM1043.92 434.413C1043.97 434.413 1044.02 434.405 1044.08 434.387C1044.25 434.331 1044.42 434.272 1044.58 434.211C1044.84 434.114 1044.98 433.822 1044.88 433.56C1044.78 433.297 1044.49 433.163 1044.23 433.26C1044.07 433.317 1043.92 433.372 1043.76 433.425C1043.49 433.514 1043.35 433.801 1043.44 434.067C1043.51 434.279 1043.71 434.413 1043.92 434.413ZM1030.76 433.909C1030.95 433.909 1031.14 433.795 1031.22 433.603C1031.33 433.347 1031.21 433.048 1030.96 432.937C1030.8 432.871 1030.65 432.801 1030.5 432.731C1030.25 432.61 1029.95 432.718 1029.83 432.971C1029.71 433.224 1029.81 433.526 1030.07 433.646C1030.23 433.722 1030.39 433.797 1030.55 433.867C1030.62 433.896 1030.69 433.909 1030.76 433.909ZM1046.06 433.519C1046.14 433.519 1046.22 433.501 1046.29 433.463C1046.45 433.382 1046.61 433.297 1046.77 433.211C1047.01 433.075 1047.1 432.766 1046.96 432.521C1046.83 432.277 1046.52 432.189 1046.27 432.325C1046.13 432.405 1045.98 432.484 1045.83 432.56C1045.58 432.687 1045.49 432.993 1045.61 433.242C1045.7 433.418 1045.88 433.519 1046.06 433.519ZM1048.03 432.284C1048.14 432.284 1048.25 432.249 1048.35 432.177C1048.49 432.063 1048.63 431.946 1048.77 431.827C1048.98 431.642 1049 431.322 1048.81 431.112C1048.63 430.902 1048.31 430.882 1048.1 431.067C1047.98 431.172 1047.85 431.277 1047.72 431.378C1047.5 431.551 1047.46 431.869 1047.64 432.09C1047.74 432.218 1047.88 432.284 1048.03 432.284ZM1049.64 430.61C1049.8 430.61 1049.96 430.534 1050.06 430.391C1050.16 430.237 1050.26 430.078 1050.35 429.919C1050.49 429.676 1050.41 429.366 1050.17 429.226C1049.92 429.087 1049.61 429.171 1049.47 429.413C1049.4 429.548 1049.31 429.684 1049.22 429.815C1049.06 430.046 1049.12 430.362 1049.35 430.52C1049.44 430.581 1049.54 430.61 1049.64 430.61ZM1050.55 428.488C1050.79 428.488 1051 428.32 1051.05 428.078C1051.09 427.892 1051.11 427.702 1051.13 427.514C1051.15 427.235 1050.95 426.989 1050.67 426.964C1050.39 426.939 1050.14 427.145 1050.12 427.424C1050.11 427.577 1050.08 427.732 1050.05 427.884C1050 428.159 1050.18 428.425 1050.46 428.479C1050.49 428.485 1050.52 428.488 1050.55 428.488ZM1050.46 426.184C1050.5 426.184 1050.55 426.178 1050.59 426.165C1050.86 426.09 1051.02 425.811 1050.95 425.541C1050.9 425.361 1050.84 425.18 1050.77 425.004C1050.67 424.742 1050.38 424.612 1050.11 424.713C1049.85 424.813 1049.72 425.107 1049.82 425.368C1049.88 425.514 1049.93 425.664 1049.97 425.812C1050.03 426.037 1050.24 426.184 1050.46 426.184ZM1049.4 424.129C1049.51 424.129 1049.62 424.094 1049.71 424.021C1049.93 423.849 1049.97 423.53 1049.8 423.31C1049.69 423.167 1049.57 423.024 1049.44 422.886C1049.25 422.679 1048.93 422.663 1048.72 422.851C1048.52 423.039 1048.5 423.36 1048.69 423.567C1048.8 423.687 1048.9 423.811 1049 423.935C1049.1 424.062 1049.25 424.129 1049.4 424.129ZM1042.86 427.424C1043.13 427.424 1043.35 427.211 1043.37 426.939C1043.38 426.659 1043.16 426.423 1042.88 426.41C1042.73 426.403 1042.57 426.39 1042.42 426.37C1042.14 426.334 1041.89 426.528 1041.85 426.806C1041.82 427.083 1042.01 427.338 1042.29 427.375C1042.47 427.399 1042.65 427.415 1042.84 427.423C1042.85 427.423 1042.85 427.424 1042.86 427.424ZM1044.62 427.23C1044.66 427.23 1044.71 427.224 1044.75 427.212C1044.93 427.161 1045.11 427.102 1045.28 427.035C1045.54 426.932 1045.67 426.638 1045.57 426.378C1045.47 426.117 1045.17 425.989 1044.91 426.091C1044.77 426.145 1044.63 426.194 1044.48 426.234C1044.21 426.309 1044.05 426.588 1044.13 426.858C1044.19 427.083 1044.39 427.23 1044.62 427.23ZM1040.67 426.854C1040.85 426.854 1041.03 426.757 1041.12 426.586C1041.25 426.34 1041.16 426.032 1040.91 425.9C1040.81 425.844 1040.71 425.784 1040.61 425.721C1040.59 425.703 1040.56 425.685 1040.54 425.668C1040.31 425.504 1039.99 425.555 1039.83 425.783C1039.67 426.01 1039.72 426.327 1039.94 426.49C1039.98 426.514 1040.01 426.537 1040.04 426.56C1040.17 426.643 1040.3 426.721 1040.43 426.793C1040.51 426.834 1040.59 426.854 1040.67 426.854ZM1046.55 426.08C1046.69 426.08 1046.84 426.019 1046.94 425.9C1047.07 425.739 1047.19 425.568 1047.28 425.392C1047.41 425.145 1047.32 424.838 1047.07 424.707C1046.82 424.576 1046.52 424.67 1046.38 424.918C1046.33 425.03 1046.25 425.141 1046.16 425.247C1045.98 425.461 1046.01 425.781 1046.22 425.961C1046.32 426.041 1046.43 426.08 1046.55 426.08ZM1039.22 425.18C1039.26 425.18 1039.3 425.176 1039.34 425.167C1039.61 425.103 1039.78 424.83 1039.72 424.557C1039.69 424.457 1039.68 424.354 1039.68 424.252C1039.68 424.233 1039.68 424.213 1039.68 424.193C1039.69 423.913 1039.48 423.676 1039.2 423.664C1038.92 423.651 1038.68 423.868 1038.67 424.147C1038.67 424.182 1038.67 424.217 1038.67 424.253C1038.67 424.432 1038.69 424.612 1038.73 424.789C1038.78 425.022 1038.99 425.18 1039.22 425.18ZM1046.88 423.954C1046.95 423.954 1047.03 423.938 1047.1 423.906C1047.35 423.788 1047.46 423.486 1047.34 423.232C1047.25 423.05 1047.15 422.873 1047.02 422.706C1046.85 422.484 1046.53 422.444 1046.31 422.615C1046.08 422.786 1046.04 423.104 1046.21 423.326C1046.3 423.434 1046.37 423.547 1046.42 423.661C1046.51 423.845 1046.69 423.954 1046.88 423.954ZM1039.97 423.147C1040.09 423.147 1040.21 423.104 1040.31 423.018C1040.4 422.937 1040.5 422.858 1040.61 422.785C1040.73 422.705 1040.86 422.63 1040.99 422.562C1041.24 422.436 1041.34 422.131 1041.22 421.881C1041.09 421.631 1040.79 421.531 1040.54 421.656C1040.36 421.744 1040.2 421.841 1040.04 421.945C1039.9 422.044 1039.76 422.15 1039.64 422.261C1039.43 422.447 1039.41 422.768 1039.6 422.977C1039.7 423.089 1039.83 423.147 1039.97 423.147ZM1045.2 422.49C1045.39 422.49 1045.58 422.373 1045.66 422.179C1045.77 421.921 1045.65 421.624 1045.39 421.516C1045.22 421.445 1045.05 421.381 1044.87 421.327C1044.6 421.246 1044.31 421.398 1044.23 421.666C1044.15 421.934 1044.31 422.217 1044.57 422.298C1044.72 422.342 1044.86 422.393 1045 422.45C1045.06 422.477 1045.13 422.49 1045.2 422.49ZM1042.46 422.127C1042.48 422.127 1042.5 422.126 1042.52 422.124C1042.67 422.107 1042.83 422.096 1042.98 422.092C1043.26 422.085 1043.48 421.852 1043.47 421.572C1043.47 421.292 1043.24 421.068 1042.95 421.078C1042.77 421.083 1042.59 421.096 1042.4 421.117C1042.13 421.148 1041.93 421.399 1041.96 421.677C1041.99 421.936 1042.21 422.127 1042.46 422.127Z" stroke="#A07C4A"/>
</svg>
