<svg width="1197" height="1200" viewBox="0 0 1197 1200" fill="none" xmlns="http://www.w3.org/2000/svg">
<path d="M552.212 536.764L573.215 566.043M547.365 530.008L550.597 534.512M613.62 522.322L607.243 557.786M615.091 514.138L614.11 519.593M667.563 555.813L638.185 576.677M674.343 550.999L669.823 554.209M680.576 616.843L644.983 611.229M688.789 618.138L683.314 617.275M647.414 670.583L626.37 641.334M587.058 684.244L592.896 648.687M585.71 692.449L586.609 686.979M534.536 650.65L564.104 630.056M527.713 655.402L532.262 652.234M519.64 591.071L555.311 596.161M511.408 589.896L516.896 590.679M584.611 535.769L588.852 553.982M583.632 531.566L584.284 534.369M637.289 543.405L627.176 559.135M639.622 539.775L638.067 542.195M668.322 587.605L650.089 591.76M672.529 586.646L669.724 587.285M658.964 640.366L643.02 630.593M662.643 642.621L660.19 641.118M616.608 671.895L612.341 653.688M617.593 676.096L616.937 673.295M562.884 663.742L572.758 647.861M560.606 667.407L562.125 664.963M531.79 619.286L550.06 615.299M527.574 620.207L530.385 619.593M541.207 566.528L557.292 576.066M537.494 564.328L539.969 565.795M598.624 532.539L599.114 551.427M598.51 528.18L598.585 531.086M649.204 550.815L635.994 564.324M652.252 547.697L650.22 549.776M670.922 600.873L652.032 601.274M675.281 600.781L672.375 600.842M650.923 651.184L637.134 638.267M654.104 654.166L651.983 652.178M602.588 673.768L602.072 654.881M602.708 678.126L602.628 675.221M551.08 654.766L564.084 641.059M548.078 657.93L550.079 655.821M529.353 604.443L548.246 604.215M524.994 604.495L527.9 604.46M549.409 554.146L563.386 566.86M546.183 551.213L548.333 553.169M570.517 539.037L578.516 556.155M568.67 535.088L569.901 537.721M624.186 535.57L617.477 553.233M625.734 531.494L624.701 534.211M664.104 572.772L646.949 580.69M668.063 570.945L665.424 572.163M665.886 626.883L648.083 620.555M669.994 628.343L667.255 627.37M630.61 666.906L622.586 649.8M632.462 670.854L631.227 668.222M575.8 670.08L582.24 652.317M574.314 674.179L575.304 671.446M535.768 632.638L552.995 624.876M531.793 634.428L534.443 633.234M534.043 578.518L551.938 584.583M529.914 577.119L532.668 578.052M634.702 578.647C644.799 592.723 645.747 603.555 639.498 620.403C634.196 634.697 600.242 628.092 588.531 611.766C576.82 595.44 577.858 572.093 590.608 562.947C603.686 557.403 623.998 563.726 634.702 578.647ZM635.185 578.726C648.68 597.54 644.369 623.731 625.556 637.227C606.743 650.722 580.551 646.411 567.056 627.598C553.56 608.784 557.871 582.593 576.685 569.097C595.498 555.602 621.69 559.913 635.185 578.726Z" stroke="#A07C4A"/>
</svg>
