<svg width="1202" height="1200" viewBox="0 0 1202 1200" fill="none" xmlns="http://www.w3.org/2000/svg">
<path d="M156.855 839.571C155.597 826.126 165.513 814.163 178.961 812.905C189.158 811.952 198.499 817.43 202.967 825.997C203.328 826.69 203.658 827.403 203.954 828.135C204.822 830.283 205.4 832.588 205.627 835.01C206.884 848.457 196.968 860.419 183.522 861.676C170.075 862.934 158.112 853.018 156.855 839.571ZM199.296 824.428C199.304 824.362 199.314 824.295 199.315 824.23C199.316 824.21 199.314 824.188 199.313 824.167C196.488 820.29 192.461 817.382 187.839 815.947C188.02 816.131 188.137 816.36 188.181 816.632C188.197 816.732 188.22 816.832 188.247 816.93C188.325 817.212 188.5 817.409 188.786 817.488C188.916 817.524 189.053 817.533 189.186 817.558C189.232 817.567 189.276 817.586 189.327 817.603C189.309 817.64 189.303 817.666 189.287 817.683C189.241 817.733 189.191 817.781 189.142 817.826C189.079 817.883 189.011 817.935 188.952 817.996C188.76 818.194 188.787 818.335 189.034 818.442C189.09 818.465 189.146 818.484 189.202 818.5C189.284 818.523 189.368 818.54 189.45 818.561C189.565 818.591 189.681 818.618 189.793 818.658C190.009 818.736 190.028 818.826 189.868 818.982C189.837 819.011 189.802 819.037 189.775 819.068C189.728 819.119 189.682 819.169 189.646 819.225C189.518 819.421 189.536 819.609 189.694 819.784C189.722 819.816 189.755 819.842 189.787 819.871C189.873 819.95 189.969 819.983 190.09 819.967C190.24 819.947 190.394 819.938 190.546 819.939C190.637 819.94 190.73 819.964 190.819 819.99C190.89 820.012 190.917 820.092 190.879 820.158C190.841 820.224 190.795 820.284 190.746 820.357C190.785 820.43 190.823 820.505 190.865 820.578C191.046 820.895 191.23 821.209 191.409 821.528C191.47 821.637 191.538 821.737 191.674 821.821C191.095 822.055 190.511 822.126 189.933 822.265C189.919 822.33 189.902 822.394 189.892 822.459C189.846 822.744 189.812 823.031 189.759 823.313C189.669 823.777 189.797 824.167 190.117 824.504C190.35 824.748 190.625 824.928 190.93 825.066C191.317 825.241 191.706 825.409 192.096 825.579C192.141 825.599 192.189 825.613 192.239 825.631C192.334 825.527 192.363 825.401 192.415 825.287C192.653 824.767 192.771 824.227 192.661 823.655C192.648 823.584 192.655 823.521 192.692 823.459C192.718 823.416 192.738 823.368 192.761 823.322C192.877 823.096 192.965 822.848 193.116 822.648C193.273 822.44 193.489 822.278 193.683 822.099C193.763 822.026 193.832 821.938 193.937 821.888C194.117 821.946 194.298 821.996 194.472 822.062C194.614 822.116 194.751 822.117 194.894 822.079C195.068 822.034 195.24 821.991 195.414 821.953C195.478 821.939 195.544 821.905 195.617 821.961C195.681 822.234 195.756 822.512 195.808 822.795C195.832 822.93 195.896 823.004 196.014 823.055C196.177 823.126 196.334 823.213 196.498 823.282C196.614 823.33 196.669 823.41 196.692 823.528C196.724 823.685 196.768 823.841 196.792 824.001C196.812 824.13 196.878 824.219 196.978 824.292C197.132 824.405 197.307 824.467 197.49 824.509C197.749 824.567 198.012 824.572 198.276 824.567C198.616 824.56 198.952 824.514 199.296 824.428ZM196.904 825.728C197.078 825.764 197.142 825.748 197.21 825.634C197.299 825.491 197.307 825.313 197.213 825.206C197.158 825.143 197.093 825.086 197.021 825.042C196.83 824.925 196.669 824.788 196.557 824.585C196.431 824.36 196.227 824.199 196.016 824.057C195.615 823.788 195.171 823.627 194.697 823.55C194.665 823.545 194.63 823.549 194.578 823.549C194.417 823.746 194.3 823.95 194.21 824.171C194.178 824.25 194.152 824.331 194.138 824.415C194.059 824.912 194.355 825.175 194.736 825.227C195.038 825.268 195.342 825.285 195.663 825.315C195.655 825.369 195.655 825.416 195.64 825.46C195.576 825.642 195.507 825.824 195.437 826.016C195.64 826.143 195.85 826.222 196.073 826.305C196.223 826.101 196.337 825.883 196.476 825.684C196.628 825.641 196.765 825.699 196.904 825.728ZM182.645 829.561C183.241 829.391 183.822 829.177 184.398 828.95C184.724 828.822 185.059 828.735 185.409 828.705C185.556 828.694 185.699 828.69 185.834 828.756C185.952 828.813 186.07 828.799 186.176 828.738C186.352 828.638 186.535 828.541 186.696 828.419C187.242 828.007 187.565 827.452 187.68 826.78C187.706 826.631 187.762 826.512 187.871 826.406C188.15 826.134 188.417 825.848 188.698 825.575C188.793 825.481 188.846 825.379 188.871 825.248C188.946 824.857 189.031 824.467 189.111 824.078C189.182 823.735 189.206 823.39 189.187 823.04C189.153 822.405 189.022 821.796 188.737 821.225C188.69 821.129 188.676 821.033 188.669 820.931C188.64 820.576 188.612 820.22 188.522 819.872C188.436 819.54 188.315 819.236 188.063 818.982C187.622 818.535 187.204 818.065 186.775 817.605C186.54 817.352 186.539 817.352 186.515 817.006C186.479 816.508 186.43 816.012 186.29 815.53C184.012 814.999 181.615 814.816 179.162 815.045C171.63 815.749 165.317 820.138 161.828 826.259C161.892 826.245 161.956 826.222 162.02 826.193C162.153 826.136 162.286 826.081 162.412 826.011C162.79 825.8 163.163 825.582 163.538 825.366C163.95 825.129 164.361 824.891 164.773 824.653C165.024 824.506 165.295 824.466 165.583 824.501C165.92 824.542 166.257 824.574 166.595 824.61C166.93 824.645 167.258 824.618 167.568 824.476C168.151 824.206 168.682 823.864 169.092 823.354C169.22 823.195 169.359 823.047 169.502 822.901C169.687 822.711 169.902 822.559 170.142 822.443C170.446 822.296 170.761 822.224 171.103 822.258C171.366 822.285 171.62 822.354 171.875 822.416C172.088 822.468 172.303 822.525 172.518 822.567C172.866 822.634 173.213 822.616 173.547 822.491C173.761 822.411 173.969 822.313 174.176 822.217C174.392 822.117 174.602 822.006 174.817 821.906C175.097 821.775 175.39 821.688 175.7 821.689C175.911 821.69 176.125 821.707 176.334 821.737C176.558 821.77 176.606 821.86 176.545 822.073C176.521 822.154 176.49 822.234 176.464 822.314C176.383 822.565 176.443 822.712 176.628 822.816C176.766 822.893 176.856 823.018 176.91 823.166C176.956 823.294 177.011 823.42 177.034 823.552C177.107 823.997 177.131 824.447 177.146 824.896C177.156 825.227 177.178 825.558 177.203 825.888C177.209 825.988 177.242 826.087 177.27 826.185C177.345 826.448 177.466 826.689 177.605 826.924C177.858 827.351 178.174 827.727 178.514 828.084C179.066 828.663 179.683 829.171 180.288 829.693C180.369 829.763 180.462 829.802 180.561 829.818C180.686 829.838 180.815 829.852 180.94 829.851C181.524 829.844 182.087 829.72 182.645 829.561ZM199.805 830.156C199.678 830.338 199.506 830.42 199.314 830.487C199.25 830.509 199.191 830.541 199.105 830.579C199.174 830.921 199.266 831.236 199.38 831.545C199.435 831.69 199.518 831.815 199.619 831.93C199.663 831.981 199.713 832.028 199.77 832.065C199.96 832.193 200.175 832.128 200.238 831.913C200.362 831.483 200.474 831.048 200.591 830.615C200.608 830.554 200.603 830.5 200.57 830.446C200.49 830.315 200.401 830.193 200.274 830.103C200.098 829.979 199.926 829.981 199.805 830.156ZM202.327 835.14C202.688 834.954 203.053 834.777 203.414 834.592C203.225 833.032 202.878 831.526 202.389 830.09C202.086 830.323 201.782 830.551 201.493 830.787C201.465 831.098 201.436 831.384 201.419 831.672C201.412 831.79 201.376 831.878 201.292 831.962C200.953 832.306 200.62 832.659 200.281 833.004C199.982 833.307 199.677 833.602 199.374 833.901C199.334 833.942 199.3 833.988 199.264 834.031C199.358 834.231 199.492 834.382 199.644 834.518C199.909 834.754 200.221 834.907 200.556 835.013C201.005 835.155 201.465 835.216 201.935 835.224C202.078 835.228 202.201 835.204 202.327 835.14ZM190.226 854.025C190.547 853.983 190.842 853.868 191.161 853.833C191.204 853.914 191.243 853.988 191.283 854.063C191.482 854.429 191.716 854.773 192.008 855.074C192.187 855.258 192.384 855.419 192.613 855.534C192.91 855.683 193.22 855.744 193.55 855.659C193.744 855.611 193.939 855.569 194.134 855.527C200.4 851.079 204.211 843.523 203.496 835.345C203.345 835.292 203.195 835.238 203.044 835.187C202.998 835.172 202.949 835.169 202.898 835.161C202.72 835.443 202.556 835.72 202.375 835.986C202.194 836.252 201.978 836.492 201.801 836.77C202.048 836.872 202.217 837.049 202.38 837.231C202.652 837.539 202.601 837.428 202.626 837.839C202.642 838.118 202.65 838.397 202.56 838.669C202.511 838.816 202.527 838.971 202.549 839.124C202.566 839.24 202.619 839.331 202.721 839.394C202.75 839.411 202.782 839.425 202.81 839.443C202.901 839.5 202.932 839.586 202.907 839.685C202.888 839.767 202.862 839.85 202.821 839.923C202.751 840.049 202.676 840.174 202.588 840.287C202.48 840.429 202.386 840.58 202.305 840.74C202.182 840.981 202.052 841.22 201.93 841.463C201.885 841.553 201.826 841.61 201.725 841.633C201.567 841.671 201.416 841.73 201.257 841.76C201.049 841.801 200.838 841.827 200.625 841.777C200.341 841.711 200.198 841.486 200.273 841.203C200.363 840.865 200.495 840.543 200.687 840.249C200.816 840.054 200.97 839.889 201.184 839.785C201.222 839.767 201.259 839.746 201.293 839.72C201.364 839.664 201.378 839.6 201.334 839.52C201.297 839.453 201.254 839.39 201.214 839.325C201.115 839.161 201.104 838.989 201.182 838.814C201.223 838.721 201.273 838.632 201.331 838.549C201.382 838.471 201.446 838.401 201.506 838.329C201.606 838.212 201.68 838.079 201.725 837.93C201.808 837.651 201.74 837.464 201.485 837.332C201.29 837.232 201.135 837.095 200.999 836.928C200.94 836.857 200.878 836.787 200.807 836.727C200.696 836.63 200.569 836.609 200.428 836.657C200.272 836.709 200.14 836.802 200.011 836.9C199.904 836.983 199.798 837.066 199.685 837.143C199.63 837.18 199.564 837.204 199.5 837.223C199.432 837.244 199.355 837.187 199.361 837.115C199.367 837.023 199.39 836.931 199.406 836.839C199.416 836.785 199.425 836.731 199.441 836.649C198.916 836.729 198.437 836.854 198.016 837.148C197.94 837.201 197.869 837.265 197.812 837.337C197.646 837.543 197.591 837.772 197.679 838.029C197.741 838.207 197.823 838.369 197.968 838.501C198.252 838.757 198.245 839.02 197.993 839.299C197.915 839.386 197.821 839.464 197.723 839.528C197.62 839.595 197.575 839.681 197.554 839.796C197.466 840.303 197.456 840.808 197.573 841.313C197.593 841.397 197.595 841.476 197.578 841.563C197.511 841.895 197.452 842.23 197.389 842.562C197.365 842.696 197.325 842.824 197.264 842.947C197.15 843.176 197.062 843.415 197.007 843.665C196.954 843.92 196.934 844.171 197.128 844.392C196.554 845.226 196.162 846.131 195.946 847.119C195.592 847.21 195.248 847.297 194.904 847.386C194.484 847.493 194.064 847.599 193.645 847.707C193.539 847.735 193.503 847.783 193.496 847.882C193.487 847.999 193.518 848.108 193.616 848.175C193.713 848.242 193.816 848.304 193.926 848.347C194.204 848.457 194.499 848.514 194.795 848.518C195.212 848.523 195.51 848.714 195.721 849.052C195.998 849.497 196.123 849.989 196.081 850.51C196.011 851.367 195.686 852.123 195.111 852.762C194.626 853.301 194.626 853.295 193.904 853.501C193.652 853.573 193.387 853.604 193.121 853.545C192.85 853.486 192.67 853.328 192.586 853.06C192.542 852.92 192.514 852.78 192.532 852.634C192.551 852.474 192.57 852.314 192.586 852.155C192.591 852.106 192.594 852.05 192.573 852.01C192.515 851.896 192.433 851.798 192.322 851.728C192.182 851.64 192.038 851.627 191.888 851.71C191.774 851.774 191.68 851.858 191.605 851.962C191.512 852.095 191.431 852.234 191.345 852.371C191.31 852.428 191.283 852.493 191.242 852.546C191.067 852.772 190.834 852.79 190.629 852.595C190.58 852.548 190.54 852.493 190.497 852.44C190.463 852.394 190.43 852.346 190.393 852.292C190.241 852.32 190.098 852.343 189.958 852.373C189.591 852.451 189.219 852.489 188.846 852.503C188.489 852.517 188.175 852.393 187.936 852.122C187.78 851.944 187.638 851.751 187.506 851.553C187.432 851.442 187.38 851.314 187.334 851.187C187.198 850.814 187.252 850.464 187.508 850.16C187.615 850.034 187.75 849.924 187.884 849.822C188.132 849.631 188.22 849.379 188.131 849.081C188.083 848.921 187.99 848.788 187.865 848.685C187.711 848.557 187.607 848.395 187.507 848.228C187.371 848.003 187.232 847.78 187.098 847.553C187.051 847.473 187.014 847.387 186.983 847.301C186.752 846.648 186.376 846.106 185.782 845.736C185.659 845.659 185.586 845.565 185.527 845.438C185.249 844.83 184.878 844.284 184.409 843.809C183.817 843.21 183.124 842.783 182.291 842.608C182.095 842.567 181.928 842.497 181.77 842.369C181.621 842.245 181.448 842.148 181.273 842.06C181.04 841.944 180.794 841.847 180.553 841.741C180.491 841.715 180.431 841.687 180.379 841.663C180.342 841.544 180.313 841.437 180.279 841.333C180.054 840.632 179.73 839.982 179.264 839.41C179.021 839.111 178.743 838.852 178.426 838.634C178.339 838.574 178.252 838.543 178.143 838.55C177.178 838.626 176.428 839.05 175.946 839.904C175.884 840.014 175.803 840.084 175.69 840.138C175.148 840.397 174.605 840.661 174.067 840.929C173.969 840.977 173.874 841.038 173.791 841.109C173.417 841.43 173.051 841.759 172.676 842.077C172.556 842.18 172.465 842.298 172.407 842.443C172.362 842.551 172.314 842.661 172.275 842.772C172.126 843.182 172.033 843.603 171.986 844.034C171.973 844.147 171.938 844.239 171.849 844.322C171.504 844.636 171.167 844.96 170.825 845.28C170.788 845.315 170.75 845.351 170.709 845.38C170.229 845.702 169.792 846.08 169.339 846.441C169.238 846.522 169.161 846.617 169.101 846.732C168.84 847.219 168.577 847.703 168.31 848.187C168.232 848.327 168.141 848.462 168.044 848.589C167.851 848.838 167.651 849.08 167.45 849.32C167.397 849.384 167.333 849.446 167.262 849.486C166.822 849.743 166.378 849.992 165.938 850.248C165.844 850.302 165.752 850.32 165.647 850.31C164.87 850.238 164.092 850.165 163.315 850.097C163.224 850.088 163.132 850.077 163.043 850.087C163.047 850.172 163.051 850.218 163.06 850.26C163.324 850.629 163.596 850.991 163.881 851.343C164.447 851.849 165.097 852.224 165.784 852.542C165.85 852.573 165.931 852.585 166.004 852.589C166.615 852.62 167.226 852.651 167.836 852.678C167.915 852.68 167.983 852.7 168.053 852.737C168.213 852.824 168.387 852.852 168.567 852.869C168.989 852.908 169.396 852.823 169.801 852.725C170.279 852.607 170.756 852.488 171.234 852.369C171.301 852.353 171.364 852.352 171.429 852.391C171.602 852.495 171.794 852.511 171.994 852.505C172.372 852.492 172.73 852.391 173.083 852.262C173.211 852.215 173.34 852.172 173.47 852.141C173.898 852.036 174.329 851.935 174.758 851.836C174.939 851.793 175.121 851.756 175.293 851.72C175.332 851.756 175.359 851.779 175.384 851.801C175.611 852.026 175.885 852.144 176.201 852.174C176.423 852.196 176.643 852.175 176.856 852.114C177.017 852.069 177.175 852.014 177.337 851.964C177.403 852.043 177.463 852.116 177.523 852.186C177.817 852.529 178.138 852.844 178.514 853.098C178.901 853.36 179.292 853.617 179.686 853.868C179.843 853.966 180.012 854.053 180.184 854.121C180.466 854.233 180.759 854.271 181.055 854.174C181.124 854.153 181.187 854.16 181.255 854.178C181.759 854.307 182.266 854.28 182.771 854.193C183.12 854.133 183.44 854.008 183.717 853.781C183.889 853.64 184.064 853.506 184.232 853.363C184.528 853.109 184.824 852.853 185.116 852.594C185.402 852.342 185.734 852.182 186.1 852.083C186.265 852.037 186.431 852.003 186.6 852.004C186.864 852.004 187.102 852.074 187.284 852.284C187.483 852.516 187.694 852.737 187.889 852.972C187.989 853.093 188.11 853.144 188.259 853.163C188.612 853.212 188.962 853.275 189.316 853.323C189.441 853.338 189.541 853.382 189.629 853.47C189.767 853.609 189.911 853.739 190.055 853.873C190.114 853.927 190.172 853.976 190.226 854.025ZM190.353 847.486C190.375 847.44 190.394 847.393 190.411 847.345C190.474 847.169 190.535 846.994 190.597 846.817C190.644 846.681 190.692 846.546 190.741 846.41C190.755 846.37 190.762 846.331 190.778 846.279C190.682 846.155 190.592 846.022 190.486 845.902L190.484 845.902C190.375 845.778 190.335 845.62 190.246 845.456C190.045 845.518 189.853 845.552 189.702 845.694C189.735 845.764 189.756 845.819 189.786 845.868C189.953 846.143 190.034 846.443 190.059 846.759C190.068 846.869 190.072 846.979 190.082 847.088C190.094 847.216 190.107 847.342 190.125 847.467C190.135 847.531 190.131 847.619 190.221 847.624C190.304 847.627 190.323 847.545 190.353 847.486ZM191.58 847.964C191.696 848.459 191.828 848.95 191.958 849.442C191.997 849.587 192.038 849.737 192.163 849.839C192.517 849.694 192.685 849.437 192.688 849.077C192.691 848.824 192.62 848.605 192.432 848.436C192.138 848.173 192 847.844 191.958 847.455C191.937 847.255 191.871 847.058 191.811 846.866C191.79 846.798 191.736 846.733 191.683 846.683C191.641 846.647 191.587 846.644 191.542 846.663C191.503 846.68 191.47 846.712 191.463 846.759C191.442 846.892 191.425 847.031 191.443 847.164C191.452 847.241 191.464 847.32 191.477 847.4C191.503 847.587 191.536 847.777 191.58 847.964Z" fill="#A07C4A"/>
<path d="M495.647 1198.67C174.846 1154.71 -0.21021 905.196 1.0063 609.21M492.651 876.389C315.423 1019.4 50.2793 907.864 28.5854 681.165L23.6886 629.997M483.717 1010C297.654 961.914 171.446 788.845 182.744 597M27.2683 791.756L464.879 654.294M189.417 1046.52L469.957 745.17M459.463 1187.03L486.97 1061.21M432.658 1088.51C432.658 1092.65 429.3 1096.01 425.158 1096.01C421.016 1096.01 417.658 1092.65 417.658 1088.51C417.658 1084.37 421.016 1081.01 425.158 1081.01C429.3 1081.01 432.658 1084.37 432.658 1088.51ZM311.658 1037.51C311.658 1046.62 304.271 1054.01 295.158 1054.01C286.045 1054.01 278.658 1046.62 278.658 1037.51C278.658 1028.4 286.045 1021.01 295.158 1021.01C304.271 1021.01 311.658 1028.4 311.658 1037.51ZM350.658 1067.51C350.658 1074.96 344.614 1081.01 337.158 1081.01C329.702 1081.01 323.658 1074.96 323.658 1067.51C323.658 1060.05 329.702 1054.01 337.158 1054.01C344.614 1054.01 350.658 1060.05 350.658 1067.51ZM385.658 1082.01C385.658 1087.53 381.181 1092.01 375.658 1092.01C370.135 1092.01 365.658 1087.53 365.658 1082.01C365.658 1076.49 370.135 1072.01 375.658 1072.01C381.181 1072.01 385.658 1076.49 385.658 1082.01ZM408.658 1089.01C408.658 1092.87 405.524 1096.01 401.658 1096.01C397.792 1096.01 394.658 1092.87 394.658 1089.01C394.658 1085.14 397.792 1082.01 401.658 1082.01C405.524 1082.01 408.658 1085.14 408.658 1089.01ZM245.05 599.377L246.214 629.587C251.709 772.271 346.294 896.102 482.506 938.943C313.505 899.304 230.663 773.48 245.05 599.377ZM156.855 839.571C155.597 826.126 165.513 814.163 178.961 812.905C189.158 811.952 198.499 817.43 202.967 825.997C203.328 826.69 203.658 827.403 203.954 828.135C204.822 830.283 205.4 832.588 205.627 835.01C206.884 848.457 196.968 860.419 183.522 861.676C170.075 862.934 158.112 853.018 156.855 839.571ZM199.296 824.428C199.304 824.362 199.314 824.295 199.315 824.23C199.316 824.21 199.314 824.188 199.313 824.167C196.488 820.29 192.461 817.382 187.839 815.947C188.02 816.131 188.137 816.36 188.181 816.632C188.197 816.732 188.22 816.832 188.247 816.93C188.325 817.212 188.5 817.409 188.786 817.488C188.916 817.524 189.053 817.533 189.186 817.558C189.232 817.567 189.276 817.586 189.327 817.603C189.309 817.64 189.303 817.666 189.287 817.683C189.241 817.733 189.191 817.781 189.142 817.826C189.079 817.883 189.011 817.935 188.952 817.996C188.76 818.194 188.787 818.335 189.034 818.442C189.09 818.465 189.146 818.484 189.202 818.5C189.284 818.523 189.368 818.54 189.45 818.561C189.565 818.591 189.681 818.618 189.793 818.658C190.009 818.736 190.028 818.826 189.868 818.982C189.837 819.011 189.802 819.037 189.775 819.068C189.728 819.119 189.682 819.169 189.646 819.225C189.518 819.421 189.536 819.609 189.694 819.784C189.722 819.816 189.755 819.842 189.787 819.871C189.873 819.95 189.969 819.983 190.09 819.967C190.24 819.947 190.394 819.938 190.546 819.939C190.637 819.94 190.73 819.964 190.819 819.99C190.89 820.012 190.917 820.092 190.879 820.158C190.841 820.224 190.795 820.284 190.746 820.357C190.785 820.43 190.823 820.505 190.865 820.578C191.046 820.895 191.23 821.209 191.409 821.528C191.47 821.637 191.538 821.737 191.674 821.821C191.095 822.055 190.511 822.126 189.933 822.265C189.919 822.33 189.902 822.394 189.892 822.459C189.846 822.744 189.812 823.031 189.759 823.313C189.669 823.777 189.797 824.167 190.117 824.504C190.35 824.748 190.625 824.928 190.93 825.066C191.317 825.241 191.706 825.409 192.096 825.579C192.141 825.599 192.189 825.613 192.239 825.631C192.334 825.527 192.363 825.401 192.415 825.287C192.653 824.767 192.771 824.227 192.661 823.655C192.648 823.584 192.655 823.521 192.692 823.459C192.718 823.416 192.738 823.368 192.761 823.322C192.877 823.096 192.965 822.848 193.116 822.648C193.273 822.44 193.489 822.278 193.683 822.099C193.763 822.026 193.832 821.938 193.937 821.888C194.117 821.946 194.298 821.996 194.472 822.062C194.614 822.116 194.751 822.117 194.894 822.079C195.068 822.034 195.24 821.991 195.414 821.953C195.478 821.939 195.544 821.905 195.617 821.961C195.681 822.234 195.756 822.512 195.808 822.795C195.832 822.93 195.896 823.004 196.014 823.055C196.177 823.126 196.334 823.213 196.498 823.282C196.614 823.33 196.669 823.41 196.692 823.528C196.724 823.685 196.768 823.841 196.792 824.001C196.812 824.13 196.878 824.219 196.978 824.292C197.132 824.405 197.307 824.467 197.49 824.509C197.749 824.567 198.012 824.572 198.276 824.567C198.616 824.56 198.952 824.514 199.296 824.428ZM196.904 825.728C197.078 825.764 197.142 825.748 197.21 825.634C197.299 825.491 197.307 825.313 197.213 825.206C197.158 825.143 197.093 825.086 197.021 825.042C196.83 824.925 196.669 824.788 196.557 824.585C196.431 824.36 196.227 824.199 196.016 824.057C195.615 823.788 195.171 823.627 194.697 823.55C194.665 823.545 194.63 823.549 194.578 823.549C194.417 823.746 194.3 823.95 194.21 824.171C194.178 824.25 194.152 824.331 194.138 824.415C194.059 824.912 194.355 825.175 194.736 825.227C195.038 825.268 195.342 825.285 195.663 825.315C195.655 825.369 195.655 825.416 195.64 825.46C195.576 825.642 195.507 825.824 195.437 826.016C195.64 826.143 195.85 826.222 196.073 826.305C196.223 826.101 196.337 825.883 196.476 825.684C196.628 825.641 196.765 825.699 196.904 825.728ZM182.645 829.561C183.241 829.391 183.822 829.177 184.398 828.95C184.724 828.822 185.059 828.735 185.409 828.705C185.556 828.694 185.699 828.69 185.834 828.756C185.952 828.813 186.07 828.799 186.176 828.738C186.352 828.638 186.535 828.541 186.696 828.419C187.242 828.007 187.565 827.452 187.68 826.78C187.706 826.631 187.762 826.512 187.871 826.406C188.15 826.134 188.417 825.848 188.698 825.575C188.793 825.481 188.846 825.379 188.871 825.248C188.946 824.857 189.031 824.467 189.111 824.078C189.182 823.735 189.206 823.39 189.187 823.04C189.153 822.405 189.022 821.796 188.737 821.225C188.69 821.129 188.676 821.033 188.669 820.931C188.64 820.576 188.612 820.22 188.522 819.872C188.436 819.54 188.315 819.236 188.063 818.982C187.622 818.535 187.204 818.065 186.775 817.605C186.54 817.352 186.539 817.352 186.515 817.006C186.479 816.508 186.43 816.012 186.29 815.53C184.012 814.999 181.615 814.816 179.162 815.045C171.63 815.749 165.317 820.138 161.828 826.259C161.892 826.245 161.956 826.222 162.02 826.193C162.153 826.136 162.286 826.081 162.412 826.011C162.79 825.8 163.163 825.582 163.538 825.366C163.95 825.129 164.361 824.891 164.773 824.653C165.024 824.506 165.295 824.466 165.583 824.501C165.92 824.542 166.257 824.574 166.595 824.61C166.93 824.645 167.258 824.618 167.568 824.476C168.151 824.206 168.682 823.864 169.092 823.354C169.22 823.195 169.359 823.047 169.502 822.901C169.687 822.711 169.902 822.559 170.142 822.443C170.446 822.296 170.761 822.224 171.103 822.258C171.366 822.285 171.62 822.354 171.875 822.416C172.088 822.468 172.303 822.525 172.518 822.567C172.866 822.634 173.213 822.616 173.547 822.491C173.761 822.411 173.969 822.313 174.176 822.217C174.392 822.117 174.602 822.006 174.817 821.906C175.097 821.775 175.39 821.688 175.7 821.689C175.911 821.69 176.125 821.707 176.334 821.737C176.558 821.77 176.606 821.86 176.545 822.073C176.521 822.154 176.49 822.234 176.464 822.314C176.383 822.565 176.443 822.712 176.628 822.816C176.766 822.893 176.856 823.018 176.91 823.166C176.956 823.294 177.011 823.42 177.034 823.552C177.107 823.997 177.131 824.447 177.146 824.896C177.156 825.227 177.178 825.558 177.203 825.888C177.209 825.988 177.242 826.087 177.27 826.185C177.345 826.448 177.466 826.689 177.605 826.924C177.858 827.351 178.174 827.727 178.514 828.084C179.066 828.663 179.683 829.171 180.288 829.693C180.369 829.763 180.462 829.802 180.561 829.818C180.686 829.838 180.815 829.852 180.94 829.851C181.524 829.844 182.087 829.72 182.645 829.561ZM199.805 830.156C199.678 830.338 199.506 830.42 199.314 830.487C199.25 830.509 199.191 830.541 199.105 830.579C199.174 830.921 199.266 831.236 199.38 831.545C199.435 831.69 199.518 831.815 199.619 831.93C199.663 831.981 199.713 832.028 199.77 832.065C199.96 832.193 200.175 832.128 200.238 831.913C200.362 831.483 200.474 831.048 200.591 830.615C200.608 830.554 200.603 830.5 200.57 830.446C200.49 830.315 200.401 830.193 200.274 830.103C200.098 829.979 199.926 829.981 199.805 830.156ZM202.327 835.14C202.688 834.954 203.053 834.777 203.414 834.592C203.225 833.032 202.878 831.526 202.389 830.09C202.086 830.323 201.782 830.551 201.493 830.787C201.465 831.098 201.436 831.384 201.419 831.672C201.412 831.79 201.376 831.878 201.292 831.962C200.953 832.306 200.62 832.659 200.281 833.004C199.982 833.307 199.677 833.602 199.374 833.901C199.334 833.942 199.3 833.988 199.264 834.031C199.358 834.231 199.492 834.382 199.644 834.518C199.909 834.754 200.221 834.907 200.556 835.013C201.005 835.155 201.465 835.216 201.935 835.224C202.078 835.228 202.201 835.204 202.327 835.14ZM190.226 854.025C190.547 853.983 190.842 853.868 191.161 853.833C191.204 853.914 191.243 853.988 191.283 854.063C191.482 854.429 191.716 854.773 192.008 855.074C192.187 855.258 192.384 855.419 192.613 855.534C192.91 855.683 193.22 855.744 193.55 855.659C193.744 855.611 193.939 855.569 194.134 855.527C200.4 851.079 204.211 843.523 203.496 835.345C203.345 835.292 203.195 835.238 203.044 835.187C202.998 835.172 202.949 835.169 202.898 835.161C202.72 835.443 202.556 835.72 202.375 835.986C202.194 836.252 201.978 836.492 201.801 836.77C202.048 836.872 202.217 837.049 202.38 837.231C202.652 837.539 202.601 837.428 202.626 837.839C202.642 838.118 202.65 838.397 202.56 838.669C202.511 838.816 202.527 838.971 202.549 839.124C202.566 839.24 202.619 839.331 202.721 839.394C202.75 839.411 202.782 839.425 202.81 839.443C202.901 839.5 202.932 839.586 202.907 839.685C202.888 839.767 202.862 839.85 202.821 839.923C202.751 840.049 202.676 840.174 202.588 840.287C202.48 840.429 202.386 840.58 202.305 840.74C202.182 840.981 202.052 841.22 201.93 841.463C201.885 841.553 201.826 841.61 201.725 841.633C201.567 841.671 201.416 841.73 201.257 841.76C201.049 841.801 200.838 841.827 200.625 841.777C200.341 841.711 200.198 841.486 200.273 841.203C200.363 840.865 200.495 840.543 200.687 840.249C200.816 840.054 200.97 839.889 201.184 839.785C201.222 839.767 201.259 839.746 201.293 839.72C201.364 839.664 201.378 839.6 201.334 839.52C201.297 839.453 201.254 839.39 201.214 839.325C201.115 839.161 201.104 838.989 201.182 838.814C201.223 838.721 201.273 838.632 201.331 838.549C201.382 838.471 201.446 838.401 201.506 838.329C201.606 838.212 201.68 838.079 201.725 837.93C201.808 837.651 201.74 837.464 201.485 837.332C201.29 837.232 201.135 837.095 200.999 836.928C200.94 836.857 200.878 836.787 200.807 836.727C200.696 836.63 200.569 836.609 200.428 836.657C200.272 836.709 200.14 836.802 200.011 836.9C199.904 836.983 199.798 837.066 199.685 837.143C199.63 837.18 199.564 837.204 199.5 837.223C199.432 837.244 199.355 837.187 199.361 837.115C199.367 837.023 199.39 836.931 199.406 836.839C199.416 836.785 199.425 836.731 199.441 836.649C198.916 836.729 198.437 836.854 198.016 837.148C197.94 837.201 197.869 837.265 197.812 837.337C197.646 837.543 197.591 837.772 197.679 838.029C197.741 838.207 197.823 838.369 197.968 838.501C198.252 838.757 198.245 839.02 197.993 839.299C197.915 839.386 197.821 839.464 197.723 839.528C197.62 839.595 197.575 839.681 197.554 839.796C197.466 840.303 197.456 840.808 197.573 841.313C197.593 841.397 197.595 841.476 197.578 841.563C197.511 841.895 197.452 842.23 197.389 842.562C197.365 842.696 197.325 842.824 197.264 842.947C197.15 843.176 197.062 843.415 197.007 843.665C196.954 843.92 196.934 844.171 197.128 844.392C196.554 845.226 196.162 846.131 195.946 847.119C195.592 847.21 195.248 847.297 194.904 847.386C194.484 847.493 194.064 847.599 193.645 847.707C193.539 847.735 193.503 847.783 193.496 847.882C193.487 847.999 193.518 848.108 193.616 848.175C193.713 848.242 193.816 848.304 193.926 848.347C194.204 848.457 194.499 848.514 194.795 848.518C195.212 848.523 195.51 848.714 195.721 849.052C195.998 849.497 196.123 849.989 196.081 850.51C196.011 851.367 195.686 852.123 195.111 852.762C194.626 853.301 194.626 853.295 193.904 853.501C193.652 853.573 193.387 853.604 193.121 853.545C192.85 853.486 192.67 853.328 192.586 853.06C192.542 852.92 192.514 852.78 192.532 852.634C192.551 852.474 192.57 852.314 192.586 852.155C192.591 852.106 192.594 852.05 192.573 852.01C192.515 851.896 192.433 851.798 192.322 851.728C192.182 851.64 192.038 851.627 191.888 851.71C191.774 851.774 191.68 851.858 191.605 851.962C191.512 852.095 191.431 852.234 191.345 852.371C191.31 852.428 191.283 852.493 191.242 852.546C191.067 852.772 190.834 852.79 190.629 852.595C190.58 852.548 190.54 852.493 190.497 852.44C190.463 852.394 190.43 852.346 190.393 852.292C190.241 852.32 190.098 852.343 189.958 852.373C189.591 852.451 189.219 852.489 188.846 852.503C188.489 852.517 188.175 852.393 187.936 852.122C187.78 851.944 187.638 851.751 187.506 851.553C187.432 851.442 187.38 851.314 187.334 851.187C187.198 850.814 187.252 850.464 187.508 850.16C187.615 850.034 187.75 849.924 187.884 849.822C188.132 849.631 188.22 849.379 188.131 849.081C188.083 848.921 187.99 848.788 187.865 848.685C187.711 848.557 187.607 848.395 187.507 848.228C187.371 848.003 187.232 847.78 187.098 847.553C187.051 847.473 187.014 847.387 186.983 847.301C186.752 846.648 186.376 846.106 185.782 845.736C185.659 845.659 185.586 845.565 185.527 845.438C185.249 844.83 184.878 844.284 184.409 843.809C183.817 843.21 183.124 842.783 182.291 842.608C182.095 842.567 181.928 842.497 181.77 842.369C181.621 842.245 181.448 842.148 181.273 842.06C181.04 841.944 180.794 841.847 180.553 841.741C180.491 841.715 180.431 841.687 180.379 841.663C180.342 841.544 180.313 841.437 180.279 841.333C180.054 840.632 179.73 839.982 179.264 839.41C179.021 839.111 178.743 838.852 178.426 838.634C178.339 838.574 178.252 838.543 178.143 838.55C177.178 838.626 176.428 839.05 175.946 839.904C175.884 840.014 175.803 840.084 175.69 840.138C175.148 840.397 174.605 840.661 174.067 840.929C173.969 840.977 173.874 841.038 173.791 841.109C173.417 841.43 173.051 841.759 172.676 842.077C172.556 842.18 172.465 842.298 172.407 842.443C172.362 842.551 172.314 842.661 172.275 842.772C172.126 843.182 172.033 843.603 171.986 844.034C171.973 844.147 171.938 844.239 171.849 844.322C171.504 844.636 171.167 844.96 170.825 845.28C170.788 845.315 170.75 845.351 170.709 845.38C170.229 845.702 169.792 846.08 169.339 846.441C169.238 846.522 169.161 846.617 169.101 846.732C168.84 847.219 168.577 847.703 168.31 848.187C168.232 848.327 168.141 848.462 168.044 848.589C167.851 848.838 167.651 849.08 167.45 849.32C167.397 849.384 167.333 849.446 167.262 849.486C166.822 849.743 166.378 849.992 165.938 850.248C165.844 850.302 165.752 850.32 165.647 850.31C164.87 850.238 164.092 850.165 163.315 850.097C163.224 850.088 163.132 850.077 163.043 850.087C163.047 850.172 163.051 850.218 163.06 850.26C163.324 850.629 163.596 850.991 163.881 851.343C164.447 851.849 165.097 852.224 165.784 852.542C165.85 852.573 165.931 852.585 166.004 852.589C166.615 852.62 167.226 852.651 167.836 852.678C167.915 852.68 167.983 852.7 168.053 852.737C168.213 852.824 168.387 852.852 168.567 852.869C168.989 852.908 169.396 852.823 169.801 852.725C170.279 852.607 170.756 852.488 171.234 852.369C171.301 852.353 171.364 852.352 171.429 852.391C171.602 852.495 171.794 852.511 171.994 852.505C172.372 852.492 172.73 852.391 173.083 852.262C173.211 852.215 173.34 852.172 173.47 852.141C173.898 852.036 174.329 851.935 174.758 851.836C174.939 851.793 175.121 851.756 175.293 851.72C175.332 851.756 175.359 851.779 175.384 851.801C175.611 852.026 175.885 852.144 176.201 852.174C176.423 852.196 176.643 852.175 176.856 852.114C177.017 852.069 177.175 852.014 177.337 851.964C177.403 852.043 177.463 852.116 177.523 852.186C177.817 852.529 178.138 852.844 178.514 853.098C178.901 853.36 179.292 853.617 179.686 853.868C179.843 853.966 180.012 854.053 180.184 854.121C180.466 854.233 180.759 854.271 181.055 854.174C181.124 854.153 181.187 854.16 181.255 854.178C181.759 854.307 182.266 854.28 182.771 854.193C183.12 854.133 183.44 854.008 183.717 853.781C183.889 853.64 184.064 853.506 184.232 853.363C184.528 853.109 184.824 852.853 185.116 852.594C185.402 852.342 185.734 852.182 186.1 852.083C186.265 852.037 186.431 852.003 186.6 852.004C186.864 852.004 187.102 852.074 187.284 852.284C187.483 852.516 187.694 852.737 187.889 852.972C187.989 853.093 188.11 853.144 188.259 853.163C188.612 853.212 188.962 853.275 189.316 853.323C189.441 853.338 189.541 853.382 189.629 853.47C189.767 853.609 189.911 853.739 190.055 853.873C190.114 853.927 190.172 853.976 190.226 854.025ZM190.353 847.486C190.375 847.44 190.394 847.393 190.411 847.345C190.474 847.169 190.535 846.994 190.597 846.817C190.644 846.681 190.692 846.546 190.741 846.41C190.755 846.37 190.762 846.331 190.778 846.279C190.682 846.155 190.592 846.022 190.486 845.902L190.484 845.902C190.375 845.778 190.335 845.62 190.246 845.456C190.045 845.518 189.853 845.552 189.702 845.694C189.735 845.764 189.756 845.819 189.786 845.868C189.953 846.143 190.034 846.443 190.059 846.759C190.068 846.869 190.072 846.979 190.082 847.088C190.094 847.216 190.107 847.342 190.125 847.467C190.135 847.531 190.131 847.619 190.221 847.624C190.304 847.627 190.323 847.545 190.353 847.486ZM191.58 847.964C191.696 848.459 191.828 848.95 191.958 849.442C191.997 849.587 192.038 849.737 192.163 849.839C192.517 849.694 192.685 849.437 192.688 849.077C192.691 848.824 192.62 848.605 192.432 848.436C192.138 848.173 192 847.844 191.958 847.455C191.937 847.255 191.871 847.058 191.811 846.866C191.79 846.798 191.736 846.733 191.683 846.683C191.641 846.647 191.587 846.644 191.542 846.663C191.503 846.68 191.47 846.712 191.463 846.759C191.442 846.892 191.425 847.031 191.443 847.164C191.452 847.241 191.464 847.32 191.477 847.4C191.503 847.587 191.536 847.777 191.58 847.964Z" stroke="#A07C4A"/>
</svg>
