<svg width="466" height="619" viewBox="0 0 466 619" fill="none" xmlns="http://www.w3.org/2000/svg">
<path d="M1.72949 1C319.729 62 481.229 320.5 464.229 616M9.229 345.17C193.831 211.809 452.649 337.332 462.222 564.865L464.383 616.221M3.58032 190.034C186.814 247.977 303.613 427.531 282.1 618.5M447.74 432.313L3.42085 546.241M299.409 169.264L3.19692 455.223M37.2415 14.5493L3.0631 138.731M220.008 612.804L220.457 582.574C222.579 439.8 134.733 311.101 1 261.057C167.646 309.653 243.66 439.716 220.008 612.804ZM85.1894 140.483L57.9556 106.963L91.4734 134.196L90.7854 132.749L90.6354 132.899L88.4754 130.74L89.3924 129.823L81.7314 113.707L101.219 136.114L101.329 136.005L96.9914 113.708L109.605 138.319L110.441 137.484L112.601 139.642L111.068 141.176L118.993 156.638C119.701 157.198 120.308 157.874 120.79 158.637C121.889 160.386 122.277 162.489 121.875 164.515C121.473 166.541 120.312 168.337 118.629 169.534C116.946 170.732 114.868 171.24 112.822 170.956C110.777 170.671 108.917 169.614 107.625 168.003L64.7005 145.998L87.3024 150.393L64.6994 130.739L85.1894 140.483ZM68.9653 117.973L100.667 156.992L88.4744 137.484L107.989 149.679L68.9653 117.973ZM90.5964 128.619L90.6364 128.578L92.7964 130.738L91.9874 131.546L94.3654 136.545L111.757 150.676L88.2064 123.596L90.5964 128.619ZM108.749 140.11L108.281 139.642L108.431 139.492L104.23 131.31L103.734 131.806L102.666 130.738L103.504 129.9L100.716 124.468L103.489 138.727L114.596 151.5L108.749 140.11ZM107.899 166.77C108.911 168.374 110.519 169.51 112.368 169.929C114.217 170.348 116.157 170.015 117.761 169.005C118.957 168.25 119.903 167.158 120.479 165.866C121.055 164.575 121.235 163.141 120.996 161.747C120.757 160.353 120.109 159.061 119.136 158.035C118.163 157.009 116.907 156.294 115.528 155.981C114.148 155.669 112.707 155.772 111.387 156.279C110.066 156.786 108.926 157.672 108.109 158.827C107.292 159.982 106.837 161.353 106.799 162.767C106.762 164.181 107.145 165.574 107.899 166.77ZM79.8754 151.992L78.9614 151.077L79.5244 150.514L75.4594 149.725L79.8754 151.992ZM80.7784 150.758L81.0974 151.077L80.0784 152.096L102.495 163.607L89.7194 152.496L80.7784 150.758ZM101.671 160.767L87.5394 143.374L74.5884 137.216L85.3644 146.586L84.7774 145.999L85.8454 144.931L86.9134 145.999L85.8784 147.034L101.671 160.767ZM308.949 368.719C308.696 368.846 308.415 368.931 308.12 368.972C307.825 369.012 307.522 369.005 307.23 368.953C306.938 368.901 306.662 368.804 306.418 368.667C306.174 368.53 305.966 368.357 305.807 368.157C305.647 367.957 305.538 367.733 305.487 367.5C305.436 367.267 305.444 367.028 305.51 366.797C305.576 366.566 305.699 366.348 305.872 366.154C306.044 365.961 306.263 365.796 306.517 365.67C306.592 365.632 306.672 365.608 306.749 365.58C305.962 366.04 305.733 366.897 306.26 367.561C306.527 367.895 306.951 368.133 307.439 368.22C307.927 368.308 308.439 368.239 308.863 368.028C309.263 367.827 309.553 367.512 309.671 367.148C309.789 366.784 309.728 366.399 309.499 366.069C309.556 366.123 309.613 366.174 309.66 366.234C309.982 366.638 310.089 367.127 309.956 367.593C309.823 368.059 309.46 368.464 308.949 368.719ZM309.85 267.354C309.785 267.354 309.721 267.335 309.663 267.296C309.509 267.192 309.468 266.983 309.572 266.828C309.816 266.467 310.083 266.094 310.366 265.719C310.478 265.571 310.689 265.541 310.837 265.654C310.986 265.766 311.016 265.977 310.904 266.125C310.629 266.49 310.367 266.854 310.129 267.206C310.064 267.302 309.958 267.354 309.85 267.354ZM324.515 257.504C324.465 257.53 324.412 257.542 324.36 257.542C324.239 257.542 324.121 257.476 324.061 257.36C324.021 257.283 323.973 257.217 323.914 257.158C323.758 257.001 323.527 256.909 323.228 256.886C323.042 256.871 322.904 256.709 322.919 256.524C322.934 256.338 323.095 256.2 323.281 256.214C323.745 256.252 324.118 256.409 324.391 256.682C324.497 256.789 324.587 256.913 324.659 257.05C324.745 257.216 324.68 257.419 324.515 257.504ZM308.499 269.681C308.451 269.681 308.403 269.671 308.356 269.649C308.188 269.57 308.116 269.37 308.195 269.201C308.377 268.814 308.594 268.405 308.84 267.985C308.934 267.825 309.14 267.771 309.301 267.864C309.461 267.959 309.515 268.165 309.421 268.325C309.185 268.728 308.978 269.119 308.804 269.488C308.747 269.61 308.626 269.681 308.499 269.681ZM315.396 269.825C315.43 269.798 315.466 269.768 315.501 269.741C315.288 269.561 315.073 269.373 314.856 269.18C314.773 269.248 314.689 269.318 314.607 269.383C314.545 269.433 314.47 269.457 314.397 269.457C314.298 269.457 314.2 269.414 314.134 269.331C314.018 269.186 314.041 268.974 314.186 268.858C314.241 268.814 314.297 268.767 314.352 268.722C313.965 268.366 313.574 267.995 313.175 267.595C307.834 262.254 306.35 257.974 307.665 256.659C308.763 255.561 311.929 256.416 316.052 259.837C316.383 259.566 316.714 259.305 317.039 259.061C317.188 258.95 317.399 258.98 317.511 259.128C317.622 259.277 317.592 259.488 317.443 259.6C317.158 259.814 316.867 260.044 316.576 260.28C316.788 260.463 317.003 260.654 317.22 260.851C317.538 260.586 317.855 260.329 318.162 260.092C318.309 259.979 318.52 260.006 318.634 260.153C318.747 260.3 318.72 260.512 318.573 260.625C318.294 260.841 318.007 261.073 317.718 261.313C318.009 261.587 318.303 261.871 318.601 262.169C319.027 262.595 319.425 263.013 319.803 263.424C319.807 263.356 319.826 263.289 319.872 263.232C320.166 262.875 320.443 262.523 320.695 262.185C320.806 262.036 321.017 262.006 321.166 262.117C321.315 262.228 321.346 262.439 321.234 262.588C320.976 262.934 320.693 263.294 320.392 263.66C320.326 263.741 320.229 263.783 320.132 263.783C320.132 263.783 320.129 263.782 320.127 263.782C324.216 268.359 325.291 271.925 324.111 273.105C323.814 273.401 323.368 273.555 322.792 273.555C321.288 273.555 318.904 272.499 316.031 270.178C315.958 270.237 315.885 270.297 315.812 270.355C315.75 270.403 315.677 270.427 315.604 270.427C315.504 270.427 315.406 270.383 315.339 270.298C315.224 270.152 315.249 269.94 315.396 269.825ZM316.042 269.301C316.17 269.194 316.298 269.088 316.425 268.979C316.566 268.859 316.779 268.874 316.9 269.016C317.021 269.157 317.004 269.369 316.863 269.49C316.768 269.573 316.671 269.652 316.574 269.733C319.959 272.412 322.806 273.456 323.635 272.628C324.461 271.802 323.42 268.961 320.749 265.581C320.737 265.605 320.727 265.63 320.709 265.652C320.54 265.848 320.367 266.043 320.191 266.238C321.971 268.412 323.462 270.769 322.618 271.612C322.455 271.776 322.234 271.858 321.954 271.858C321.355 271.858 320.484 271.483 319.323 270.727C317.818 269.748 316.025 268.245 314.275 266.495C312.525 264.745 311.022 262.952 310.043 261.447C308.934 259.742 308.645 258.665 309.158 258.152C310.433 256.875 315.173 260.941 317.501 263.269C317.875 263.642 318.294 264.079 318.728 264.553C318.821 264.45 318.915 264.347 319.005 264.245C319.128 264.107 319.341 264.094 319.48 264.217C319.619 264.341 319.632 264.553 319.508 264.693C319.402 264.813 319.291 264.934 319.181 265.055C319.372 265.271 319.565 265.492 319.756 265.717C319.906 265.549 320.054 265.381 320.199 265.213C320.245 265.159 320.307 265.129 320.371 265.113C319.71 264.309 318.961 263.481 318.125 262.645C316.016 260.535 313.782 258.809 311.835 257.783C310.677 257.174 309.688 256.858 308.992 256.858C308.617 256.858 308.327 256.949 308.141 257.135C307.609 257.667 307.852 259.048 308.79 260.829C309.815 262.776 311.541 265.009 313.651 267.119C314.062 267.53 314.47 267.919 314.876 268.288C314.987 268.193 315.098 268.1 315.21 268.003C315.351 267.88 315.563 267.896 315.685 268.037C315.807 268.177 315.792 268.389 315.651 268.511C315.562 268.589 315.472 268.664 315.382 268.74C315.604 268.934 315.824 269.12 316.042 269.301ZM319.302 266.216C319.119 265.999 318.926 265.777 318.724 265.549C318.679 265.597 318.636 265.645 318.59 265.693C318.524 265.763 318.435 265.798 318.345 265.798C318.262 265.798 318.179 265.767 318.114 265.706C317.979 265.578 317.973 265.365 318.101 265.23C318.159 265.168 318.215 265.108 318.272 265.047C317.886 264.627 317.474 264.194 317.025 263.745C313.393 260.113 310.638 258.568 309.832 258.568C309.74 258.568 309.673 258.588 309.634 258.628C309.529 258.733 309.5 259.377 310.607 261.08C311.561 262.547 313.033 264.301 314.751 266.019C315.201 266.469 315.653 266.901 316.103 267.313C316.113 267.238 316.143 267.166 316.202 267.11C316.522 266.813 316.844 266.505 317.166 266.185C317.298 266.054 317.512 266.055 317.642 266.187C317.773 266.319 317.772 266.532 317.64 266.663C317.312 266.988 316.985 267.302 316.661 267.604C316.617 267.644 316.564 267.666 316.51 267.679C316.783 267.922 317.054 268.159 317.322 268.383C317.307 268.278 317.337 268.169 317.42 268.092C317.742 267.793 318.066 267.481 318.382 267.166C318.514 267.035 318.727 267.035 318.858 267.167C318.989 267.298 318.989 267.512 318.857 267.643C318.536 267.964 318.207 268.281 317.878 268.586C317.82 268.64 317.747 268.666 317.673 268.671C318.381 269.247 319.062 269.755 319.69 270.163C321.393 271.27 322.037 271.242 322.142 271.136C322.425 270.853 321.712 269.185 319.721 266.722C319.669 266.751 319.614 266.772 319.555 266.772C319.473 266.772 319.391 266.742 319.326 266.682C319.193 266.558 319.185 266.353 319.302 266.216ZM308.105 270.275C308.283 270.328 308.384 270.516 308.331 270.694C308.205 271.113 308.142 271.485 308.142 271.799C308.142 271.835 308.144 271.871 308.145 271.906C308.154 272.092 308.011 272.25 307.826 272.259C307.82 272.259 307.814 272.259 307.809 272.259C307.63 272.259 307.482 272.119 307.473 271.939C307.471 271.893 307.469 271.846 307.469 271.799C307.469 271.42 307.542 270.983 307.686 270.501C307.739 270.323 307.927 270.223 308.105 270.275ZM313.226 271.361C313.584 271.137 313.955 270.888 314.329 270.623C314.481 270.515 314.691 270.551 314.799 270.702C314.906 270.854 314.871 271.064 314.719 271.172C314.335 271.445 313.953 271.7 313.584 271.932C313.528 271.966 313.466 271.983 313.405 271.983C313.293 271.983 313.183 271.927 313.12 271.825C313.021 271.667 313.069 271.46 313.226 271.361ZM308.579 272.774C308.755 272.877 308.989 272.93 309.274 272.93C309.401 272.92 309.53 272.92 309.671 272.9C309.853 272.875 310.026 273.003 310.052 273.187C310.078 273.371 309.95 273.541 309.766 273.567C309.595 273.591 309.432 273.603 309.28 273.603C308.874 273.606 308.519 273.52 308.237 273.353C308.077 273.259 308.024 273.052 308.118 272.892C308.213 272.732 308.42 272.68 308.579 272.774ZM310.894 272.564C311.266 272.422 311.666 272.239 312.083 272.021C312.248 271.934 312.451 271.998 312.537 272.163C312.623 272.327 312.56 272.531 312.395 272.617C311.955 272.847 311.531 273.041 311.135 273.193C311.095 273.208 311.055 273.215 311.015 273.215C310.879 273.215 310.752 273.133 310.7 272.999C310.634 272.826 310.72 272.631 310.894 272.564ZM324.117 260.153C324.076 260.153 324.034 260.145 323.994 260.129C323.821 260.062 323.735 259.866 323.803 259.693C323.98 259.243 324.098 258.832 324.155 258.472C324.184 258.288 324.356 258.165 324.539 258.191C324.723 258.22 324.848 258.392 324.82 258.576C324.755 258.985 324.624 259.443 324.43 259.939C324.378 260.072 324.251 260.153 324.117 260.153ZM323.706 260.739C323.87 260.827 323.933 261.03 323.846 261.194C323.644 261.576 323.412 261.975 323.156 262.381C323.092 262.482 322.983 262.538 322.871 262.538C322.81 262.538 322.747 262.521 322.692 262.486C322.535 262.386 322.487 262.179 322.587 262.022C322.833 261.63 323.057 261.246 323.251 260.879C323.338 260.715 323.541 260.652 323.706 260.739ZM322.02 257.051C321.651 257.157 321.244 257.313 320.811 257.514C320.766 257.535 320.718 257.545 320.67 257.545C320.543 257.545 320.421 257.472 320.365 257.35C320.286 257.181 320.36 256.981 320.528 256.903C320.993 256.688 321.431 256.52 321.833 256.404C322.012 256.353 322.198 256.456 322.25 256.634C322.301 256.813 322.198 256.999 322.02 257.051ZM319.646 258.125C319.284 258.335 318.906 258.572 318.524 258.828C318.467 258.867 318.402 258.886 318.337 258.886C318.229 258.886 318.122 258.833 318.057 258.737C317.953 258.583 317.995 258.373 318.149 258.27C318.543 258.005 318.933 257.76 319.308 257.542C319.469 257.449 319.675 257.504 319.768 257.665C319.862 257.826 319.807 258.032 319.646 258.125ZM322.316 263.044C322.467 263.152 322.502 263.362 322.394 263.514C322.139 263.87 321.863 264.236 321.574 264.602C321.508 264.686 321.409 264.73 321.31 264.73C321.237 264.73 321.163 264.707 321.102 264.658C320.956 264.543 320.931 264.331 321.046 264.185C321.328 263.827 321.597 263.47 321.846 263.122C321.954 262.971 322.164 262.936 322.316 263.044ZM309.458 271.226C309.571 271.079 309.782 271.051 309.93 271.164C310.014 271.229 310.23 271.273 310.886 271.001C311.058 270.93 311.255 271.012 311.325 271.183C311.397 271.355 311.315 271.552 311.143 271.623C310.731 271.794 310.393 271.877 310.11 271.877C309.872 271.877 309.674 271.817 309.52 271.698C309.372 271.585 309.344 271.373 309.458 271.226ZM310.037 270.288C309.985 270.421 309.858 270.503 309.723 270.503C309.682 270.503 309.641 270.496 309.601 270.48C309.428 270.413 309.342 270.218 309.409 270.045C309.55 269.681 309.763 269.26 310.043 268.793C310.139 268.634 310.346 268.583 310.505 268.678C310.664 268.774 310.716 268.98 310.62 269.14C310.36 269.573 310.164 269.96 310.037 270.288ZM320.434 258.559C320.596 258.469 320.801 258.528 320.891 258.691C320.981 258.854 320.922 259.058 320.759 259.148C320.417 259.337 320.042 259.571 319.643 259.843C319.585 259.883 319.519 259.902 319.454 259.902C319.346 259.902 319.241 259.851 319.175 259.755C319.071 259.602 319.11 259.393 319.263 259.288C319.68 259.003 320.073 258.758 320.434 258.559ZM313.129 269.664C313.28 269.556 313.49 269.59 313.599 269.74C313.708 269.891 313.674 270.102 313.523 270.21C313.123 270.499 312.739 270.756 312.383 270.974C312.328 271.007 312.267 271.023 312.207 271.023C312.094 271.023 311.983 270.966 311.92 270.863C311.823 270.704 311.873 270.497 312.031 270.4C312.373 270.19 312.742 269.943 313.129 269.664ZM311.074 268.18C311.007 268.18 310.938 268.16 310.879 268.118C310.728 268.009 310.693 267.799 310.8 267.648C311.05 267.298 311.327 266.932 311.623 266.559C311.739 266.414 311.95 266.39 312.096 266.506C312.241 266.621 312.266 266.833 312.15 266.979C311.861 267.342 311.591 267.699 311.349 268.039C311.283 268.131 311.179 268.18 311.074 268.18ZM322.11 259.971C322.192 259.804 322.394 259.735 322.561 259.818C322.728 259.9 322.796 260.102 322.714 260.268C322.535 260.631 322.301 261.034 322.019 261.468C321.954 261.567 321.846 261.621 321.736 261.621C321.673 261.621 321.61 261.603 321.553 261.566C321.397 261.465 321.353 261.256 321.455 261.101C321.722 260.689 321.943 260.309 322.11 259.971ZM322.811 259.177C322.625 259.177 322.475 259.023 322.475 258.837C322.475 258.745 322.458 258.678 322.428 258.648C322.369 258.589 322.165 258.586 321.914 258.65C321.733 258.695 321.551 258.586 321.505 258.406C321.459 258.226 321.568 258.042 321.748 257.997C322.27 257.865 322.657 257.925 322.904 258.172C323.066 258.334 323.148 258.558 323.148 258.844C323.148 259.03 322.997 259.177 322.811 259.177ZM316.071 266.026C315.514 266.026 315.061 265.572 315.061 265.016C315.061 264.459 315.514 264.006 316.071 264.006C316.628 264.006 317.081 264.459 317.081 265.016C317.081 265.573 316.628 266.026 316.071 266.026ZM316.071 264.679C315.885 264.679 315.734 264.83 315.734 265.016C315.734 265.201 315.885 265.352 316.071 265.352C316.256 265.352 316.407 265.201 316.407 265.016C316.407 264.83 316.256 264.679 316.071 264.679ZM290.508 423.614C290.515 423.614 290.522 423.613 290.529 423.613C290.808 423.602 291.026 423.366 291.015 423.086C291.012 423.009 291.01 422.931 291.01 422.853C291.01 422.573 290.783 422.346 290.503 422.346C290.223 422.346 289.996 422.573 289.996 422.853C289.996 422.945 289.998 423.036 290.002 423.127C290.013 423.4 290.237 423.614 290.508 423.614ZM304.19 432.45C304.193 432.45 304.196 432.45 304.198 432.45C304.375 432.447 304.55 432.442 304.724 432.434C305.004 432.42 305.22 432.183 305.207 431.903C305.194 431.624 304.957 431.407 304.677 431.421C304.513 431.428 304.348 431.434 304.183 431.436C303.903 431.44 303.679 431.671 303.684 431.951C303.688 432.228 303.914 432.45 304.19 432.45ZM302.406 432.393C302.669 432.393 302.891 432.191 302.911 431.925C302.932 431.646 302.723 431.402 302.444 431.381C302.278 431.368 302.114 431.353 301.95 431.336C301.672 431.308 301.422 431.51 301.393 431.788C301.364 432.067 301.567 432.316 301.845 432.345C302.018 432.363 302.192 432.378 302.367 432.392C302.38 432.393 302.393 432.393 302.406 432.393ZM306.475 432.249C306.502 432.249 306.53 432.246 306.558 432.242C306.732 432.213 306.906 432.182 307.077 432.148C307.351 432.093 307.53 431.826 307.475 431.552C307.42 431.277 307.153 431.099 306.879 431.153C306.72 431.185 306.557 431.215 306.394 431.241C306.118 431.286 305.93 431.547 305.976 431.823C306.016 432.072 306.231 432.249 306.475 432.249ZM300.133 432.082C300.369 432.082 300.581 431.915 300.629 431.674C300.684 431.399 300.506 431.132 300.231 431.078C300.068 431.045 299.906 431.01 299.746 430.974C299.473 430.911 299.201 431.082 299.139 431.355C299.077 431.628 299.247 431.9 299.52 431.962C299.69 432.001 299.861 432.037 300.033 432.072C300.067 432.079 300.1 432.082 300.133 432.082ZM308.704 431.701C308.757 431.701 308.811 431.692 308.865 431.675C309.032 431.618 309.2 431.559 309.364 431.497C309.626 431.397 309.757 431.105 309.658 430.843C309.559 430.581 309.266 430.449 309.005 430.548C308.853 430.606 308.698 430.661 308.543 430.713C308.277 430.802 308.134 431.09 308.223 431.355C308.294 431.567 308.492 431.701 308.704 431.701ZM297.915 431.489C298.126 431.489 298.323 431.356 298.395 431.145C298.485 430.88 298.343 430.592 298.078 430.502C297.921 430.449 297.766 430.393 297.613 430.336C297.35 430.238 297.058 430.37 296.96 430.633C296.862 430.895 296.994 431.187 297.256 431.285C297.42 431.346 297.585 431.405 297.752 431.462C297.806 431.48 297.861 431.489 297.915 431.489ZM310.803 430.778C310.887 430.778 310.972 430.757 311.051 430.713C311.207 430.625 311.362 430.533 311.51 430.44C311.748 430.291 311.819 429.978 311.671 429.741C311.522 429.504 311.209 429.432 310.972 429.581C310.837 429.665 310.696 429.749 310.554 429.829C310.31 429.966 310.223 430.275 310.361 430.519C310.453 430.684 310.626 430.778 310.803 430.778ZM295.801 430.596C295.985 430.596 296.162 430.495 296.252 430.321C296.381 430.072 296.283 429.766 296.034 429.638C295.888 429.562 295.742 429.484 295.601 429.405C295.357 429.267 295.048 429.354 294.911 429.598C294.774 429.842 294.86 430.151 295.104 430.288C295.256 430.374 295.412 430.458 295.57 430.539C295.644 430.577 295.723 430.596 295.801 430.596ZM312.659 429.435C312.783 429.435 312.907 429.389 313.005 429.298C313.138 429.173 313.267 429.044 313.389 428.915C313.581 428.711 313.571 428.39 313.367 428.198C313.163 428.006 312.842 428.017 312.65 428.22C312.543 428.334 312.429 428.448 312.312 428.558C312.107 428.749 312.097 429.07 312.288 429.274C312.388 429.381 312.523 429.435 312.659 429.435ZM293.861 429.373C294.013 429.373 294.164 429.305 294.264 429.175C294.434 428.953 294.392 428.635 294.17 428.464C294.04 428.364 293.912 428.262 293.79 428.159C293.576 427.979 293.256 428.006 293.076 428.221C292.895 428.435 292.923 428.755 293.137 428.935C293.271 429.047 293.411 429.16 293.553 429.269C293.645 429.339 293.753 429.373 293.861 429.373ZM292.204 427.791C292.318 427.791 292.432 427.753 292.527 427.675C292.743 427.497 292.773 427.177 292.595 426.962C292.492 426.837 292.393 426.71 292.3 426.583C292.134 426.357 291.817 426.308 291.591 426.473C291.365 426.638 291.316 426.956 291.482 427.181C291.586 427.324 291.698 427.467 291.813 427.607C291.913 427.729 292.058 427.791 292.204 427.791ZM314.063 427.633C314.244 427.633 314.42 427.535 314.511 427.363C314.598 427.199 314.678 427.03 314.749 426.861C314.857 426.603 314.736 426.306 314.478 426.198C314.22 426.089 313.923 426.211 313.814 426.469C313.755 426.609 313.688 426.751 313.615 426.888C313.484 427.136 313.578 427.442 313.826 427.574C313.901 427.614 313.983 427.633 314.063 427.633ZM291.009 425.842C291.075 425.842 291.141 425.829 291.205 425.802C291.463 425.694 291.585 425.397 291.477 425.139C291.416 424.994 291.36 424.845 291.311 424.697C291.223 424.432 290.936 424.288 290.67 424.376C290.405 424.464 290.261 424.751 290.349 425.017C290.406 425.189 290.471 425.361 290.542 425.53C290.623 425.724 290.811 425.842 291.009 425.842ZM310.933 412.166C310.935 412.166 310.937 412.166 310.94 412.166C311.022 412.165 311.104 412.165 311.187 412.165C311.467 412.165 311.694 411.938 311.694 411.658C311.694 411.378 311.467 411.151 311.187 411.151C311.1 411.151 311.014 411.152 310.927 411.153C310.647 411.156 310.423 411.386 310.426 411.666C310.43 411.944 310.656 412.166 310.933 412.166ZM306.455 428.399C306.705 428.399 306.923 428.213 306.957 427.957C306.993 427.68 306.797 427.425 306.519 427.389C306.356 427.368 306.192 427.344 306.032 427.317C305.755 427.272 305.494 427.459 305.449 427.735C305.403 428.011 305.591 428.272 305.867 428.318C306.039 428.346 306.214 428.372 306.389 428.395C306.411 428.398 306.433 428.399 306.455 428.399ZM304.209 427.928C304.428 427.928 304.63 427.785 304.695 427.564C304.774 427.296 304.621 427.014 304.352 426.935C304.195 426.888 304.037 426.839 303.884 426.787C303.618 426.698 303.331 426.841 303.242 427.106C303.152 427.371 303.295 427.659 303.561 427.748C303.726 427.804 303.896 427.857 304.065 427.907C304.113 427.921 304.161 427.928 304.209 427.928ZM302.074 427.089C302.259 427.089 302.438 426.987 302.527 426.81C302.653 426.56 302.553 426.255 302.303 426.129C302.158 426.056 302.013 425.979 301.873 425.9C301.629 425.762 301.32 425.849 301.183 426.093C301.045 426.337 301.131 426.646 301.375 426.783C301.529 426.87 301.687 426.954 301.846 427.035C301.919 427.071 301.997 427.089 302.074 427.089ZM300.152 425.841C300.298 425.841 300.442 425.779 300.542 425.658C300.722 425.443 300.692 425.124 300.477 424.944C300.353 424.841 300.232 424.734 300.118 424.627C299.914 424.435 299.593 424.445 299.401 424.649C299.209 424.853 299.219 425.174 299.423 425.366C299.553 425.487 299.689 425.608 299.828 425.724C299.923 425.802 300.038 425.841 300.152 425.841ZM298.627 424.138C298.72 424.138 298.814 424.113 298.899 424.058C299.135 423.908 299.204 423.594 299.053 423.358C298.969 423.226 298.89 423.09 298.818 422.955C298.688 422.707 298.382 422.612 298.134 422.742C297.886 422.872 297.791 423.179 297.921 423.427C298.006 423.587 298.099 423.748 298.199 423.904C298.296 424.056 298.459 424.138 298.627 424.138ZM297.806 422.013C297.832 422.013 297.858 422.011 297.883 422.007C298.16 421.965 298.35 421.706 298.308 421.43C298.285 421.279 298.27 421.125 298.262 420.973C298.248 420.694 298.01 420.479 297.731 420.492C297.451 420.506 297.236 420.744 297.249 421.024C297.259 421.21 297.278 421.398 297.306 421.583C297.344 421.833 297.56 422.013 297.806 422.013ZM297.937 419.737C298.164 419.737 298.371 419.583 298.429 419.352C298.466 419.201 298.51 419.049 298.56 418.9C298.649 418.635 298.505 418.348 298.239 418.259C297.974 418.17 297.687 418.314 297.598 418.58C297.54 418.753 297.489 418.93 297.445 419.107C297.377 419.379 297.542 419.654 297.814 419.721C297.855 419.732 297.896 419.737 297.937 419.737ZM298.852 417.643C299.019 417.643 299.183 417.561 299.28 417.41C299.364 417.278 299.455 417.145 299.55 417.016C299.716 416.79 299.667 416.473 299.441 416.307C299.215 416.141 298.898 416.19 298.732 416.416C298.625 416.563 298.522 416.713 298.426 416.863C298.275 417.099 298.344 417.412 298.579 417.563C298.664 417.618 298.759 417.643 298.852 417.643ZM300.333 415.896C300.456 415.896 300.579 415.852 300.677 415.761C300.794 415.653 300.917 415.545 301.041 415.44C301.256 415.26 301.283 414.94 301.103 414.726C300.923 414.512 300.604 414.484 300.389 414.664C300.252 414.779 300.117 414.898 299.988 415.017C299.783 415.208 299.77 415.528 299.961 415.734C300.06 415.842 300.196 415.896 300.333 415.896ZM302.166 414.519C302.256 414.519 302.347 414.495 302.43 414.444C302.567 414.36 302.71 414.276 302.854 414.195C303.098 414.058 303.184 413.749 303.047 413.505C302.91 413.261 302.601 413.174 302.357 413.312C302.201 413.399 302.048 413.489 301.9 413.58C301.661 413.726 301.586 414.038 301.733 414.277C301.829 414.433 301.995 414.519 302.166 414.519ZM304.212 413.484C304.277 413.484 304.342 413.472 304.405 413.446C304.556 413.384 304.71 413.323 304.865 413.265C305.127 413.167 305.26 412.875 305.162 412.613C305.064 412.35 304.771 412.217 304.509 412.316C304.344 412.378 304.181 412.442 304.02 412.508C303.761 412.615 303.637 412.911 303.743 413.17C303.824 413.366 304.013 413.484 304.212 413.484ZM306.39 412.761C306.432 412.761 306.474 412.756 306.517 412.745C306.676 412.704 306.837 412.665 306.999 412.628C307.272 412.566 307.443 412.294 307.38 412.021C307.318 411.748 307.046 411.577 306.773 411.64C306.602 411.679 306.432 411.72 306.263 411.764C305.992 411.834 305.83 412.11 305.899 412.381C305.958 412.61 306.164 412.761 306.39 412.761ZM308.643 412.328C308.665 412.328 308.687 412.326 308.709 412.323C308.873 412.302 309.037 412.283 309.203 412.266C309.481 412.237 309.684 411.988 309.655 411.71C309.626 411.431 309.377 411.229 309.099 411.258C308.924 411.276 308.751 411.296 308.579 411.318C308.301 411.354 308.105 411.608 308.141 411.886C308.174 412.141 308.392 412.328 308.643 412.328ZM327.733 426.159C328.013 426.159 328.24 425.932 328.24 425.652C328.24 425.56 328.238 425.469 328.234 425.378C328.223 425.098 327.987 424.882 327.707 424.892C327.427 424.904 327.21 425.14 327.221 425.42C327.224 425.497 327.226 425.574 327.226 425.652C327.226 425.932 327.453 426.159 327.733 426.159ZM327.404 424.155C327.458 424.155 327.511 424.147 327.565 424.129C327.83 424.041 327.974 423.754 327.886 423.488C327.828 423.316 327.764 423.144 327.693 422.975C327.585 422.717 327.288 422.595 327.03 422.703C326.772 422.811 326.65 423.108 326.758 423.366C326.819 423.512 326.874 423.66 326.923 423.808C326.994 424.021 327.192 424.155 327.404 424.155ZM303.953 422.347C304.151 422.347 304.339 422.23 304.421 422.037C304.48 421.896 304.547 421.755 304.62 421.617C304.751 421.37 304.656 421.063 304.409 420.932C304.162 420.801 303.855 420.895 303.724 421.142C303.637 421.307 303.557 421.475 303.486 421.644C303.377 421.902 303.499 422.199 303.757 422.308C303.821 422.334 303.888 422.347 303.953 422.347ZM326.344 422.13C326.448 422.13 326.553 422.098 326.643 422.032C326.869 421.867 326.919 421.55 326.753 421.324C326.648 421.18 326.537 421.037 326.421 420.898C326.243 420.682 325.924 420.652 325.708 420.83C325.492 421.008 325.462 421.328 325.64 421.544C325.743 421.668 325.842 421.795 325.935 421.923C326.034 422.058 326.188 422.13 326.344 422.13ZM324.771 420.465C324.915 420.465 325.059 420.404 325.159 420.285C325.339 420.07 325.312 419.75 325.098 419.57C324.964 419.458 324.824 419.346 324.682 419.237C324.46 419.066 324.142 419.108 323.971 419.33C323.801 419.552 323.843 419.87 324.065 420.041C324.195 420.141 324.323 420.244 324.445 420.346C324.54 420.426 324.656 420.465 324.771 420.465ZM305.215 420.444C305.35 420.444 305.485 420.391 305.585 420.285C305.691 420.171 305.805 420.057 305.923 419.947C306.127 419.756 306.138 419.435 305.946 419.231C305.755 419.026 305.434 419.016 305.23 419.207C305.097 419.332 304.967 419.461 304.846 419.59C304.654 419.794 304.664 420.115 304.868 420.307C304.966 420.399 305.091 420.444 305.215 420.444ZM322.882 419.166C323.059 419.166 323.231 419.073 323.324 418.907C323.461 418.663 323.375 418.354 323.131 418.217C322.979 418.132 322.823 418.047 322.665 417.966C322.416 417.838 322.111 417.935 321.982 418.184C321.854 418.433 321.952 418.739 322.2 418.867C322.347 418.943 322.493 419.021 322.633 419.1C322.712 419.145 322.797 419.166 322.882 419.166ZM306.994 419.002C307.086 419.002 307.179 418.977 307.263 418.925C307.398 418.84 307.538 418.756 307.68 418.677C307.925 418.54 308.011 418.231 307.874 417.986C307.737 417.742 307.428 417.656 307.184 417.793C307.028 417.88 306.873 417.972 306.724 418.065C306.487 418.214 306.415 418.527 306.564 418.764C306.66 418.918 306.825 419.002 306.994 419.002ZM320.8 418.202C321.005 418.202 321.199 418.076 321.275 417.873C321.373 417.611 321.24 417.318 320.978 417.22C320.815 417.159 320.65 417.1 320.483 417.043C320.218 416.953 319.93 417.095 319.84 417.36C319.75 417.625 319.891 417.913 320.156 418.003C320.314 418.056 320.469 418.112 320.622 418.169C320.681 418.191 320.741 418.202 320.8 418.202ZM309.051 417.99C309.11 417.99 309.171 417.979 309.23 417.957C309.381 417.899 309.537 417.844 309.692 417.792C309.958 417.703 310.101 417.416 310.012 417.15C309.923 416.885 309.636 416.742 309.37 416.831C309.203 416.887 309.035 416.947 308.871 417.009C308.609 417.108 308.477 417.401 308.576 417.662C308.653 417.865 308.846 417.99 309.051 417.99ZM318.602 417.544C318.833 417.544 319.042 417.385 319.096 417.15C319.158 416.877 318.988 416.605 318.715 416.543C318.545 416.504 318.374 416.467 318.202 416.433C317.927 416.378 317.66 416.557 317.605 416.831C317.551 417.106 317.729 417.373 318.004 417.427C318.167 417.46 318.328 417.495 318.488 417.531C318.527 417.54 318.565 417.544 318.602 417.544ZM311.256 417.362C311.289 417.362 311.322 417.358 311.356 417.352C311.515 417.32 311.678 417.29 311.841 417.264C312.117 417.219 312.304 416.958 312.259 416.682C312.214 416.405 311.953 416.217 311.677 416.263C311.503 416.292 311.328 416.323 311.158 416.357C310.883 416.412 310.705 416.679 310.76 416.953C310.808 417.195 311.019 417.362 311.256 417.362ZM316.338 417.171C316.594 417.171 316.815 416.977 316.841 416.717C316.87 416.438 316.668 416.189 316.389 416.16C316.216 416.142 316.043 416.127 315.868 416.113C315.588 416.093 315.345 416.301 315.324 416.58C315.302 416.859 315.511 417.103 315.79 417.124C315.956 417.137 316.121 417.152 316.285 417.169C316.303 417.17 316.32 417.171 316.338 417.171ZM313.534 417.085C313.542 417.085 313.55 417.085 313.558 417.084C313.722 417.077 313.887 417.071 314.052 417.069C314.332 417.065 314.555 416.834 314.551 416.554C314.547 416.274 314.31 416.052 314.036 416.055C313.86 416.058 313.685 416.063 313.51 416.072C313.231 416.085 313.015 416.322 313.028 416.602C313.041 416.873 313.265 417.085 313.534 417.085ZM307.05 437.354C307.137 437.354 307.223 437.354 307.31 437.353C307.59 437.349 307.814 437.119 307.81 436.839C307.806 436.561 307.58 436.339 307.303 436.339C307.301 436.339 307.299 436.339 307.296 436.339C307.214 436.34 307.132 436.341 307.05 436.341C306.77 436.341 306.543 436.568 306.543 436.847C306.543 437.127 306.77 437.354 307.05 437.354ZM309.084 437.251C309.102 437.251 309.119 437.25 309.137 437.248C309.311 437.23 309.485 437.21 309.657 437.188C309.935 437.152 310.13 436.897 310.095 436.62C310.058 436.342 309.804 436.147 309.527 436.182C309.363 436.203 309.199 436.223 309.033 436.24C308.754 436.268 308.552 436.517 308.581 436.796C308.607 437.057 308.828 437.251 309.084 437.251ZM311.349 436.879C311.387 436.879 311.425 436.875 311.462 436.866C311.634 436.827 311.804 436.786 311.972 436.742C312.243 436.672 312.406 436.396 312.336 436.124C312.266 435.853 311.99 435.69 311.718 435.76C311.559 435.802 311.399 435.841 311.237 435.878C310.964 435.94 310.793 436.212 310.855 436.485C310.909 436.72 311.118 436.879 311.349 436.879ZM313.548 436.222C313.607 436.222 313.668 436.212 313.726 436.19C313.892 436.128 314.055 436.064 314.216 435.998C314.475 435.891 314.599 435.595 314.492 435.336C314.386 435.077 314.09 434.953 313.831 435.06C313.679 435.122 313.526 435.182 313.37 435.24C313.108 435.339 312.975 435.631 313.074 435.893C313.15 436.097 313.343 436.222 313.548 436.222ZM315.631 435.259C315.715 435.259 315.801 435.238 315.879 435.194C316.034 435.107 316.188 435.016 316.336 434.926C316.574 434.779 316.649 434.467 316.503 434.229C316.356 433.99 316.044 433.915 315.806 434.062C315.669 434.146 315.526 434.229 315.382 434.31C315.138 434.447 315.051 434.757 315.189 435.001C315.282 435.166 315.454 435.259 315.631 435.259ZM317.521 433.961C317.636 433.961 317.751 433.922 317.847 433.842C317.983 433.727 318.118 433.608 318.247 433.488C318.453 433.298 318.465 432.977 318.275 432.772C318.085 432.566 317.764 432.554 317.559 432.744C317.442 432.853 317.319 432.961 317.194 433.065C316.98 433.246 316.952 433.565 317.132 433.78C317.233 433.899 317.376 433.961 317.521 433.961ZM319.094 432.297C319.25 432.297 319.404 432.225 319.503 432.089C319.611 431.943 319.714 431.793 319.81 431.643C319.961 431.407 319.892 431.093 319.656 430.942C319.42 430.791 319.107 430.86 318.956 431.096C318.871 431.228 318.78 431.361 318.685 431.49C318.52 431.716 318.569 432.033 318.795 432.199C318.885 432.265 318.99 432.297 319.094 432.297ZM320.157 430.273C320.369 430.273 320.567 430.139 320.637 429.926C320.695 429.753 320.747 429.575 320.791 429.399C320.859 429.127 320.693 428.852 320.422 428.784C320.15 428.716 319.875 428.882 319.807 429.153C319.77 429.305 319.725 429.457 319.676 429.605C319.587 429.871 319.731 430.158 319.996 430.247C320.049 430.264 320.103 430.273 320.157 430.273ZM320.479 428.014C320.488 428.014 320.496 428.014 320.505 428.013C320.785 427.999 321 427.761 320.986 427.482C320.977 427.296 320.958 427.108 320.93 426.923C320.888 426.646 320.629 426.456 320.352 426.498C320.075 426.54 319.885 426.799 319.927 427.076C319.951 427.227 319.966 427.38 319.974 427.532C319.987 427.803 320.211 428.014 320.479 428.014ZM319.866 425.822C319.946 425.822 320.027 425.803 320.102 425.764C320.35 425.633 320.445 425.327 320.314 425.079C320.23 424.918 320.136 424.758 320.037 424.602C319.886 424.366 319.572 424.296 319.337 424.447C319.101 424.598 319.032 424.911 319.182 425.147C319.267 425.279 319.346 425.415 319.417 425.551C319.508 425.724 319.684 425.822 319.866 425.822ZM318.465 424.017C318.6 424.017 318.735 423.963 318.835 423.857C319.026 423.653 319.016 423.332 318.812 423.14C318.683 423.019 318.547 422.898 318.407 422.782C318.192 422.603 317.872 422.632 317.693 422.847C317.514 423.063 317.543 423.382 317.759 423.561C317.883 423.664 318.004 423.771 318.118 423.879C318.216 423.971 318.341 424.017 318.465 424.017ZM316.611 422.671C316.788 422.671 316.96 422.578 317.053 422.413C317.19 422.169 317.104 421.86 316.86 421.723C316.707 421.636 316.548 421.552 316.389 421.471C316.139 421.345 315.835 421.445 315.708 421.695C315.582 421.945 315.683 422.25 315.933 422.376C316.078 422.45 316.222 422.527 316.362 422.606C316.441 422.65 316.526 422.671 316.611 422.671ZM314.514 421.745C314.725 421.745 314.923 421.612 314.994 421.4C315.083 421.134 314.94 420.847 314.675 420.758C314.509 420.702 314.34 420.649 314.17 420.599C313.902 420.519 313.62 420.673 313.541 420.941C313.461 421.21 313.615 421.492 313.883 421.571C314.041 421.617 314.198 421.667 314.352 421.719C314.406 421.737 314.46 421.745 314.514 421.745ZM312.287 421.195C312.531 421.195 312.746 421.019 312.787 420.771C312.832 420.494 312.645 420.233 312.369 420.188C312.197 420.16 312.021 420.134 311.847 420.111C311.57 420.076 311.315 420.271 311.279 420.548C311.243 420.826 311.439 421.08 311.716 421.116C311.879 421.138 312.043 421.162 312.204 421.188C312.232 421.193 312.26 421.195 312.287 421.195ZM297.21 415.009C297.311 415.009 297.413 414.979 297.502 414.916C297.568 414.869 297.634 414.823 297.702 414.778C297.934 414.621 297.995 414.306 297.838 414.074C297.682 413.842 297.366 413.781 297.135 413.937C297.061 413.987 296.989 414.037 296.917 414.088C296.688 414.249 296.634 414.566 296.795 414.794C296.894 414.934 297.051 415.009 297.21 415.009ZM304.212 429.832C304.48 429.832 304.705 429.622 304.719 429.351C304.733 429.072 304.517 428.833 304.237 428.819C304.075 428.811 303.913 428.8 303.751 428.787C303.473 428.763 303.227 428.971 303.204 429.25C303.181 429.529 303.389 429.774 303.668 429.797C303.84 429.811 304.013 429.823 304.186 429.832C304.194 429.832 304.203 429.832 304.212 429.832ZM305.973 429.824C305.983 429.824 305.992 429.824 306.003 429.823C306.176 429.813 306.348 429.8 306.521 429.784C306.8 429.758 307.005 429.511 306.979 429.233C306.953 428.954 306.705 428.749 306.428 428.774C306.266 428.789 306.105 428.802 305.943 428.811C305.664 428.828 305.45 429.068 305.466 429.348C305.482 429.617 305.707 429.824 305.973 429.824ZM301.966 429.555C302.203 429.555 302.414 429.388 302.462 429.147C302.517 428.872 302.339 428.605 302.065 428.55C301.906 428.519 301.747 428.484 301.59 428.447C301.318 428.383 301.045 428.552 300.98 428.824C300.916 429.096 301.085 429.37 301.357 429.434C301.525 429.473 301.696 429.511 301.866 429.545C301.9 429.551 301.933 429.555 301.966 429.555ZM308.215 429.525C308.25 429.525 308.285 429.522 308.32 429.514C308.49 429.479 308.661 429.44 308.828 429.398C309.1 429.331 309.266 429.057 309.199 428.785C309.132 428.513 308.857 428.347 308.585 428.414C308.43 428.452 308.27 428.489 308.111 428.522C307.837 428.58 307.662 428.848 307.719 429.122C307.77 429.361 307.98 429.525 308.215 429.525ZM299.789 428.936C299.994 428.936 300.187 428.811 300.264 428.608C300.362 428.346 300.231 428.054 299.969 427.955C299.819 427.898 299.667 427.838 299.52 427.775C299.262 427.666 298.964 427.787 298.855 428.045C298.746 428.302 298.867 428.6 299.124 428.709C299.284 428.777 299.448 428.842 299.611 428.904C299.67 428.926 299.73 428.936 299.789 428.936ZM310.387 428.884C310.448 428.884 310.509 428.872 310.57 428.849C310.732 428.785 310.896 428.718 311.055 428.649C311.311 428.536 311.428 428.237 311.315 427.981C311.203 427.724 310.904 427.607 310.648 427.72C310.501 427.784 310.351 427.846 310.201 427.904C309.94 428.006 309.812 428.3 309.913 428.561C309.992 428.761 310.184 428.884 310.387 428.884ZM297.758 427.943C297.927 427.943 298.093 427.858 298.189 427.704C298.336 427.466 298.263 427.153 298.025 427.005C297.916 426.937 297.808 426.867 297.702 426.796L297.624 426.743C297.393 426.584 297.078 426.643 296.919 426.873C296.761 427.104 296.82 427.42 297.051 427.578L297.133 427.634C297.252 427.714 297.37 427.792 297.491 427.867C297.574 427.919 297.666 427.943 297.758 427.943ZM295.969 426.562C296.103 426.562 296.235 426.51 296.335 426.405C296.528 426.202 296.52 425.882 296.318 425.689C296.201 425.578 296.089 425.464 295.982 425.351C295.789 425.147 295.467 425.139 295.264 425.331C295.061 425.524 295.052 425.845 295.245 426.048C295.364 426.174 295.49 426.3 295.618 426.422C295.716 426.516 295.843 426.562 295.969 426.562ZM294.536 424.816C294.627 424.816 294.719 424.792 294.802 424.74C295.041 424.593 295.114 424.281 294.967 424.043C294.885 423.909 294.806 423.772 294.733 423.635C294.602 423.388 294.295 423.294 294.048 423.425C293.801 423.556 293.707 423.863 293.839 424.11C293.922 424.267 294.01 424.423 294.105 424.576C294.2 424.731 294.366 424.816 294.536 424.816ZM293.66 422.738C293.699 422.738 293.74 422.734 293.779 422.724C294.052 422.659 294.22 422.386 294.154 422.113C294.118 421.963 294.088 421.81 294.064 421.658C294.02 421.382 293.759 421.193 293.483 421.237C293.206 421.281 293.019 421.541 293.062 421.818C293.091 421.995 293.125 422.174 293.167 422.349C293.223 422.582 293.431 422.738 293.66 422.738ZM293.529 420.49C293.781 420.49 294.001 420.302 294.033 420.046C294.052 419.895 294.076 419.742 294.108 419.591C294.166 419.317 293.99 419.048 293.716 418.99C293.442 418.933 293.174 419.108 293.116 419.382C293.079 419.56 293.048 419.741 293.026 419.92C292.991 420.198 293.188 420.451 293.466 420.486C293.487 420.489 293.509 420.49 293.529 420.49ZM294.202 418.339C294.386 418.339 294.564 418.238 294.654 418.062C294.724 417.925 294.801 417.787 294.882 417.652C295.025 417.411 294.947 417.1 294.706 416.957C294.466 416.813 294.154 416.892 294.01 417.132C293.918 417.287 293.83 417.445 293.75 417.602C293.623 417.852 293.724 418.157 293.973 418.284C294.047 418.322 294.124 418.339 294.202 418.339ZM295.503 416.494C295.639 416.494 295.776 416.439 295.876 416.331C295.982 416.215 296.094 416.1 296.208 415.988C296.408 415.792 296.412 415.471 296.216 415.271C296.02 415.071 295.699 415.068 295.499 415.264C295.372 415.387 295.248 415.515 295.13 415.643C294.94 415.849 294.953 416.17 295.159 416.36C295.257 416.449 295.38 416.494 295.503 416.494ZM323.742 416.844C323.905 416.844 324.065 416.765 324.162 416.62C324.319 416.389 324.258 416.073 324.026 415.917C323.954 415.868 323.881 415.819 323.807 415.771C323.572 415.619 323.258 415.686 323.106 415.921C322.954 416.156 323.021 416.47 323.256 416.622C323.324 416.667 323.392 416.711 323.459 416.757C323.546 416.815 323.644 416.844 323.742 416.844ZM303.172 425.786C303.293 425.786 303.415 425.743 303.512 425.655C303.72 425.466 303.735 425.146 303.547 424.938C303.439 424.819 303.334 424.695 303.237 424.571C303.065 424.351 302.746 424.312 302.526 424.485C302.305 424.657 302.266 424.976 302.439 425.196C302.551 425.34 302.671 425.482 302.796 425.62C302.896 425.73 303.034 425.786 303.172 425.786ZM301.94 423.827C302 423.827 302.062 423.816 302.122 423.793C302.383 423.693 302.513 423.399 302.413 423.138C302.356 422.992 302.307 422.842 302.266 422.694C302.19 422.424 301.911 422.266 301.641 422.341C301.372 422.416 301.214 422.695 301.289 422.965C301.339 423.145 301.398 423.326 301.466 423.502C301.544 423.704 301.736 423.827 301.94 423.827ZM301.612 421.544C301.871 421.544 302.092 421.346 302.116 421.082C302.13 420.929 302.152 420.774 302.181 420.622C302.235 420.347 302.055 420.081 301.781 420.027C301.506 419.974 301.24 420.153 301.186 420.428C301.15 420.614 301.123 420.804 301.106 420.992C301.081 421.271 301.287 421.517 301.566 421.542C301.581 421.543 301.596 421.544 301.612 421.544ZM302.321 419.347C302.497 419.347 302.667 419.255 302.761 419.092C302.838 418.957 302.924 418.822 303.015 418.69C303.174 418.46 303.116 418.144 302.885 417.985C302.655 417.826 302.339 417.884 302.18 418.115C302.073 418.27 301.973 418.429 301.882 418.587C301.742 418.83 301.826 419.14 302.069 419.279C302.149 419.325 302.235 419.347 302.321 419.347ZM303.804 417.566C303.923 417.566 304.042 417.524 304.139 417.439C304.258 417.334 304.384 417.229 304.514 417.128C304.734 416.955 304.773 416.636 304.6 416.416C304.428 416.195 304.109 416.157 303.889 416.329C303.744 416.443 303.602 416.56 303.468 416.679C303.258 416.864 303.238 417.184 303.423 417.394C303.523 417.508 303.663 417.566 303.804 417.566ZM305.715 416.245C305.799 416.245 305.883 416.224 305.961 416.181C306.105 416.101 306.253 416.022 306.402 415.946C306.651 415.819 306.75 415.514 306.623 415.264C306.496 415.015 306.191 414.916 305.941 415.043C305.782 415.124 305.623 415.209 305.468 415.295C305.223 415.431 305.136 415.74 305.272 415.984C305.364 416.151 305.537 416.245 305.715 416.245ZM321.951 415.824C322.141 415.824 322.322 415.717 322.409 415.535C322.53 415.282 322.422 414.979 322.169 414.859C322.009 414.783 321.845 414.709 321.682 414.638C321.425 414.527 321.127 414.645 321.015 414.902C320.904 415.158 321.022 415.457 321.279 415.568C321.431 415.634 321.584 415.704 321.734 415.775C321.804 415.808 321.878 415.824 321.951 415.824ZM307.83 415.279C307.889 415.279 307.948 415.269 308.005 415.248C308.162 415.19 308.32 415.135 308.479 415.083C308.745 414.994 308.888 414.707 308.8 414.442C308.712 414.176 308.425 414.032 308.159 414.12C307.99 414.177 307.82 414.236 307.655 414.296C307.393 414.393 307.258 414.684 307.355 414.947C307.43 415.152 307.624 415.279 307.83 415.279ZM319.782 414.987C319.999 414.987 320.2 414.846 320.267 414.628C320.349 414.36 320.198 414.077 319.931 413.995C319.761 413.943 319.591 413.894 319.419 413.847C319.149 413.773 318.87 413.932 318.796 414.202C318.723 414.472 318.882 414.751 319.152 414.825C319.314 414.869 319.474 414.916 319.634 414.964C319.683 414.979 319.733 414.987 319.782 414.987ZM310.064 414.629C310.1 414.629 310.137 414.625 310.173 414.617C310.337 414.581 310.501 414.547 310.666 414.515C310.941 414.463 311.122 414.197 311.069 413.922C311.016 413.647 310.75 413.467 310.476 413.52C310.301 413.553 310.128 413.589 309.955 413.627C309.681 413.687 309.509 413.958 309.569 414.231C309.621 414.468 309.831 414.629 310.064 414.629ZM317.519 414.453C317.761 414.453 317.976 414.279 318.018 414.031C318.065 413.755 317.879 413.493 317.603 413.447C317.429 413.417 317.254 413.39 317.078 413.365C316.801 413.326 316.544 413.519 316.505 413.796C316.466 414.073 316.659 414.33 316.936 414.369C317.102 414.392 317.268 414.418 317.433 414.446C317.462 414.451 317.491 414.453 317.519 414.453ZM312.362 414.269C312.378 414.269 312.395 414.268 312.411 414.267C312.578 414.251 312.746 414.237 312.913 414.226C313.193 414.207 313.404 413.965 313.384 413.685C313.365 413.406 313.124 413.195 312.844 413.214C312.667 413.226 312.491 413.241 312.315 413.258C312.036 413.284 311.832 413.531 311.858 413.81C311.883 414.072 312.104 414.269 312.362 414.269ZM315.206 414.204C315.474 414.204 315.698 413.992 315.711 413.721C315.725 413.442 315.509 413.204 315.23 413.19C315.053 413.182 314.877 413.176 314.7 413.171C314.42 413.166 314.188 413.387 314.181 413.667C314.175 413.947 314.397 414.179 314.677 414.185C314.845 414.189 315.013 414.195 315.181 414.203C315.189 414.203 315.197 414.204 315.206 414.204ZM320.817 434.655C320.915 434.655 321.014 434.627 321.101 434.568C321.174 434.519 321.247 434.469 321.318 434.418C321.547 434.257 321.601 433.94 321.44 433.712C321.278 433.483 320.962 433.428 320.733 433.59C320.667 433.636 320.601 433.683 320.533 433.728C320.301 433.885 320.24 434.2 320.397 434.432C320.495 434.577 320.655 434.655 320.817 434.655ZM322.381 433.387C322.509 433.387 322.637 433.339 322.736 433.242C322.862 433.118 322.986 432.99 323.105 432.862C323.294 432.656 323.281 432.335 323.075 432.146C322.868 431.956 322.548 431.97 322.358 432.176C322.252 432.291 322.14 432.406 322.026 432.518C321.826 432.714 321.823 433.035 322.019 433.235C322.118 433.336 322.25 433.387 322.381 433.387ZM323.785 431.619C323.958 431.619 324.127 431.53 324.222 431.37C324.313 431.216 324.4 431.057 324.48 430.899C324.607 430.649 324.506 430.344 324.256 430.218C324.007 430.092 323.702 430.192 323.575 430.442C323.506 430.58 323.43 430.718 323.35 430.853C323.207 431.094 323.286 431.405 323.527 431.548C323.608 431.596 323.697 431.619 323.785 431.619ZM324.616 429.522C324.851 429.522 325.061 429.359 325.112 429.12C325.149 428.943 325.18 428.763 325.203 428.585C325.239 428.307 325.044 428.053 324.766 428.016C324.487 427.981 324.234 428.176 324.198 428.454C324.178 428.605 324.152 428.759 324.12 428.91C324.062 429.184 324.237 429.453 324.511 429.511C324.546 429.519 324.581 429.522 324.616 429.522ZM324.679 427.271C324.705 427.271 324.731 427.269 324.757 427.265C325.034 427.222 325.223 426.963 325.181 426.686C325.153 426.509 325.118 426.33 325.076 426.153C325.011 425.881 324.738 425.713 324.466 425.777C324.193 425.842 324.025 426.115 324.09 426.387C324.125 426.538 324.155 426.69 324.179 426.842C324.217 427.092 324.433 427.271 324.679 427.271ZM323.958 425.136C324.038 425.136 324.12 425.117 324.195 425.076C324.443 424.945 324.536 424.638 324.404 424.391C324.321 424.235 324.231 424.078 324.136 423.926C323.988 423.688 323.676 423.615 323.438 423.763C323.2 423.911 323.127 424.223 323.275 424.461C323.358 424.594 323.437 424.731 323.51 424.868C323.601 425.039 323.776 425.136 323.958 425.136ZM322.625 423.313C322.751 423.313 322.877 423.267 322.975 423.173C323.177 422.98 323.186 422.659 322.993 422.457C322.872 422.33 322.746 422.204 322.618 422.083C322.415 421.89 322.094 421.898 321.901 422.102C321.709 422.305 321.717 422.626 321.92 422.818C322.036 422.928 322.15 423.041 322.258 423.155C322.358 423.26 322.491 423.313 322.625 423.313ZM320.899 421.854C321.06 421.854 321.218 421.777 321.317 421.634C321.476 421.404 321.417 421.088 321.187 420.929L321.101 420.87C320.985 420.792 320.866 420.715 320.746 420.64C320.508 420.493 320.196 420.566 320.048 420.803C319.9 421.041 319.973 421.354 320.211 421.502C320.32 421.569 320.612 421.764 320.612 421.764C320.7 421.825 320.8 421.854 320.899 421.854ZM307.386 420.828C307.454 420.828 307.523 420.814 307.589 420.785C307.735 420.721 307.885 420.659 308.035 420.601C308.296 420.499 308.425 420.205 308.324 419.944C308.222 419.683 307.928 419.555 307.667 419.656C307.504 419.72 307.341 419.787 307.182 419.856C306.926 419.969 306.809 420.268 306.921 420.524C307.005 420.714 307.191 420.828 307.386 420.828ZM318.914 420.771C319.112 420.771 319.299 420.655 319.381 420.462C319.491 420.204 319.37 419.907 319.112 419.798C318.954 419.731 318.79 419.665 318.626 419.603C318.365 419.504 318.072 419.636 317.973 419.898C317.874 420.16 318.006 420.453 318.268 420.552C318.42 420.609 318.571 420.669 318.717 420.731C318.781 420.759 318.848 420.771 318.914 420.771ZM309.53 420.106C309.57 420.106 309.611 420.101 309.652 420.091C309.807 420.053 309.967 420.017 310.125 419.983C310.399 419.926 310.575 419.657 310.517 419.383C310.46 419.109 310.191 418.934 309.917 418.991C309.747 419.027 309.576 419.066 309.409 419.107C309.137 419.174 308.971 419.449 309.038 419.72C309.095 419.951 309.302 420.106 309.53 420.106ZM316.764 420.073C316.993 420.073 317.201 419.916 317.257 419.682C317.321 419.41 317.152 419.137 316.88 419.073C316.712 419.033 316.541 418.996 316.371 418.962C316.096 418.907 315.829 419.085 315.774 419.359C315.719 419.634 315.897 419.901 316.172 419.956C316.331 419.988 316.491 420.023 316.647 420.059C316.686 420.068 316.725 420.073 316.764 420.073ZM311.762 419.733C311.778 419.733 311.793 419.733 311.809 419.731C311.97 419.716 312.133 419.704 312.295 419.694C312.574 419.678 312.787 419.438 312.771 419.158C312.754 418.879 312.512 418.667 312.234 418.682C312.061 418.693 311.888 418.706 311.716 418.722C311.437 418.747 311.232 418.994 311.258 419.273C311.282 419.536 311.503 419.733 311.762 419.733ZM314.528 419.721C314.789 419.721 315.011 419.521 315.033 419.256C315.056 418.977 314.848 418.732 314.569 418.709C314.397 418.695 314.224 418.683 314.051 418.674C313.773 418.659 313.533 418.875 313.519 419.155C313.505 419.435 313.72 419.673 314 419.687C314.162 419.695 314.324 419.706 314.486 419.719C314.5 419.721 314.514 419.721 314.528 419.721ZM294.703 432.816C294.869 432.816 295.032 432.734 295.129 432.585C295.281 432.35 295.214 432.036 294.979 431.883C294.911 431.839 294.844 431.795 294.777 431.75C294.545 431.593 294.23 431.653 294.073 431.885C293.916 432.117 293.977 432.432 294.208 432.589C294.281 432.638 294.354 432.687 294.428 432.734C294.513 432.79 294.609 432.816 294.703 432.816ZM303.548 435.333C303.823 435.333 304.048 435.114 304.055 434.838C304.062 434.558 303.84 434.326 303.56 434.319C303.392 434.315 303.224 434.309 303.056 434.301C302.778 434.286 302.539 434.502 302.525 434.782C302.511 435.061 302.727 435.299 303.006 435.313C303.183 435.322 303.359 435.329 303.536 435.333C303.54 435.333 303.544 435.333 303.548 435.333ZM305.357 435.295C305.369 435.295 305.38 435.294 305.392 435.294C305.568 435.282 305.745 435.268 305.921 435.251C306.2 435.225 306.404 434.977 306.378 434.698C306.352 434.42 306.103 434.216 305.826 434.241C305.659 434.257 305.491 434.271 305.324 434.282C305.044 434.301 304.833 434.542 304.852 434.822C304.87 435.09 305.093 435.295 305.357 435.295ZM301.23 435.143C301.478 435.143 301.695 434.96 301.731 434.707C301.77 434.429 301.578 434.173 301.3 434.134C301.134 434.11 300.968 434.084 300.803 434.056C300.527 434.01 300.265 434.196 300.218 434.472C300.172 434.748 300.358 435.009 300.634 435.056C300.808 435.085 300.983 435.113 301.158 435.137C301.182 435.141 301.206 435.143 301.23 435.143ZM307.665 434.999C307.697 434.999 307.729 434.996 307.761 434.989C307.935 434.956 308.109 434.92 308.282 434.882C308.555 434.821 308.728 434.551 308.667 434.277C308.607 434.004 308.336 433.832 308.063 433.892C307.899 433.928 307.735 433.962 307.57 433.994C307.295 434.046 307.115 434.312 307.168 434.587C307.214 434.83 307.426 434.999 307.665 434.999ZM298.951 434.675C299.174 434.675 299.378 434.527 299.44 434.302C299.513 434.032 299.354 433.753 299.084 433.679C298.922 433.635 298.761 433.589 298.602 433.54C298.334 433.458 298.051 433.609 297.969 433.877C297.887 434.145 298.038 434.428 298.306 434.51C298.475 434.561 298.646 434.611 298.817 434.657C298.862 434.669 298.907 434.675 298.951 434.675ZM309.917 434.413C309.97 434.413 310.024 434.405 310.077 434.387C310.247 434.331 310.415 434.272 310.581 434.211C310.844 434.114 310.978 433.822 310.881 433.56C310.784 433.297 310.493 433.163 310.23 433.26C310.074 433.317 309.916 433.372 309.757 433.425C309.491 433.514 309.348 433.801 309.436 434.067C309.507 434.279 309.705 434.413 309.917 434.413ZM296.755 433.909C296.951 433.909 297.138 433.795 297.22 433.603C297.331 433.347 297.213 433.048 296.956 432.937C296.804 432.871 296.651 432.801 296.502 432.731C296.249 432.61 295.946 432.718 295.826 432.971C295.706 433.224 295.814 433.526 296.067 433.646C296.226 433.722 296.39 433.797 296.554 433.867C296.619 433.896 296.688 433.909 296.755 433.909ZM312.064 433.519C312.142 433.519 312.221 433.501 312.294 433.463C312.454 433.382 312.614 433.297 312.768 433.211C313.012 433.075 313.1 432.766 312.963 432.521C312.827 432.277 312.518 432.189 312.274 432.325C312.13 432.405 311.982 432.484 311.834 432.56C311.584 432.687 311.485 432.993 311.613 433.242C311.702 433.418 311.88 433.519 312.064 433.519ZM314.034 432.284C314.144 432.284 314.254 432.249 314.346 432.177C314.491 432.063 314.633 431.946 314.767 431.827C314.977 431.642 314.997 431.322 314.812 431.112C314.627 430.902 314.306 430.882 314.097 431.067C313.977 431.172 313.851 431.277 313.722 431.378C313.501 431.551 313.462 431.869 313.635 432.09C313.735 432.218 313.884 432.284 314.034 432.284ZM315.637 430.61C315.798 430.61 315.957 430.534 316.055 430.391C316.162 430.237 316.262 430.078 316.353 429.919C316.493 429.676 316.409 429.366 316.166 429.226C315.924 429.087 315.614 429.171 315.474 429.413C315.397 429.548 315.311 429.684 315.22 429.815C315.061 430.046 315.119 430.362 315.35 430.52C315.438 430.581 315.538 430.61 315.637 430.61ZM316.552 428.488C316.79 428.488 317.002 428.32 317.049 428.078C317.086 427.892 317.112 427.702 317.129 427.514C317.154 427.235 316.949 426.989 316.67 426.964C316.391 426.939 316.144 427.145 316.119 427.424C316.106 427.577 316.084 427.732 316.054 427.884C316.001 428.159 316.18 428.425 316.455 428.479C316.487 428.485 316.52 428.488 316.552 428.488ZM316.458 426.184C316.503 426.184 316.549 426.178 316.594 426.165C316.864 426.09 317.022 425.811 316.947 425.541C316.897 425.361 316.838 425.18 316.769 425.004C316.669 424.742 316.376 424.612 316.114 424.713C315.853 424.813 315.723 425.107 315.823 425.368C315.88 425.514 315.929 425.664 315.97 425.812C316.032 426.037 316.236 426.184 316.458 426.184ZM315.398 424.129C315.507 424.129 315.618 424.094 315.71 424.021C315.931 423.849 315.97 423.53 315.797 423.31C315.685 423.167 315.565 423.024 315.44 422.886C315.252 422.679 314.931 422.663 314.724 422.851C314.517 423.039 314.501 423.36 314.689 423.567C314.797 423.687 314.902 423.811 314.999 423.935C315.099 424.062 315.248 424.129 315.398 424.129ZM308.861 427.424C309.131 427.424 309.355 427.211 309.367 426.939C309.38 426.659 309.163 426.423 308.883 426.41C308.729 426.403 308.574 426.39 308.422 426.37C308.145 426.334 307.89 426.528 307.853 426.806C307.816 427.083 308.012 427.338 308.289 427.375C308.47 427.399 308.654 427.415 308.838 427.423C308.846 427.423 308.854 427.424 308.861 427.424ZM310.617 427.23C310.662 427.23 310.707 427.224 310.753 427.212C310.934 427.161 311.113 427.102 311.283 427.035C311.544 426.932 311.672 426.638 311.57 426.378C311.467 426.117 311.173 425.989 310.913 426.091C310.775 426.145 310.63 426.194 310.482 426.234C310.212 426.309 310.054 426.588 310.129 426.858C310.191 427.083 310.395 427.23 310.617 427.23ZM306.671 426.854C306.851 426.854 307.026 426.757 307.118 426.586C307.25 426.34 307.157 426.032 306.911 425.9C306.807 425.844 306.707 425.784 306.613 425.721C306.587 425.703 306.562 425.685 306.537 425.668C306.31 425.504 305.993 425.555 305.83 425.783C305.666 426.01 305.718 426.327 305.945 426.49C305.977 426.514 306.011 426.537 306.045 426.56C306.167 426.643 306.297 426.721 306.431 426.793C306.508 426.834 306.59 426.854 306.671 426.854ZM312.549 426.08C312.693 426.08 312.836 426.019 312.937 425.9C313.072 425.739 313.188 425.568 313.281 425.392C313.412 425.145 313.318 424.838 313.07 424.707C312.823 424.576 312.516 424.67 312.385 424.918C312.326 425.03 312.25 425.141 312.161 425.247C311.981 425.461 312.008 425.781 312.222 425.961C312.317 426.041 312.433 426.08 312.549 426.08ZM305.222 425.18C305.26 425.18 305.299 425.176 305.338 425.167C305.611 425.103 305.78 424.83 305.716 424.557C305.692 424.457 305.68 424.354 305.68 424.252C305.68 424.233 305.681 424.213 305.682 424.193C305.694 423.913 305.478 423.676 305.198 423.664C304.919 423.651 304.681 423.868 304.669 424.147C304.667 424.182 304.666 424.217 304.666 424.253C304.667 424.432 304.687 424.612 304.729 424.789C304.783 425.022 304.992 425.18 305.222 425.18ZM312.881 423.954C312.953 423.954 313.026 423.938 313.096 423.906C313.349 423.788 313.459 423.486 313.34 423.232C313.255 423.05 313.147 422.873 313.017 422.706C312.846 422.484 312.528 422.444 312.306 422.615C312.085 422.786 312.044 423.104 312.215 423.326C312.299 423.434 312.368 423.547 312.422 423.661C312.508 423.845 312.691 423.954 312.881 423.954ZM305.975 423.147C306.094 423.147 306.215 423.104 306.311 423.018C306.403 422.937 306.504 422.858 306.613 422.785C306.732 422.705 306.86 422.63 306.994 422.562C307.244 422.436 307.345 422.131 307.219 421.881C307.093 421.631 306.788 421.531 306.538 421.656C306.365 421.744 306.199 421.841 306.045 421.945C305.899 422.044 305.762 422.15 305.637 422.261C305.428 422.447 305.409 422.768 305.596 422.977C305.696 423.089 305.835 423.147 305.975 423.147ZM311.197 422.49C311.395 422.49 311.583 422.373 311.665 422.179C311.773 421.921 311.652 421.624 311.394 421.516C311.225 421.445 311.047 421.381 310.866 421.327C310.598 421.246 310.315 421.398 310.235 421.666C310.154 421.934 310.306 422.217 310.574 422.298C310.721 422.342 310.865 422.393 311.001 422.45C311.065 422.477 311.132 422.49 311.197 422.49ZM308.462 422.127C308.481 422.127 308.5 422.126 308.519 422.124C308.671 422.107 308.827 422.096 308.981 422.092C309.261 422.085 309.482 421.852 309.474 421.572C309.467 421.292 309.239 421.068 308.955 421.078C308.771 421.083 308.586 421.096 308.405 421.117C308.127 421.148 307.927 421.399 307.958 421.677C307.988 421.936 308.207 422.127 308.462 422.127Z" stroke="#A07C4A"/>
</svg>
