<svg width="248" height="246" viewBox="0 0 248 246" fill="none" xmlns="http://www.w3.org/2000/svg">
<path d="M77.4714 60.4759L98.474 89.7547M72.6246 53.7193L75.8558 58.2237M138.879 46.0334L132.503 81.4974M140.35 37.8497L139.369 43.305M192.822 79.5251L163.444 100.389M199.602 74.7105L195.082 77.9202M205.835 140.555L170.242 134.941M214.048 141.85L208.573 140.986M172.673 194.295L151.629 165.045M112.317 207.956L118.156 172.399M110.969 216.161L111.868 210.691M59.7956 174.362L89.3636 153.768M52.9721 179.114L57.5208 175.946M44.8992 114.782L80.5705 119.872M36.6672 113.608L42.1551 114.39M109.87 59.4809L114.111 77.6941M108.891 55.2781L109.544 58.0804M162.548 67.1168L152.435 82.8468M164.882 63.4866L163.326 65.9065M193.581 111.317L175.348 115.471M197.788 110.358L194.983 110.997M184.223 164.078L168.28 154.305M187.902 166.333L185.449 164.829M141.868 195.607L137.6 177.4M142.853 199.808L142.196 197.007M88.1437 187.454L98.0172 171.572M85.8649 191.119L87.3839 188.675M57.0495 142.998L75.3194 139.01M52.8336 143.918L55.6444 143.305M66.466 90.24L82.5512 99.7781M62.7537 88.0396L65.2279 89.507M123.883 56.2505L124.373 75.1385M123.769 51.8917L123.844 54.7977M174.463 74.5269L161.253 88.0358M177.512 71.4091L175.48 73.4875M196.181 124.585L177.291 124.985M200.54 124.492L197.634 124.554M176.182 174.896L162.393 161.979M179.363 177.877L177.242 175.89M127.848 197.48L127.331 178.592M127.967 201.838L127.888 198.932M76.3389 178.477L89.3433 164.771M73.3371 181.641L75.3378 179.532M54.6126 128.154L73.5054 127.927M50.253 128.207L53.1598 128.172M74.6685 77.8579L88.6455 90.5712M71.4418 74.9245L73.5922 76.8809M95.7763 62.749L103.776 79.8662M93.9297 58.7992L95.1603 61.4325M149.445 59.2822L142.737 76.945M150.993 55.2059L149.961 57.9231M189.364 96.4838L172.209 104.402M193.322 94.6565L190.683 95.8752M191.145 150.595L173.342 144.267M195.253 152.055L192.515 151.082M155.869 190.617L147.845 173.512M157.721 194.565L156.486 191.933M101.059 193.792L107.5 176.029M99.573 197.891L100.563 195.158M61.0269 156.349L78.2539 148.588M57.0521 158.14L59.7022 156.946M59.3027 102.23L77.1975 108.295M55.1736 100.83L57.927 101.763M159.961 102.358C170.058 116.435 171.006 127.267 164.757 144.115C159.455 158.408 125.501 151.803 113.79 135.478C102.079 119.152 103.117 95.8046 115.867 86.6587C128.946 81.1146 149.258 87.4373 159.961 102.358ZM160.444 102.438C173.94 121.251 169.629 147.443 150.815 160.938C132.002 174.434 105.81 170.123 92.3148 151.309C78.8193 132.496 83.1304 106.304 101.944 92.8088C120.757 79.3133 146.949 83.6244 160.444 102.438Z" stroke="#A07C4A"/>
</svg>
