<svg width="496" height="604" viewBox="0 0 496 604" fill="none" xmlns="http://www.w3.org/2000/svg">
<path d="M156.855 243.571C155.597 230.126 165.513 218.163 178.961 216.905C189.158 215.952 198.499 221.43 202.967 229.997C203.328 230.69 203.658 231.403 203.954 232.135C204.822 234.283 205.4 236.588 205.627 239.01C206.884 252.457 196.968 264.419 183.522 265.676C170.075 266.934 158.112 257.018 156.855 243.571ZM199.296 228.428C199.304 228.362 199.314 228.295 199.315 228.23C199.316 228.21 199.314 228.188 199.313 228.167C196.488 224.29 192.461 221.382 187.839 219.947C188.02 220.131 188.137 220.36 188.181 220.632C188.197 220.732 188.22 220.832 188.247 220.93C188.325 221.212 188.5 221.409 188.786 221.488C188.916 221.524 189.053 221.533 189.186 221.558C189.232 221.567 189.276 221.586 189.327 221.603C189.309 221.64 189.303 221.666 189.287 221.683C189.241 221.733 189.191 221.781 189.142 221.826C189.079 221.883 189.011 221.935 188.952 221.996C188.76 222.194 188.787 222.335 189.034 222.442C189.09 222.465 189.146 222.484 189.202 222.5C189.284 222.523 189.368 222.54 189.45 222.561C189.565 222.591 189.681 222.618 189.793 222.658C190.009 222.736 190.028 222.826 189.868 222.982C189.837 223.011 189.802 223.037 189.775 223.068C189.728 223.119 189.682 223.169 189.646 223.225C189.518 223.421 189.536 223.609 189.694 223.784C189.722 223.816 189.755 223.842 189.787 223.871C189.873 223.95 189.969 223.983 190.09 223.967C190.24 223.947 190.394 223.938 190.546 223.939C190.637 223.94 190.73 223.964 190.819 223.99C190.89 224.012 190.917 224.092 190.879 224.158C190.841 224.224 190.795 224.284 190.746 224.357C190.785 224.43 190.823 224.505 190.865 224.578C191.046 224.895 191.23 225.209 191.409 225.528C191.47 225.637 191.538 225.737 191.674 225.821C191.095 226.055 190.511 226.126 189.933 226.265C189.919 226.33 189.902 226.394 189.892 226.459C189.846 226.744 189.812 227.031 189.759 227.313C189.669 227.777 189.797 228.167 190.117 228.504C190.35 228.748 190.625 228.928 190.93 229.066C191.317 229.241 191.706 229.409 192.096 229.579C192.141 229.599 192.189 229.613 192.239 229.631C192.334 229.527 192.363 229.401 192.415 229.287C192.653 228.767 192.771 228.227 192.661 227.655C192.648 227.584 192.655 227.521 192.692 227.459C192.718 227.416 192.738 227.368 192.761 227.322C192.877 227.096 192.965 226.848 193.116 226.648C193.273 226.44 193.489 226.278 193.683 226.099C193.763 226.026 193.832 225.938 193.937 225.888C194.117 225.946 194.298 225.996 194.472 226.062C194.614 226.116 194.751 226.117 194.894 226.079C195.068 226.034 195.24 225.991 195.414 225.953C195.478 225.939 195.544 225.905 195.617 225.961C195.681 226.234 195.756 226.512 195.808 226.795C195.832 226.93 195.896 227.004 196.014 227.055C196.177 227.126 196.334 227.213 196.498 227.282C196.614 227.33 196.669 227.41 196.692 227.528C196.724 227.685 196.768 227.841 196.792 228.001C196.812 228.13 196.878 228.219 196.978 228.292C197.132 228.405 197.307 228.467 197.49 228.509C197.749 228.567 198.012 228.572 198.276 228.567C198.616 228.56 198.952 228.514 199.296 228.428ZM196.904 229.728C197.078 229.764 197.142 229.748 197.21 229.634C197.299 229.491 197.307 229.313 197.213 229.206C197.158 229.143 197.093 229.086 197.021 229.042C196.83 228.925 196.669 228.788 196.557 228.585C196.431 228.36 196.227 228.199 196.016 228.057C195.615 227.788 195.171 227.627 194.697 227.55C194.665 227.545 194.63 227.549 194.578 227.549C194.417 227.746 194.3 227.95 194.21 228.171C194.178 228.25 194.152 228.331 194.138 228.415C194.059 228.912 194.355 229.175 194.736 229.227C195.038 229.268 195.342 229.285 195.663 229.315C195.655 229.369 195.655 229.416 195.64 229.46C195.576 229.642 195.507 229.824 195.437 230.016C195.64 230.143 195.85 230.222 196.073 230.305C196.223 230.101 196.337 229.883 196.476 229.684C196.628 229.641 196.765 229.699 196.904 229.728ZM182.645 233.561C183.241 233.391 183.822 233.177 184.398 232.95C184.724 232.822 185.059 232.735 185.409 232.705C185.556 232.694 185.699 232.69 185.834 232.756C185.952 232.813 186.07 232.799 186.176 232.738C186.352 232.638 186.535 232.541 186.696 232.419C187.242 232.007 187.565 231.452 187.68 230.78C187.706 230.631 187.762 230.512 187.871 230.406C188.15 230.134 188.417 229.848 188.698 229.575C188.793 229.481 188.846 229.379 188.871 229.248C188.946 228.857 189.031 228.467 189.111 228.078C189.182 227.735 189.206 227.39 189.187 227.04C189.153 226.405 189.022 225.796 188.737 225.225C188.69 225.129 188.676 225.033 188.669 224.931C188.64 224.576 188.612 224.22 188.522 223.872C188.436 223.54 188.315 223.236 188.063 222.982C187.622 222.535 187.204 222.065 186.775 221.605C186.54 221.352 186.539 221.352 186.515 221.006C186.479 220.508 186.43 220.012 186.29 219.53C184.012 218.999 181.615 218.816 179.162 219.045C171.63 219.749 165.317 224.138 161.828 230.259C161.892 230.245 161.956 230.222 162.02 230.193C162.153 230.136 162.286 230.081 162.412 230.011C162.79 229.8 163.163 229.582 163.538 229.366C163.95 229.129 164.361 228.891 164.773 228.653C165.024 228.506 165.295 228.466 165.583 228.501C165.92 228.542 166.257 228.574 166.595 228.61C166.93 228.645 167.258 228.618 167.568 228.476C168.151 228.206 168.682 227.864 169.092 227.354C169.22 227.195 169.359 227.047 169.502 226.901C169.687 226.711 169.902 226.559 170.142 226.443C170.446 226.296 170.761 226.224 171.103 226.258C171.366 226.285 171.62 226.354 171.875 226.416C172.088 226.468 172.303 226.525 172.518 226.567C172.866 226.634 173.213 226.616 173.547 226.491C173.761 226.411 173.969 226.313 174.176 226.217C174.392 226.117 174.602 226.006 174.817 225.906C175.097 225.775 175.39 225.688 175.7 225.689C175.911 225.69 176.125 225.707 176.334 225.737C176.558 225.77 176.606 225.86 176.545 226.073C176.521 226.154 176.49 226.234 176.464 226.314C176.383 226.565 176.443 226.712 176.628 226.816C176.766 226.893 176.856 227.018 176.91 227.166C176.956 227.294 177.011 227.42 177.034 227.552C177.107 227.997 177.131 228.447 177.146 228.896C177.156 229.227 177.178 229.558 177.203 229.888C177.209 229.988 177.242 230.087 177.27 230.185C177.345 230.448 177.466 230.689 177.605 230.924C177.858 231.351 178.174 231.727 178.514 232.084C179.066 232.663 179.683 233.171 180.288 233.693C180.369 233.763 180.462 233.802 180.561 233.818C180.686 233.838 180.815 233.852 180.94 233.851C181.524 233.844 182.087 233.72 182.645 233.561ZM199.805 234.156C199.678 234.338 199.506 234.42 199.314 234.487C199.25 234.509 199.191 234.541 199.105 234.579C199.174 234.921 199.266 235.236 199.38 235.545C199.435 235.69 199.518 235.815 199.619 235.93C199.663 235.981 199.713 236.028 199.77 236.065C199.96 236.193 200.175 236.128 200.238 235.913C200.362 235.483 200.474 235.048 200.591 234.615C200.608 234.554 200.603 234.5 200.57 234.446C200.49 234.315 200.401 234.193 200.274 234.103C200.098 233.979 199.926 233.981 199.805 234.156ZM202.327 239.14C202.688 238.954 203.053 238.777 203.414 238.592C203.225 237.032 202.878 235.526 202.389 234.09C202.086 234.323 201.782 234.551 201.493 234.787C201.465 235.098 201.436 235.384 201.419 235.672C201.412 235.79 201.376 235.878 201.292 235.962C200.953 236.306 200.62 236.659 200.281 237.004C199.982 237.307 199.677 237.602 199.374 237.901C199.334 237.942 199.3 237.988 199.264 238.031C199.358 238.231 199.492 238.382 199.644 238.518C199.909 238.754 200.221 238.907 200.556 239.013C201.005 239.155 201.465 239.216 201.935 239.224C202.078 239.228 202.201 239.204 202.327 239.14ZM190.226 258.025C190.547 257.983 190.842 257.868 191.161 257.833C191.204 257.914 191.243 257.988 191.283 258.063C191.482 258.429 191.716 258.773 192.008 259.074C192.187 259.258 192.384 259.419 192.613 259.534C192.91 259.683 193.22 259.744 193.55 259.659C193.744 259.611 193.939 259.569 194.134 259.527C200.4 255.079 204.211 247.523 203.496 239.345C203.345 239.292 203.195 239.238 203.044 239.187C202.998 239.172 202.949 239.169 202.898 239.161C202.72 239.443 202.556 239.72 202.375 239.986C202.194 240.252 201.978 240.492 201.801 240.77C202.048 240.872 202.217 241.049 202.38 241.231C202.652 241.539 202.601 241.428 202.626 241.839C202.642 242.118 202.65 242.397 202.56 242.669C202.511 242.816 202.527 242.971 202.549 243.124C202.566 243.24 202.619 243.331 202.721 243.394C202.75 243.411 202.782 243.425 202.81 243.443C202.901 243.5 202.932 243.586 202.907 243.685C202.888 243.767 202.862 243.85 202.821 243.923C202.751 244.049 202.676 244.174 202.588 244.287C202.48 244.429 202.386 244.58 202.305 244.74C202.182 244.981 202.052 245.22 201.93 245.463C201.885 245.553 201.826 245.61 201.725 245.633C201.567 245.671 201.416 245.73 201.257 245.76C201.049 245.801 200.838 245.827 200.625 245.777C200.341 245.711 200.198 245.486 200.273 245.203C200.363 244.865 200.495 244.543 200.687 244.249C200.816 244.054 200.97 243.889 201.184 243.785C201.222 243.767 201.259 243.746 201.293 243.72C201.364 243.664 201.378 243.6 201.334 243.52C201.297 243.453 201.254 243.39 201.214 243.325C201.115 243.161 201.104 242.989 201.182 242.814C201.223 242.721 201.273 242.632 201.331 242.549C201.382 242.471 201.446 242.401 201.506 242.329C201.606 242.212 201.68 242.079 201.725 241.93C201.808 241.651 201.74 241.464 201.485 241.332C201.29 241.232 201.135 241.095 200.999 240.928C200.94 240.857 200.878 240.787 200.807 240.727C200.696 240.63 200.569 240.609 200.428 240.657C200.272 240.709 200.14 240.802 200.011 240.9C199.904 240.983 199.798 241.066 199.685 241.143C199.63 241.18 199.564 241.204 199.5 241.223C199.432 241.244 199.355 241.187 199.361 241.115C199.367 241.023 199.39 240.931 199.406 240.839C199.416 240.785 199.425 240.731 199.441 240.649C198.916 240.729 198.437 240.854 198.016 241.148C197.94 241.201 197.869 241.265 197.812 241.337C197.646 241.543 197.591 241.772 197.679 242.029C197.741 242.207 197.823 242.369 197.968 242.501C198.252 242.757 198.245 243.02 197.993 243.299C197.915 243.386 197.821 243.464 197.723 243.528C197.62 243.595 197.575 243.681 197.554 243.796C197.466 244.303 197.456 244.808 197.573 245.313C197.593 245.397 197.595 245.476 197.578 245.563C197.511 245.895 197.452 246.23 197.389 246.562C197.365 246.696 197.325 246.824 197.264 246.947C197.15 247.176 197.062 247.415 197.007 247.665C196.954 247.92 196.934 248.171 197.128 248.392C196.554 249.226 196.162 250.131 195.946 251.119C195.592 251.21 195.248 251.297 194.904 251.386C194.484 251.493 194.064 251.599 193.645 251.707C193.539 251.735 193.503 251.783 193.496 251.882C193.487 251.999 193.518 252.108 193.616 252.175C193.713 252.242 193.816 252.304 193.926 252.347C194.204 252.457 194.499 252.514 194.795 252.518C195.212 252.523 195.51 252.714 195.721 253.052C195.998 253.497 196.123 253.989 196.081 254.51C196.011 255.367 195.686 256.123 195.111 256.762C194.626 257.301 194.626 257.295 193.904 257.501C193.652 257.573 193.387 257.604 193.121 257.545C192.85 257.486 192.67 257.328 192.586 257.06C192.542 256.92 192.514 256.78 192.532 256.634C192.551 256.474 192.57 256.314 192.586 256.155C192.591 256.106 192.594 256.05 192.573 256.01C192.515 255.896 192.433 255.798 192.322 255.728C192.182 255.64 192.038 255.627 191.888 255.71C191.774 255.774 191.68 255.858 191.605 255.962C191.512 256.095 191.431 256.234 191.345 256.371C191.31 256.428 191.283 256.493 191.242 256.546C191.067 256.772 190.834 256.79 190.629 256.595C190.58 256.548 190.54 256.493 190.497 256.44C190.463 256.394 190.43 256.346 190.393 256.292C190.241 256.32 190.098 256.343 189.958 256.373C189.591 256.451 189.219 256.489 188.846 256.503C188.489 256.517 188.175 256.393 187.936 256.122C187.78 255.944 187.638 255.751 187.506 255.553C187.432 255.442 187.38 255.314 187.334 255.187C187.198 254.814 187.252 254.464 187.508 254.16C187.615 254.034 187.75 253.924 187.884 253.822C188.132 253.631 188.22 253.379 188.131 253.081C188.083 252.921 187.99 252.788 187.865 252.685C187.711 252.557 187.607 252.395 187.507 252.228C187.371 252.003 187.232 251.78 187.098 251.553C187.051 251.473 187.014 251.387 186.983 251.301C186.752 250.648 186.376 250.106 185.782 249.736C185.659 249.659 185.586 249.565 185.527 249.438C185.249 248.83 184.878 248.284 184.409 247.809C183.817 247.21 183.124 246.783 182.291 246.608C182.095 246.567 181.928 246.497 181.77 246.369C181.621 246.245 181.448 246.148 181.273 246.06C181.04 245.944 180.794 245.847 180.553 245.741C180.491 245.715 180.431 245.687 180.379 245.663C180.342 245.544 180.313 245.437 180.279 245.333C180.054 244.632 179.73 243.982 179.264 243.41C179.021 243.111 178.743 242.852 178.426 242.634C178.339 242.574 178.252 242.543 178.143 242.55C177.178 242.626 176.428 243.05 175.946 243.904C175.884 244.014 175.803 244.084 175.69 244.138C175.148 244.397 174.605 244.661 174.067 244.929C173.969 244.977 173.874 245.038 173.791 245.109C173.417 245.43 173.051 245.759 172.676 246.077C172.556 246.18 172.465 246.298 172.407 246.443C172.362 246.551 172.314 246.661 172.275 246.772C172.126 247.182 172.033 247.603 171.986 248.034C171.973 248.147 171.938 248.239 171.849 248.322C171.504 248.636 171.167 248.96 170.825 249.28C170.788 249.315 170.75 249.351 170.709 249.38C170.229 249.702 169.792 250.08 169.339 250.441C169.238 250.522 169.161 250.617 169.101 250.732C168.84 251.219 168.577 251.703 168.31 252.187C168.232 252.327 168.141 252.462 168.044 252.589C167.851 252.838 167.651 253.08 167.45 253.32C167.397 253.384 167.333 253.446 167.262 253.486C166.822 253.743 166.378 253.992 165.938 254.248C165.844 254.302 165.752 254.32 165.647 254.31C164.87 254.238 164.092 254.165 163.315 254.097C163.224 254.088 163.132 254.077 163.043 254.087C163.047 254.172 163.051 254.218 163.06 254.26C163.324 254.629 163.596 254.991 163.881 255.343C164.447 255.849 165.097 256.224 165.784 256.542C165.85 256.573 165.931 256.585 166.004 256.589C166.615 256.62 167.226 256.651 167.836 256.678C167.915 256.68 167.983 256.7 168.053 256.737C168.213 256.824 168.387 256.852 168.567 256.869C168.989 256.908 169.396 256.823 169.801 256.725C170.279 256.607 170.756 256.488 171.234 256.369C171.301 256.353 171.364 256.352 171.429 256.391C171.602 256.495 171.794 256.511 171.994 256.505C172.372 256.492 172.73 256.391 173.083 256.262C173.211 256.215 173.34 256.172 173.47 256.141C173.898 256.036 174.329 255.935 174.758 255.836C174.939 255.793 175.121 255.756 175.293 255.72C175.332 255.756 175.359 255.779 175.384 255.801C175.611 256.026 175.885 256.144 176.201 256.174C176.423 256.196 176.643 256.175 176.856 256.114C177.017 256.069 177.175 256.014 177.337 255.964C177.403 256.043 177.463 256.116 177.523 256.186C177.817 256.529 178.138 256.844 178.514 257.098C178.901 257.36 179.292 257.617 179.686 257.868C179.843 257.966 180.012 258.053 180.184 258.121C180.466 258.233 180.759 258.271 181.055 258.174C181.124 258.153 181.187 258.16 181.255 258.178C181.759 258.307 182.266 258.28 182.771 258.193C183.12 258.133 183.44 258.008 183.717 257.781C183.889 257.64 184.064 257.506 184.232 257.363C184.528 257.109 184.824 256.853 185.116 256.594C185.402 256.342 185.734 256.182 186.1 256.083C186.265 256.037 186.431 256.003 186.6 256.004C186.864 256.004 187.102 256.074 187.284 256.284C187.483 256.516 187.694 256.737 187.889 256.972C187.989 257.093 188.11 257.144 188.259 257.163C188.612 257.212 188.962 257.275 189.316 257.323C189.441 257.338 189.541 257.382 189.629 257.47C189.767 257.609 189.911 257.739 190.055 257.873C190.114 257.927 190.172 257.976 190.226 258.025ZM190.353 251.486C190.375 251.44 190.394 251.393 190.411 251.345C190.474 251.169 190.535 250.994 190.597 250.817C190.644 250.681 190.692 250.546 190.741 250.41C190.755 250.37 190.762 250.331 190.778 250.279C190.682 250.155 190.592 250.022 190.486 249.902L190.484 249.902C190.375 249.778 190.335 249.62 190.246 249.456C190.045 249.518 189.853 249.552 189.702 249.694C189.735 249.764 189.756 249.819 189.786 249.868C189.953 250.143 190.034 250.443 190.059 250.759C190.068 250.869 190.072 250.979 190.082 251.088C190.094 251.216 190.107 251.342 190.125 251.467C190.135 251.531 190.131 251.619 190.221 251.624C190.304 251.627 190.323 251.545 190.353 251.486ZM191.58 251.964C191.696 252.459 191.828 252.95 191.958 253.442C191.997 253.587 192.038 253.737 192.163 253.839C192.517 253.694 192.685 253.437 192.688 253.077C192.691 252.824 192.62 252.605 192.432 252.436C192.138 252.173 192 251.844 191.958 251.455C191.937 251.255 191.871 251.058 191.811 250.866C191.79 250.798 191.736 250.733 191.683 250.683C191.641 250.647 191.587 250.644 191.542 250.663C191.503 250.68 191.47 250.712 191.463 250.759C191.442 250.892 191.425 251.031 191.443 251.164C191.452 251.241 191.464 251.32 191.477 251.4C191.503 251.587 191.536 251.777 191.58 251.964Z" fill="#A07C4A"/>
<path d="M495.647 602.669C174.846 558.715 -0.21021 309.196 1.0063 13.2096M492.651 280.389C315.423 423.405 50.2793 311.864 28.5854 85.165L23.6886 33.9973M483.717 414.003C297.654 365.914 171.446 192.845 182.744 1M27.2683 195.756L464.879 58.2944M189.417 450.52L469.957 149.17M459.463 591.033L486.97 465.205M432.658 492.509C432.658 496.651 429.3 500.009 425.158 500.009C421.016 500.009 417.658 496.651 417.658 492.509C417.658 488.367 421.016 485.009 425.158 485.009C429.3 485.009 432.658 488.367 432.658 492.509ZM311.658 441.509C311.658 450.621 304.271 458.009 295.158 458.009C286.045 458.009 278.658 450.621 278.658 441.509C278.658 432.396 286.045 425.009 295.158 425.009C304.271 425.009 311.658 432.396 311.658 441.509ZM350.658 471.509C350.658 478.965 344.614 485.009 337.158 485.009C329.702 485.009 323.658 478.965 323.658 471.509C323.658 464.053 329.702 458.009 337.158 458.009C344.614 458.009 350.658 464.053 350.658 471.509ZM385.658 486.009C385.658 491.532 381.181 496.009 375.658 496.009C370.135 496.009 365.658 491.532 365.658 486.009C365.658 480.486 370.135 476.009 375.658 476.009C381.181 476.009 385.658 480.486 385.658 486.009ZM408.658 493.009C408.658 496.875 405.524 500.009 401.658 500.009C397.792 500.009 394.658 496.875 394.658 493.009C394.658 489.143 397.792 486.009 401.658 486.009C405.524 486.009 408.658 489.143 408.658 493.009ZM245.05 3.3765L246.214 33.5875C251.709 176.271 346.294 300.102 482.506 342.943C313.505 303.304 230.663 177.48 245.05 3.3765ZM156.855 243.571C155.597 230.126 165.513 218.163 178.961 216.905C189.158 215.952 198.499 221.43 202.967 229.997C203.328 230.69 203.658 231.403 203.954 232.135C204.822 234.283 205.4 236.588 205.627 239.01C206.884 252.457 196.968 264.419 183.522 265.676C170.075 266.934 158.112 257.018 156.855 243.571ZM199.296 228.428C199.304 228.362 199.314 228.295 199.315 228.23C199.316 228.21 199.314 228.188 199.313 228.167C196.488 224.29 192.461 221.382 187.839 219.947C188.02 220.131 188.137 220.36 188.181 220.632C188.197 220.732 188.22 220.832 188.247 220.93C188.325 221.212 188.5 221.409 188.786 221.488C188.916 221.524 189.053 221.533 189.186 221.558C189.232 221.567 189.276 221.586 189.327 221.603C189.309 221.64 189.303 221.666 189.287 221.683C189.241 221.733 189.191 221.781 189.142 221.826C189.079 221.883 189.011 221.935 188.952 221.996C188.76 222.194 188.787 222.335 189.034 222.442C189.09 222.465 189.146 222.484 189.202 222.5C189.284 222.523 189.368 222.54 189.45 222.561C189.565 222.591 189.681 222.618 189.793 222.658C190.009 222.736 190.028 222.826 189.868 222.982C189.837 223.011 189.802 223.037 189.775 223.068C189.728 223.119 189.682 223.169 189.646 223.225C189.518 223.421 189.536 223.609 189.694 223.784C189.722 223.816 189.755 223.842 189.787 223.871C189.873 223.95 189.969 223.983 190.09 223.967C190.24 223.947 190.394 223.938 190.546 223.939C190.637 223.94 190.73 223.964 190.819 223.99C190.89 224.012 190.917 224.092 190.879 224.158C190.841 224.224 190.795 224.284 190.746 224.357C190.785 224.43 190.823 224.505 190.865 224.578C191.046 224.895 191.23 225.209 191.409 225.528C191.47 225.637 191.538 225.737 191.674 225.821C191.095 226.055 190.511 226.126 189.933 226.265C189.919 226.33 189.902 226.394 189.892 226.459C189.846 226.744 189.812 227.031 189.759 227.313C189.669 227.777 189.797 228.167 190.117 228.504C190.35 228.748 190.625 228.928 190.93 229.066C191.317 229.241 191.706 229.409 192.096 229.579C192.141 229.599 192.189 229.613 192.239 229.631C192.334 229.527 192.363 229.401 192.415 229.287C192.653 228.767 192.771 228.227 192.661 227.655C192.648 227.584 192.655 227.521 192.692 227.459C192.718 227.416 192.738 227.368 192.761 227.322C192.877 227.096 192.965 226.848 193.116 226.648C193.273 226.44 193.489 226.278 193.683 226.099C193.763 226.026 193.832 225.938 193.937 225.888C194.117 225.946 194.298 225.996 194.472 226.062C194.614 226.116 194.751 226.117 194.894 226.079C195.068 226.034 195.24 225.991 195.414 225.953C195.478 225.939 195.544 225.905 195.617 225.961C195.681 226.234 195.756 226.512 195.808 226.795C195.832 226.93 195.896 227.004 196.014 227.055C196.177 227.126 196.334 227.213 196.498 227.282C196.614 227.33 196.669 227.41 196.692 227.528C196.724 227.685 196.768 227.841 196.792 228.001C196.812 228.13 196.878 228.219 196.978 228.292C197.132 228.405 197.307 228.467 197.49 228.509C197.749 228.567 198.012 228.572 198.276 228.567C198.616 228.56 198.952 228.514 199.296 228.428ZM196.904 229.728C197.078 229.764 197.142 229.748 197.21 229.634C197.299 229.491 197.307 229.313 197.213 229.206C197.158 229.143 197.093 229.086 197.021 229.042C196.83 228.925 196.669 228.788 196.557 228.585C196.431 228.36 196.227 228.199 196.016 228.057C195.615 227.788 195.171 227.627 194.697 227.55C194.665 227.545 194.63 227.549 194.578 227.549C194.417 227.746 194.3 227.95 194.21 228.171C194.178 228.25 194.152 228.331 194.138 228.415C194.059 228.912 194.355 229.175 194.736 229.227C195.038 229.268 195.342 229.285 195.663 229.315C195.655 229.369 195.655 229.416 195.64 229.46C195.576 229.642 195.507 229.824 195.437 230.016C195.64 230.143 195.85 230.222 196.073 230.305C196.223 230.101 196.337 229.883 196.476 229.684C196.628 229.641 196.765 229.699 196.904 229.728ZM182.645 233.561C183.241 233.391 183.822 233.177 184.398 232.95C184.724 232.822 185.059 232.735 185.409 232.705C185.556 232.694 185.699 232.69 185.834 232.756C185.952 232.813 186.07 232.799 186.176 232.738C186.352 232.638 186.535 232.541 186.696 232.419C187.242 232.007 187.565 231.452 187.68 230.78C187.706 230.631 187.762 230.512 187.871 230.406C188.15 230.134 188.417 229.848 188.698 229.575C188.793 229.481 188.846 229.379 188.871 229.248C188.946 228.857 189.031 228.467 189.111 228.078C189.182 227.735 189.206 227.39 189.187 227.04C189.153 226.405 189.022 225.796 188.737 225.225C188.69 225.129 188.676 225.033 188.669 224.931C188.64 224.576 188.612 224.22 188.522 223.872C188.436 223.54 188.315 223.236 188.063 222.982C187.622 222.535 187.204 222.065 186.775 221.605C186.54 221.352 186.539 221.352 186.515 221.006C186.479 220.508 186.43 220.012 186.29 219.53C184.012 218.999 181.615 218.816 179.162 219.045C171.63 219.749 165.317 224.138 161.828 230.259C161.892 230.245 161.956 230.222 162.02 230.193C162.153 230.136 162.286 230.081 162.412 230.011C162.79 229.8 163.163 229.582 163.538 229.366C163.95 229.129 164.361 228.891 164.773 228.653C165.024 228.506 165.295 228.466 165.583 228.501C165.92 228.542 166.257 228.574 166.595 228.61C166.93 228.645 167.258 228.618 167.568 228.476C168.151 228.206 168.682 227.864 169.092 227.354C169.22 227.195 169.359 227.047 169.502 226.901C169.687 226.711 169.902 226.559 170.142 226.443C170.446 226.296 170.761 226.224 171.103 226.258C171.366 226.285 171.62 226.354 171.875 226.416C172.088 226.468 172.303 226.525 172.518 226.567C172.866 226.634 173.213 226.616 173.547 226.491C173.761 226.411 173.969 226.313 174.176 226.217C174.392 226.117 174.602 226.006 174.817 225.906C175.097 225.775 175.39 225.688 175.7 225.689C175.911 225.69 176.125 225.707 176.334 225.737C176.558 225.77 176.606 225.86 176.545 226.073C176.521 226.154 176.49 226.234 176.464 226.314C176.383 226.565 176.443 226.712 176.628 226.816C176.766 226.893 176.856 227.018 176.91 227.166C176.956 227.294 177.011 227.42 177.034 227.552C177.107 227.997 177.131 228.447 177.146 228.896C177.156 229.227 177.178 229.558 177.203 229.888C177.209 229.988 177.242 230.087 177.27 230.185C177.345 230.448 177.466 230.689 177.605 230.924C177.858 231.351 178.174 231.727 178.514 232.084C179.066 232.663 179.683 233.171 180.288 233.693C180.369 233.763 180.462 233.802 180.561 233.818C180.686 233.838 180.815 233.852 180.94 233.851C181.524 233.844 182.087 233.72 182.645 233.561ZM199.805 234.156C199.678 234.338 199.506 234.42 199.314 234.487C199.25 234.509 199.191 234.541 199.105 234.579C199.174 234.921 199.266 235.236 199.38 235.545C199.435 235.69 199.518 235.815 199.619 235.93C199.663 235.981 199.713 236.028 199.77 236.065C199.96 236.193 200.175 236.128 200.238 235.913C200.362 235.483 200.474 235.048 200.591 234.615C200.608 234.554 200.603 234.5 200.57 234.446C200.49 234.315 200.401 234.193 200.274 234.103C200.098 233.979 199.926 233.981 199.805 234.156ZM202.327 239.14C202.688 238.954 203.053 238.777 203.414 238.592C203.225 237.032 202.878 235.526 202.389 234.09C202.086 234.323 201.782 234.551 201.493 234.787C201.465 235.098 201.436 235.384 201.419 235.672C201.412 235.79 201.376 235.878 201.292 235.962C200.953 236.306 200.62 236.659 200.281 237.004C199.982 237.307 199.677 237.602 199.374 237.901C199.334 237.942 199.3 237.988 199.264 238.031C199.358 238.231 199.492 238.382 199.644 238.518C199.909 238.754 200.221 238.907 200.556 239.013C201.005 239.155 201.465 239.216 201.935 239.224C202.078 239.228 202.201 239.204 202.327 239.14ZM190.226 258.025C190.547 257.983 190.842 257.868 191.161 257.833C191.204 257.914 191.243 257.988 191.283 258.063C191.482 258.429 191.716 258.773 192.008 259.074C192.187 259.258 192.384 259.419 192.613 259.534C192.91 259.683 193.22 259.744 193.55 259.659C193.744 259.611 193.939 259.569 194.134 259.527C200.4 255.079 204.211 247.523 203.496 239.345C203.345 239.292 203.195 239.238 203.044 239.187C202.998 239.172 202.949 239.169 202.898 239.161C202.72 239.443 202.556 239.72 202.375 239.986C202.194 240.252 201.978 240.492 201.801 240.77C202.048 240.872 202.217 241.049 202.38 241.231C202.652 241.539 202.601 241.428 202.626 241.839C202.642 242.118 202.65 242.397 202.56 242.669C202.511 242.816 202.527 242.971 202.549 243.124C202.566 243.24 202.619 243.331 202.721 243.394C202.75 243.411 202.782 243.425 202.81 243.443C202.901 243.5 202.932 243.586 202.907 243.685C202.888 243.767 202.862 243.85 202.821 243.923C202.751 244.049 202.676 244.174 202.588 244.287C202.48 244.429 202.386 244.58 202.305 244.74C202.182 244.981 202.052 245.22 201.93 245.463C201.885 245.553 201.826 245.61 201.725 245.633C201.567 245.671 201.416 245.73 201.257 245.76C201.049 245.801 200.838 245.827 200.625 245.777C200.341 245.711 200.198 245.486 200.273 245.203C200.363 244.865 200.495 244.543 200.687 244.249C200.816 244.054 200.97 243.889 201.184 243.785C201.222 243.767 201.259 243.746 201.293 243.72C201.364 243.664 201.378 243.6 201.334 243.52C201.297 243.453 201.254 243.39 201.214 243.325C201.115 243.161 201.104 242.989 201.182 242.814C201.223 242.721 201.273 242.632 201.331 242.549C201.382 242.471 201.446 242.401 201.506 242.329C201.606 242.212 201.68 242.079 201.725 241.93C201.808 241.651 201.74 241.464 201.485 241.332C201.29 241.232 201.135 241.095 200.999 240.928C200.94 240.857 200.878 240.787 200.807 240.727C200.696 240.63 200.569 240.609 200.428 240.657C200.272 240.709 200.14 240.802 200.011 240.9C199.904 240.983 199.798 241.066 199.685 241.143C199.63 241.18 199.564 241.204 199.5 241.223C199.432 241.244 199.355 241.187 199.361 241.115C199.367 241.023 199.39 240.931 199.406 240.839C199.416 240.785 199.425 240.731 199.441 240.649C198.916 240.729 198.437 240.854 198.016 241.148C197.94 241.201 197.869 241.265 197.812 241.337C197.646 241.543 197.591 241.772 197.679 242.029C197.741 242.207 197.823 242.369 197.968 242.501C198.252 242.757 198.245 243.02 197.993 243.299C197.915 243.386 197.821 243.464 197.723 243.528C197.62 243.595 197.575 243.681 197.554 243.796C197.466 244.303 197.456 244.808 197.573 245.313C197.593 245.397 197.595 245.476 197.578 245.563C197.511 245.895 197.452 246.23 197.389 246.562C197.365 246.696 197.325 246.824 197.264 246.947C197.15 247.176 197.062 247.415 197.007 247.665C196.954 247.92 196.934 248.171 197.128 248.392C196.554 249.226 196.162 250.131 195.946 251.119C195.592 251.21 195.248 251.297 194.904 251.386C194.484 251.493 194.064 251.599 193.645 251.707C193.539 251.735 193.503 251.783 193.496 251.882C193.487 251.999 193.518 252.108 193.616 252.175C193.713 252.242 193.816 252.304 193.926 252.347C194.204 252.457 194.499 252.514 194.795 252.518C195.212 252.523 195.51 252.714 195.721 253.052C195.998 253.497 196.123 253.989 196.081 254.51C196.011 255.367 195.686 256.123 195.111 256.762C194.626 257.301 194.626 257.295 193.904 257.501C193.652 257.573 193.387 257.604 193.121 257.545C192.85 257.486 192.67 257.328 192.586 257.06C192.542 256.92 192.514 256.78 192.532 256.634C192.551 256.474 192.57 256.314 192.586 256.155C192.591 256.106 192.594 256.05 192.573 256.01C192.515 255.896 192.433 255.798 192.322 255.728C192.182 255.64 192.038 255.627 191.888 255.71C191.774 255.774 191.68 255.858 191.605 255.962C191.512 256.095 191.431 256.234 191.345 256.371C191.31 256.428 191.283 256.493 191.242 256.546C191.067 256.772 190.834 256.79 190.629 256.595C190.58 256.548 190.54 256.493 190.497 256.44C190.463 256.394 190.43 256.346 190.393 256.292C190.241 256.32 190.098 256.343 189.958 256.373C189.591 256.451 189.219 256.489 188.846 256.503C188.489 256.517 188.175 256.393 187.936 256.122C187.78 255.944 187.638 255.751 187.506 255.553C187.432 255.442 187.38 255.314 187.334 255.187C187.198 254.814 187.252 254.464 187.508 254.16C187.615 254.034 187.75 253.924 187.884 253.822C188.132 253.631 188.22 253.379 188.131 253.081C188.083 252.921 187.99 252.788 187.865 252.685C187.711 252.557 187.607 252.395 187.507 252.228C187.371 252.003 187.232 251.78 187.098 251.553C187.051 251.473 187.014 251.387 186.983 251.301C186.752 250.648 186.376 250.106 185.782 249.736C185.659 249.659 185.586 249.565 185.527 249.438C185.249 248.83 184.878 248.284 184.409 247.809C183.817 247.21 183.124 246.783 182.291 246.608C182.095 246.567 181.928 246.497 181.77 246.369C181.621 246.245 181.448 246.148 181.273 246.06C181.04 245.944 180.794 245.847 180.553 245.741C180.491 245.715 180.431 245.687 180.379 245.663C180.342 245.544 180.313 245.437 180.279 245.333C180.054 244.632 179.73 243.982 179.264 243.41C179.021 243.111 178.743 242.852 178.426 242.634C178.339 242.574 178.252 242.543 178.143 242.55C177.178 242.626 176.428 243.05 175.946 243.904C175.884 244.014 175.803 244.084 175.69 244.138C175.148 244.397 174.605 244.661 174.067 244.929C173.969 244.977 173.874 245.038 173.791 245.109C173.417 245.43 173.051 245.759 172.676 246.077C172.556 246.18 172.465 246.298 172.407 246.443C172.362 246.551 172.314 246.661 172.275 246.772C172.126 247.182 172.033 247.603 171.986 248.034C171.973 248.147 171.938 248.239 171.849 248.322C171.504 248.636 171.167 248.96 170.825 249.28C170.788 249.315 170.75 249.351 170.709 249.38C170.229 249.702 169.792 250.08 169.339 250.441C169.238 250.522 169.161 250.617 169.101 250.732C168.84 251.219 168.577 251.703 168.31 252.187C168.232 252.327 168.141 252.462 168.044 252.589C167.851 252.838 167.651 253.08 167.45 253.32C167.397 253.384 167.333 253.446 167.262 253.486C166.822 253.743 166.378 253.992 165.938 254.248C165.844 254.302 165.752 254.32 165.647 254.31C164.87 254.238 164.092 254.165 163.315 254.097C163.224 254.088 163.132 254.077 163.043 254.087C163.047 254.172 163.051 254.218 163.06 254.26C163.324 254.629 163.596 254.991 163.881 255.343C164.447 255.849 165.097 256.224 165.784 256.542C165.85 256.573 165.931 256.585 166.004 256.589C166.615 256.62 167.226 256.651 167.836 256.678C167.915 256.68 167.983 256.7 168.053 256.737C168.213 256.824 168.387 256.852 168.567 256.869C168.989 256.908 169.396 256.823 169.801 256.725C170.279 256.607 170.756 256.488 171.234 256.369C171.301 256.353 171.364 256.352 171.429 256.391C171.602 256.495 171.794 256.511 171.994 256.505C172.372 256.492 172.73 256.391 173.083 256.262C173.211 256.215 173.34 256.172 173.47 256.141C173.898 256.036 174.329 255.935 174.758 255.836C174.939 255.793 175.121 255.756 175.293 255.72C175.332 255.756 175.359 255.779 175.384 255.801C175.611 256.026 175.885 256.144 176.201 256.174C176.423 256.196 176.643 256.175 176.856 256.114C177.017 256.069 177.175 256.014 177.337 255.964C177.403 256.043 177.463 256.116 177.523 256.186C177.817 256.529 178.138 256.844 178.514 257.098C178.901 257.36 179.292 257.617 179.686 257.868C179.843 257.966 180.012 258.053 180.184 258.121C180.466 258.233 180.759 258.271 181.055 258.174C181.124 258.153 181.187 258.16 181.255 258.178C181.759 258.307 182.266 258.28 182.771 258.193C183.12 258.133 183.44 258.008 183.717 257.781C183.889 257.64 184.064 257.506 184.232 257.363C184.528 257.109 184.824 256.853 185.116 256.594C185.402 256.342 185.734 256.182 186.1 256.083C186.265 256.037 186.431 256.003 186.6 256.004C186.864 256.004 187.102 256.074 187.284 256.284C187.483 256.516 187.694 256.737 187.889 256.972C187.989 257.093 188.11 257.144 188.259 257.163C188.612 257.212 188.962 257.275 189.316 257.323C189.441 257.338 189.541 257.382 189.629 257.47C189.767 257.609 189.911 257.739 190.055 257.873C190.114 257.927 190.172 257.976 190.226 258.025ZM190.353 251.486C190.375 251.44 190.394 251.393 190.411 251.345C190.474 251.169 190.535 250.994 190.597 250.817C190.644 250.681 190.692 250.546 190.741 250.41C190.755 250.37 190.762 250.331 190.778 250.279C190.682 250.155 190.592 250.022 190.486 249.902L190.484 249.902C190.375 249.778 190.335 249.62 190.246 249.456C190.045 249.518 189.853 249.552 189.702 249.694C189.735 249.764 189.756 249.819 189.786 249.868C189.953 250.143 190.034 250.443 190.059 250.759C190.068 250.869 190.072 250.979 190.082 251.088C190.094 251.216 190.107 251.342 190.125 251.467C190.135 251.531 190.131 251.619 190.221 251.624C190.304 251.627 190.323 251.545 190.353 251.486ZM191.58 251.964C191.696 252.459 191.828 252.95 191.958 253.442C191.997 253.587 192.038 253.737 192.163 253.839C192.517 253.694 192.685 253.437 192.688 253.077C192.691 252.824 192.62 252.605 192.432 252.436C192.138 252.173 192 251.844 191.958 251.455C191.937 251.255 191.871 251.058 191.811 250.866C191.79 250.798 191.736 250.733 191.683 250.683C191.641 250.647 191.587 250.644 191.542 250.663C191.503 250.68 191.47 250.712 191.463 250.759C191.442 250.892 191.425 251.031 191.443 251.164C191.452 251.241 191.464 251.32 191.477 251.4C191.503 251.587 191.536 251.777 191.58 251.964Z" stroke="#A07C4A"/>
</svg>
