<svg width="2027" height="1800" viewBox="0 0 2027 1800" fill="none" xmlns="http://www.w3.org/2000/svg">
<path d="M195 0H395L898.128 706.691L1327 0H1527L2027 900H1827L1680.26 630H1427V464H1590.04L1427 164L1002.82 863.727L1427 1500V900H1627V1800H1427L995 1168.83V1800H795V876.623L195 0Z" fill="#141519"/>
<path d="M173 0L34.2353 34.3515V53.7592L153.204 85.7816V86.1698L34.2353 118.192V137.6L173 171.952V153.514L59.2712 127.12V126.732L173 95.6797V76.272L59.2712 45.2197V44.8315L173 18.4373V0ZM45.1035 217.799C45.1035 196.256 61.7943 185.582 79.6493 185.582V263.795C114.777 263.795 135.931 248.657 135.931 217.604C135.931 188.687 116.718 170.056 83.7249 170.056C52.6726 170.056 31.5181 188.299 31.5181 218.381C31.5181 243.028 46.2681 257.196 64.7053 262.242V246.716C57.9126 244.969 45.1035 237.594 45.1035 217.799ZM122.346 217.604C122.346 236.236 109.149 248.269 93.2345 248.269V185.582C109.149 185.582 122.346 198.973 122.346 217.604ZM135.931 326.138C135.931 310.224 128.945 300.908 120.405 295.086V294.698H173V279.172H34.2353V294.698H46.4621V295.086C38.8931 300.908 31.5181 310.224 31.5181 326.138C31.5181 350.98 51.12 370.776 83.7249 370.776C116.33 370.776 135.931 350.98 135.931 326.138ZM45.1035 324.585C45.1035 306.148 60.4357 294.698 83.7249 294.698C107.014 294.698 122.346 306.148 122.346 324.585C122.346 344.963 103.133 355.249 83.7249 355.249C64.3172 355.249 45.1035 344.963 45.1035 324.585ZM93.0404 426.625C96.3397 412.846 97.3102 399.454 108.955 399.454C116.718 399.454 122.346 407.023 122.346 420.997C122.346 439.628 112.448 443.316 104.879 444.868V460.394C121.958 458.842 135.931 445.644 135.931 420.997C135.931 397.708 123.316 383.928 107.79 383.928C84.5012 383.928 82.7545 406.441 79.0671 421.579C75.5737 435.747 74.7974 448.75 60.4357 448.75C53.8371 448.75 45.1035 442.151 45.1035 425.266C45.1035 400.425 56.166 396.543 67.2284 395.573V380.047C45.88 381.017 31.5181 394.99 31.5181 425.266C31.5181 447.779 43.357 464.276 61.4061 464.276C85.8598 464.276 88.7707 444.286 93.0404 426.625ZM152.428 489.013C152.428 493.477 155.727 498.717 161.744 498.717C167.76 498.717 171.059 493.477 171.059 489.013C171.059 484.743 167.76 479.309 161.744 479.309C155.727 479.309 152.428 484.743 152.428 489.013ZM133.214 481.25H34.2353V496.776H133.214V481.25ZM119.629 563.15H133.214V543.743H166.207V528.216H133.214V513.661H119.629V528.216H58.4949C38.3109 528.216 33.0708 538.308 33.0708 551.506C33.0708 555.581 33.459 559.657 34.2353 563.15H47.8207C46.8503 549.953 48.7911 543.743 60.0475 543.743H119.629V563.15ZM45.1035 620.552C45.1035 599.01 61.7943 588.336 79.6493 588.336V666.548C114.777 666.548 135.931 651.41 135.931 620.358C135.931 591.441 116.718 572.809 83.7249 572.809C52.6726 572.809 31.5181 591.052 31.5181 621.134C31.5181 645.782 46.2681 659.95 64.7053 664.996V649.47C57.9126 647.723 45.1035 640.348 45.1035 620.552ZM122.346 620.358C122.346 638.989 109.149 651.022 93.2345 651.022V588.336C109.149 588.336 122.346 601.727 122.346 620.358ZM34.2353 723.099V773.365C34.2353 811.598 58.8831 835.081 103.521 835.081C148.158 835.081 173 811.598 173 773.365V723.099H34.2353ZM157.474 740.566V773.365C157.474 808.687 130.691 817.615 103.521 817.615C76.35 817.615 49.7613 808.687 49.7613 773.365V740.566H157.474ZM45.1035 895.559C45.1035 874.016 61.7943 863.342 79.6493 863.342V941.555C114.777 941.555 135.931 926.417 135.931 895.365C135.931 866.447 116.718 847.816 83.7249 847.816C52.6726 847.816 31.5181 866.059 31.5181 896.141C31.5181 920.789 46.2681 934.956 64.7053 940.002V924.476C57.9126 922.729 45.1035 915.354 45.1035 895.559ZM122.346 895.365C122.346 913.996 109.149 926.029 93.2345 926.029V863.342C109.149 863.342 122.346 876.733 122.346 895.365ZM133.214 944.735L34.2353 980.251V997.912L133.214 1033.43V1016.54L49.7613 989.178V988.984L133.214 961.619V944.735ZM45.1035 1084.71C45.1035 1063.17 61.7943 1052.49 79.6493 1052.49V1130.7C114.777 1130.7 135.931 1115.57 135.931 1084.51C135.931 1055.6 116.718 1036.97 83.7249 1036.97C52.6726 1036.97 31.5181 1055.21 31.5181 1085.29C31.5181 1109.94 46.2681 1124.11 64.7053 1129.15V1113.63C57.9126 1111.88 45.1035 1104.5 45.1035 1084.71ZM122.346 1084.51C122.346 1103.15 109.149 1115.18 93.2345 1115.18V1052.49C109.149 1052.49 122.346 1065.88 122.346 1084.51ZM173 1146.65H34.2353V1162.18H173V1146.65ZM31.5181 1227.06C31.5181 1196.78 52.8667 1178.54 83.7249 1178.54C114.583 1178.54 135.931 1196.78 135.931 1227.06C135.931 1257.14 114.583 1275.38 83.7249 1275.38C52.8667 1275.38 31.5181 1257.14 31.5181 1227.06ZM45.1035 1227.06C45.1035 1249.18 62.5705 1259.86 83.7249 1259.86C104.879 1259.86 122.346 1249.18 122.346 1227.06C122.346 1204.74 104.879 1194.06 83.7249 1194.06C62.5705 1194.06 45.1035 1204.74 45.1035 1227.06ZM135.931 1338.41C135.931 1322.11 128.557 1312.79 120.988 1306.97V1306.58H133.214V1291.06H0.854248V1306.58H47.0444V1306.97C38.505 1312.79 31.5181 1322.11 31.5181 1338.41C31.5181 1362.87 51.12 1382.66 83.7249 1382.66C116.33 1382.66 135.931 1362.87 135.931 1338.41ZM45.1035 1336.47C45.1035 1318.03 60.4357 1306.58 83.7249 1306.58C107.014 1306.58 122.346 1318.03 122.346 1336.47C122.346 1356.85 103.133 1367.13 83.7249 1367.13C64.3172 1367.13 45.1035 1356.85 45.1035 1336.47ZM135.931 1502.35C135.931 1487.4 128.168 1477.12 118.853 1470.32V1469.94C129.915 1465.86 135.931 1457.71 135.931 1443.54C135.931 1428.6 128.363 1420.06 121.376 1414.82V1414.43H133.214V1398.9H34.2353V1414.43H95.9517C111.284 1414.43 122.346 1424.13 122.346 1439.66C122.346 1455.19 112.254 1457.71 99.445 1457.71H34.2353V1473.23H95.9517C111.284 1473.23 122.346 1482.94 122.346 1498.46C122.346 1513.99 112.254 1516.51 99.445 1516.51H34.2353V1532.04H103.327C124.093 1532.04 135.931 1522.34 135.931 1502.35ZM45.1035 1594.91C45.1035 1573.36 61.7943 1562.69 79.6493 1562.69V1640.9C114.777 1640.9 135.931 1625.76 135.931 1594.71C135.931 1565.79 116.718 1547.16 83.7249 1547.16C52.6726 1547.16 31.5181 1565.41 31.5181 1595.49C31.5181 1620.14 46.2681 1634.3 64.7053 1639.35V1623.82C57.9126 1622.08 45.1035 1614.7 45.1035 1594.91ZM122.346 1594.71C122.346 1613.34 109.149 1625.38 93.2345 1625.38V1562.69C109.149 1562.69 122.346 1576.08 122.346 1594.71ZM135.931 1704.8C135.931 1687.91 128.363 1677.43 121.376 1672.19V1671.8H133.214V1656.28H34.2353V1671.8H95.9517C111.284 1671.8 122.346 1683.45 122.346 1700.92C122.346 1716.44 112.254 1722.46 99.445 1722.46H34.2353V1737.99H103.327C126.034 1737.99 135.931 1722.85 135.931 1704.8ZM119.629 1800H133.214V1780.59H166.207V1765.07H133.214V1750.51H119.629V1765.07H58.4949C38.3109 1765.07 33.0708 1775.16 33.0708 1788.36C33.0708 1792.43 33.459 1796.51 34.2353 1800H47.8207C46.8503 1786.8 48.7911 1780.59 60.0475 1780.59H119.629V1800Z" fill="#141519"/>
</svg>
