<svg width="98" height="109" viewBox="0 0 98 109" fill="none" xmlns="http://www.w3.org/2000/svg">
<g clip-path="url(#clip0_57_228)">
<path d="M52.4662 32.5307C54.3111 33.5283 55.6879 35.8422 55.662 38.3887C55.6603 38.8108 55.9999 39.155 56.422 39.1592C56.8453 39.1615 57.192 38.8239 57.197 38.4006C57.2284 35.3021 55.6099 32.4907 53.1917 31.1831C51.6099 30.4226 50.1755 30.3395 48.7577 30.6929C47.0585 30.1862 45.6012 29.9905 44.3282 30.0004C43.7298 30.0073 43.173 30.0552 42.6493 30.1397C40.9737 30.4101 39.6492 31.0388 38.4567 31.6702C36.0849 32.926 34.3037 34.1252 30.3397 33.0627C29.5875 32.8612 29.0884 33.6006 29.4486 34.2244C30.4684 35.7411 31.9136 37.0475 33.5805 37.7815C32.3571 38.0005 31.0657 38.0267 29.54 37.6562C28.7931 37.4561 28.444 38.1422 28.5754 38.6329C29.2311 40.5998 30.773 41.5715 32.173 42.2573C31.9859 42.4722 31.8375 42.7224 31.7398 42.9949H31.6064C29.4961 42.9949 27.772 44.7205 27.772 46.8307C27.772 48.941 29.4961 50.6711 31.6064 50.6711H31.7413C32.0621 51.5594 32.9204 52.2016 33.9133 52.2016H34.6778C34.6778 53.0403 35.3741 53.7365 36.2127 53.7365H36.9772V55.2715C36.9772 57.0948 38.1204 58.7751 39.5899 60.0367C40.0934 60.469 40.6399 60.8571 41.2118 61.1805L41.2043 63.9731L31.1252 68.2512C29.5586 68.9158 28.5365 70.4588 28.5365 72.1605V75.9964H27.772C27.3475 75.9941 27.0017 76.3365 27 76.7609C26.9983 77.1877 27.3452 77.5339 27.772 77.5313H63.073C63.4992 77.533 63.8451 77.1871 63.8434 76.7609C63.8417 76.337 63.4968 75.9948 63.073 75.9964H62.3085V74.1497C63.7753 73.857 65.1196 73.4806 66.3018 73.0329C67.8212 72.4576 69.0755 71.7671 69.9952 70.9359C70.8032 70.1189 71.5137 69.327 71.5137 68.3471V58.7447C71.5137 57.6157 70.9195 56.5882 70.0012 55.7482C69.0829 54.9082 67.8273 54.2046 66.3078 53.6166C64.7812 53.026 62.8825 52.5667 60.9264 52.2451C60.3164 52.1262 60.0015 52.4902 60.0015 53.0006V59.9799C60.0031 60.3614 60.2847 60.684 60.6626 60.7369C60.6646 60.7374 60.6701 60.7384 60.6701 60.7384C62.8196 61.0827 64.7217 61.6085 66.2298 62.2449C62.5632 63.7721 58.057 64.1911 54.6307 64.2116C54.0755 64.2116 53.8662 64.5344 53.8662 64.976V65.7465L49.6451 63.9732L49.6361 61.1776C50.2067 60.8545 50.7526 60.4682 51.255 60.0369C52.7246 58.7753 53.8662 57.0949 53.8662 55.2716V53.7366H54.6307C55.4693 53.7366 56.1657 53.0403 56.1657 52.2017H56.9376C57.9305 52.2017 58.7828 51.5595 59.1022 50.6713H59.2371C61.3473 50.6713 63.073 48.9411 63.073 46.8309C63.073 44.7206 61.3473 42.9949 59.2371 42.9949H59.1037C58.7856 42.1043 57.9323 41.46 56.9377 41.46H56.1656C56.1656 40.6214 55.4692 39.9235 54.6306 39.9235H50.7963V39.159C50.7963 37.8964 49.7519 36.8536 48.4894 36.8536H42.354C41.0915 36.8536 40.0486 37.8964 40.0486 39.159V39.9235H36.2127C35.3741 39.9235 34.6778 40.6213 34.6778 41.4599H34.0842C32.8528 40.8687 31.5929 40.3739 30.7594 39.4213C33.2644 39.6664 35.8268 38.9162 37.2215 38.3496C38.249 37.9353 37.6208 36.8007 36.8557 36.8639C35.1683 36.9984 33.4208 36.1898 32.0561 34.9303C35.1961 35.2184 37.2558 34.0374 39.1702 33.0237C41.1644 31.9678 43.0434 31.0383 46.5737 31.7286C45.982 32.136 45.4022 32.6478 44.8469 33.2725C44.563 33.5909 44.5933 34.0798 44.9143 34.3607C45.2319 34.6406 45.7162 34.6105 45.9966 34.2932C46.9396 33.2323 47.8739 32.577 48.9413 32.1842C50.3177 31.7756 51.4572 31.9852 52.4662 32.5307ZM42.354 38.3887H48.4894C48.9223 38.3887 49.2599 38.7262 49.2599 39.1592V39.9236H41.5836V39.1592C41.5836 38.7262 41.9211 38.3887 42.354 38.3887ZM36.2127 41.4601H54.6307V42.2246V51.4359V52.2018H48.4894C47.5692 52.2018 47.2083 49.9009 45.4255 49.9009C43.6426 49.9009 43.0967 52.2018 42.354 52.2018H36.2127V51.4359V42.2246V41.4601ZM33.9133 42.9951H34.6778V50.6713H33.9133C33.4803 50.6713 33.1413 50.3338 33.1413 49.9009V43.7595C33.1413 43.3265 33.4803 42.9951 33.9133 42.9951ZM38.5122 42.9951C38.0906 42.9967 37.7493 43.338 37.7477 43.7595C37.746 44.1834 38.0883 44.5283 38.5122 44.53H40.8191C41.243 44.5283 41.5852 44.1834 41.5836 43.7595C41.582 43.338 41.2406 42.9967 40.8191 42.9951H38.5122ZM43.889 42.9951C43.4651 42.9934 43.1202 43.3356 43.1185 43.7595C43.1168 44.1857 43.4628 44.5317 43.889 44.53H49.2599C49.6837 44.5283 50.026 44.1834 50.0243 43.7595C50.0227 43.338 49.6814 42.9967 49.2599 42.9951H43.889ZM56.1657 42.9951H56.9376C57.3706 42.9951 57.7021 43.3265 57.7021 43.7595V49.9009C57.7021 50.3338 57.3706 50.6713 56.9376 50.6713H56.1657V42.9951ZM52.3328 42.9965C51.9112 42.9982 51.5699 43.3395 51.5683 43.7611C51.5691 44.1832 51.9106 44.5254 52.3328 44.527C52.7549 44.5254 53.0964 44.1831 53.0972 43.761C53.0956 43.3395 52.7543 42.9982 52.3328 42.9965ZM31.6064 44.53V49.1364C30.3256 49.1364 29.3069 48.1116 29.3069 46.831C29.3069 45.5502 30.3256 44.53 31.6064 44.53ZM59.2371 44.53C60.5178 44.53 61.5365 45.5502 61.5365 46.831C61.5365 48.1116 60.5178 49.1364 59.2371 49.1364V44.53ZM38.5122 46.065C38.0901 46.0666 37.7485 46.4088 37.7477 46.831C37.746 47.2548 38.0883 47.5997 38.5122 47.6014H46.1899C46.6162 47.603 46.9621 47.2572 46.9604 46.831C46.9596 46.4065 46.6144 46.0633 46.1899 46.065H38.5122ZM49.2599 46.065C48.8354 46.0633 48.4902 46.4065 48.4894 46.831C48.4877 47.2572 48.8336 47.603 49.2599 47.6014H52.3313C52.7551 47.5997 53.0974 47.2548 53.0957 46.831C53.0949 46.4088 52.7534 46.0666 52.3313 46.065H49.2599ZM38.5122 49.1364C38.0906 49.138 37.7493 49.4793 37.7477 49.9009C37.746 50.3247 38.0883 50.6697 38.5122 50.6713H41.5836C42.0098 50.673 42.3557 50.3271 42.354 49.9009C42.3524 49.477 42.0074 49.1347 41.5836 49.1364H38.5122ZM49.2599 49.1364C48.836 49.1347 48.491 49.477 48.4894 49.9009C48.4877 50.3271 48.8336 50.673 49.2599 50.6713H52.3313C52.7551 50.6696 53.0974 50.3247 53.0957 49.9009C53.0941 49.4793 52.7528 49.138 52.3313 49.1364H49.2599ZM45.4255 51.4359C46.8212 51.4543 46.8526 53.7368 48.4894 53.7368H52.3313V55.2717C52.3313 56.4155 51.499 57.8087 50.2567 58.8753C49.0143 59.9418 47.3999 60.6485 46.1899 60.6485H44.6535C43.4435 60.6485 41.8291 59.9418 40.5868 58.8753C39.3444 57.8087 38.5122 56.4155 38.5122 55.2717V53.7368H42.354C43.9797 53.7368 44.0298 51.4187 45.4255 51.4359ZM61.5365 53.9106C63.1048 54.208 64.5873 54.6009 65.7516 55.0513C67.1487 55.5919 68.2511 56.2281 68.9639 56.8801C69.6768 57.5322 69.9848 58.1518 69.9848 58.7448C69.9848 60.1604 68.9358 60.6759 67.9491 61.3605C66.2518 60.4726 64.0589 59.7838 61.5365 59.3324V53.9106ZM69.9848 61.7518V67.9516C69.9848 68.5445 69.6813 69.1554 68.9699 69.7983C68.2586 70.4412 67.1548 71.065 65.7576 71.594C63.1282 72.5897 59.4677 73.2453 55.4012 73.3194V65.7406C59.6265 65.6655 63.4417 64.9758 66.3078 63.8669C67.8183 63.2824 69.0679 62.5852 69.9848 61.7518ZM42.7333 61.8582C43.3702 62.0669 44.0165 62.1835 44.6535 62.1835H46.1899C46.8266 62.1835 47.4735 62.0681 48.1101 61.8597V64.1141L45.4225 66.2637L42.7333 64.1096V61.8582ZM67.6224 65.3673C67.083 65.6709 66.4562 65.9587 65.7576 66.2232C65.0591 66.4878 64.2848 66.7306 63.4522 66.9427C63.0402 67.0471 62.7916 67.4665 62.8976 67.8781C63.0047 68.2869 63.4222 68.5321 63.8314 68.4267C64.7136 68.2019 65.542 67.95 66.3018 67.6623C67.0615 67.3745 67.7556 67.053 68.3749 66.7044C68.741 66.4955 68.8702 66.0304 68.6642 65.6626C68.447 65.2865 67.9938 65.1529 67.6224 65.3673ZM49.0005 65.3688L50.3556 65.9384L47.7639 69.3172L46.4553 67.4014L49.0005 65.3688ZM41.8474 65.3704L44.3882 67.4015L43.0856 69.3112L40.4953 65.9445L41.8474 65.3704ZM51.8186 66.5531L53.8662 67.4135V74.0929C53.8662 74.6184 54.1441 74.8634 54.6307 74.8634C56.7983 74.8634 58.8691 74.7068 60.772 74.4182V75.9966H46.1899V69.7339L47.0908 71.056C47.3856 71.4846 48.0123 71.502 48.3305 71.0906L51.8186 66.5531ZM39.0338 66.5646L42.5129 71.0915C42.831 71.5044 43.4594 71.4869 43.7541 71.0569L44.6535 69.7363V75.9976H35.4482V73.6966C35.4499 73.2704 35.104 72.9244 34.6778 72.9261C34.2539 72.9278 33.9116 73.2727 33.9133 73.6966V75.9975H30.0714V72.1616C30.0714 71.0716 30.7229 70.0885 31.7263 69.6628L39.0338 66.5646ZM57.7021 67.1866C57.28 67.1882 56.9385 67.5305 56.9376 67.9526C56.9359 68.3764 57.2782 68.7214 57.7021 68.723H60.0015C60.4278 68.7247 60.7737 68.3788 60.772 67.9526C60.7712 67.5281 60.426 67.1849 60.0015 67.1866H57.7021ZM57.7021 70.258C57.2806 70.2595 56.9393 70.6009 56.9376 71.0225C56.9359 71.4463 57.2782 71.7913 57.7021 71.7929H61.5365C61.9633 71.7952 62.3101 71.4492 62.3085 71.0225C62.3068 70.598 61.961 70.2555 61.5365 70.258H57.7021ZM50.7963 72.9546C50.3719 72.9523 50.026 73.2947 50.0243 73.7191C50.0226 74.1459 50.3695 74.4921 50.7963 74.4896H51.5608C51.987 74.4913 52.3329 74.1453 52.3313 73.7191C52.3296 73.2953 51.9847 72.953 51.5608 72.9546H50.7963Z" fill="black"/>
<path d="M90 54.5C90 81.9701 71.7968 101.5 49.5 101.5C26.9197 101.5 7.5 81.6534 7.5 54.5C7.5 27.3466 26.9197 7.5 49.5 7.5C71.7968 7.5 90 27.0299 90 54.5Z" stroke="#141519" stroke-width="15"/>
</g>
<defs>
<clipPath id="clip0_57_228">
<rect width="98" height="109" fill="white"/>
</clipPath>
</defs>
</svg>
