   <svg viewBox="0 0 581 916" fill="none">
                            <g clip-path="url(#clip0_0_3)">
                                <path data-line="23"
                                    d="M17.3504 19.3981C161.562 19.3981 299.868 76.7062 401.841 178.715C503.814 280.724 561.102 419.078 561.102 563.341"
                                    stroke="#A07C4A" stroke-width="2.66667" />
                                <path data-line="21"
                                    d="M225.034 899.527C314.165 899.527 399.645 864.108 462.67 801.061C525.695 738.013 561.102 652.503 561.102 563.341"
                                    stroke="#A07C4A" stroke-width="2.66667" />
                                <path data-line="19"
                                    d="M17.351 691.772C17.351 746.873 39.2317 799.716 78.1797 838.678C117.128 877.639 169.953 899.528 225.033 899.528"
                                    stroke="#A07C4A" stroke-width="2.66667" />
                                <path data-line="17"
                                    d="M145.737 563.341C111.687 563.341 79.0316 576.872 54.9547 600.958C30.8777 625.043 17.3514 657.71 17.3514 691.772"
                                    stroke="#A07C4A" stroke-width="2.66667" />
                                <path data-line="15"
                                    d="M145.736 563.342C166.767 563.342 186.936 571.699 201.807 586.575C216.679 601.452 225.033 621.628 225.033 642.666"
                                    stroke="#A07C4A" stroke-width="2.66667" />
                                <path data-line="13"
                                    d="M175.945 691.771C182.392 691.771 188.775 690.501 194.73 688.033C200.686 685.566 206.098 681.949 210.656 677.389C215.214 672.829 218.83 667.416 221.297 661.458C223.764 655.5 225.033 649.115 225.033 642.666"
                                    stroke="#A07C4A" stroke-width="2.66667" />
                                <path data-line="11"
                                    d="M175.946 691.772C171.979 691.772 168.051 690.99 164.386 689.472C160.721 687.953 157.391 685.727 154.586 682.921C151.78 680.115 149.555 676.784 148.037 673.117C146.519 669.451 145.738 665.522 145.738 661.553"
                                    stroke="#A07C4A" stroke-width="2.66667" />
                                <path data-line="9"
                                    d="M164.617 642.666C162.138 642.666 159.683 643.155 157.392 644.104C155.102 645.053 153.02 646.444 151.267 648.198C149.514 649.952 148.123 652.034 147.174 654.325C146.226 656.617 145.737 659.073 145.737 661.553"
                                    stroke="#A07C4A" stroke-width="2.66667" />
                                <path data-line="7"
                                    d="M164.617 642.667C167.621 642.667 170.502 643.861 172.626 645.986C174.751 648.111 175.944 650.993 175.944 653.998"
                                    stroke="#A07C4A" stroke-width="2.66667" />
                                <path data-line="3" d="M164.617 653.998H175.945" stroke="#A07C4A"
                                    stroke-width="2.66667" />
                                <path data-line="8" d="M164.617 661.553V642.666" stroke="#A07C4A"
                                    stroke-width="2.66667" />
                                <path data-line="1" d="M168.393 653.998V661.553" stroke="#A07C4A"
                                    stroke-width="2.66667" />
                                <path data-line="2" d="M168.393 657.776H164.617" stroke="#A07C4A"
                                    stroke-width="2.66667" />
                                <path data-line="10" d="M175.946 661.553H145.737" stroke="#A07C4A"
                                    stroke-width="2.66667" />
                                <path data-line="12" d="M175.945 642.666V691.772" stroke="#A07C4A"
                                    stroke-width="2.66667" />
                                <path data-line="14" d="M145.736 642.666H225.033" stroke="#A07C4A"
                                    stroke-width="2.66667" />
                                <path data-line="16" d="M145.737 691.772V563.341" stroke="#A07C4A"
                                    stroke-width="2.66667" />
                                <path data-line="18" d="M225.033 691.772H17.3504" stroke="#A07C4A"
                                    stroke-width="2.66667" />
                                <path data-line="20" d="M225.225 563.341L225.225 899.719" stroke="#A07C4A"
                                    stroke-width="2.66667" />
                                <path data-line="22" d="M17.3504 563.341H561.102" stroke="#A07C4A"
                                    stroke-width="2.66667" />
                                <path data-line="27" d="M17.3504 19.3981L561.602 19.3981" stroke="#A07C4A"
                                    stroke-width="2.66667" />
                                <path data-line="25" d="M17.8505 899.528H561.602" stroke="#A07C4A"
                                    stroke-width="2.66667" />
                                <path data-line="26" d="M561.603 19.3976V900.028" stroke="#A07C4A"
                                    stroke-width="2.66667" />
                                <path data-line="24" d="M17.3509 19.3976L17.3509 900.028" stroke="#A07C4A"
                                    stroke-width="2.66667" />
                                <path data-line="6"
                                    d="M168.393 661.552C170.396 661.552 172.317 660.756 173.733 659.34C175.149 657.923 175.945 656.002 175.945 653.998"
                                    stroke="#A07C4A" stroke-width="2.66667" />
                                <path data-line="5"
                                    d="M168.393 661.553C167.897 661.553 167.406 661.455 166.948 661.265C166.49 661.075 166.074 660.797 165.723 660.447C165.372 660.096 165.094 659.679 164.904 659.221C164.715 658.763 164.617 658.272 164.617 657.776"
                                    stroke="#A07C4A" stroke-width="2.66667" />
                                <path data-line="4"
                                    d="M168.399 654.005C167.903 654.005 167.412 654.103 166.954 654.293C166.496 654.483 166.08 654.761 165.729 655.112C165.379 655.462 165.101 655.879 164.911 656.337C164.721 656.795 164.623 657.286 164.623 657.782"
                                    stroke="#A07C4A" stroke-width="2.66667" />
                            </g>
                            <defs>
                                <clipPath id="clip0_0_3">
                                    <rect width="915" height="580" fill="white"
                                        transform="matrix(0 1 -1 0 580.5 0.5)" />
                                </clipPath>
                            </defs>
                        </svg>
