<svg width="73" height="74" viewBox="0 0 73 74" fill="none" xmlns="http://www.w3.org/2000/svg">
<path d="M32.3797 6.65106C32.3797 4.41426 34.2255 2.60083 36.5022 2.60083C38.779 2.60083 40.6248 4.41426 40.6248 6.65106V28.5228L56.3665 13.0573C57.9763 11.4758 60.5863 11.4758 62.1961 13.0573C63.8059 14.6388 63.8059 17.2031 62.1961 18.7846L46.4545 34.2502H68.7168C70.9935 34.2502 72.8393 36.0636 72.8393 38.3004C72.8393 40.5372 70.9935 42.3506 68.7168 42.3506H46.4545L62.1961 57.8162C63.8059 59.3977 63.8059 61.962 62.1961 63.5435C60.5863 65.125 57.9763 65.125 56.3665 63.5435L40.6248 48.0781V69.9498C40.6248 72.1866 38.779 74 36.5022 74C34.2255 74 32.3797 72.1866 32.3797 69.9498V48.0781L16.6379 63.5435C15.0282 65.125 12.4181 65.125 10.8084 63.5435C9.19861 61.962 9.19861 59.3977 10.8084 57.8162L26.55 42.3506H4.28772C2.01097 42.3506 0.165161 40.5372 0.165161 38.3004C0.165161 36.0636 2.01097 34.2502 4.28772 34.2502H26.55L10.8084 18.7846C9.19861 17.2031 9.19861 14.6388 10.8084 13.0573C12.4181 11.4758 15.0282 11.4758 16.6379 13.0573L32.3797 28.5228V6.65106Z" fill="#141519"/>
<path d="M66.0083 18.895C66.0083 7.462 56.9443 0.354997 41.9063 0.354997H12.2423V74H43.9663C59.2103 74 68.8923 66.172 68.8923 52.576C68.8923 41.555 62.3003 35.684 54.5753 34.345V34.139C60.6523 32.079 66.0083 27.959 66.0083 18.895ZM21.5123 31.152V8.59499H44.3783C52.8243 8.59499 56.7383 13.23 56.7383 19.925C56.7383 26.62 53.8543 31.152 43.3483 31.152H21.5123ZM21.5123 39.392H46.9533C54.6783 39.392 59.6223 44.645 59.6223 52.576C59.6223 59.477 56.7383 65.76 44.8933 65.76H21.5123V39.392Z" fill="#141519"/>
</svg>
