<svg width="202" height="202" viewBox="0 0 202 202" fill="none" xmlns="http://www.w3.org/2000/svg">
<path d="M63.9283 64.9285C63.9283 76.3123 54.6692 85.5714 43.2854 85.5714C31.9017 85.5714 22.6426 76.3123 22.6426 64.9285C22.6426 53.5448 31.9017 44.2856 43.2854 44.2856C54.6692 44.2856 63.9283 53.5448 63.9283 64.9285ZM58.714 64.9285C58.714 56.4189 51.7951 49.4999 43.2854 49.4999C34.7758 49.4999 27.8569 56.4189 27.8569 64.9285C27.8569 73.4381 34.7758 80.3571 43.2854 80.3571C51.7951 80.3571 58.714 73.4381 58.714 64.9285Z" fill="transparent" stroke="#F6EEE3" stroke-width="2"/>
<path d="M179.357 64.9285C179.357 76.3123 170.098 85.5714 158.714 85.5714C147.33 85.5714 138.071 76.3123 138.071 64.9285C138.071 53.5448 147.33 44.2856 158.714 44.2856C170.098 44.2856 179.357 53.5448 179.357 64.9285ZM174.143 64.9285C174.143 56.4189 167.224 49.4999 158.714 49.4999C150.205 49.4999 143.286 56.4189 143.286 64.9285C143.286 73.4381 150.205 80.3571 158.714 80.3571C167.224 80.3571 174.143 73.4381 174.143 64.9285Z" fill="transparent" stroke="#F6EEE3" stroke-width="2"/>
<mask id="path-3-inside-1_170_5" fill="white">
<path d="M194.786 93.7856V140.679C194.786 146.645 189.931 151.5 183.964 151.5V111.821C183.964 101.876 175.873 93.7856 165.929 93.7856H147.893C145.902 93.7856 144.286 95.4016 144.286 97.3928V111.821V115.429V119.036H115.429C113.437 119.036 111.821 120.652 111.821 122.643V133.464H90.1786V122.643C90.1786 120.652 88.5626 119.036 86.5714 119.036H57.7143V115.429V111.821V97.3928C57.7143 95.4016 56.0983 93.7856 54.1071 93.7856H36.0714C26.1265 93.7856 18.0357 101.876 18.0357 111.821V151.5C12.0695 151.5 7.21429 146.645 7.21429 140.679V93.7856H0V140.679C0 148.055 4.46204 154.393 10.8214 157.185V202H18.0357V158.714H21.6429H25.25H54.1071V198.393C54.1071 200.384 55.7231 202 57.7143 202H68.5357H72.1429H75.75V198.393V144.286V140.679H86.5714H115.429H126.25V144.286V198.393V202H129.857H133.464H144.286C146.277 202 147.893 200.384 147.893 198.393V158.714H176.75H180.357H183.964V202H191.179V157.185C197.538 154.393 202 148.055 202 140.679V93.7856H194.786ZM72.1429 133.464H64.9286H43.2857V111.821H36.0714V137.071C36.0714 139.063 37.6874 140.679 39.6786 140.679H64.9286C66.9161 140.679 68.5357 142.298 68.5357 144.286V194.786H61.3214V155.107C61.3214 153.116 59.7054 151.5 57.7143 151.5H25.25V111.821C25.25 105.855 30.1052 101 36.0714 101H50.5V111.821V115.429V122.643C50.5 124.634 52.116 126.25 54.1071 126.25H82.9643V133.464H72.1429ZM144.286 151.5C142.295 151.5 140.679 153.116 140.679 155.107V194.786H133.464V144.286C133.464 142.298 135.084 140.679 137.071 140.679H162.321C164.313 140.679 165.929 139.063 165.929 137.071V111.821H158.714V133.464H137.071H129.857H119.036V126.25H147.893C149.884 126.25 151.5 124.634 151.5 122.643V115.429V111.821V101H165.929C171.895 101 176.75 105.855 176.75 111.821V151.5H144.286Z"/>
</mask>
<path d="M194.786 93.7856V140.679C194.786 146.645 189.931 151.5 183.964 151.5V111.821C183.964 101.876 175.873 93.7856 165.929 93.7856H147.893C145.902 93.7856 144.286 95.4016 144.286 97.3928V111.821V115.429V119.036H115.429C113.437 119.036 111.821 120.652 111.821 122.643V133.464H90.1786V122.643C90.1786 120.652 88.5626 119.036 86.5714 119.036H57.7143V115.429V111.821V97.3928C57.7143 95.4016 56.0983 93.7856 54.1071 93.7856H36.0714C26.1265 93.7856 18.0357 101.876 18.0357 111.821V151.5C12.0695 151.5 7.21429 146.645 7.21429 140.679V93.7856H0V140.679C0 148.055 4.46204 154.393 10.8214 157.185V202H18.0357V158.714H21.6429H25.25H54.1071V198.393C54.1071 200.384 55.7231 202 57.7143 202H68.5357H72.1429H75.75V198.393V144.286V140.679H86.5714H115.429H126.25V144.286V198.393V202H129.857H133.464H144.286C146.277 202 147.893 200.384 147.893 198.393V158.714H176.75H180.357H183.964V202H191.179V157.185C197.538 154.393 202 148.055 202 140.679V93.7856H194.786ZM72.1429 133.464H64.9286H43.2857V111.821H36.0714V137.071C36.0714 139.063 37.6874 140.679 39.6786 140.679H64.9286C66.9161 140.679 68.5357 142.298 68.5357 144.286V194.786H61.3214V155.107C61.3214 153.116 59.7054 151.5 57.7143 151.5H25.25V111.821C25.25 105.855 30.1052 101 36.0714 101H50.5V111.821V115.429V122.643C50.5 124.634 52.116 126.25 54.1071 126.25H82.9643V133.464H72.1429ZM144.286 151.5C142.295 151.5 140.679 153.116 140.679 155.107V194.786H133.464V144.286C133.464 142.298 135.084 140.679 137.071 140.679H162.321C164.313 140.679 165.929 139.063 165.929 137.071V111.821H158.714V133.464H137.071H129.857H119.036V126.25H147.893C149.884 126.25 151.5 124.634 151.5 122.643V115.429V111.821V101H165.929C171.895 101 176.75 105.855 176.75 111.821V151.5H144.286Z" fill="transparent" stroke="#F6EEE3" stroke-width="4" mask="url(#path-3-inside-1_170_5)"/>
<path d="M69.5353 36.0714V35.0714H68.5353C63.1214 35.0714 58.7139 30.6639 58.7139 25.25V10.8214C58.7139 5.4075 63.1214 1 68.5353 1H111.821C117.235 1 121.642 5.4075 121.642 10.8214V25.25C121.642 30.6639 117.235 35.0714 111.821 35.0714H84.7674H84.2674L83.9674 35.4714L74.2297 48.4552C74.2295 48.4554 74.2293 48.4556 74.2291 48.4558C73.724 49.1254 72.9465 49.5 72.1424 49.5C71.8722 49.5 71.5922 49.4563 71.3167 49.3666C70.2495 49.0075 69.5353 48.0149 69.5353 46.8929V36.0714ZM74.7496 36.0714V39.0714L76.5496 36.6714L80.8782 30.9C81.3711 30.2428 82.1424 29.8571 82.9639 29.8571H111.821C114.361 29.8571 116.428 27.7898 116.428 25.25V10.8214C116.428 8.28161 114.361 6.21429 111.821 6.21429H68.5353C65.9955 6.21429 63.9282 8.28161 63.9282 10.8214V25.25C63.9282 27.7898 65.9955 29.8571 68.5353 29.8571H72.1424C73.5813 29.8571 74.7496 31.0254 74.7496 32.4643V36.0714Z" fill="transparent" stroke="#F6EEE3" stroke-width="2"/>
<path d="M73.1426 15.4285H107.214V20.6428H73.1426V15.4285Z" fill="transparent" stroke="#F6EEE3" stroke-width="2"/>
<path d="M98.3926 91.1785H118.035V96.3928H98.3926V91.1785Z" fill="transparent" stroke="#F6EEE3" stroke-width="2"/>
<path d="M132.632 97.9311L132.464 98.183V98.4858V101C132.464 106.414 128.056 110.821 122.642 110.821H93.7853C88.3714 110.821 83.9639 106.414 83.9639 101V86.5714C83.9639 81.1575 88.3714 76.75 93.7853 76.75H122.642C126.908 76.75 130.552 79.4853 131.905 83.2987L132.141 83.9643H132.847H137.071C138.033 83.9643 138.917 84.4934 139.37 85.3433L139.371 85.3445C139.824 86.1914 139.775 87.2177 139.241 88.0181L139.24 88.0187L132.632 97.9311ZM131.161 90.7331L132.197 89.1786H130.329H129.857C128.418 89.1786 127.25 88.0103 127.25 86.5714C127.25 84.0316 125.182 81.9643 122.642 81.9643H93.7853C91.2455 81.9643 89.1782 84.0316 89.1782 86.5714V101C89.1782 103.54 91.2455 105.607 93.7853 105.607H122.642C125.182 105.607 127.25 103.54 127.25 101V97.3929C127.25 96.8805 127.403 96.3731 127.688 95.9444L131.161 90.7331Z" fill="transparent" stroke="#F6EEE3" stroke-width="2"/>
<path d="M83.9639 58.7144H89.1782V63.9286H83.9639V58.7144Z" fill="transparent" stroke="#F6EEE3" stroke-width="2"/>
<path d="M98.3926 58.7144H103.607V63.9286H98.3926V58.7144Z" fill="transparent" stroke="#F6EEE3" stroke-width="2"/>
<path d="M112.821 58.7144H118.036V63.9286H112.821V58.7144Z" fill="transparent" stroke="#F6EEE3" stroke-width="2"/>
</svg>
