<svg width="110" height="110" viewBox="0 0 110 110" fill="none" xmlns="http://www.w3.org/2000/svg">
<path d="M48.7601 6.23992C48.7601 2.79383 51.5539 0 55 0C58.4461 0 61.2399 2.79383 61.2399 6.23992V39.9362L85.0667 16.1096C87.5033 13.6731 91.4538 13.6731 93.8904 16.1096C96.3269 18.5462 96.3269 22.4967 93.8904 24.9333L70.0638 48.7601H103.76C107.206 48.7601 110 51.5539 110 55C110 58.4461 107.206 61.2399 103.76 61.2399H70.0638L93.8904 85.0667C96.3269 87.5033 96.3269 91.4538 93.8904 93.8904C91.4538 96.3269 87.5033 96.3269 85.0667 93.8904L61.2399 70.0638V103.76C61.2399 107.206 58.4461 110 55 110C51.5539 110 48.7601 107.206 48.7601 103.76V70.0638L24.9333 93.8904C22.4967 96.3269 18.5462 96.3269 16.1096 93.8904C13.6731 91.4538 13.6731 87.5033 16.1096 85.0667L39.9362 61.2399H6.23992C2.79383 61.2399 0 58.4461 0 55C0 51.5539 2.79383 48.7601 6.23992 48.7601H39.9362L16.1096 24.9333C13.6731 22.4967 13.6731 18.5462 16.1096 16.1096C18.5462 13.6731 22.4967 13.6731 24.9333 16.1096L48.7601 39.9362V6.23992Z" fill="#141519"/>
</svg>
