<svg width="116" height="65" viewBox="0 0 116 65" fill="none" xmlns="http://www.w3.org/2000/svg">
<rect x="10" y="1" width="96" height="63" stroke="#F6EEE3" stroke-width="2"/>
<g clip-path="url(#clip0_172_137)">
<path d="M52.5492 19.0006C52.2463 19.1298 51.9799 19.3315 51.7733 19.5879C51.5667 19.8443 51.4263 20.1475 51.3645 20.4709C50.5545 24.6797 48.474 28.3515 45.5147 30.8043L41.4542 33.9261C40.2679 34.8403 39.4926 36.1877 39.2985 37.6728C39.1044 39.1579 39.5073 40.6594 40.4189 41.8477L41.671 43.4764C42.5852 44.6627 43.9326 45.438 45.4177 45.6321C46.9028 45.8262 48.4043 45.4233 49.5926 44.5117L50.0535 44.1574L54.9059 48.8954C55.329 49.42 55.9414 49.7572 56.6109 49.8343C57.2804 49.9114 57.9534 49.7221 58.4846 49.3074C59.0158 48.8926 59.3626 48.2856 59.4503 47.6174C59.5379 46.9492 59.3593 46.2733 58.953 45.7356L54.1576 41.0475C57.2096 39.0592 61.0856 38.122 65.1499 38.4027C65.4782 38.4271 65.8074 38.37 66.1084 38.2364C66.4093 38.1028 66.6725 37.897 66.8747 37.6372C67.0769 37.3773 67.2117 37.0716 67.2672 36.7471C67.3227 36.4226 67.2972 36.0894 67.1929 35.7771C66.0776 32.3902 64.3958 29.2171 62.2191 26.3928C60.0492 23.5637 57.4153 21.123 54.4294 19.1744C54.1545 18.9929 53.8391 18.8821 53.5111 18.8518C53.1831 18.8215 52.8527 18.8726 52.5492 19.0006ZM48.9661 43.6968C47.9938 44.4427 46.7654 44.7724 45.5503 44.6136C44.3352 44.4548 43.2327 43.8204 42.4849 42.8497L41.2332 41.2217C40.4873 40.2494 40.1575 39.0209 40.3164 37.8059C40.4752 36.5908 41.1095 35.4883 42.0803 34.7404L45.7444 31.9233L52.6303 40.8797L48.9661 43.6968ZM57.8569 48.5213C57.533 48.7706 57.1232 48.8811 56.7178 48.8284C56.3124 48.7758 55.9445 48.5642 55.695 48.2404L50.8754 43.5245L53.3097 41.653L58.1591 46.3884C58.3971 46.713 58.4987 47.1178 58.4423 47.5164C58.3858 47.9149 58.1757 48.2755 57.8569 48.5213ZM66.2178 36.0965C66.2696 36.2488 66.2827 36.4116 66.2559 36.5702C66.2292 36.7287 66.1635 36.8782 66.0647 37.0051C65.9659 37.1321 65.8372 37.2325 65.69 37.2973C65.5428 37.3621 65.3818 37.3894 65.2215 37.3766C60.8747 37.0763 56.7203 38.1032 53.4608 40.2747L46.543 31.2768C49.4861 28.6796 51.5497 24.932 52.3735 20.6653C52.4023 20.507 52.47 20.3585 52.5705 20.2329C52.671 20.1073 52.8011 20.0087 52.9492 19.9458C53.0972 19.883 53.2586 19.8579 53.4187 19.8728C53.5788 19.8878 53.7328 19.9423 53.8666 20.0314C56.757 21.9165 59.3067 24.2782 61.4074 27.0159C63.5126 29.7492 65.1389 32.8198 66.2172 36.097L66.2178 36.0965Z" fill="#F6EEE3"/>
<path d="M63.2102 12.25C63.1443 12.2355 63.0763 12.2341 63.0099 12.2459C62.9435 12.2577 62.8801 12.2824 62.8233 12.3187C62.7665 12.355 62.7174 12.4022 62.6788 12.4574C62.6402 12.5127 62.6129 12.575 62.5984 12.6409C62.5839 12.7067 62.5825 12.7748 62.5943 12.8411C62.6061 12.9075 62.6309 12.9709 62.6672 13.0277C62.7035 13.0845 62.7506 13.1336 62.8059 13.1722C62.8611 13.2108 62.9235 13.2381 62.9893 13.2526C66.6191 14.054 69.892 16.1509 72.2037 19.1577C74.3494 21.9486 75.5076 25.252 75.5495 28.7002C75.5503 28.7676 75.5644 28.8342 75.5909 28.8962C75.6174 28.9582 75.6559 29.0144 75.7041 29.0615C75.7524 29.1086 75.8094 29.1458 75.872 29.1709C75.9346 29.1959 76.0015 29.2084 76.069 29.2077C76.1364 29.2069 76.203 29.1928 76.265 29.1663C76.327 29.1398 76.3832 29.1013 76.4303 29.053C76.4774 29.0048 76.5146 28.9478 76.5397 28.8852C76.5648 28.8226 76.5773 28.7556 76.5765 28.6882C76.5322 25.0149 75.3018 21.5035 73.0174 18.5321C70.5589 15.3343 67.0759 13.1028 63.2102 12.25Z" fill="#F6EEE3"/>
<path d="M62.8659 16.4177C62.7363 16.3907 62.6013 16.4146 62.489 16.4846C62.3766 16.5546 62.2956 16.6653 62.2628 16.7935C62.23 16.9217 62.248 17.0577 62.3129 17.173C62.3779 17.2884 62.4848 17.3742 62.6114 17.4127C65.0055 18.0441 67.1368 19.4204 68.6972 21.3427C70.2576 23.265 71.1663 25.6338 71.292 28.1065C71.295 28.1739 71.3112 28.24 71.3398 28.3011C71.3684 28.3623 71.4087 28.4171 71.4585 28.4626C71.5083 28.5082 71.5666 28.5434 71.63 28.5664C71.6934 28.5894 71.7608 28.5997 71.8282 28.5967C71.8956 28.5937 71.9617 28.5774 72.0228 28.5488C72.0839 28.5202 72.1388 28.4799 72.1843 28.4301C72.2298 28.3803 72.2651 28.322 72.2881 28.2586C72.3111 28.1952 72.3214 28.1279 72.3183 28.0605C72.1827 25.368 71.1937 22.7887 69.4946 20.6957C67.7956 18.6027 65.4745 17.1047 62.8675 16.4185L62.8659 16.4177Z" fill="#F6EEE3"/>
<path d="M61.8623 20.9381C61.8192 21.0673 61.8291 21.2082 61.8899 21.3301C61.9506 21.4519 62.0572 21.5447 62.1863 21.588C63.4709 22.025 64.6059 22.8162 65.4602 23.8704C66.3146 24.9247 66.8535 26.199 67.0148 27.5463C67.0224 27.6133 67.0432 27.6781 67.0758 27.737C67.1085 27.796 67.1525 27.8479 67.2052 27.8899C67.258 27.9319 67.3184 27.963 67.3832 27.9816C67.448 28.0002 67.5158 28.0058 67.5828 27.9982C67.6498 27.9906 67.7146 27.9699 67.7735 27.9372C67.8325 27.9045 67.8844 27.8606 67.9264 27.8078C67.9684 27.7551 67.9995 27.6946 68.0181 27.6298C68.0367 27.565 68.0424 27.4972 68.0347 27.4302C67.8513 25.8891 67.2355 24.4314 66.2585 23.2256C65.2814 22.0198 63.9831 21.115 62.5136 20.616C62.3845 20.5724 62.2434 20.5818 62.1212 20.6422C61.9991 20.7026 61.906 20.8091 61.8623 20.9381Z" fill="#F6EEE3"/>
</g>
<line y1="64" x2="116" y2="64" stroke="#F6EEE3" stroke-width="2"/>
<defs>
<clipPath id="clip0_172_137">
<rect width="40.0544" height="40.0544" fill="white" transform="translate(30.0908 28.4136) rotate(-37.5538)"/>
</clipPath>
</defs>
</svg>
