<svg width="327" height="291" viewBox="0 0 327 291" fill="none" xmlns="http://www.w3.org/2000/svg">
<rect x="198" y="67" width="42" height="110" stroke="#F6EEE3" stroke-width="4"/>
<rect x="181.939" y="202.181" width="9.38583" height="9.38583" fill="#F6EEE3"/>
<rect x="163.168" y="202.181" width="9.38583" height="9.38583" fill="#F6EEE3"/>
<rect x="144.396" y="202.181" width="9.38583" height="9.38583" fill="#F6EEE3"/>
<rect x="65.3105" y="202.181" width="9.38583" height="9.38583" fill="#F6EEE3"/>
<rect x="46.5391" y="202.181" width="9.38583" height="9.38583" fill="#F6EEE3"/>
<rect x="27.7676" y="202.181" width="9.38583" height="9.38583" fill="#F6EEE3"/>
<rect x="234.255" y="202.181" width="9.38583" height="9.38583" fill="#F6EEE3"/>
<rect x="215.483" y="202.181" width="9.38583" height="9.38583" fill="#F6EEE3"/>
<rect x="196.712" y="202.181" width="9.38583" height="9.38583" fill="#F6EEE3"/>
<rect x="290.569" y="202.181" width="9.38583" height="9.38583" fill="#F6EEE3"/>
<rect x="271.798" y="202.181" width="9.38583" height="9.38583" fill="#F6EEE3"/>
<rect x="253.026" y="202.181" width="9.38583" height="9.38583" fill="#F6EEE3"/>
<rect x="121.625" y="202.181" width="9.38583" height="9.38583" fill="#F6EEE3"/>
<rect x="102.854" y="202.181" width="9.38583" height="9.38583" fill="#F6EEE3"/>
<rect x="84.082" y="202.181" width="9.38583" height="9.38583" fill="#F6EEE3"/>
<rect x="214.25" y="83.1997" width="9.2" height="9.50006" transform="rotate(-90 214.25 83.1997)" fill="#F6EEE3"/>
<rect x="214.25" y="138.4" width="9.2" height="9.50006" transform="rotate(-90 214.25 138.4)" fill="#F6EEE3"/>
<rect x="214.25" y="110.8" width="9.2" height="9.50006" transform="rotate(-90 214.25 110.8)" fill="#F6EEE3"/>
<rect x="214.25" y="166" width="9.2" height="9.50006" transform="rotate(-90 214.25 166)" fill="#F6EEE3"/>
<rect x="228.5" y="152.2" width="9.2" height="9.50006" transform="rotate(-90 228.5 152.2)" fill="#F6EEE3"/>
<rect x="200" y="152.2" width="9.2" height="9.50006" transform="rotate(-90 200 152.2)" fill="#F6EEE3"/>
<rect x="200" y="124.6" width="9.2" height="9.50006" transform="rotate(-90 200 124.6)" fill="#F6EEE3"/>
<rect x="200" y="97" width="9.2" height="9.50006" transform="rotate(-90 200 97)" fill="#F6EEE3"/>
<rect x="228.5" y="96.9998" width="9.2" height="9.50006" transform="rotate(-90 228.5 96.9998)" fill="#F6EEE3"/>
<rect x="228.5" y="124.6" width="9.2" height="9.50006" transform="rotate(-90 228.5 124.6)" fill="#F6EEE3"/>
<rect x="94.375" y="157.024" width="5.92441" height="6.25013" transform="rotate(-90 94.375 157.024)" fill="#F6EEE3"/>
<rect x="103.75" y="146.925" width="5.92441" height="6.25013" transform="rotate(-90 103.75 146.925)" fill="#F6EEE3"/>
<rect x="103.75" y="168.385" width="5.92441" height="6.25013" transform="rotate(-90 103.75 168.385)" fill="#F6EEE3"/>
<rect x="85" y="168.385" width="5.92441" height="6.25013" transform="rotate(-90 85 168.385)" fill="#F6EEE3"/>
<rect x="85" y="146.925" width="5.92441" height="6.25013" transform="rotate(-90 85 146.925)" fill="#F6EEE3"/>
<rect x="178.172" y="28.5432" width="9.38583" height="9.38583" fill="#F6EEE3"/>
<rect x="159.4" y="28.5432" width="9.38583" height="9.38583" fill="#F6EEE3"/>
<rect x="140.629" y="28.5432" width="9.38583" height="9.38583" fill="#F6EEE3"/>
<rect x="65.543" y="28.5432" width="9.38583" height="9.38583" fill="#F6EEE3"/>
<rect x="46.7715" y="28.5432" width="9.38583" height="9.38583" fill="#F6EEE3"/>
<rect x="28" y="28.5432" width="9.38583" height="9.38583" fill="#F6EEE3"/>
<rect x="234.487" y="28.5432" width="9.38583" height="9.38583" fill="#F6EEE3"/>
<rect x="215.716" y="28.5432" width="9.38583" height="9.38583" fill="#F6EEE3"/>
<rect x="196.944" y="28.5432" width="9.38583" height="9.38583" fill="#F6EEE3"/>
<rect x="290.802" y="28.5432" width="9.38583" height="9.38583" fill="#F6EEE3"/>
<rect x="272.03" y="28.5432" width="9.38583" height="9.38583" fill="#F6EEE3"/>
<rect x="253.259" y="28.5432" width="9.38583" height="9.38583" fill="#F6EEE3"/>
<rect x="121.857" y="28.5432" width="9.38583" height="9.38583" fill="#F6EEE3"/>
<rect x="103.086" y="28.5432" width="9.38583" height="9.38583" fill="#F6EEE3"/>
<rect x="84.3145" y="28.5432" width="9.38583" height="9.38583" fill="#F6EEE3"/>
<path d="M59.3105 178.717H256.413" stroke="#F6EEE3" stroke-width="4"/>
<path d="M162.555 2.73218H324.46V35.5826H310.381V204.527H324.46V232.685H162.555V249.11L225.909 289" stroke="#F6EEE3" stroke-width="4"/>
<path d="M162.559 2.73218H2.99955V35.5826H16.8743L17.0737 204.527H3.19901L2.99955 232.685H162.559L162.554 249.11L100.118 289" stroke="#F6EEE3" stroke-width="4"/>
<rect x="80" y="134" width="35" height="42" stroke="#F6EEE3" stroke-width="4"/>
<rect x="137" y="99" width="42.9291" height="77.0594" stroke="#F6EEE3" stroke-width="4"/>
</svg>
