<svg width="27" height="32" viewBox="0 0 27 32" fill="none" xmlns="http://www.w3.org/2000/svg">
<path fill-rule="evenodd" clip-rule="evenodd" d="M11.3686 28.0507L9.47022 28.79L11.3686 29.5398V31.2737L8.85751 29.7976C7.75765 29.1519 7.7476 28.4464 8.85751 27.7956L11.3686 26.3168V28.0507ZM9.87953 19.8969C11.7076 22.0265 15.8484 21.6516 17.3777 19.8969C16.995 19.4256 16.6411 18.93 16.318 18.413L16.1071 18.0954C15.357 18.6212 14.4686 18.894 13.5633 18.8764C12.5458 18.8842 11.5591 18.5149 10.781 17.8351C10.5726 18.4807 10.2788 19.3685 9.97244 19.7928C9.94597 19.8285 9.91468 19.8601 9.87953 19.8865V19.8969ZM16.996 23.6718H2.52201C2.38069 23.6797 2.24258 23.7184 2.11671 23.7855C1.99084 23.8525 1.88006 23.9464 1.79162 24.0609C1.70319 24.1755 1.6391 24.3081 1.60356 24.4501C1.56801 24.5921 1.56181 24.7403 1.58537 24.885L2.47178 31.9922H0.211795C0.211795 28.1965 -1.08644 23.5417 2.74549 21.3184C4.1718 20.4931 7.84805 20.2146 9.45013 19.1237C9.71827 18.5266 9.94567 17.9107 10.1306 17.2806C10.1482 17.2233 10.1181 17.317 10.1457 17.2311C9.57052 16.5504 9.05772 15.8157 8.61393 15.0365L7.29309 12.8678C6.80845 12.1207 6.55734 11.436 6.53976 10.8763C6.53137 10.6275 6.58045 10.3803 6.6829 10.1551C6.78247 9.93266 6.93985 9.74335 7.13741 9.60843C7.23748 9.5402 7.34441 9.48346 7.45632 9.43921C7.36494 8.13977 7.34398 6.83603 7.39354 5.53415C7.42385 5.23402 7.47845 4.93706 7.55676 4.64641C8.04642 2.8657 9.52546 1.56402 11.223 0.95483C12.0466 0.660649 11.7277 -0.04226 12.5664 0.00199724C14.5401 0.113942 17.5886 1.43125 18.7512 2.82926C20.3885 4.78699 19.9666 7.19771 19.9114 9.59801C20.0801 9.64429 20.2336 9.7373 20.3552 9.86709C20.4769 9.99688 20.5621 10.1586 20.6019 10.3348C20.7074 10.7669 20.6019 11.3761 20.2378 12.2066C20.2378 12.2066 20.2378 12.2352 20.2152 12.2508L18.7086 14.8204C18.1285 15.8123 17.5384 16.8041 16.7524 17.5695L16.7122 17.606L16.9633 17.9704C17.2144 18.3688 17.5208 18.8217 17.797 19.1758C19.4343 20.2172 23.0327 20.5139 24.4414 21.3262C27.9569 23.362 26.7591 28.3891 26.9525 32H24.7151L25.6015 24.8928C25.6251 24.7481 25.6189 24.5999 25.5833 24.4579C25.5478 24.3159 25.4837 24.1833 25.3953 24.0688C25.3068 23.9542 25.196 23.8603 25.0702 23.7933C24.9443 23.7262 24.8062 23.6875 24.6649 23.6796H16.996V23.6718ZM8.20713 10.0796C7.97475 10.0779 7.74605 10.1399 7.5442 10.2593C7.46192 10.3165 7.39601 10.3956 7.35336 10.4884C7.30707 10.6045 7.28647 10.73 7.29309 10.8554C7.30565 11.272 7.51658 11.8161 7.92338 12.4435L9.24422 14.6225C9.77406 15.4946 10.3315 16.385 11.0196 17.0384C11.7015 17.7286 12.6179 18.1129 13.5708 18.1084C14.0661 18.1179 14.5583 18.0252 15.0187 17.8357C15.4791 17.6462 15.8986 17.3637 16.2527 17.0046C16.9658 16.3121 17.5258 15.3671 18.0808 14.4195L19.5673 11.8786C19.8461 11.2225 19.9465 10.7825 19.8837 10.5274C19.8461 10.3738 19.6829 10.2983 19.4041 10.2827C19.3439 10.2827 19.2836 10.2827 19.2233 10.2827C19.1539 10.279 19.0843 10.279 19.0149 10.2827C18.9766 10.288 18.9377 10.288 18.8994 10.2827C18.7634 10.289 18.6271 10.2812 18.4926 10.2593L18.9948 7.91624C15.2131 8.53324 12.3831 5.62007 8.38542 7.33308L8.6742 10.1005C8.52157 10.1096 8.36845 10.1026 8.21718 10.0796H8.20713ZM15.6325 28.0429L17.5308 28.7822L15.6325 29.532V31.2658L18.1436 29.7897C19.2434 29.1441 19.2509 28.4386 18.1436 27.7878L15.6325 26.309V28.0429ZM13.4654 31.7631H12.2098L13.7617 25.4994H15.0172L13.4654 31.7631Z" fill="#141519"/>
</svg>
