<svg width="37" height="32" viewBox="0 0 37 32" fill="none" xmlns="http://www.w3.org/2000/svg">
<path fill-rule="evenodd" clip-rule="evenodd" d="M3.33741 0H14.0502C14.9672 0 15.8091 0.375834 16.4104 0.977168C17.0208 1.58752 17.3876 2.42037 17.3876 3.33741V12.7964H16.4285V3.66213H0.947101V26.2903H3.23518V29.7811C3.23518 30.2561 3.31636 30.7131 3.46669 31.1371H3.33741C2.42037 31.1371 1.5785 30.7613 0.977168 30.1599C0.366814 29.5466 0 28.7167 0 27.7967V3.33741C0 2.42037 0.375834 1.5785 0.977168 0.977168C1.58752 0.366814 2.41736 0 3.33741 0ZM30.0938 9.14629C30.3193 8.88772 30.7131 8.86066 30.9687 9.08917C31.2273 9.31467 31.2543 9.70854 31.0258 9.96411L29.2549 11.9816C29.0324 12.2372 28.6476 12.2642 28.389 12.0477L26.3294 10.3279C26.0648 10.1084 26.0318 9.71455 26.2512 9.45297C26.4707 9.18839 26.8646 9.15531 27.1262 9.3748L28.0312 10.1295C27.7846 8.95988 27.2164 7.89552 26.3835 7.06267C25.3072 5.98328 23.7798 5.28573 21.9186 5.2286C21.5759 5.21958 21.3053 4.93395 21.3143 4.59119C21.3233 4.24843 21.6089 3.97783 21.9517 3.98685C24.1556 4.05299 25.9716 4.89185 27.2645 6.18472C28.3108 7.23405 29.0084 8.58405 29.282 10.0633L30.0938 9.14629ZM36.946 17.9498V28.6626C36.946 29.5796 36.5701 30.4215 35.9688 31.0228C35.3585 31.6332 34.5256 32 33.6086 32H9.88593C8.9689 32 8.12703 31.6242 7.5257 31.0228C6.91534 30.4125 6.54853 29.5796 6.54853 28.6626V17.9498C6.54853 17.0328 6.92436 16.1909 7.5257 15.5896C8.13605 14.9792 8.96589 14.6124 9.88593 14.6124H33.6086C34.5256 14.6124 35.3675 14.9883 35.9688 15.5896C36.5792 16.1999 36.946 17.0298 36.946 17.9498ZM10.6466 23.2987C10.6466 24.0534 10.0363 24.6727 9.27257 24.6727C8.5179 24.6727 7.89853 24.0624 7.89853 23.2987C7.89853 22.544 8.50888 21.9246 9.27257 21.9246C10.0303 21.9246 10.6466 22.535 10.6466 23.2987ZM11.3893 15.5595V31.0409H33.2838V15.5595H11.3893Z" fill="#141519"/>
</svg>
