<svg width="41" height="33" viewBox="0 0 41 33" fill="none" xmlns="http://www.w3.org/2000/svg">
<path d="M15.556 4.1723H9.968L0.945984 16.0403L9.968 27.9083H15.556L6.53398 16.0403L15.556 4.1723ZM26.2577 4.1723H31.8456L40.8677 16.0403L31.8456 27.9083H26.2577L35.2797 16.0403L26.2577 4.1723ZM23.7431 0.0137905L25.6794 0.465378C25.9847 0.536853 26.1732 0.842243 26.105 1.14763L18.7951 32.5606C18.7236 32.8628 18.4182 33.0544 18.1128 32.9862L16.1798 32.5346C15.8744 32.4631 15.6859 32.1578 15.7542 31.8524L23.064 0.439388C23.1355 0.137246 23.4409 -0.054435 23.7431 0.0137905Z" fill="#141519"/>
</svg>
