<svg width="77" height="32" viewBox="0 0 77 32" fill="none" xmlns="http://www.w3.org/2000/svg">
<path d="M2.7361 12.8978C1.22743 12.8978 0 14.1252 0 15.6339C0 17.1425 1.22743 18.3698 2.7361 18.3698C4.24477 18.3698 5.47204 17.1424 5.47204 15.6339C5.47204 14.1252 4.24477 12.8978 2.7361 12.8978ZM2.7361 17.0369C1.96236 17.0369 1.3329 16.4074 1.3329 15.6339C1.3329 14.8601 1.96236 14.2307 2.7361 14.2307C3.50985 14.2307 4.13914 14.8601 4.13914 15.6339C4.13914 16.4074 3.50968 17.0369 2.7361 17.0369Z" fill="#141519"/>
<path d="M67.8738 13.4151C66.6504 13.4151 65.6552 14.4104 65.6552 15.6337C65.6552 16.857 66.6506 17.8523 67.8738 17.8523C69.0971 17.8523 70.0925 16.857 70.0925 15.6337C70.0925 14.4104 69.0973 13.4151 67.8738 13.4151ZM67.8738 16.5196C67.3853 16.5196 66.9881 16.1222 66.9881 15.6339C66.9881 15.1454 67.3855 14.7482 67.8738 14.7482C68.3622 14.7482 68.7596 15.1455 68.7596 15.6339C68.7596 16.1222 68.3624 16.5196 67.8738 16.5196Z" fill="#141519"/>
<path d="M74.674 16.9921C75.4241 16.9921 76.0322 16.384 76.0322 15.6339C76.0322 14.8838 75.4241 14.2757 74.674 14.2757C73.9239 14.2757 73.3158 14.8838 73.3158 15.6339C73.3158 16.384 73.9239 16.9921 74.674 16.9921Z" fill="#141519"/>
<path d="M40.044 15.6339C40.044 17.2852 41.3874 18.6286 43.0387 18.6286C44.69 18.6286 46.0336 17.2852 46.0336 15.6339C46.0336 13.9826 44.6902 12.639 43.0387 12.639C41.3873 12.639 40.044 13.9826 40.044 15.6339ZM44.7005 15.6339C44.7005 16.5503 43.9549 17.2957 43.0386 17.2957C42.1224 17.2957 41.3768 16.5501 41.3768 15.6339C41.3768 14.7175 42.1224 13.9719 43.0386 13.9719C43.9549 13.9719 44.7005 14.7175 44.7005 15.6339Z" fill="#141519"/>
<path d="M56.3432 9.12817C54.8267 9.12817 53.4308 9.65116 52.3233 10.5244L51.3817 10.0935C50.2797 9.58735 49.6384 8.39807 49.8228 7.20047L50.0219 5.89556C50.0504 5.70912 49.9986 5.51952 49.8795 5.37357C49.7604 5.22762 49.5847 5.13881 49.3966 5.12948L47.6629 5.04284C46.5247 4.98436 45.5334 4.21562 45.1957 3.12881L44.7838 1.80824C44.7295 1.63363 44.6055 1.48901 44.4413 1.40854C44.2773 1.3279 44.087 1.31823 43.9156 1.38205L42.3118 1.97768C41.3001 2.35573 40.1575 2.09748 39.4029 1.3204L38.3206 0.202766C38.1951 0.0731418 38.0222 0 37.8418 0C37.6613 0 37.4885 0.073143 37.3629 0.202934L36.2809 1.32023C35.5272 2.09781 34.3861 2.35589 33.3722 1.97735L31.7678 1.38205C31.5963 1.3184 31.406 1.32807 31.2418 1.40887C31.0777 1.48968 30.9537 1.63446 30.8995 1.80924L30.4898 3.12897C30.1508 4.21545 29.1595 4.9847 28.0237 5.04301L26.2891 5.12982C26.1008 5.13931 25.9253 5.22795 25.8061 5.3739C25.6869 5.51985 25.6351 5.70963 25.6636 5.8959L25.8627 7.2008C26.0455 8.39841 25.4035 9.58802 24.3024 10.0937L22.822 10.7718C22.6468 10.8521 22.515 11.0042 22.4603 11.189C22.4057 11.3738 22.4338 11.5732 22.5375 11.7358L23.2885 12.9146C23.9673 13.9796 23.831 15.3603 22.9577 16.272L21.9445 17.3285C21.8104 17.4683 21.7437 17.6595 21.7619 17.8523C21.78 18.0452 21.8813 18.2205 22.0391 18.3328L23.3077 19.235C24.3209 19.9579 24.7177 21.2733 24.2729 22.4335L23.7939 23.6812C23.7254 23.8593 23.7367 24.0583 23.8249 24.2275C23.913 24.3968 24.0695 24.5203 24.2546 24.5666L25.9109 24.9806C27.0575 25.266 27.8857 26.2519 27.9717 27.4328L28.0663 28.7574C28.0795 28.9422 28.1689 29.1131 28.3132 29.2292C28.4575 29.3454 28.6436 29.3962 28.8269 29.3695L30.5602 29.1171C31.6555 28.9567 32.7299 29.467 33.2971 30.417L34.0462 31.6746C34.1386 31.8299 34.2903 31.941 34.4662 31.9823C34.6422 32.0236 34.8273 31.9918 34.9794 31.894L36.3672 31.001C37.2626 30.4245 38.4212 30.4245 39.3176 31.0008L40.7033 31.8937C40.8118 31.9637 40.9374 32 41.0644 32C41.1152 32 41.166 31.9942 41.2163 31.9825C41.3923 31.9413 41.5439 31.8304 41.6365 31.6753L42.3876 30.4175C42.9549 29.467 44.0291 28.9562 45.1255 29.1171L46.8581 29.3694C47.0419 29.396 47.2275 29.3452 47.372 29.2291C47.5163 29.1129 47.6057 28.942 47.6189 28.7572L47.7134 27.4327C47.7975 26.252 48.6251 25.2667 49.7725 24.9805L51.4283 24.5666C51.6132 24.5204 51.7697 24.3972 51.8578 24.228C51.9458 24.0589 51.9573 23.8602 51.8892 23.6821L51.412 22.434C51.1111 21.6486 51.1935 20.7868 51.6041 20.0849C52.7915 21.3483 54.476 22.1397 56.3425 22.1397C59.9298 22.1397 62.8484 19.2214 62.8484 15.634C62.8484 12.0467 59.9305 9.12817 56.3432 9.12817ZM50.1676 22.91L50.3761 23.4555L49.45 23.6869C47.7415 24.1129 46.5094 25.5799 46.384 27.3375L46.3405 27.9467L45.3181 27.7979C43.6875 27.5584 42.088 28.3189 41.2431 29.7339L40.8456 30.3995L40.0387 29.8795C38.7035 29.0215 36.9789 29.0215 35.6457 29.8797L34.8381 30.3993L34.4417 29.7339C33.5968 28.3187 31.9974 27.5596 30.3672 27.7977L29.3442 27.9467L29.3006 27.3365C29.1728 25.5786 27.9399 24.1119 26.2331 23.6871L25.3077 23.4556L25.517 22.9105C26.1793 21.183 25.589 19.2254 24.0806 18.149L23.4402 17.6935L23.9193 17.1939C25.2194 15.8368 25.4222 13.7823 24.4122 12.1977L24.0723 11.6643L24.8575 11.3046C26.4968 10.5519 27.4517 8.78128 27.1798 6.99903L27.092 6.42339L28.0906 6.37341C29.7819 6.2866 31.2573 5.14214 31.7621 3.52434L31.9634 2.87572L32.9069 3.22578C34.4157 3.78942 36.1153 3.40505 37.2378 2.2471L37.8413 1.6238L38.4454 2.24776C39.5692 3.40488 41.2695 3.78876 42.7763 3.22611L43.72 2.87556L43.9223 3.52434C44.4248 5.14164 45.9001 6.28644 47.5946 6.37341L48.5924 6.42322L48.5048 6.99803C48.2305 8.78028 49.1845 10.551 50.8258 11.3048L51.304 11.5235C50.3878 12.6448 49.837 14.0759 49.837 15.6334C49.837 16.8498 50.1734 17.9888 50.7569 18.9638C49.8901 20.0742 49.6536 21.5677 50.1676 22.91ZM56.3432 20.8067C53.491 20.8067 51.1704 18.4861 51.1704 15.6339C51.1704 12.7816 53.491 10.4611 56.3432 10.4611C59.1956 10.4611 61.5162 12.7816 61.5162 15.6339C61.5162 18.4861 59.1956 20.8067 56.3432 20.8067Z" fill="#141519"/>
<path d="M37.8417 5.31195C33.848 5.31195 30.2141 7.46824 28.2955 10.9551C26.4901 11.7415 25.2242 13.5422 25.2242 15.6341C25.2242 17.4483 26.1771 19.0433 27.6076 19.9478C29.1736 24.2389 33.2537 27.1055 37.8417 27.1055C43.8513 27.1055 48.7405 22.2172 48.7405 16.2087C48.7405 10.2002 43.8511 5.31195 37.8417 5.31195ZM26.5569 15.6339C26.5569 13.5559 28.2474 11.8655 30.3254 11.8655C32.4032 11.8655 34.0938 13.5559 34.0938 15.6339C34.0938 17.7117 32.4034 19.4023 30.3254 19.4023C28.2476 19.4023 26.5569 17.7117 26.5569 15.6339ZM37.8417 25.7724C34.2411 25.7724 30.9961 23.7614 29.3669 20.6436C29.6776 20.7029 29.9978 20.7352 30.3255 20.7352C33.1384 20.7352 35.4269 18.4468 35.4269 15.6339C35.4269 12.821 33.1384 10.5326 30.3255 10.5326C30.2634 10.5326 30.2017 10.5351 30.1401 10.5372C31.9257 8.10637 34.7617 6.64485 37.8417 6.64485C43.1163 6.64485 47.4076 10.9351 47.4076 16.2085C47.4076 21.482 43.1162 25.7724 37.8417 25.7724Z" fill="#141519"/>
<path d="M19.8143 9.45909C18.9961 8.64102 17.438 8.85629 15.4193 10.0579C15.0441 9.98108 14.6585 9.9411 14.2667 9.9411C12.7462 9.9411 11.3165 10.5332 10.2413 11.6084C8.83861 13.0111 8.32361 14.9694 8.69382 16.7814C7.48955 18.8024 7.27329 20.3623 8.09202 21.1812C8.41975 21.509 8.86577 21.6714 9.41209 21.6714C10.1189 21.6714 10.9959 21.3953 12.0004 20.8575C12.7063 21.1639 13.4739 21.3264 14.2667 21.3264C15.7872 21.3264 17.2167 20.7342 18.292 19.6591C19.3672 18.5838 19.9593 17.1542 19.9593 15.6337C19.9593 14.8413 19.797 14.0741 19.4908 13.3683C20.4453 11.5859 20.5656 10.2103 19.8143 9.45909ZM11.1838 12.5511C12.0072 11.7275 13.1022 11.274 14.2667 11.274C15.4311 11.274 16.5261 11.7275 17.3495 12.5511C17.5897 12.7912 17.7973 13.0551 17.9724 13.3363C17.3055 14.422 16.38 15.5696 15.2912 16.6582C14.2015 17.748 13.0542 18.6734 11.9691 19.3395C11.6878 19.1644 11.4239 18.9568 11.1838 18.7165C9.48406 17.0168 9.48406 14.251 11.1838 12.5511ZM9.03471 20.2389C8.8716 20.0759 8.86094 19.4736 9.31979 18.4486C9.5662 18.882 9.87244 19.2902 10.2415 19.6592C10.3723 19.79 10.5084 19.9133 10.6492 20.0296C9.73182 20.41 9.188 20.3925 9.03471 20.2389ZM17.3495 18.7167C16.5261 19.5401 15.4313 19.9936 14.2668 19.9936C14.0069 19.9936 13.7508 19.9698 13.5001 19.9255C14.4134 19.2809 15.3441 18.4906 16.234 17.6009C17.1232 16.7117 17.9133 15.7808 18.5584 14.867C18.6027 15.1177 18.6266 15.374 18.6266 15.6339C18.6264 16.7983 18.173 17.8932 17.3495 18.7167ZM18.292 11.6087C17.9268 11.2435 17.5199 10.9354 17.0832 10.686C18.1074 10.2278 18.709 10.2387 18.8718 10.4018C19.0253 10.5552 19.0428 11.0985 18.6622 12.0162C18.5461 11.8755 18.4228 11.7393 18.292 11.6087Z" fill="#141519"/>
</svg>
