<svg width="822" height="152" viewBox="0 0 822 152" fill="none" xmlns="http://www.w3.org/2000/svg">
<path d="M810.667 76C810.667 78.9456 813.054 81.3334 816 81.3334C818.946 81.3334 821.333 78.9456 821.333 76C821.333 73.0545 818.946 70.6667 816 70.6667C813.054 70.6667 810.667 73.0545 810.667 76ZM411 77L816 77L816 75L411 75L411 77Z" fill="black"/>
<path d="M11.3333 76C11.3333 73.0545 8.94552 70.6667 6 70.6667C3.05448 70.6667 0.666665 73.0545 0.666665 76C0.666665 78.9455 3.05448 81.3333 6 81.3333C8.94552 81.3333 11.3333 78.9455 11.3333 76ZM411 75L6 75V77L411 77V75Z" fill="black"/>
<path d="M804.595 6.59913C805.106 9.4999 807.872 11.4368 810.773 10.9253C813.674 10.4138 815.611 7.64766 815.099 4.74689C814.588 1.84612 811.822 -0.0907797 808.921 0.420704C806.02 0.932188 804.083 3.69837 804.595 6.59913ZM411.174 76.9853L810.021 6.65782L809.673 4.6882L410.826 75.0157L411.174 76.9853Z" fill="black"/>
<path d="M17.4051 145.402C16.8936 142.501 14.1275 140.564 11.2267 141.076C8.32591 141.587 6.38901 144.353 6.9005 147.254C7.41198 150.155 10.1782 152.092 13.0789 151.58C15.9797 151.069 17.9166 148.303 17.4051 145.402ZM410.826 75.0157L11.9792 145.343L12.3265 147.313L411.174 76.9853L410.826 75.0157Z" fill="black"/>
<path d="M804.595 145.402C804.083 148.303 806.02 151.069 808.921 151.58C811.822 152.092 814.588 150.155 815.099 147.254C815.611 144.353 813.674 141.587 810.773 141.076C807.872 140.564 805.106 142.501 804.595 145.402ZM410.826 76.9853L809.673 147.313L810.021 145.343L411.174 75.0157L410.826 76.9853Z" fill="black"/>
<path d="M17.4051 6.5991C17.9166 3.69833 15.9797 0.932152 13.0789 0.420668C10.1782 -0.0908162 7.41198 1.84608 6.9005 4.74685C6.38901 7.64762 8.32591 10.4138 11.2267 10.9253C14.1275 11.4368 16.8936 9.49987 17.4051 6.5991ZM411.174 75.0157L12.3265 4.68817L11.9792 6.65778L410.826 76.9853L411.174 75.0157Z" fill="black"/>
</svg>
