<svg width="324" height="324" viewBox="0 0 324 324" fill="none" xmlns="http://www.w3.org/2000/svg">
<path d="M47.9201 276.169C50.0029 278.252 53.3798 278.252 55.4626 276.169C57.5454 274.086 57.5454 270.709 55.4626 268.626C53.3798 266.544 50.0029 266.544 47.9201 268.626C45.8373 270.709 45.8373 274.086 47.9201 276.169ZM268.537 55.5516C270.62 57.6344 273.997 57.6344 276.08 55.5516C278.163 53.4688 278.163 50.0919 276.08 48.0091C273.997 45.9263 270.62 45.9263 268.537 48.0091C266.455 50.0919 266.455 53.4688 268.537 55.5516ZM52.3985 273.105L273.016 52.4875L271.602 51.0733L50.9842 271.691L52.3985 273.105Z" fill="#1f1f1f"/>
<path d="M69.463 294.246C71.8758 295.935 75.2014 295.349 76.8909 292.936C78.5804 290.523 77.994 287.198 75.5811 285.508C73.1683 283.819 69.8427 284.405 68.1533 286.818C66.4638 289.231 67.0502 292.556 69.463 294.246ZM248.419 38.6703C250.832 40.3598 254.157 39.7734 255.847 37.3606C257.536 34.9478 256.95 31.6222 254.537 29.9327C252.124 28.2432 248.799 28.8296 247.109 31.2425C245.42 33.6553 246.006 36.9809 248.419 38.6703ZM73.3412 290.451L252.297 34.8751L250.659 33.728L71.7029 289.303L73.3412 290.451Z" fill="#1f1f1f"/>
<path d="M29.8435 254.626C31.5329 257.039 34.8585 257.625 37.2714 255.936C39.6842 254.246 40.2706 250.921 38.5811 248.508C36.8916 246.095 33.566 245.509 31.1532 247.198C28.7404 248.888 28.154 252.213 29.8435 254.626ZM285.419 75.6704C287.108 78.0832 290.434 78.6696 292.847 76.9801C295.26 75.2906 295.846 71.9651 294.157 69.5522C292.467 67.1394 289.141 66.553 286.729 68.2425C284.316 69.932 283.729 73.2576 285.419 75.6704ZM34.7859 252.386L290.361 73.4305L289.214 71.7922L33.6387 250.748L34.7859 252.386Z" fill="#1f1f1f"/>
<path d="M81.3334 301.808C83.8843 303.281 87.1461 302.407 88.6188 299.856C90.0916 297.305 89.2176 294.043 86.6667 292.57C84.1158 291.098 80.854 291.972 79.3812 294.523C77.9085 297.073 78.7825 300.335 81.3334 301.808ZM237.333 31.6081C239.884 33.0808 243.146 32.2068 244.619 29.6559C246.092 27.105 245.218 23.8432 242.667 22.3705C240.116 20.8977 236.854 21.7717 235.381 24.3226C233.908 26.8735 234.782 30.1353 237.333 31.6081ZM84.8661 297.689L240.866 27.4893L239.134 26.4893L83.134 296.689L84.8661 297.689Z" fill="#1f1f1f"/>
<path d="M106.821 313.693C109.589 314.7 112.649 313.273 113.657 310.505C114.664 307.737 113.237 304.677 110.469 303.669C107.701 302.662 104.641 304.089 103.633 306.857C102.626 309.625 104.053 312.685 106.821 313.693ZM213.531 20.5088C216.299 21.5162 219.359 20.0891 220.367 17.3212C221.374 14.5533 219.947 11.4928 217.179 10.4854C214.411 9.47794 211.351 10.9051 210.343 13.673C209.336 16.4409 210.763 19.5014 213.531 20.5088ZM109.585 309.023L216.295 15.8391L214.415 15.1551L107.705 308.339L109.585 309.023Z" fill="#1f1f1f"/>
<path d="M58.297 285.678C60.5534 287.571 63.9174 287.277 65.8107 285.02C67.7041 282.764 67.4098 279.4 65.1534 277.506C62.897 275.613 59.5329 275.907 57.6396 278.164C55.7462 280.42 56.0406 283.784 58.297 285.678ZM258.847 46.6718C261.103 48.5651 264.467 48.2708 266.36 46.0144C268.254 43.758 267.959 40.394 265.703 38.5006C263.447 36.6073 260.083 36.9016 258.189 39.158C256.296 41.4144 256.59 44.7784 258.847 46.6718ZM62.4912 282.235L263.041 43.229L261.509 41.9434L60.9591 280.949L62.4912 282.235Z" fill="#1f1f1f"/>
<path d="M47.9201 48.009C45.8373 50.0918 45.8373 53.4687 47.9201 55.5515C50.0029 57.6343 53.3798 57.6343 55.4626 55.5515C57.5454 53.4687 57.5454 50.0918 55.4626 48.009C53.3798 45.9262 50.0029 45.9262 47.9201 48.009ZM268.537 268.626C266.455 270.709 266.455 274.086 268.537 276.169C270.62 278.252 273.997 278.252 276.08 276.169C278.163 274.086 278.163 270.709 276.08 268.626C273.997 266.544 270.62 266.544 268.537 268.626ZM50.9842 52.4874L271.602 273.105L273.016 271.69L52.3985 51.0732L50.9842 52.4874Z" fill="#1f1f1f"/>
<path d="M29.8435 69.552C28.154 71.9648 28.7404 75.2904 31.1532 76.9799C33.566 78.6694 36.8916 78.083 38.5811 75.6702C40.2706 73.2573 39.6842 69.9318 37.2714 68.2423C34.8585 66.5528 31.5329 67.1392 29.8435 69.552ZM285.419 248.508C283.729 250.921 284.316 254.246 286.729 255.936C289.141 257.625 292.467 257.039 294.157 254.626C295.846 252.213 295.26 248.888 292.847 247.198C290.434 245.509 287.108 246.095 285.419 248.508ZM33.6387 73.4302L289.214 252.386L290.361 250.748L34.7859 71.7919L33.6387 73.4302Z" fill="#1f1f1f"/>
<path d="M69.463 29.9325C67.0502 31.6219 66.4638 34.9475 68.1533 37.3603C69.8428 39.7732 73.1683 40.3596 75.5812 38.6701C77.994 36.9806 78.5804 33.655 76.8909 31.2422C75.2014 28.8294 71.8758 28.243 69.463 29.9325ZM248.419 285.508C246.006 287.197 245.42 290.523 247.109 292.936C248.799 295.349 252.124 295.935 254.537 294.246C256.95 292.556 257.536 289.23 255.847 286.818C254.157 284.405 250.832 283.818 248.419 285.508ZM71.7029 34.8748L250.659 290.45L252.297 289.303L73.3412 33.7277L71.7029 34.8748Z" fill="#1f1f1f"/>
<path d="M162 323.422C164.946 323.422 167.333 321.035 167.333 318.089C167.333 315.144 164.946 312.756 162 312.756C159.054 312.756 156.667 315.144 156.667 318.089C156.667 321.035 159.054 323.422 162 323.422ZM162 11.4225C164.945 11.4225 167.333 9.03464 167.333 6.08911C167.333 3.14358 164.945 0.755768 162 0.755768C159.054 0.755768 156.667 3.14359 156.667 6.08911C156.667 9.03464 159.054 11.4225 162 11.4225ZM163 318.089L163 6.08911L161 6.08911L161 318.089L163 318.089Z" fill="#1f1f1f"/>
<path d="M190.015 320.972C192.916 320.46 194.853 317.694 194.341 314.793C193.83 311.892 191.064 309.955 188.163 310.467C185.262 310.978 183.325 313.745 183.837 316.645C184.348 319.546 187.114 321.483 190.015 320.972ZM135.837 13.7115C138.738 13.2001 140.675 10.4339 140.163 7.5331C139.652 4.63233 136.886 2.69542 133.985 3.20691C131.084 3.71839 129.147 6.48457 129.659 9.38535C130.17 12.2861 132.936 14.223 135.837 13.7115ZM190.074 315.546L135.896 8.28558L133.926 8.63287L188.104 315.893L190.074 315.546Z" fill="#1f1f1f"/>
<path d="M133.985 320.972C136.886 321.483 139.652 319.546 140.163 316.645C140.675 313.745 138.738 310.978 135.837 310.467C132.936 309.955 130.17 311.892 129.659 314.793C129.147 317.694 131.084 320.46 133.985 320.972ZM188.163 13.7115C191.064 14.223 193.83 12.2861 194.341 9.38535C194.853 6.48457 192.916 3.71839 190.015 3.20691C187.114 2.69542 184.348 4.63233 183.837 7.5331C183.325 10.4339 185.262 13.2001 188.163 13.7115ZM135.896 315.893L190.074 8.63287L188.104 8.28558L133.926 315.546L135.896 315.893Z" fill="#1f1f1f"/>
<path d="M242.667 301.808C245.217 300.335 246.092 297.073 244.619 294.522C243.146 291.971 239.884 291.097 237.333 292.57C234.782 294.043 233.908 297.304 235.381 299.855C236.854 302.406 240.116 303.28 242.667 301.808ZM86.6666 31.6076C89.2175 30.1349 90.0915 26.8731 88.6187 24.3222C87.146 21.7713 83.8841 20.8973 81.3332 22.37C78.7824 23.8428 77.9084 27.1046 79.3811 29.6555C80.8539 32.2064 84.1157 33.0804 86.6666 31.6076ZM240.866 296.689L84.8659 26.4888L83.1339 27.4888L239.134 297.689L240.866 296.689Z" fill="#1f1f1f"/>
<path d="M265.703 285.677C267.959 283.784 268.254 280.42 266.36 278.164C264.467 275.907 261.103 275.613 258.847 277.506C256.59 279.4 256.296 282.764 258.189 285.02C260.083 287.276 263.447 287.571 265.703 285.677ZM65.1533 46.6715C67.4097 44.7782 67.704 41.4142 65.8107 39.1578C63.9173 36.9013 60.5533 36.607 58.2969 38.5004C56.0405 40.3937 55.7462 43.7577 57.6395 46.0142C59.5329 48.2706 62.8969 48.5649 65.1533 46.6715ZM263.041 280.949L62.4912 41.9432L60.9591 43.2287L261.509 282.235L263.041 280.949Z" fill="#1f1f1f"/>
<path d="M217.179 313.693C219.947 312.685 221.374 309.625 220.367 306.857C219.359 304.089 216.299 302.662 213.531 303.669C210.763 304.677 209.336 307.737 210.343 310.505C211.351 313.273 214.411 314.7 217.179 313.693ZM110.469 20.5086C113.237 19.5011 114.664 16.4406 113.657 13.6727C112.649 10.9049 109.589 9.47772 106.821 10.4851C104.053 11.4926 102.626 14.5531 103.633 17.321C104.641 20.0888 107.701 21.516 110.469 20.5086ZM216.295 308.339L109.585 15.1548L107.705 15.8389L214.415 309.023L216.295 308.339Z" fill="#1f1f1f"/>
<path d="M203.756 317.925C206.601 317.163 208.29 314.238 207.527 311.393C206.765 308.548 203.841 306.86 200.995 307.622C198.15 308.384 196.462 311.309 197.224 314.154C197.986 316.999 200.911 318.688 203.756 317.925ZM123.005 16.5565C125.85 15.7941 127.538 12.8696 126.776 10.0245C126.013 7.17932 123.089 5.49088 120.244 6.25323C117.399 7.01559 115.71 9.94006 116.473 12.7852C117.235 15.6304 120.159 17.3188 123.005 16.5565ZM203.342 312.515L122.59 11.146L120.658 11.6637L201.41 313.033L203.342 312.515Z" fill="#1f1f1f"/>
<path d="M230.182 308.307C232.852 307.062 234.007 303.889 232.762 301.219C231.517 298.55 228.344 297.395 225.674 298.64C223.005 299.885 221.85 303.058 223.095 305.727C224.34 308.397 227.513 309.552 230.182 308.307ZM98.3255 25.539C100.995 24.2942 102.15 21.121 100.905 18.4514C99.6603 15.7819 96.4871 14.6269 93.8176 15.8717C91.148 17.1166 89.993 20.2898 91.2379 22.9594C92.4827 25.6289 95.6559 26.7839 98.3255 25.539ZM228.835 303.051L96.9778 20.2828L95.1652 21.128L227.022 303.896L228.835 303.051Z" fill="#1f1f1f"/>
<path d="M176.061 322.809C178.995 322.552 181.166 319.965 180.909 317.031C180.653 314.096 178.066 311.926 175.131 312.183C172.197 312.439 170.026 315.026 170.283 317.96C170.54 320.895 173.127 323.065 176.061 322.809ZM148.869 11.9959C151.803 11.7392 153.973 9.15238 153.717 6.21806C153.46 3.28374 150.873 1.11312 147.939 1.36984C145.005 1.62656 142.834 4.2134 143.091 7.14772C143.347 10.082 145.934 12.2527 148.869 11.9959ZM176.592 317.408L149.4 6.59573L147.407 6.77005L174.6 317.583L176.592 317.408Z" fill="#1f1f1f"/>
<path d="M203.756 6.25318C200.911 5.49082 197.986 7.17927 197.224 10.0244C196.462 12.8696 198.15 15.794 200.995 16.5564C203.841 17.3187 206.765 15.6303 207.527 12.7852C208.29 9.94 206.601 7.01554 203.756 6.25318ZM123.005 307.622C120.159 306.86 117.235 308.548 116.473 311.393C115.71 314.238 117.399 317.163 120.244 317.925C123.089 318.688 126.013 316.999 126.776 314.154C127.538 311.309 125.85 308.384 123.005 307.622ZM201.41 11.146L120.658 312.515L122.59 313.032L203.342 11.6636L201.41 11.146Z" fill="#1f1f1f"/>
<path d="M176.061 1.36982C173.127 1.1131 170.54 3.28372 170.283 6.21803C170.026 9.15234 172.197 11.7392 175.131 11.9959C178.066 12.2526 180.653 10.082 180.909 7.14769C181.166 4.21338 178.995 1.62654 176.061 1.36982ZM148.869 312.183C145.934 311.926 143.347 314.096 143.091 317.031C142.834 319.965 145.005 322.552 147.939 322.809C150.873 323.065 153.46 320.895 153.717 317.96C153.973 315.026 151.803 312.439 148.869 312.183ZM174.6 6.59571L147.407 317.408L149.4 317.583L176.592 6.77002L174.6 6.59571Z" fill="#1f1f1f"/>
<path d="M230.182 15.8717C227.513 14.6269 224.34 15.7818 223.095 18.4514C221.85 21.1209 223.005 24.2941 225.674 25.539C228.344 26.7838 231.517 25.6288 232.762 22.9593C234.007 20.2897 232.852 17.1165 230.182 15.8717ZM98.3255 298.64C95.6559 297.395 92.4827 298.55 91.2379 301.219C89.993 303.889 91.148 307.062 93.8176 308.307C96.4871 309.552 99.6603 308.397 100.905 305.727C102.15 303.058 100.995 299.885 98.3255 298.64ZM227.022 20.2827L95.1652 303.051L96.9778 303.896L228.835 21.1279L227.022 20.2827Z" fill="#1f1f1f"/>
<path d="M203.756 6.25318C200.911 5.49082 197.986 7.17927 197.224 10.0244C196.462 12.8696 198.15 15.794 200.995 16.5564C203.841 17.3187 206.765 15.6303 207.527 12.7852C208.29 9.94 206.601 7.01554 203.756 6.25318ZM123.005 307.622C120.159 306.86 117.235 308.548 116.473 311.393C115.71 314.238 117.399 317.163 120.244 317.925C123.089 318.688 126.013 316.999 126.776 314.154C127.538 311.309 125.85 308.384 123.005 307.622ZM201.41 11.146L120.658 312.515L122.59 313.032L203.342 11.6636L201.41 11.146Z" fill="#1f1f1f"/>
<path d="M176.061 1.36982C173.127 1.1131 170.54 3.28372 170.283 6.21803C170.026 9.15234 172.197 11.7392 175.131 11.9959C178.066 12.2526 180.653 10.082 180.909 7.14769C181.166 4.21338 178.995 1.62654 176.061 1.36982ZM148.869 312.183C145.934 311.926 143.347 314.096 143.091 317.031C142.834 319.965 145.005 322.552 147.939 322.809C150.873 323.065 153.46 320.895 153.717 317.96C153.973 315.026 151.803 312.439 148.869 312.183ZM174.6 6.59571L147.407 317.408L149.4 317.583L176.592 6.77002L174.6 6.59571Z" fill="#1f1f1f"/>
<path d="M230.182 15.8717C227.513 14.6269 224.34 15.7818 223.095 18.4514C221.85 21.1209 223.005 24.2941 225.674 25.539C228.344 26.7838 231.517 25.6288 232.762 22.9593C234.007 20.2897 232.852 17.1165 230.182 15.8717ZM98.3255 298.64C95.6559 297.395 92.4827 298.55 91.2379 301.219C89.993 303.889 91.148 307.062 93.8176 308.307C96.4871 309.552 99.6603 308.397 100.905 305.727C102.15 303.058 100.995 299.885 98.3255 298.64ZM227.022 20.2827L95.1652 303.051L96.9778 303.896L228.835 21.1279L227.022 20.2827Z" fill="#1f1f1f"/>
<path d="M203.756 6.25318C200.911 5.49082 197.986 7.17927 197.224 10.0244C196.462 12.8696 198.15 15.794 200.995 16.5564C203.841 17.3187 206.765 15.6303 207.527 12.7852C208.29 9.94 206.601 7.01554 203.756 6.25318ZM123.005 307.622C120.159 306.86 117.235 308.548 116.473 311.393C115.71 314.238 117.399 317.163 120.244 317.925C123.089 318.688 126.013 316.999 126.776 314.154C127.538 311.309 125.85 308.384 123.005 307.622ZM201.41 11.146L120.658 312.515L122.59 313.032L203.342 11.6636L201.41 11.146Z" fill="#1f1f1f"/>
<path d="M176.061 1.36982C173.127 1.1131 170.54 3.28372 170.283 6.21803C170.026 9.15234 172.197 11.7392 175.131 11.9959C178.066 12.2526 180.653 10.082 180.909 7.14769C181.166 4.21338 178.995 1.62654 176.061 1.36982ZM148.869 312.183C145.934 311.926 143.347 314.096 143.091 317.031C142.834 319.965 145.005 322.552 147.939 322.809C150.873 323.065 153.46 320.895 153.717 317.96C153.973 315.026 151.803 312.439 148.869 312.183ZM174.6 6.59571L147.407 317.408L149.4 317.583L176.592 6.77002L174.6 6.59571Z" fill="#1f1f1f"/>
<path d="M230.182 15.8717C227.513 14.6269 224.34 15.7818 223.095 18.4514C221.85 21.1209 223.005 24.2941 225.674 25.539C228.344 26.7838 231.517 25.6288 232.762 22.9593C234.007 20.2897 232.852 17.1165 230.182 15.8717ZM98.3255 298.64C95.6559 297.395 92.4827 298.55 91.2379 301.219C89.993 303.889 91.148 307.062 93.8176 308.307C96.4871 309.552 99.6603 308.397 100.905 305.727C102.15 303.058 100.995 299.885 98.3255 298.64ZM227.022 20.2827L95.1652 303.051L96.9778 303.896L228.835 21.1279L227.022 20.2827Z" fill="#1f1f1f"/>
<path d="M147.939 322.808C150.873 323.065 153.46 320.895 153.717 317.96C153.973 315.026 151.803 312.439 148.868 312.182C145.934 311.926 143.347 314.096 143.091 317.031C142.834 319.965 145.004 322.552 147.939 322.808ZM175.131 11.9957C178.066 12.2524 180.652 10.0818 180.909 7.14746C181.166 4.21314 178.995 1.6263 176.061 1.36958C173.127 1.11286 170.54 3.28348 170.283 6.2178C170.026 9.15211 172.197 11.739 175.131 11.9957ZM149.4 317.583L176.592 6.76978L174.6 6.59547L147.407 317.408L149.4 317.583Z" fill="#1f1f1f"/>
<path d="M176.061 322.808C178.995 322.552 181.166 319.965 180.909 317.031C180.653 314.096 178.066 311.926 175.131 312.182C172.197 312.439 170.026 315.026 170.283 317.96C170.54 320.895 173.127 323.065 176.061 322.808ZM148.868 11.9957C151.803 11.739 153.973 9.15211 153.717 6.2178C153.46 3.28348 150.873 1.11286 147.939 1.36958C145.004 1.6263 142.834 4.21314 143.091 7.14746C143.347 10.0818 145.934 12.2524 148.868 11.9957ZM176.592 317.408L149.4 6.59547L147.407 6.76978L174.6 317.583L176.592 317.408Z" fill="#1f1f1f"/>
<path d="M120.244 317.925C123.089 318.687 126.013 316.999 126.776 314.154C127.538 311.308 125.85 308.384 123.005 307.622C120.159 306.859 117.235 308.548 116.473 311.393C115.71 314.238 117.399 317.162 120.244 317.925ZM200.995 16.556C203.84 17.3183 206.765 15.6299 207.527 12.7847C208.29 9.93957 206.601 7.0151 203.756 6.25274C200.911 5.49039 197.986 7.17883 197.224 10.024C196.462 12.8691 198.15 15.7936 200.995 16.556ZM122.59 313.032L203.342 11.6632L201.41 11.1455L120.658 312.514L122.59 313.032Z" fill="#1f1f1f"/>
<path d="M22.2811 242.756C23.7539 245.306 27.0157 246.18 29.5666 244.708C32.1175 243.235 32.9915 239.973 31.5187 237.422C30.046 234.871 26.7842 233.997 24.2333 235.47C21.6824 236.943 20.8084 240.205 22.2811 242.756ZM292.481 86.7555C293.954 89.3064 297.216 90.1804 299.767 88.7077C302.317 87.2349 303.191 83.9731 301.719 81.4222C300.246 78.8713 296.984 77.9973 294.433 79.47C291.882 80.9428 291.008 84.2046 292.481 86.7555ZM27.3999 240.955L297.6 84.9549L296.6 83.2228L26.3999 239.223L27.3999 240.955Z" fill="#1f1f1f"/>
<path d="M38.4114 265.792C40.3047 268.048 43.6688 268.342 45.9251 266.449C48.1815 264.556 48.4759 261.192 46.5825 258.935C44.6892 256.679 41.3251 256.385 39.0687 258.278C36.8123 260.171 36.518 263.535 38.4114 265.792ZM277.417 65.242C279.311 67.4984 282.675 67.7927 284.931 65.8994C287.187 64.006 287.482 60.642 285.588 58.3856C283.695 56.1292 280.331 55.8349 278.075 57.7282C275.818 59.6216 275.524 62.9856 277.417 65.242ZM43.1397 263.13L282.146 62.5798L280.86 61.0478L41.8542 261.597L43.1397 263.13Z" fill="#1f1f1f"/>
<path d="M10.3961 217.268C11.4036 220.036 14.4641 221.463 17.2319 220.456C19.9998 219.448 21.427 216.388 20.4195 213.62C19.4121 210.852 16.3516 209.425 13.5837 210.432C10.8158 211.44 9.38872 214.5 10.3961 217.268ZM303.58 110.558C304.588 113.326 307.648 114.753 310.416 113.745C313.184 112.738 314.611 109.677 313.604 106.909C312.596 104.142 309.536 102.714 306.768 103.722C304 104.729 302.573 107.79 303.58 110.558ZM15.7499 216.384L308.934 109.673L308.25 107.794L15.0658 214.504L15.7499 216.384Z" fill="#1f1f1f"/>
<path d="M6.16386 203.845C6.92621 206.69 9.85068 208.378 12.6958 207.616C15.541 206.854 17.2294 203.929 16.4671 201.084C15.7047 198.239 12.7802 196.55 9.93509 197.313C7.08994 198.075 5.4015 201 6.16386 203.845ZM307.533 123.093C308.295 125.938 311.22 127.627 314.065 126.864C316.91 126.102 318.598 123.178 317.836 120.332C317.074 117.487 314.149 115.799 311.304 116.561C308.459 117.324 306.77 120.248 307.533 123.093ZM11.5743 203.43L312.943 122.679L312.425 120.747L11.0566 201.498L11.5743 203.43Z" fill="#1f1f1f"/>
<path d="M15.7822 230.271C17.0271 232.941 20.2003 234.096 22.8698 232.851C25.5394 231.606 26.6943 228.433 25.4495 225.763C24.2047 223.094 21.0315 221.939 18.3619 223.183C15.6924 224.428 14.5374 227.602 15.7822 230.271ZM298.55 98.4142C299.795 101.084 302.968 102.239 305.638 100.994C308.307 99.749 309.462 96.5758 308.218 93.9062C306.973 91.2367 303.799 90.0817 301.13 91.3266C298.46 92.5714 297.305 95.7446 298.55 98.4142ZM21.0385 228.923L303.807 97.0665L302.961 95.2539L20.1933 227.111L21.0385 228.923Z" fill="#1f1f1f"/>
<path d="M1.2805 176.15C1.53722 179.084 4.12406 181.255 7.05837 180.998C9.99268 180.741 12.1633 178.155 11.9066 175.22C11.6499 172.286 9.06302 170.115 6.12871 170.372C3.1944 170.629 1.02378 173.216 1.2805 176.15ZM312.093 148.957C312.35 151.892 314.937 154.062 317.871 153.806C320.805 153.549 322.976 150.962 322.719 148.028C322.463 145.093 319.876 142.923 316.941 143.179C314.007 143.436 311.837 146.023 312.093 148.957ZM6.68069 176.681L317.493 149.489L317.319 147.496L6.50638 174.689L6.68069 176.681Z" fill="#1f1f1f"/>
<path d="M0.666575 162.089C0.666575 165.034 3.05439 167.422 5.99991 167.422C8.94543 167.422 11.3332 165.034 11.3332 162.089C11.3332 159.143 8.94543 156.755 5.99991 156.755C3.05439 156.755 0.666575 159.143 0.666575 162.089ZM312.667 162.089C312.667 165.034 315.054 167.422 318 167.422C320.945 167.422 323.333 165.034 323.333 162.089C323.333 159.143 320.945 156.755 318 156.755C315.054 156.755 312.667 159.143 312.667 162.089ZM5.99991 163.089L318 163.089L318 161.089L5.99991 161.089L5.99991 163.089Z" fill="#1f1f1f"/>
<path d="M3.1176 190.104C3.62908 193.005 6.39526 194.942 9.29603 194.43C12.1968 193.919 14.1337 191.152 13.6222 188.252C13.1107 185.351 10.3445 183.414 7.44378 183.925C4.54301 184.437 2.60611 187.203 3.1176 190.104ZM310.378 135.926C310.889 138.826 313.655 140.763 316.556 140.252C319.457 139.74 321.394 136.974 320.882 134.073C320.371 131.173 317.605 129.236 314.704 129.747C311.803 130.259 309.866 133.025 310.378 135.926ZM8.54355 190.163L315.804 135.984L315.456 134.015L8.19626 188.193L8.54355 190.163Z" fill="#1f1f1f"/>
<path d="M3.1176 134.073C2.60611 136.974 4.54301 139.74 7.44378 140.252C10.3445 140.763 13.1107 138.826 13.6222 135.926C14.1337 133.025 12.1968 130.259 9.29603 129.747C6.39526 129.236 3.62908 131.173 3.1176 134.073ZM310.378 188.252C309.866 191.152 311.803 193.919 314.704 194.43C317.605 194.942 320.371 193.005 320.882 190.104C321.394 187.203 319.457 184.437 316.556 183.925C313.655 183.414 310.889 185.351 310.378 188.252ZM8.19626 135.984L315.456 190.163L315.804 188.193L8.54355 134.015L8.19626 135.984Z" fill="#1f1f1f"/>
<path d="M6.16389 120.333C5.40153 123.178 7.08997 126.102 9.93512 126.864C12.7803 127.627 15.7047 125.938 16.4671 123.093C17.2295 120.248 15.541 117.324 12.6959 116.561C9.85071 115.799 6.92624 117.487 6.16389 120.333ZM307.533 201.084C306.77 203.929 308.459 206.854 311.304 207.616C314.149 208.378 317.074 206.69 317.836 203.845C318.598 201 316.91 198.075 314.065 197.313C311.22 196.55 308.295 198.239 307.533 201.084ZM11.0567 122.679L312.426 203.43L312.943 201.498L11.5743 120.747L11.0567 122.679Z" fill="#1f1f1f"/>
<path d="M1.2805 148.028C1.02378 150.962 3.1944 153.549 6.12871 153.805C9.06302 154.062 11.6499 151.892 11.9066 148.957C12.1633 146.023 9.99268 143.436 7.05837 143.179C4.12406 142.923 1.53722 145.093 1.2805 148.028ZM312.093 175.22C311.837 178.155 314.007 180.741 316.941 180.998C319.876 181.255 322.463 179.084 322.719 176.15C322.976 173.216 320.805 170.629 317.871 170.372C314.937 170.115 312.35 172.286 312.093 175.22ZM6.50638 149.489L317.319 176.681L317.493 174.689L6.68069 147.496L6.50638 149.489Z" fill="#1f1f1f"/>
<path d="M15.7822 93.9064C14.5374 96.576 15.6924 99.7492 18.3619 100.994C21.0315 102.239 24.2047 101.084 25.4495 98.4144C26.6943 95.7448 25.5394 92.5716 22.8698 91.3268C20.2003 90.0819 17.0271 91.2369 15.7822 93.9064ZM298.55 225.763C297.305 228.433 298.46 231.606 301.13 232.851C303.799 234.096 306.973 232.941 308.218 230.271C309.462 227.602 308.307 224.428 305.638 223.184C302.968 221.939 299.795 223.094 298.55 225.763ZM20.1933 97.0667L302.961 228.924L303.807 227.111L21.0385 95.2541L20.1933 97.0667Z" fill="#1f1f1f"/>
<path d="M22.2812 81.4222C20.8084 83.9731 21.6824 87.2349 24.2333 88.7077C26.7842 90.1804 30.046 89.3064 31.5188 86.7555C32.9915 84.2046 32.1175 80.9428 29.5666 79.4701C27.0157 77.9973 23.7539 78.8713 22.2812 81.4222ZM292.481 237.422C291.008 239.973 291.882 243.235 294.433 244.708C296.984 246.18 300.246 245.306 301.719 242.756C303.191 240.205 302.317 236.943 299.767 235.47C297.216 233.997 293.954 234.871 292.481 237.422ZM26.4 84.9549L296.6 240.955L297.6 239.223L27.4 83.2228L26.4 84.9549Z" fill="#1f1f1f"/>
<path d="M10.3962 106.91C9.38875 109.677 10.8159 112.738 13.5838 113.745C16.3516 114.753 19.4121 113.326 20.4196 110.558C21.427 107.79 19.9999 104.729 17.232 103.722C14.4641 102.715 11.4036 104.142 10.3962 106.91ZM303.58 213.62C302.573 216.388 304 219.448 306.768 220.456C309.536 221.463 312.596 220.036 313.604 217.268C314.611 214.5 313.184 211.44 310.416 210.432C307.648 209.425 304.588 210.852 303.58 213.62ZM15.0658 109.673L308.25 216.384L308.934 214.504L15.7499 107.794L15.0658 109.673Z" fill="#1f1f1f"/>
<path d="M38.4114 58.3858C36.5181 60.6422 36.8124 64.0062 39.0688 65.8995C41.3252 67.7929 44.6892 67.4986 46.5825 65.2422C48.4759 62.9858 48.1816 59.6217 45.9252 57.7284C43.6688 55.8351 40.3048 56.1294 38.4114 58.3858ZM277.417 258.935C275.524 261.192 275.818 264.556 278.075 266.449C280.331 268.343 283.695 268.048 285.588 265.792C287.482 263.535 287.187 260.171 284.931 258.278C282.675 256.385 279.311 256.679 277.417 258.935ZM41.8542 62.58L280.86 263.13L282.146 261.598L43.1398 61.0479L41.8542 62.58Z" fill="#1f1f1f"/>
<path d="M162 323.422C164.946 323.422 167.333 321.035 167.333 318.089C167.333 315.144 164.946 312.756 162 312.756C159.054 312.756 156.667 315.144 156.667 318.089C156.667 321.035 159.054 323.422 162 323.422ZM162 11.4225C164.945 11.4225 167.333 9.03464 167.333 6.08911C167.333 3.14358 164.945 0.755768 162 0.755768C159.054 0.755768 156.667 3.14359 156.667 6.08911C156.667 9.03464 159.054 11.4225 162 11.4225ZM163 318.089L163 6.08911L161 6.08911L161 318.089L163 318.089Z" fill="#1f1f1f"/>
<path d="M190.015 320.972C192.916 320.46 194.853 317.694 194.341 314.793C193.83 311.892 191.064 309.955 188.163 310.467C185.262 310.978 183.325 313.745 183.837 316.645C184.348 319.546 187.114 321.483 190.015 320.972ZM135.837 13.7115C138.738 13.2001 140.675 10.4339 140.163 7.5331C139.652 4.63233 136.886 2.69542 133.985 3.20691C131.084 3.71839 129.147 6.48457 129.659 9.38535C130.17 12.2861 132.936 14.223 135.837 13.7115ZM190.074 315.546L135.896 8.28558L133.926 8.63287L188.104 315.893L190.074 315.546Z" fill="#1f1f1f"/>
<path d="M133.985 320.972C136.886 321.483 139.652 319.546 140.163 316.645C140.675 313.745 138.738 310.978 135.837 310.467C132.936 309.955 130.17 311.892 129.659 314.793C129.147 317.694 131.084 320.46 133.985 320.972ZM188.163 13.7115C191.064 14.223 193.83 12.2861 194.341 9.38535C194.853 6.48457 192.916 3.71839 190.015 3.20691C187.114 2.69542 184.348 4.63233 183.837 7.5331C183.325 10.4339 185.262 13.2001 188.163 13.7115ZM135.896 315.893L190.074 8.63287L188.104 8.28558L133.926 315.546L135.896 315.893Z" fill="#1f1f1f"/>
<path d="M162 323.422C164.946 323.422 167.333 321.035 167.333 318.089C167.333 315.144 164.946 312.756 162 312.756C159.054 312.756 156.667 315.144 156.667 318.089C156.667 321.035 159.054 323.422 162 323.422ZM162 11.4225C164.945 11.4225 167.333 9.03464 167.333 6.08911C167.333 3.14358 164.945 0.755768 162 0.755768C159.054 0.755768 156.667 3.14359 156.667 6.08911C156.667 9.03464 159.054 11.4225 162 11.4225ZM163 318.089L163 6.08911L161 6.08911L161 318.089L163 318.089Z" fill="#1f1f1f"/>
<path d="M190.015 320.972C192.916 320.46 194.853 317.694 194.341 314.793C193.83 311.892 191.064 309.955 188.163 310.467C185.262 310.978 183.325 313.745 183.837 316.645C184.348 319.546 187.114 321.483 190.015 320.972ZM135.837 13.7115C138.738 13.2001 140.675 10.4339 140.163 7.5331C139.652 4.63233 136.886 2.69542 133.985 3.20691C131.084 3.71839 129.147 6.48457 129.659 9.38535C130.17 12.2861 132.936 14.223 135.837 13.7115ZM190.074 315.546L135.896 8.28558L133.926 8.63287L188.104 315.893L190.074 315.546Z" fill="#1f1f1f"/>
<path d="M133.985 320.972C136.886 321.483 139.652 319.546 140.163 316.645C140.675 313.745 138.738 310.978 135.837 310.467C132.936 309.955 130.17 311.892 129.659 314.793C129.147 317.694 131.084 320.46 133.985 320.972ZM188.163 13.7115C191.064 14.223 193.83 12.2861 194.341 9.38535C194.853 6.48457 192.916 3.71839 190.015 3.20691C187.114 2.69542 184.348 4.63233 183.837 7.5331C183.325 10.4339 185.262 13.2001 188.163 13.7115ZM135.896 315.893L190.074 8.63287L188.104 8.28558L133.926 315.546L135.896 315.893Z" fill="#1f1f1f"/>
<path d="M162 323.422C164.946 323.422 167.333 321.035 167.333 318.089C167.333 315.144 164.946 312.756 162 312.756C159.054 312.756 156.667 315.144 156.667 318.089C156.667 321.035 159.054 323.422 162 323.422ZM162 11.4225C164.945 11.4225 167.333 9.03464 167.333 6.08911C167.333 3.14358 164.945 0.755768 162 0.755768C159.054 0.755768 156.667 3.14359 156.667 6.08911C156.667 9.03464 159.054 11.4225 162 11.4225ZM163 318.089L163 6.08911L161 6.08911L161 318.089L163 318.089Z" fill="#1f1f1f"/>
<path d="M190.015 320.972C192.916 320.46 194.853 317.694 194.341 314.793C193.83 311.892 191.064 309.955 188.163 310.467C185.262 310.978 183.325 313.745 183.837 316.645C184.348 319.546 187.114 321.483 190.015 320.972ZM135.837 13.7115C138.738 13.2001 140.675 10.4339 140.163 7.5331C139.652 4.63233 136.886 2.69542 133.985 3.20691C131.084 3.71839 129.147 6.48457 129.659 9.38535C130.17 12.2861 132.936 14.223 135.837 13.7115ZM190.074 315.546L135.896 8.28558L133.926 8.63287L188.104 315.893L190.074 315.546Z" fill="#1f1f1f"/>
<path d="M133.985 320.972C136.886 321.483 139.652 319.546 140.163 316.645C140.675 313.745 138.738 310.978 135.837 310.467C132.936 309.955 130.17 311.892 129.659 314.793C129.147 317.694 131.084 320.46 133.985 320.972ZM188.163 13.7115C191.064 14.223 193.83 12.2861 194.341 9.38535C194.853 6.48457 192.916 3.71839 190.015 3.20691C187.114 2.69542 184.348 4.63233 183.837 7.5331C183.325 10.4339 185.262 13.2001 188.163 13.7115ZM135.896 315.893L190.074 8.63287L188.104 8.28558L133.926 315.546L135.896 315.893Z" fill="#1f1f1f"/>
<path d="M162 323.422C164.945 323.422 167.333 321.034 167.333 318.089C167.333 315.143 164.945 312.756 162 312.756C159.054 312.756 156.667 315.143 156.667 318.089C156.667 321.034 159.054 323.422 162 323.422ZM162 11.4222C164.945 11.4222 167.333 9.03441 167.333 6.08889C167.333 3.14336 164.945 0.755542 162 0.755543C159.054 0.755543 156.667 3.14336 156.667 6.08889C156.667 9.03441 159.054 11.4222 162 11.4222ZM163 318.089L163 6.08889L161 6.08889L161 318.089L163 318.089Z" fill="#1f1f1f"/>
<path d="M190.015 320.971C192.916 320.46 194.853 317.694 194.341 314.793C193.83 311.892 191.064 309.955 188.163 310.467C185.262 310.978 183.325 313.744 183.837 316.645C184.348 319.546 187.114 321.483 190.015 320.971ZM135.837 13.7113C138.738 13.1998 140.675 10.4337 140.163 7.53288C139.652 4.6321 136.886 2.6952 133.985 3.20668C131.084 3.71817 129.147 6.48435 129.659 9.38512C130.17 12.2859 132.936 14.2228 135.837 13.7113ZM190.074 315.545L135.896 8.28535L133.926 8.63265L188.104 315.893L190.074 315.545Z" fill="#1f1f1f"/>
<path d="M133.985 320.971C136.886 321.483 139.652 319.546 140.163 316.645C140.675 313.744 138.738 310.978 135.837 310.467C132.936 309.955 130.17 311.892 129.659 314.793C129.147 317.694 131.084 320.46 133.985 320.971ZM188.163 13.7113C191.064 14.2228 193.83 12.2859 194.341 9.38512C194.853 6.48435 192.916 3.71817 190.015 3.20668C187.114 2.6952 184.348 4.6321 183.837 7.53288C183.325 10.4337 185.262 13.1998 188.163 13.7113ZM135.896 315.893L190.074 8.63265L188.104 8.28535L133.926 315.545L135.896 315.893Z" fill="#1f1f1f"/>
<path d="M162 323.423C164.945 323.423 167.333 321.035 167.333 318.089C167.333 315.144 164.945 312.756 162 312.756C159.054 312.756 156.667 315.144 156.667 318.089C156.667 321.035 159.054 323.423 162 323.423ZM162 11.4227C164.945 11.4227 167.333 9.0349 167.333 6.08937C167.333 3.14385 164.945 0.756031 162 0.756031C159.054 0.756031 156.667 3.14385 156.667 6.08937C156.667 9.0349 159.054 11.4227 162 11.4227ZM163 318.089L163 6.08937L161 6.08937L161 318.089L163 318.089Z" fill="#1f1f1f"/>
<path d="M190.015 320.972C192.916 320.46 194.853 317.694 194.341 314.793C193.83 311.893 191.064 309.956 188.163 310.467C185.262 310.979 183.325 313.745 183.837 316.646C184.348 319.546 187.114 321.483 190.015 320.972ZM135.837 13.7118C138.738 13.2003 140.675 10.4341 140.163 7.53337C139.652 4.63259 136.885 2.69569 133.985 3.20717C131.084 3.71866 129.147 6.48484 129.659 9.38561C130.17 12.2864 132.936 14.2233 135.837 13.7118ZM190.074 315.546L135.896 8.28584L133.926 8.63314L188.104 315.893L190.074 315.546Z" fill="#1f1f1f"/>
<path d="M133.985 320.972C136.885 321.483 139.652 319.546 140.163 316.646C140.675 313.745 138.738 310.979 135.837 310.467C132.936 309.956 130.17 311.893 129.659 314.793C129.147 317.694 131.084 320.46 133.985 320.972ZM188.163 13.7118C191.064 14.2233 193.83 12.2864 194.341 9.38561C194.853 6.48484 192.916 3.71866 190.015 3.20717C187.114 2.69569 184.348 4.63259 183.837 7.53337C183.325 10.4341 185.262 13.2003 188.163 13.7118ZM135.896 315.893L190.074 8.63314L188.104 8.28584L133.926 315.546L135.896 315.893Z" fill="#1f1f1f"/>
<path d="M162 323.423C164.945 323.423 167.333 321.035 167.333 318.089C167.333 315.144 164.945 312.756 162 312.756C159.054 312.756 156.667 315.144 156.667 318.089C156.667 321.035 159.054 323.423 162 323.423ZM162 11.4227C164.945 11.4227 167.333 9.0349 167.333 6.08937C167.333 3.14385 164.945 0.756031 162 0.756031C159.054 0.756031 156.667 3.14385 156.667 6.08937C156.667 9.0349 159.054 11.4227 162 11.4227ZM163 318.089L163 6.08937L161 6.08937L161 318.089L163 318.089Z" fill="#1f1f1f"/>
<path d="M190.015 320.972C192.916 320.46 194.853 317.694 194.341 314.793C193.83 311.893 191.064 309.956 188.163 310.467C185.262 310.979 183.325 313.745 183.837 316.646C184.348 319.546 187.114 321.483 190.015 320.972ZM135.837 13.7118C138.738 13.2003 140.675 10.4341 140.163 7.53337C139.652 4.63259 136.885 2.69569 133.985 3.20717C131.084 3.71866 129.147 6.48484 129.659 9.38561C130.17 12.2864 132.936 14.2233 135.837 13.7118ZM190.074 315.546L135.896 8.28584L133.926 8.63314L188.104 315.893L190.074 315.546Z" fill="#1f1f1f"/>
<path d="M133.985 320.972C136.885 321.483 139.652 319.546 140.163 316.646C140.675 313.745 138.738 310.979 135.837 310.467C132.936 309.956 130.17 311.893 129.659 314.793C129.147 317.694 131.084 320.46 133.985 320.972ZM188.163 13.7118C191.064 14.2233 193.83 12.2864 194.341 9.38561C194.853 6.48484 192.916 3.71866 190.015 3.20717C187.114 2.69569 184.348 4.63259 183.837 7.53337C183.325 10.4341 185.262 13.2003 188.163 13.7118ZM135.896 315.893L190.074 8.63314L188.104 8.28584L133.926 315.546L135.896 315.893Z" fill="#1f1f1f"/>
<path d="M162 323.423C164.945 323.423 167.333 321.035 167.333 318.089C167.333 315.144 164.945 312.756 162 312.756C159.054 312.756 156.667 315.144 156.667 318.089C156.667 321.035 159.054 323.423 162 323.423ZM162 11.4227C164.945 11.4227 167.333 9.0349 167.333 6.08937C167.333 3.14385 164.945 0.756031 162 0.756031C159.054 0.756031 156.667 3.14385 156.667 6.08937C156.667 9.0349 159.054 11.4227 162 11.4227ZM163 318.089L163 6.08937L161 6.08937L161 318.089L163 318.089Z" fill="#1f1f1f"/>
<path d="M190.015 320.972C192.916 320.46 194.853 317.694 194.341 314.793C193.83 311.893 191.064 309.956 188.163 310.467C185.262 310.979 183.325 313.745 183.837 316.646C184.348 319.546 187.114 321.483 190.015 320.972ZM135.837 13.7118C138.738 13.2003 140.675 10.4341 140.163 7.53337C139.652 4.63259 136.885 2.69569 133.985 3.20717C131.084 3.71866 129.147 6.48484 129.659 9.38561C130.17 12.2864 132.936 14.2233 135.837 13.7118ZM190.074 315.546L135.896 8.28584L133.926 8.63314L188.104 315.893L190.074 315.546Z" fill="#1f1f1f"/>
<path d="M133.985 320.972C136.885 321.483 139.652 319.546 140.163 316.646C140.675 313.745 138.738 310.979 135.837 310.467C132.936 309.956 130.17 311.893 129.659 314.793C129.147 317.694 131.084 320.46 133.985 320.972ZM188.163 13.7118C191.064 14.2233 193.83 12.2864 194.341 9.38561C194.853 6.48484 192.916 3.71866 190.015 3.20717C187.114 2.69569 184.348 4.63259 183.837 7.53337C183.325 10.4341 185.262 13.2003 188.163 13.7118ZM135.896 315.893L190.074 8.63314L188.104 8.28584L133.926 315.546L135.896 315.893Z" fill="#1f1f1f"/>
<path d="M162 323.423C164.945 323.423 167.333 321.035 167.333 318.089C167.333 315.144 164.945 312.756 162 312.756C159.054 312.756 156.667 315.144 156.667 318.089C156.667 321.035 159.054 323.423 162 323.423ZM162 11.4227C164.945 11.4227 167.333 9.0349 167.333 6.08937C167.333 3.14385 164.945 0.756031 162 0.756031C159.054 0.756031 156.667 3.14385 156.667 6.08937C156.667 9.0349 159.054 11.4227 162 11.4227ZM163 318.089L163 6.08937L161 6.08937L161 318.089L163 318.089Z" fill="#1f1f1f"/>
<path d="M190.015 320.972C192.916 320.46 194.853 317.694 194.341 314.793C193.83 311.893 191.064 309.956 188.163 310.467C185.262 310.979 183.325 313.745 183.837 316.646C184.348 319.546 187.114 321.483 190.015 320.972ZM135.837 13.7118C138.738 13.2003 140.675 10.4341 140.163 7.53337C139.652 4.63259 136.885 2.69569 133.985 3.20717C131.084 3.71866 129.147 6.48484 129.659 9.38561C130.17 12.2864 132.936 14.2233 135.837 13.7118ZM190.074 315.546L135.896 8.28584L133.926 8.63314L188.104 315.893L190.074 315.546Z" fill="#1f1f1f"/>
<path d="M133.985 320.972C136.885 321.483 139.652 319.546 140.163 316.646C140.675 313.745 138.738 310.979 135.837 310.467C132.936 309.956 130.17 311.893 129.659 314.793C129.147 317.694 131.084 320.46 133.985 320.972ZM188.163 13.7118C191.064 14.2233 193.83 12.2864 194.341 9.38561C194.853 6.48484 192.916 3.71866 190.015 3.20717C187.114 2.69569 184.348 4.63259 183.837 7.53337C183.325 10.4341 185.262 13.2003 188.163 13.7118ZM135.896 315.893L190.074 8.63314L188.104 8.28584L133.926 315.546L135.896 315.893Z" fill="#1f1f1f"/>
<path d="M162 323.422C164.945 323.422 167.333 321.034 167.333 318.089C167.333 315.143 164.945 312.756 162 312.756C159.054 312.756 156.667 315.143 156.667 318.089C156.667 321.034 159.054 323.422 162 323.422ZM162 11.4222C164.945 11.4222 167.333 9.03441 167.333 6.08889C167.333 3.14336 164.945 0.755542 162 0.755543C159.054 0.755543 156.667 3.14336 156.667 6.08889C156.667 9.03441 159.054 11.4222 162 11.4222ZM163 318.089L163 6.08889L161 6.08889L161 318.089L163 318.089Z" fill="#1f1f1f"/>
<path d="M190.015 320.971C192.916 320.46 194.853 317.694 194.341 314.793C193.83 311.892 191.064 309.955 188.163 310.467C185.262 310.978 183.325 313.744 183.837 316.645C184.348 319.546 187.114 321.483 190.015 320.971ZM135.837 13.7113C138.738 13.1998 140.675 10.4337 140.163 7.53288C139.652 4.6321 136.885 2.6952 133.985 3.20668C131.084 3.71817 129.147 6.48435 129.658 9.38512C130.17 12.2859 132.936 14.2228 135.837 13.7113ZM190.074 315.545L135.896 8.28535L133.926 8.63265L188.104 315.893L190.074 315.545Z" fill="#1f1f1f"/>
<path d="M133.985 320.971C136.885 321.483 139.652 319.546 140.163 316.645C140.675 313.744 138.738 310.978 135.837 310.467C132.936 309.955 130.17 311.892 129.658 314.793C129.147 317.694 131.084 320.46 133.985 320.971ZM188.163 13.7113C191.064 14.2228 193.83 12.2859 194.341 9.38512C194.853 6.48435 192.916 3.71817 190.015 3.20668C187.114 2.6952 184.348 4.6321 183.837 7.53288C183.325 10.4337 185.262 13.1998 188.163 13.7113ZM135.896 315.893L190.074 8.63265L188.104 8.28535L133.926 315.545L135.896 315.893Z" fill="#1f1f1f"/>
</svg>
