<svg class="fibonacci__spiral2" width="547" height="883" viewBox="0 0 547 883" fill="none" xmlns="http://www.w3.org/2000/svg">
                            <path
                                d="M1.35059 1.39796C145.562 1.39796 283.868 58.7061 385.841 160.715C487.814 262.724 545.102 401.078 545.102 545.341M1.35059 1.39796H545.602M1.35059 1.39796L1.35109 882.028M545.102 545.341C545.102 634.503 509.695 720.013 446.67 783.061C383.645 846.108 298.165 881.527 209.034 881.527M545.102 545.341H1.35059M1.35118 673.772C1.35118 728.873 23.2319 781.716 62.1799 820.678C101.128 859.639 153.953 881.528 209.033 881.528M1.35118 673.772C1.35118 639.71 14.8779 607.043 38.9549 582.958C63.0318 558.872 95.6872 545.341 129.737 545.341V673.772M1.35118 673.772H209.033M129.736 545.342C150.767 545.342 170.936 553.699 185.807 568.575C200.679 583.452 209.033 603.628 209.033 624.666M209.033 624.666C209.033 631.115 207.764 637.5 205.297 643.458C202.83 649.416 199.214 654.829 194.656 659.389C190.098 663.949 184.686 667.566 178.73 670.033C172.775 672.501 166.392 673.771 159.945 673.771M209.033 624.666H129.736M148.617 624.666C146.138 624.666 143.683 625.155 141.392 626.104C139.102 627.053 137.02 628.444 135.267 630.198C133.514 631.952 132.123 634.034 131.174 636.325C130.226 638.617 129.737 641.073 129.737 643.553M148.617 624.666C151.621 624.666 154.502 625.861 156.626 627.986C158.751 630.111 159.944 632.993 159.944 635.998M148.617 624.666V643.553M148.617 635.998H159.945C159.945 638.002 159.149 639.923 157.733 641.34C156.317 642.756 154.396 643.553 152.393 643.553M152.393 635.998V643.553M152.393 643.553C151.897 643.553 151.406 643.455 150.948 643.265C150.49 643.075 150.074 642.797 149.723 642.447C149.372 642.096 149.094 641.679 148.904 641.221C148.715 640.763 148.617 640.272 148.617 639.776H152.393M159.946 643.553L129.738 643.553C129.738 647.522 130.519 651.451 132.037 655.117C133.555 658.784 135.78 662.115 138.586 664.921C141.391 667.727 144.721 669.953 148.386 671.472C152.051 672.99 155.979 673.772 159.946 673.772L159.945 624.666M209.225 545.341V881.719M1.85069 881.528H545.602M545.603 1.39746V882.028M152.399 636.005C151.903 636.005 151.412 636.103 150.954 636.293C150.496 636.483 150.08 636.761 149.729 637.112C149.379 637.462 149.101 637.879 148.911 638.337C148.721 638.795 148.623 639.286 148.623 639.782"
                                stroke="#A07C4A" stroke-width="2.66667" />
                        </svg>