<svg width="325" height="299" viewBox="0 0 325 299" fill="none" xmlns="http://www.w3.org/2000/svg">
<rect x="196" y="75" width="44" height="112" stroke="#F6EEE3" stroke-width="2"/>
<rect x="180.939" y="211.181" width="9.38583" height="9.38583" fill="#F6EEE3"/>
<rect x="162.168" y="211.181" width="9.38583" height="9.38583" fill="#F6EEE3"/>
<rect x="143.396" y="211.181" width="9.38583" height="9.38583" fill="#F6EEE3"/>
<rect x="64.3105" y="211.181" width="9.38583" height="9.38583" fill="#F6EEE3"/>
<rect x="45.5391" y="211.181" width="9.38583" height="9.38583" fill="#F6EEE3"/>
<rect x="26.7676" y="211.181" width="9.38583" height="9.38583" fill="#F6EEE3"/>
<rect x="233.255" y="211.181" width="9.38583" height="9.38583" fill="#F6EEE3"/>
<rect x="214.483" y="211.181" width="9.38583" height="9.38583" fill="#F6EEE3"/>
<rect x="195.712" y="211.181" width="9.38583" height="9.38583" fill="#F6EEE3"/>
<rect x="289.569" y="211.181" width="9.38583" height="9.38583" fill="#F6EEE3"/>
<rect x="270.798" y="211.181" width="9.38583" height="9.38583" fill="#F6EEE3"/>
<rect x="252.026" y="211.181" width="9.38583" height="9.38583" fill="#F6EEE3"/>
<rect x="120.625" y="211.181" width="9.38583" height="9.38583" fill="#F6EEE3"/>
<rect x="101.854" y="211.181" width="9.38583" height="9.38583" fill="#F6EEE3"/>
<rect x="83.082" y="211.181" width="9.38583" height="9.38583" fill="#F6EEE3"/>
<rect x="213.25" y="92.2" width="9.2" height="9.50006" transform="rotate(-90 213.25 92.2)" fill="#F6EEE3"/>
<rect x="213.25" y="147.4" width="9.2" height="9.50006" transform="rotate(-90 213.25 147.4)" fill="#F6EEE3"/>
<rect x="213.25" y="119.8" width="9.2" height="9.50006" transform="rotate(-90 213.25 119.8)" fill="#F6EEE3"/>
<rect x="213.25" y="175" width="9.2" height="9.50006" transform="rotate(-90 213.25 175)" fill="#F6EEE3"/>
<rect x="227.5" y="161.2" width="9.2" height="9.50006" transform="rotate(-90 227.5 161.2)" fill="#F6EEE3"/>
<rect x="199" y="161.2" width="9.2" height="9.50006" transform="rotate(-90 199 161.2)" fill="#F6EEE3"/>
<rect x="199" y="133.6" width="9.2" height="9.50006" transform="rotate(-90 199 133.6)" fill="#F6EEE3"/>
<rect x="199" y="106" width="9.2" height="9.50006" transform="rotate(-90 199 106)" fill="#F6EEE3"/>
<rect x="227.5" y="106" width="9.2" height="9.50006" transform="rotate(-90 227.5 106)" fill="#F6EEE3"/>
<rect x="227.5" y="133.6" width="9.2" height="9.50006" transform="rotate(-90 227.5 133.6)" fill="#F6EEE3"/>
<rect x="92.0791" y="168.386" width="9.38583" height="9.38583" transform="rotate(-90 92.0791 168.386)" fill="#F6EEE3"/>
<rect x="106.157" y="152.386" width="9.38583" height="9.38583" transform="rotate(-90 106.157 152.386)" fill="#F6EEE3"/>
<rect x="106.157" y="186.386" width="9.38583" height="9.38583" transform="rotate(-90 106.157 186.386)" fill="#F6EEE3"/>
<rect x="78" y="186.386" width="9.38583" height="9.38583" transform="rotate(-90 78 186.386)" fill="#F6EEE3"/>
<rect x="78" y="152.386" width="9.38583" height="9.38583" transform="rotate(-90 78 152.386)" fill="#F6EEE3"/>
<rect x="152.169" y="9.38574" width="9.38583" height="9.38583" transform="rotate(-90 152.169 9.38574)" fill="#F6EEE3"/>
<rect x="170.939" y="37.5435" width="9.38583" height="9.38583" fill="#F6EEE3"/>
<rect x="152.168" y="37.5435" width="9.38583" height="9.38583" fill="#F6EEE3"/>
<rect x="133.396" y="37.5435" width="9.38583" height="9.38583" fill="#F6EEE3"/>
<rect x="58.3105" y="37.5435" width="9.38583" height="9.38583" fill="#F6EEE3"/>
<rect x="39.5391" y="37.5435" width="9.38583" height="9.38583" fill="#F6EEE3"/>
<rect x="20.7676" y="37.5435" width="9.38583" height="9.38583" fill="#F6EEE3"/>
<rect x="227.255" y="37.5435" width="9.38583" height="9.38583" fill="#F6EEE3"/>
<rect x="208.483" y="37.5435" width="9.38583" height="9.38583" fill="#F6EEE3"/>
<rect x="189.712" y="37.5435" width="9.38583" height="9.38583" fill="#F6EEE3"/>
<rect x="283.569" y="37.5435" width="9.38583" height="9.38583" fill="#F6EEE3"/>
<rect x="264.798" y="37.5435" width="9.38583" height="9.38583" fill="#F6EEE3"/>
<rect x="246.026" y="37.5435" width="9.38583" height="9.38583" fill="#F6EEE3"/>
<rect x="114.625" y="37.5435" width="9.38583" height="9.38583" fill="#F6EEE3"/>
<rect x="95.8535" y="37.5435" width="9.38583" height="9.38583" fill="#F6EEE3"/>
<rect x="77.082" y="37.5435" width="9.38583" height="9.38583" fill="#F6EEE3"/>
<path d="M58.3105 187.717H255.413" stroke="#F6EEE3" stroke-width="2"/>
<path d="M161.555 11.7322H323.46V44.5826H309.381V213.527H323.46V241.685H161.555V258.11L224.909 298" stroke="#F6EEE3" stroke-width="2"/>
<path d="M161.559 11.7322H1.99955V44.5826H15.8743L16.0737 213.527H2.19901L1.99955 241.685H161.559L161.554 258.11L99.1179 298" stroke="#F6EEE3" stroke-width="2"/>
<rect x="78" y="142" width="37" height="44" stroke="#F6EEE3" stroke-width="2"/>
<rect x="135" y="107" width="44.9291" height="79.0594" stroke="#F6EEE3" stroke-width="2"/>
</svg>
