<svg width="263" height="291" viewBox="0 0 263 291" fill="none" xmlns="http://www.w3.org/2000/svg">
<path d="M29.125 57.25H186.5V261.5H29.125V57.25Z" fill="#A07C4A" stroke="#F6EEE3" stroke-width="2"/>
<path d="M162.258 28.4609L162.495 29.125H163.2H201.563C208.764 29.125 214.626 34.9863 214.626 42.188V276.564C214.626 283.766 208.764 289.627 201.563 289.627H14.063C6.86133 289.627 1 283.765 1 276.564V42.189C1 34.9873 6.86224 29.126 14.063 29.126H52.425H53.13L53.3669 28.4619C55.1732 23.3977 59.9661 19.751 65.625 19.751H79.688H80.688V18.751V14.063C80.688 6.86124 86.5493 1 93.75 1H121.875C129.077 1 134.938 6.86133 134.938 14.062V18.75V19.75H135.938H150C155.659 19.75 160.452 23.3967 162.258 28.4609ZM59.937 46.8769V46.877C59.937 50.0123 62.4897 52.565 65.625 52.565H150.003C153.138 52.565 155.691 50.0123 155.691 46.877V32.814C155.691 29.6787 153.138 27.126 150.003 27.126H127.565V14.063C127.565 10.9277 125.012 8.375 121.877 8.375H93.752C90.6167 8.375 88.064 10.9277 88.064 14.063V27.125H65.626C62.4907 27.125 59.938 29.6777 59.938 32.8129C59.938 32.813 59.938 32.813 59.938 32.813L59.937 46.8769ZM52.563 37.5V36.5H51.563H14.063C10.9277 36.5 8.375 39.0527 8.375 42.188V276.563C8.375 279.704 10.9284 282.251 14.063 282.251H201.563C204.357 282.251 206.689 280.226 207.163 277.563H207.252V276.563V42.188C207.252 39.0527 204.699 36.5 201.564 36.5H164.064H163.064V37.5V46.875C163.064 54.0767 157.202 59.938 150.001 59.938H65.626C58.4243 59.938 52.563 54.0758 52.563 46.875V37.5Z" fill="#A07C4A" stroke="#F6EEE3" stroke-width="2"/>
<path d="M111.313 124.187V125.187H112.313H158.188L158.187 142.937L158.187 143.937H159.187H172.25V174.749H159.187H158.187V175.749V193.499H112.312H111.312V194.499V203.874V204.874H112.312H125.375V235.687H89.875V204.875H102.938H103.938V203.875V186.125H149.813H150.813V185.125V175.75V174.75H149.813H136.75V143.937H149.811H150.811V142.937V133.562V132.562H149.811H112.311H111.311V133.562V142.937V143.937H112.311H125.374V174.75H89.874V143.937H102.937H103.937V142.937V133.562V132.562H102.937H65.437H64.437V133.562V142.937V143.937H65.437H78.5V174.751H43V143.938H56.062H57.062V142.938V125.188H102.939H103.939V124.188V114.813V113.813H102.939H89.876V83H125.376V113.812H112.313H111.313V114.812V124.187ZM98.25 90.375H97.25V91.375V105.437V106.437H98.25H117H118V105.437V91.375V90.375H117H98.25ZM70.125 167.375H71.125V166.375V152.312V151.312H70.125H51.375H50.375V152.312V166.375V167.375H51.375H70.125ZM117 167.375H118V166.375V152.312V151.312H117H98.25H97.25V152.312V166.375V167.375H98.25H117ZM117 228.312H118V227.312V213.249V212.249H117H98.25H97.25V213.249V227.312V228.312H98.25H117ZM163.875 167.375H164.875V166.375V152.312V151.312H163.875H145.125H144.125V152.312V166.375V167.375H145.125H163.875Z" fill="#A07C4A" stroke="#F6EEE3" stroke-width="2"/>
<path d="M245.565 247.438H244.177L244.616 248.754L247.489 257.37L248.439 260.217L249.387 257.37L252.256 248.754L252.694 247.438H251.307H245.565ZM253.126 240.063H254.126V239.063V84.375V83.375H253.126H243.751H242.751V84.375V239.063V240.063H243.751H253.126ZM253.126 76H254.126V75V65.625V64.625H253.126H243.751H242.751V65.625V75V76H243.751H253.126ZM242.751 56.25V57.25H243.751H253.127H254.127V56.25V46.875C254.127 43.7397 251.574 41.187 248.439 41.187C245.304 41.187 242.751 43.7397 242.751 46.875V56.25ZM235.375 46.876C235.375 39.6743 241.237 33.813 248.438 33.813C255.639 33.813 261.501 39.6744 261.501 46.875V56.25V65.625V75V84.375V244.347L248.438 283.535L235.375 244.347V84.375V75V65.626V56.251V46.876Z" fill="#A07C4A" stroke="#F6EEE3" stroke-width="2"/>
</svg>
