<svg width="42" height="42" viewBox="0 0 42 42" fill="none" xmlns="http://www.w3.org/2000/svg">
<path d="M10.8 38.2C13.8 40 17.4 41 21 41C32 41 41 32 41 21C41 10 32 1 21 1C10 1 1 10 1 21C1 24.6 2 28 3.6 31L1.88 37.612C1.79126 37.9533 1.79437 38.3121 1.88899 38.6518C1.98362 38.9916 2.16641 39.3003 2.41883 39.5466C2.67124 39.7929 2.9843 39.9681 3.32626 40.0544C3.66823 40.1407 4.02693 40.135 4.366 40.038L10.8 38.2Z" fill="#141519" stroke="#141519" stroke-width="1.5" stroke-miterlimit="10" stroke-linecap="round" stroke-linejoin="round"/>
<path d="M29.9999 26.696C29.9999 27.02 29.9279 27.354 29.7739 27.678C29.6167 28.0128 29.4105 28.3222 29.1619 28.596C28.7199 29.082 28.2339 29.432 27.6819 29.658C27.1419 29.884 26.5559 30 25.9259 30C25.0059 30 24.0239 29.784 22.9859 29.344C21.8885 28.8682 20.8486 28.2698 19.8859 27.56C18.8389 26.7952 17.8507 25.9528 16.9299 25.04C16.0188 24.1242 15.1784 23.1407 14.4159 22.098C13.7151 21.1437 13.1222 20.1148 12.6479 19.03C12.2159 18 11.9999 17.02 11.9999 16.086C11.9999 15.474 12.1079 14.89 12.3239 14.35C12.5399 13.8 12.8839 13.296 13.3619 12.846C13.9379 12.278 14.5679 12 15.2359 12C15.4879 12 15.7399 12.054 15.9659 12.162C16.1999 12.27 16.4059 12.432 16.5699 12.666L18.6619 15.61C18.8219 15.834 18.9419 16.042 19.0219 16.24C19.1019 16.428 19.1479 16.618 19.1479 16.788C19.1453 17.0148 19.0795 17.2365 18.9579 17.428C18.819 17.6621 18.6495 17.8767 18.4539 18.066L17.7679 18.778C17.7202 18.8247 17.6827 18.8808 17.6579 18.9428C17.6331 19.0048 17.6215 19.0713 17.6239 19.138C17.6239 19.208 17.6339 19.272 17.6519 19.344C17.6779 19.416 17.7059 19.47 17.7239 19.524C17.8839 19.822 18.1639 20.208 18.5619 20.676C18.9679 21.144 19.3999 21.622 19.8679 22.098C20.3559 22.576 20.8239 23.016 21.3019 23.422C21.7699 23.816 22.1579 24.086 22.4639 24.248L22.6279 24.322C22.6997 24.3476 22.7756 24.3598 22.8519 24.358C22.9209 24.3595 22.9894 24.3466 23.0531 24.32C23.1168 24.2935 23.1743 24.254 23.2219 24.204L23.9059 23.528C24.1319 23.304 24.3479 23.134 24.5559 23.024C24.7472 22.9021 24.9691 22.8369 25.1959 22.836C25.3852 22.8388 25.5721 22.8789 25.7459 22.954C25.9439 23.034 26.1519 23.15 26.3759 23.304L29.3599 25.42C29.5761 25.5607 29.7481 25.7597 29.8559 25.994C29.9494 26.2163 29.9983 26.4548 29.9999 26.696Z" fill="#FAFBFF" stroke="#141519" stroke-width="1.5" stroke-miterlimit="10"/>
</svg>
