<svg width="30" height="30" viewBox="0 0 30 30" fill="none" xmlns="http://www.w3.org/2000/svg">
<path d="M6.54297 3.55176C6.54297 3.82676 6.31797 4.05176 6.04297 4.05176C5.76797 4.05176 5.54297 3.82676 5.54297 3.55176C5.54297 3.27676 5.76797 3.05176 6.04297 3.05176C6.31797 3.05176 6.54297 3.27576 6.54297 3.55176Z" fill="#ffffff"/>
<path d="M14.737 30C6.474 30 0 23.411 0 15C0 11.371 1.237 7.889 3.485 5.196C3.663 4.984 3.977 4.957 4.189 5.133C4.401 5.31 4.43 5.625 4.253 5.837C2.155 8.35 1 11.604 1 15C1 22.851 7.034 29 14.737 29C22.602 29 29 22.72 29 15C29 7.28 22.602 1 14.737 1C12.297 1 9.924 1.62 7.879 2.792C7.642 2.925 7.334 2.846 7.197 2.606C7.06 2.366 7.143 2.061 7.383 1.923C9.579 0.665 12.122 0 14.737 0C23.153 0 30 6.729 30 15C30 23.271 23.153 30 14.737 30Z" fill="#ffffff"/>
<path d="M18.5502 23.018C18.4392 23.018 18.3262 22.981 18.2342 22.905L12.4712 18.184C12.3582 18.092 12.2912 17.955 12.2872 17.809C12.2842 17.663 12.3442 17.524 12.4522 17.426L16.7292 13.566C16.9342 13.379 17.2502 13.397 17.4352 13.602C17.6212 13.807 17.6042 14.123 17.3992 14.308L13.5532 17.778L18.8662 22.131C19.0802 22.306 19.1112 22.621 18.9362 22.835C18.8382 22.955 18.6942 23.018 18.5502 23.018Z" fill="#ffffff"/>
<path d="M19.157 23.2041C18.892 23.2041 18.607 23.1211 18.308 22.9561L15.022 20.3151L13.338 21.8681C13.104 22.0971 12.818 22.3751 12.249 22.3751C11.549 22.3751 11.386 22.0061 11.279 21.6271C11.26 21.5621 11.239 21.4861 11.208 21.3991L10.002 17.4301L6.54603 16.3521C5.73203 16.1021 5.62303 15.6031 5.61403 15.4011C5.60003 15.0651 5.77503 14.5861 6.68803 14.2201L21.536 8.49107C21.961 8.32507 22.46 8.45907 22.748 8.81407C22.951 9.06307 23.029 9.38707 22.963 9.70307L20.398 21.9781C20.168 23.0841 19.453 23.2041 19.157 23.2041ZM15 19.1551C15.111 19.1551 15.222 19.1921 15.313 19.2661L18.863 22.1281C19.322 22.3471 19.363 22.0431 19.42 21.7741L21.985 9.50007L21.922 9.41907L7.05603 15.1511C6.88103 15.2211 6.76603 15.2901 6.69603 15.3411C6.73303 15.3591 6.78203 15.3781 6.84303 15.3971L10.554 16.5551C10.711 16.6051 10.835 16.7291 10.883 16.8871L12.157 21.0831C12.19 21.1711 12.218 21.2711 12.242 21.3551C12.244 21.3611 12.246 21.3681 12.247 21.3741C12.38 21.3731 12.45 21.3371 12.635 21.1561L14.661 19.2861C14.757 19.2001 14.878 19.1551 15 19.1551Z" fill="#ffffff"/>
</svg>
