<svg width="147" height="255" viewBox="0 0 147 255" fill="none" xmlns="http://www.w3.org/2000/svg">
<path d="M70.3043 67.5645H69.3043V68.5645V89.6277C69.3043 91.3792 68.8407 92.5666 68.0487 93.3638C67.226 94.1918 66.0823 94.6458 64.4697 94.6458C62.8384 94.6458 61.6781 94.1724 60.8771 93.3501C60.0748 92.5265 59.6144 91.3312 59.6144 89.6277V68.5437V67.5437H58.6144H48.0173H47.0173V68.5437V89.1504C47.0173 90.9766 47.3704 93.0271 48.049 95.2897L48.0493 95.2907C48.5064 96.8088 49.3221 98.2569 50.5129 99.6347C51.684 101.034 52.9981 102.09 54.4318 102.857L54.4318 102.857L54.4427 102.863C55.8939 103.616 57.6666 104.12 59.7369 104.359C61.7427 104.59 63.5967 104.718 65.315 104.718C68.2822 104.718 70.8818 104.335 73.0862 103.514L73.0903 103.512C74.7296 102.894 76.2492 101.872 77.6937 100.418L77.6991 100.412C79.1399 98.9399 80.2087 97.2374 80.897 95.2705L80.8992 95.2643C81.5536 93.3539 81.9015 91.3144 81.9015 89.1711V68.5645V67.5645H80.9015H70.3043ZM88.3443 67.5645H87.3443V68.5645V103.137V104.137H88.3443H99.0034H100.003V103.137V68.5645V67.5645H99.0034H88.3443ZM17.4112 208.931V194.055H63.6965V208.91V209.91H64.6965H78.5306H79.5306V208.91V194.035H129.609V208.91V209.91H130.609H140.856H141.856V208.91V36.98V35.98H140.856H6.16452H5.16452V36.98V208.931V209.931H6.16452H16.4112H17.4112V208.931ZM6.16452 214.115H5.16452V215.115V229.06C5.16452 234.771 7.48219 239.921 11.2316 243.61C14.9724 247.374 20.0868 249.712 25.6889 249.712H121.311C126.991 249.712 132.111 247.377 135.776 243.602C139.515 239.837 141.835 234.692 141.835 229.06V215.115H140.856V214.115H140.835H139.835H6.16452ZM5.16452 30.6921V31.6921H6.16452H140.856H141.856V30.6921V25.8569C141.856 20.1461 139.538 14.9959 135.789 11.3069C132.048 7.54346 126.934 5.20483 121.332 5.20483H25.6889C20.0088 5.20483 14.889 7.54046 11.2238 11.3147C7.48514 15.0799 5.16452 20.2246 5.16452 25.8569V30.6921ZM17.4112 52.3818H129.589V170.494H17.4112V52.3818ZM25.6889 1H121.311C128.105 1 134.306 3.79059 138.765 8.27926C143.225 12.768 146 19.0127 146 25.8569V229.143C146 235.987 143.225 242.232 138.765 246.721C134.306 251.209 128.105 254 121.311 254H25.6889C18.8952 254 12.6942 251.209 8.23465 246.721C3.77504 242.232 1 235.987 1 229.143V25.8569C1 19.0127 3.77504 12.768 8.23465 8.27926C12.6942 3.79059 18.8952 1 25.6889 1ZM59.6659 233.497C58.5371 233.497 57.5527 232.564 57.5527 231.364C57.5527 230.211 58.489 229.23 59.6659 229.23H87.932C89.0608 229.23 90.0452 230.163 90.0452 231.364C90.0452 232.516 89.1089 233.497 87.932 233.497H59.6659ZM73.5 14.4058C75.6837 14.4058 77.4481 16.1723 77.4481 18.3862C77.4481 20.6001 75.6837 22.3667 73.5 22.3667C71.3163 22.3667 69.5519 20.6001 69.5519 18.3862C69.5519 16.1723 71.3163 14.4058 73.5 14.4058Z" fill="transparent" stroke="#F6EEE3" stroke-width="2"/>
</svg>
