<svg width="147" height="255" viewBox="0 0 147 255" fill="none" xmlns="http://www.w3.org/2000/svg">
<path d="M70.3193 144.933C70.9787 143.074 71.3043 141.072 71.3043 138.997V118.992V117.992H70.3043H60.0164H59.9958H58.9958V118.992V139.474C58.9958 141.158 58.5346 142.325 57.7844 143.082C56.9995 143.854 55.8717 144.305 54.3261 144.305C52.7563 144.305 51.6374 143.852 50.8573 143.051C50.0927 142.265 49.6358 141.109 49.6358 139.474V118.992V117.992H48.6358H38.3478H37.3478V118.992V138.997C37.3478 140.758 37.6793 142.745 38.3381 144.948L38.3403 144.956L38.3425 144.963C38.7981 146.407 39.589 147.831 40.7412 149.17C41.8675 150.503 43.1397 151.541 44.5588 152.289C45.9772 153.049 47.7136 153.531 49.7133 153.769C51.6587 154 53.4726 154.129 55.1508 154.129C58.0383 154.129 60.5756 153.745 62.7167 152.945L62.7169 152.945C64.3191 152.346 65.7981 151.343 67.1996 149.932C68.6263 148.496 69.6529 146.833 70.3193 144.933ZM70.3193 144.933C70.3196 144.932 70.3199 144.931 70.3202 144.931L69.3766 144.6L70.319 144.934C70.3191 144.934 70.3192 144.934 70.3193 144.933ZM17.4112 208.931V194.055H63.6965V208.91V209.91H64.6965H78.5306H79.5306V208.91V194.035H129.609V208.91V209.91H130.609H140.856H141.856V208.91V36.98V35.98H140.856H6.16452H5.16452V36.98V208.931V209.931H6.16452H16.4112H17.4112V208.931ZM6.16452 214.115H5.16452V215.115V229.06C5.16452 234.771 7.48219 239.921 11.2316 243.61C14.9724 247.374 20.0868 249.712 25.6889 249.712H121.311C126.991 249.712 132.111 247.377 135.776 243.602C139.515 239.837 141.835 234.692 141.835 229.06V215.115H140.856V214.115H140.835H139.835H6.16452ZM5.16452 30.6921V31.6921H6.16452H140.856H141.856V30.6921V25.8569C141.856 20.1461 139.538 14.9959 135.789 11.3069C132.048 7.54346 126.934 5.20483 121.332 5.20483H25.6889C20.0088 5.20483 14.889 7.54046 11.2238 11.3147C7.48514 15.0799 5.16452 20.2246 5.16452 25.8569V30.6921ZM74.8195 117.992H72.9729L73.982 119.538L84.1182 135.072L72.9737 152.019L71.9548 153.568H73.8093H85.293H85.8537L86.1462 153.09L91.8864 143.701L97.5707 153.086L97.8626 153.568H98.4261H110.034H111.884L110.87 152.02L99.8847 135.254L109.908 119.529L110.888 117.992H109.065H97.8282H97.2393L96.9537 118.507L92.0827 127.289L87.0473 118.495L86.7593 117.992H86.1795H74.8195ZM17.4112 52.3818H129.589V170.494H17.4112V52.3818ZM25.6889 1H121.311C128.105 1 134.306 3.79059 138.765 8.27926C143.225 12.768 146 19.0127 146 25.8569V229.143C146 235.987 143.225 242.232 138.765 246.721C134.306 251.209 128.105 254 121.311 254H25.6889C18.8952 254 12.6942 251.209 8.23465 246.721C3.77504 242.232 1 235.987 1 229.143V25.8569C1 19.0127 3.77504 12.768 8.23465 8.27926C12.6942 3.79059 18.8952 1 25.6889 1ZM59.6659 233.497C58.5371 233.497 57.5527 232.564 57.5527 231.364C57.5527 230.211 58.489 229.23 59.6659 229.23H87.932C89.0608 229.23 90.0452 230.163 90.0452 231.364C90.0452 232.516 89.1089 233.497 87.932 233.497H59.6659ZM73.5 14.4058C75.6837 14.4058 77.4481 16.1723 77.4481 18.3862C77.4481 20.6001 75.6837 22.3667 73.5 22.3667C71.3163 22.3667 69.5519 20.6001 69.5519 18.3862C69.5519 16.1723 71.3163 14.4058 73.5 14.4058Z" fill="#A07C4A" stroke="#F6EEE3" stroke-width="2"/>
</svg>
