<svg width="110" height="109" viewBox="0 0 110 109" fill="none" xmlns="http://www.w3.org/2000/svg">
<path d="M48.7601 7.06026C48.7601 3.67462 51.5539 0.92981 55 0.92981C58.4461 0.92981 61.2399 3.67462 61.2399 7.06026V40.1654L85.0667 16.7568C87.5033 14.363 91.4538 14.363 93.8904 16.7568C96.3269 19.1506 96.3269 23.0318 93.8904 25.4256L70.0638 48.8344H103.76C107.206 48.8344 110 51.5793 110 54.9649C110 58.3505 107.206 61.0953 103.76 61.0953H70.0638L93.8904 84.5041C96.3269 86.8979 96.3269 90.7792 93.8904 93.173C91.4538 95.5668 87.5033 95.5668 85.0667 93.173L61.2399 69.7644V102.87C61.2399 106.255 58.4461 109 55 109C51.5539 109 48.7601 106.255 48.7601 102.87V69.7644L24.9333 93.173C22.4967 95.5668 18.5462 95.5668 16.1096 93.173C13.6731 90.7792 13.6731 86.8979 16.1096 84.5041L39.9362 61.0953H6.23992C2.79383 61.0953 0 58.3505 0 54.9649C0 51.5793 2.79383 48.8344 6.23992 48.8344H39.9362L16.1096 25.4256C13.6731 23.0318 13.6731 19.1506 16.1096 16.7568C18.5462 14.363 22.4967 14.363 24.9333 16.7568L48.7601 40.1654V7.06026Z" fill="#141519"/>
<path d="M99.001 27.75C99.001 10.5 86.251 0.749995 64.201 0.749995H18.151V108H66.751C88.951 108 103.201 97.35 103.201 76.65C103.201 60.6 93.601 52.35 82.351 50.4V50.1C91.201 47.1 99.001 40.95 99.001 27.75ZM36.001 45.15V15.9H64.651C75.301 15.9 81.151 21.15 81.151 30.6C81.151 40.05 76.351 45.15 63.601 45.15H36.001ZM36.001 58.5H67.351C78.601 58.5 85.351 64.65 85.351 75.6C85.351 85.65 80.701 92.85 65.401 92.85H36.001V58.5Z" fill="#141519"/>
</svg>
