<svg
       style="color:#141519;display:inline;fill:#141519;stroke-width:1;stroke-linecap:round;stroke-linejoin:round;-inkscape-stroke:none"
       d="m 12.682335,276.49111 c 0.801033,0.43318 1.398821,1.43783 1.387589,2.54349 -7.33e-4,0.18327 0.146702,0.33273 0.329975,0.33453 0.18379,0.001 0.33434,-0.14554 0.336485,-0.32933 0.01366,-1.34537 -0.68909,-2.56601 -1.739042,-3.13379 -0.686773,-0.33018 -1.309606,-0.36625 -1.925183,-0.21282 -0.737772,-0.21998 -1.370523,-0.30497 -1.9232305,-0.30069 -0.2598022,0.003 -0.5015786,0.0238 -0.72894,0.0605 -0.7275564,0.11738 -1.3026202,0.39035 -1.8203974,0.66451 -1.0298021,0.54525 -1.803202,1.06592 -3.5242945,0.60462 -0.3266052,-0.0875 -0.5432985,0.23356 -0.3869227,0.50441 0.4427801,0.65853 1.0702727,1.22576 1.7940389,1.54444 -0.5311946,0.0951 -1.0919098,0.10643 -1.7543371,-0.0544 -0.3243184,-0.0869 -0.4758973,0.21099 -0.418815,0.42403 0.2846694,0.85401 0.9541558,1.27593 1.5620142,1.57373 -0.081222,0.0933 -0.1456584,0.20193 -0.1880944,0.32022 h -0.057925 c -0.9162481,0 -1.6648469,0.74923 -1.6648469,1.66549 0,0.91624 0.7485988,1.66745 1.6648469,1.66745 h 0.058576 c 0.1393215,0.38566 0.5119547,0.6645 0.9430658,0.6645 h 0.3319282 c 0,0.36414 0.3023437,0.66647 0.6664595,0.66647 h 0.3319281 v 0.66646 c 0,0.79163 0.4963506,1.52124 1.1344128,2.06901 0.2185924,0.18766 0.4558916,0.35615 0.704208,0.49659 l -0.00326,1.21251 -4.3762317,1.8575 c -0.6801962,0.28858 -1.1239993,0.9585 -1.1239993,1.69739 v 1.6655 H 1.9604126 c -0.1842919,-10e-4 -0.3344654,0.14763 -0.3351822,0.33193 -7.264e-4,0.18531 0.1498724,0.33562 0.3351822,0.33453 H 17.287674 c 0.185056,7.3e-4 0.335255,-0.14948 0.334531,-0.33453 -7.33e-4,-0.18405 -0.150493,-0.33265 -0.334531,-0.33193 h -0.331929 v -0.80183 c 0.636893,-0.1271 1.220537,-0.2905 1.733836,-0.48488 0.659713,-0.24981 1.204323,-0.54963 1.603669,-0.91053 0.350783,-0.35472 0.6593,-0.69854 0.6593,-1.124 v -4.16927 c 0,-0.49019 -0.257979,-0.9363 -0.656697,-1.30102 -0.398719,-0.36474 -0.943892,-0.67022 -1.603668,-0.9255 -0.662791,-0.25644 -1.487216,-0.45587 -2.336512,-0.59552 -0.264879,-0.0516 -0.40158,0.10643 -0.40158,0.32805 v 3.03032 c 6.66e-4,0.16566 0.122947,0.30569 0.28702,0.32866 h 6.66e-4 c 8.67e-4,2.3e-4 0.0018,4.3e-4 0.0026,6.7e-4 0.933271,0.14947 1.759178,0.37781 2.413963,0.6541 -1.591984,0.6631 -3.548544,0.845 -5.036195,0.85389 -0.241046,0 -0.331927,0.14019 -0.331927,0.33193 v 0.33453 l -1.832764,-0.76994 -0.0039,-1.21382 c 0.247755,-0.14026 0.484767,-0.30801 0.702906,-0.49529 0.638062,-0.54777 1.133762,-1.27737 1.133762,-2.06901 v -0.66647 h 0.331928 c 0.364116,0 0.666455,-0.30233 0.66646,-0.66645 h 0.335181 c 0.431102,0 0.801132,-0.27886 0.939813,-0.66451 h 0.05858 c 0.916239,0 1.665498,-0.75121 1.665498,-1.66745 0,-0.91625 -0.749259,-1.6655 -1.665498,-1.6655 h -0.05792 c -0.138109,-0.38668 -0.508608,-0.66646 -0.940462,-0.66646 H 14.28857 c -5e-6,-0.36412 -0.302342,-0.6671 -0.666459,-0.6671 H 11.9573 v -0.33197 c 4e-6,-0.54818 -0.453473,-1.00099 -1.001641,-1.001 H 8.2917732 c -0.5481686,0 -1.0009944,0.45282 -1.0009908,1.001 v 0.33193 H 5.6252847 c -0.3641158,0 -0.6664594,0.30297 -0.6664594,0.6671 H 4.7010928 c -0.534637,-0.25671 -1.0816809,-0.47152 -1.4435612,-0.88514 1.0876382,0.10642 2.2001939,-0.21933 2.8057679,-0.46535 0.4461242,-0.17988 0.1733561,-0.67246 -0.158836,-0.64503 -0.7326517,0.0584 -1.4913824,-0.29268 -2.0839561,-0.83954 1.3633798,0.12507 2.2576574,-0.38771 3.0888832,-0.82786 0.8658628,-0.45845 1.6816914,-0.86202 3.2144954,-0.56233 -0.2568985,0.17689 -0.5086636,0.39913 -0.7497671,0.67037 -0.1232612,0.13827 -0.110105,0.35051 0.029287,0.4725 0.1379087,0.12154 0.3481508,0.10844 0.4699059,-0.0293 0.4094492,-0.46063 0.8150972,-0.74516 1.2785742,-0.91574 0.597629,-0.17739 1.092384,-0.0865 1.530449,0.15034 z m -4.3905618,2.54349 h 2.6638858 c 0.187985,0 0.334532,0.14655 0.334531,0.33453 v 0.33193 H 7.9572417 v -0.33193 c -1.2e-6,-0.18798 0.1465462,-0.33453 0.3345315,-0.33453 z m -2.6664885,1.33357 h 7.9968623 v 0.33193 3.99941 0.33257 h -2.666488 c -0.399512,0 -0.556218,-0.99904 -1.3303164,-0.99904 -0.7740985,0 -1.0111304,0.99904 -1.3335694,0.99904 H 5.6252847 v -0.33257 -3.99941 z m -0.9983876,0.66646 h 0.3319282 v 3.33295 H 4.6268971 c -0.1879865,0 -0.3351824,-0.14655 -0.335182,-0.33454 v -2.66648 c -4e-7,-0.188 0.1471955,-0.33193 0.335182,-0.33193 z m 1.9967752,0 c -0.1830225,6.9e-4 -0.3312147,0.14891 -0.3319282,0.33193 -7.331e-4,0.18403 0.14789,0.3338 0.3319282,0.33452 h 1.0016414 c 0.184038,-7.3e-4 0.3326482,-0.15049 0.331928,-0.33452 -6.997e-4,-0.18302 -0.1489056,-0.33122 -0.331928,-0.33193 z m 2.3345602,0 c -0.1840381,-7.4e-4 -0.3338138,0.14789 -0.3345313,0.33193 -7.332e-4,0.18505 0.1494755,0.33525 0.3345313,0.33452 H 11.29019 c 0.184038,-7.3e-4 0.332648,-0.15049 0.331928,-0.33452 -7.13e-4,-0.18302 -0.148906,-0.33122 -0.331928,-0.33193 z m 5.3303735,0 h 0.335183 c 0.187984,0 0.331928,0.14394 0.331928,0.33193 v 2.66648 c 0,0.18799 -0.143944,0.33454 -0.331928,0.33454 h -0.335183 z m -1.664196,6.6e-4 c -0.183022,7e-4 -0.331214,0.1489 -0.331928,0.33192 3.67e-4,0.18329 0.148653,0.33187 0.331928,0.33259 0.183276,-7.3e-4 0.331572,-0.14932 0.331929,-0.3326 -7e-4,-0.18302 -0.148906,-0.33121 -0.331929,-0.33193 z m -8.9991543,0.66579 v 2.00003 c -0.5560738,0 -0.9983875,-0.44492 -0.9983875,-1.00098 0,-0.55607 0.4423137,-0.99905 0.9983875,-0.99905 z m 11.9969203,0 c 0.55606,0 0.998388,0.44298 0.998388,0.99905 0,0.55606 -0.442328,1.00098 -0.998388,1.00098 z m -8.9985037,0.66646 c -0.1832754,7.2e-4 -0.3315716,0.1493 -0.3319282,0.33259 -7.331e-4,0.18403 0.14789,0.3338 0.3319282,0.33452 h 3.3335985 c 0.1850562,7.3e-4 0.3352552,-0.14947 0.3345312,-0.33452 -3.58e-4,-0.1843 -0.15024,-0.3333 -0.3345312,-0.33259 z m 4.6665177,0 c -0.184292,-7.3e-4 -0.334173,0.14829 -0.334531,0.33259 -7.33e-4,0.18505 0.149475,0.33525 0.334531,0.33452 h 1.33357 c 0.184038,-7.3e-4 0.332648,-0.15049 0.331928,-0.33452 -3.67e-4,-0.18329 -0.148653,-0.33187 -0.331928,-0.33259 z m -4.6665177,1.33357 c -0.1830225,7e-4 -0.3312147,0.14891 -0.3319282,0.33193 -7.331e-4,0.18403 0.14789,0.33382 0.3319282,0.33454 h 1.3335694 c 0.1850559,7.3e-4 0.3352555,-0.14949 0.3345315,-0.33454 C 8.29104,283.849 8.1412799,283.7004 7.9572417,283.70111 Z m 4.6665177,0 c -0.184038,-7.3e-4 -0.333814,0.14789 -0.334531,0.33193 -7.33e-4,0.18505 0.149475,0.33526 0.334531,0.33454 h 1.33357 c 0.184038,-7.5e-4 0.332648,-0.15051 0.331928,-0.33454 -7e-4,-0.18302 -0.148906,-0.33121 -0.331928,-0.33193 z m -1.6648474,0.9984 c 0.6059924,0.008 0.6196604,0.99903 1.3303164,0.99903 h 1.668101 v 0.66646 c 0,0.49663 -0.361357,1.10154 -0.900762,1.56462 -0.539404,0.46309 -1.240374,0.76994 -1.7657272,0.76994 H 9.2901606 c -0.5253526,0 -1.2263223,-0.30685 -1.7657269,-0.76994 -0.5394046,-0.46308 -0.9007614,-1.06799 -0.9007614,-1.56462 v -0.66646 h 1.6681009 c 0.7058264,0 0.7275776,-1.00648 1.3335694,-0.99903 z m 6.9952214,1.07452 c 0.680925,0.12916 1.324634,0.29971 1.83016,0.49529 0.606579,0.2347 1.085249,0.51091 1.394748,0.79402 0.309498,0.28312 0.443221,0.55219 0.443221,0.80965 0,0.61462 -0.455448,0.83847 -0.88384,1.13571 -0.736974,-0.38554 -1.689078,-0.68457 -2.784289,-0.88058 z m 3.668129,3.40455 v 2.69186 c 0,0.25746 -0.131747,0.52271 -0.440618,0.80184 -0.308871,0.27914 -0.788105,0.54998 -1.394748,0.7797 -1.141654,0.43232 -2.731029,0.71696 -4.496649,0.74913 v -3.29065 c 1.834582,-0.0326 3.491088,-0.33208 4.735507,-0.81355 0.655862,-0.25376 1.198427,-0.55648 1.596508,-0.91833 z m -11.8322575,0.0462 c 0.2765364,0.0906 0.5571448,0.14124 0.8337251,0.14124 h 0.6671102 c 0.2764372,0 0.5573272,-0.0501 0.8337252,-0.1406 v 0.97887 l -1.1669549,0.93331 -1.1676056,-0.93526 z m 10.8065355,1.52361 c -0.234166,0.13184 -0.506318,0.25678 -0.809644,0.37164 -0.303305,0.11486 -0.639464,0.22026 -1.00099,0.31239 -0.178874,0.0453 -0.286836,0.22743 -0.240811,0.40612 0.04652,0.1775 0.227783,0.28399 0.405473,0.23822 0.383043,-0.0976 0.742708,-0.20701 1.072582,-0.33193 0.329851,-0.12494 0.631254,-0.26452 0.900112,-0.41588 0.158997,-0.0907 0.21508,-0.29265 0.125617,-0.45234 -0.0943,-0.16332 -0.29108,-0.22132 -0.452333,-0.12822 z m -8.085376,6.7e-4 0.588358,0.24731 -1.125301,1.467 -0.568183,-0.83178 z m -3.1058055,6.6e-4 1.1031726,0.8819 -0.5655795,0.82916 -1.1246502,-1.46179 z m 4.3293835,0.51352 0.889047,0.37358 v 2.90014 c 0,0.22817 0.120642,0.33453 0.331927,0.33453 0.941147,0 1.840276,-0.068 2.666489,-0.1933 v 0.68533 H 9.9572708 v -2.7192 l 0.3911542,0.57404 c 0.127992,0.18608 0.400108,0.19365 0.538245,0.015 z m -5.5510089,0.005 1.5105979,1.96552 c 0.138117,0.17928 0.4109438,0.17172 0.538895,-0.015 l 0.3905036,-0.57339 v 2.71855 h -3.996804 v -0.99906 c 7.242e-4,-0.18506 -0.1494756,-0.33526 -0.3345313,-0.33453 -0.1840382,7.3e-4 -0.3326482,0.15049 -0.3319282,0.33453 v 0.99904 H 2.9587964 v -1.6655 c 0,-0.47325 0.2828756,-0.90013 0.7185265,-1.08495 z m 8.1055529,0.27006 c -0.183275,6.9e-4 -0.331571,0.1493 -0.331928,0.33257 -7.33e-4,0.18405 0.14789,0.33382 0.331928,0.33454 h 0.998387 c 0.185056,7.3e-4 0.335256,-0.14947 0.334532,-0.33454 -3.67e-4,-0.18428 -0.15024,-0.33329 -0.334532,-0.33257 z m 0,1.33357 c -0.183023,6.9e-4 -0.331215,0.14891 -0.331928,0.33193 -7.33e-4,0.18403 0.14789,0.33382 0.331928,0.33452 h 1.664847 c 0.185309,10e-4 0.335908,-0.14922 0.335181,-0.33452 -7.33e-4,-0.1843 -0.150889,-0.33301 -0.335181,-0.33193 z m -2.998417,1.17086 c -0.184292,-0.001 -0.334465,0.14764 -0.335182,0.33193 -7.33e-4,0.1853 0.149873,0.33562 0.335182,0.33452 h 0.331928 c 0.185056,7.5e-4 0.335256,-0.14947 0.334532,-0.33452 -7.33e-4,-0.18404 -0.150494,-0.33265 -0.334532,-0.33193 z"
        />
</svg>
