<svg width="28" height="28" viewBox="0 0 28 28" fill="none" xmlns="http://www.w3.org/2000/svg">
<path d="M18.14 28H9.86C2.027 28 0 25.973 0 18.14V9.86C0 2.027 2.027 0 9.86 0H18.139C25.973 0 28 2.027 28 9.86V18.14C28 25.973 25.973 28 18.14 28ZM9.86 1C2.573 1 1 2.573 1 9.86V18.14C1 25.427 2.573 27 9.86 27H18.139C25.426 27 26.999 25.427 26.999 18.14V9.86C27 2.573 25.427 1 18.14 1H9.86Z" fill="#ffffff"/>
<path d="M23.2189 20.8761H21.0309C20.2209 20.8761 19.8149 20.4231 19.1399 19.6731C18.8739 19.3781 18.5479 19.0151 18.1149 18.5811C16.9209 17.4301 16.4149 17.3141 16.2289 17.3141C16.2219 17.3631 16.2159 17.4411 16.2159 17.5631V19.5251C16.2159 20.6461 15.3919 20.8761 14.1529 20.8761C11.5569 20.8761 8.90888 19.2991 7.06888 16.6581C4.41888 12.9431 3.52588 9.92309 3.52588 9.11609C3.52588 8.40509 3.98188 7.99709 4.77588 7.99709H6.96388C7.92388 7.99709 8.21688 8.61009 8.41588 9.18409C9.40088 12.0551 10.8529 14.1941 11.4569 14.6211C11.4619 14.5561 11.4659 14.4701 11.4659 14.3541V11.1321C11.4249 10.4031 11.1829 10.1031 10.9689 9.83909C10.7939 9.62309 10.5959 9.37809 10.5959 9.00009C10.5959 8.51809 10.9999 7.99709 11.6529 7.99709H15.0909C15.6049 7.99709 16.2159 8.22309 16.2159 9.30109V13.6361C16.2159 13.6561 16.2169 13.6741 16.2179 13.6911C16.3309 13.6131 16.4919 13.4661 16.7229 13.2361C18.2019 11.5811 19.2919 8.95209 19.3029 8.92509C19.5639 8.31509 20.0519 7.99609 20.7179 7.99609H22.9059C23.3789 7.99609 23.7239 8.13809 23.9309 8.41609C24.0689 8.60109 24.2009 8.93009 24.0469 9.44409C23.7649 10.7431 21.3099 14.2271 21.0299 14.6201C21.0089 14.6551 20.9239 14.7931 20.9129 14.8401C20.9159 14.8401 20.9339 14.8891 21.0169 14.9971C21.1179 15.1361 21.3669 15.3801 21.6079 15.6171C21.9059 15.9091 22.2429 16.2401 22.5109 16.5571C23.6909 17.8841 24.2539 18.6791 24.4509 19.2911C24.6149 19.8571 24.4699 20.2131 24.3179 20.4141C24.1629 20.6261 23.8449 20.8761 23.2189 20.8761ZM16.2889 16.3131C16.7409 16.3131 17.3949 16.4981 18.8149 17.8671C19.2709 18.3231 19.6089 18.6981 19.8839 19.0041C20.5379 19.7331 20.6969 19.8761 21.0299 19.8761H23.2179C23.4249 19.8761 23.5089 19.8291 23.5199 19.8161C23.5199 19.8161 23.5449 19.7551 23.4959 19.5861C23.3119 19.0141 22.4699 18.0171 21.7569 17.2141C21.4999 16.9101 21.1869 16.6041 20.9089 16.3331C20.5999 16.0311 20.3569 15.7921 20.2179 15.5981C19.7199 14.9571 19.9149 14.5261 20.1999 14.0681C20.9409 13.0221 22.8689 10.1591 23.0799 9.19609C23.1089 9.09409 23.1159 9.03809 23.1159 9.01109C23.0979 9.01309 23.0309 8.99809 22.9059 8.99809H20.7179C20.4189 8.99809 20.3109 9.11409 20.2259 9.31309C20.1819 9.42009 19.0639 12.1191 17.4499 13.9241C16.9359 14.4391 16.5729 14.7631 16.0569 14.7631C15.6519 14.7631 15.2159 14.4101 15.2159 13.6371V9.30209C15.2159 9.11009 15.1929 9.02909 15.1819 9.00109C15.1709 9.00509 15.1439 8.99909 15.0909 8.99809H11.6529C11.6039 9.03609 11.6899 9.14209 11.7469 9.21209C12.0099 9.53709 12.4059 10.0281 12.4659 11.1061L12.4669 14.3561C12.4669 14.7551 12.4669 15.6911 11.5609 15.6911C10.2779 15.6911 8.36188 12.1021 7.47188 9.51209C7.29388 8.99909 7.21088 8.99909 6.96488 8.99909H4.77688C4.58088 8.99909 4.52388 9.03709 4.52288 9.03709C4.52688 9.46809 5.14688 12.2411 7.88688 16.0831C9.54288 18.4601 11.8839 19.8771 14.1539 19.8771C15.2169 19.8771 15.2169 19.7301 15.2169 19.5261V17.5641C15.2169 16.9451 15.3439 16.3131 16.2889 16.3131Z" fill="#ffffff"/>
</svg>
