<svg width="30" height="30" viewBox="0 0 30 30" fill="none" xmlns="http://www.w3.org/2000/svg">
<path d="M15.004 30C12.136 30 9.358 29.189 6.954 27.653L1.606 29.362C1.427 29.419 1.23 29.371 1.097 29.237C0.965 29.103 0.919 28.905 0.98 28.727L2.705 23.581C0.935 21.061 0 18.1 0 15C0 10.924 1.612 7.109 4.539 4.258C4.736 4.066 5.053 4.07 5.246 4.267C5.438 4.465 5.434 4.782 5.236 4.974C2.505 7.636 1 11.196 1 15C1 17.974 1.922 20.811 3.665 23.204C3.76 23.335 3.786 23.504 3.734 23.658L2.242 28.11L6.875 26.629C7.019 26.582 7.177 26.605 7.304 26.688C9.589 28.2 12.252 29 15.004 29C22.722 29 29 22.72 29 15C29 7.281 22.722 1 15.004 1C15.003 1 15.002 1 15.001 1C12.834 1 10.763 1.481 8.837 2.429C8.589 2.55 8.29 2.449 8.168 2.202C8.046 1.955 8.147 1.654 8.396 1.532C10.46 0.516 12.682 0 14.996 0C23.272 0 30 6.729 30 15C30 23.271 23.272 30 15.004 30Z" fill="#ffffff"/>
<path d="M19.602 23.4928C18.591 23.4928 17.18 23.1028 15.163 22.2668C12.53 21.1768 9.92004 18.8928 7.81304 15.8378L7.73804 15.7308C7.04204 14.7798 5.91504 12.9578 5.91504 11.0558C5.91504 8.82684 7.03004 7.69584 7.50704 7.21284C7.95604 6.75184 8.62704 6.50684 9.38104 6.50684C9.57104 6.50684 9.74104 6.51584 9.89604 6.52484C10.531 6.54984 10.899 6.70984 11.249 7.54684L11.612 8.42684C11.996 9.35784 12.469 10.5068 12.543 10.6618C12.625 10.8308 12.874 11.3498 12.597 11.8898C12.449 12.2058 12.304 12.3728 12.105 12.6028C11.965 12.7638 11.872 12.8638 11.777 12.9638C11.667 13.0818 11.555 13.1978 11.443 13.3388C11.25 13.5648 11.25 13.5648 11.315 13.6778C11.685 14.3028 12.472 15.5028 13.568 16.4778C14.99 17.7428 16.139 18.2078 16.691 18.4318L16.828 18.4878C16.973 18.5478 17.156 18.5908 17.293 18.4458C17.541 18.1788 17.855 17.7398 18.187 17.2748L18.386 16.9958C18.735 16.5028 19.165 16.3988 19.464 16.3988C19.639 16.3988 19.821 16.4338 20.007 16.5038C20.472 16.6658 22.919 17.8848 22.944 17.8968L23.179 18.0118C23.529 18.1798 23.805 18.3128 23.963 18.5908C24.192 18.9888 24.102 20.0328 23.754 21.0178C23.337 22.1968 21.787 23.1178 20.541 23.3858C20.293 23.4378 19.998 23.4928 19.602 23.4928ZM9.38004 7.50684C8.90804 7.50684 8.47804 7.64884 8.25604 7.87584C7.79504 8.34384 6.91404 9.23684 6.91404 11.0558C6.91404 12.2368 7.49904 13.7138 8.51904 15.1068L8.63504 15.2718C10.633 18.1698 13.087 20.3268 15.544 21.3438C17.437 22.1288 18.726 22.4938 19.601 22.4938C19.901 22.4938 20.124 22.4518 20.328 22.4088C21.301 22.1988 22.526 21.4798 22.807 20.6848C23.111 19.8278 23.105 19.1688 23.069 19.0378C23.067 19.0688 22.887 18.9838 22.742 18.9138L22.493 18.7918C21.792 18.4408 19.98 17.5558 19.663 17.4448C19.579 17.4128 19.515 17.3998 19.461 17.3998C19.416 17.3998 19.323 17.3998 19.197 17.5778L18.997 17.8578C18.646 18.3498 18.315 18.8138 18.021 19.1298C17.644 19.5328 16.997 19.6448 16.44 19.4128L16.313 19.3608C15.756 19.1358 14.451 18.6078 12.9 17.2278C11.704 16.1618 10.851 14.8648 10.449 14.1858C10.026 13.4568 10.455 12.9548 10.661 12.7138C10.792 12.5508 10.92 12.4158 11.048 12.2798C11.132 12.1908 11.216 12.1018 11.302 12.0018C11.527 11.7428 11.601 11.6568 11.698 11.4498C11.727 11.3928 11.743 11.3118 11.639 11.0958C11.563 10.9358 11.077 9.76184 10.686 8.80984L10.324 7.93284C10.159 7.53684 10.159 7.53684 9.84504 7.52484C9.70104 7.51484 9.54904 7.50684 9.38004 7.50684Z" fill="#ffffff"/>
<path d="M6.5 3.5C6.77614 3.5 7 3.27614 7 3C7 2.72386 6.77614 2.5 6.5 2.5C6.22386 2.5 6 2.72386 6 3C6 3.27614 6.22386 3.5 6.5 3.5Z" fill="#ffffff"/>
</svg>
