<svg width="221" height="138" viewBox="0 0 221 138" fill="none" xmlns="http://www.w3.org/2000/svg">
<path d="M147 27C184.5 27 196.8 46.2 196.8 72.6C196.8 95.7 183.6 110.1 165.9 110.1C143.7 110.1 137.7 96.6 125.1 82.5C109.5 64.8 91.8 47.1 57 47.1V74.1C90.9 74.1 102 89.1 115.5 105.6C129 122.1 139.2 137.1 165.9 137.1C198 137.1 220.8 109.2 220.8 72.6C220.8 23.1 189.6 0 147 0V27ZM0 60.6C0 69.9 6.3 77.1 16.5 77.1C26.4 77.1 33 69.9 33 60.6C33 51.3 26.4 44.1 16.5 44.1C6.3 44.1 0 51.3 0 60.6Z" fill="#141519"/>
</svg>
