<svg width="245" height="14" viewBox="0 0 245 14" fill="none" xmlns="http://www.w3.org/2000/svg">
<path d="M8.07042 5.67294V6.17294H8.66682L8.56275 5.58569L8.07042 5.67294ZM7.0136 5.67294L6.52385 5.77364L6.60595 6.17294H7.0136V5.67294ZM6.68548 4.8718L6.26944 5.14916L6.27182 5.15268L6.68548 4.8718ZM6.12298 4.29226L5.82886 4.69667L5.83484 4.70089L6.12298 4.29226ZM5.39428 3.9343L5.25155 4.4135L5.25155 4.4135L5.39428 3.9343ZM3.12298 4.21555L2.85874 3.79108L2.85747 3.79187L3.12298 4.21555ZM2.10451 5.39595L1.65486 5.17727L1.6539 5.17927L2.10451 5.39595ZM2.10451 9.22266L1.6539 9.43934L1.65487 9.44133L2.10451 9.22266ZM3.12298 10.4031L2.85747 10.8267L2.85874 10.8275L3.12298 10.4031ZM5.39428 10.6843L5.25155 10.2051L5.25155 10.2051L5.39428 10.6843ZM6.12298 10.3306L6.4136 10.7375L6.41458 10.7368L6.12298 10.3306ZM6.68548 9.7468L6.27023 9.46828L6.26945 9.46945L6.68548 9.7468ZM7.0136 8.94567V8.44567H6.60672L6.52404 8.84406L7.0136 8.94567ZM8.07042 8.94567L8.56265 9.03345L8.66748 8.44567H8.07042V8.94567ZM7.63576 10.1431L7.20641 9.88688L7.20641 9.88688L7.63576 10.1431ZM6.85167 11.0423L7.15964 11.4362L7.16184 11.4344L6.85167 11.0423ZM5.79911 11.6005L5.64308 11.1255L5.64205 11.1258L5.79911 11.6005ZM2.57326 11.2468L2.30752 11.6703L2.30752 11.6703L2.57326 11.2468ZM1.20536 9.69567L1.65333 9.47358L1.65333 9.47358L1.20536 9.69567ZM5.79911 3.01811L5.64205 3.4928L5.64308 3.49314L5.79911 3.01811ZM6.85167 3.58061L6.5415 3.97278L6.54371 3.97451L6.85167 3.58061ZM7.63576 4.4755L7.2064 4.73173L7.20732 4.73326L7.63576 4.4755ZM8.07042 5.17294H7.0136V6.17294H8.07042V5.17294ZM7.50336 5.57224C7.42913 5.21124 7.29641 4.88147 7.09913 4.59093L6.27182 5.15268C6.38704 5.32236 6.47307 5.52668 6.52385 5.77364L7.50336 5.57224ZM7.1015 4.59445C6.91461 4.31412 6.68408 4.0761 6.41111 3.88363L5.83484 4.70089C6.00506 4.82091 6.14952 4.96926 6.26945 5.14915L7.1015 4.59445ZM6.41706 3.88789C6.15109 3.69445 5.85673 3.55034 5.53702 3.45511L5.25155 4.4135C5.46593 4.47735 5.65737 4.57188 5.82889 4.69663L6.41706 3.88789ZM5.53702 3.45511C5.22183 3.36122 4.89522 3.31498 4.55906 3.31498V4.31498C4.80244 4.31498 5.03265 4.34829 5.25155 4.4135L5.53702 3.45511ZM4.55906 3.31498C3.94172 3.31498 3.37073 3.47236 2.85874 3.79108L3.38722 4.64003C3.73318 4.42466 4.11958 4.31498 4.55906 4.31498V3.31498ZM2.85747 3.79187C2.34065 4.11574 1.94242 4.58602 1.65487 5.17727L2.55416 5.61463C2.77229 5.16611 3.05303 4.84945 3.38848 4.63923L2.85747 3.79187ZM1.6539 5.17927C1.36294 5.78434 1.22951 6.50091 1.22951 7.3093H2.22951C2.22951 6.60633 2.34608 6.04734 2.55512 5.61264L1.6539 5.17927ZM1.22951 7.3093C1.22951 8.1177 1.36294 8.83427 1.6539 9.43934L2.55512 9.00597C2.34608 8.57127 2.22951 8.01227 2.22951 7.3093H1.22951ZM1.65487 9.44133C1.94242 10.0326 2.34065 10.5029 2.85747 10.8267L3.38848 9.97937C3.05303 9.76915 2.77229 9.4525 2.55416 9.00398L1.65487 9.44133ZM2.85874 10.8275C3.37073 11.1462 3.94172 11.3036 4.55906 11.3036V10.3036C4.11958 10.3036 3.73318 10.1939 3.38722 9.97858L2.85874 10.8275ZM4.55906 11.3036C4.89522 11.3036 5.22183 11.2574 5.53702 11.1635L5.25155 10.2051C5.03265 10.2703 4.80244 10.3036 4.55906 10.3036V11.3036ZM5.53702 11.1635C5.85506 11.0688 6.14826 10.927 6.4136 10.7375L5.83236 9.92374C5.6602 10.0467 5.4676 10.1408 5.25155 10.2051L5.53702 11.1635ZM6.41458 10.7368C6.68575 10.5421 6.91518 10.3036 7.1015 10.0242L6.26945 9.46945C6.14896 9.6502 6.00339 9.80095 5.83137 9.92445L6.41458 10.7368ZM7.10072 10.0253C7.29626 9.73379 7.42882 9.40551 7.50317 9.04727L6.52404 8.84406C6.47339 9.0881 6.3872 9.29391 6.27023 9.46829L7.10072 10.0253ZM7.0136 9.44567H8.07042V8.44567H7.0136V9.44567ZM7.57819 8.85788C7.50815 9.25062 7.3826 9.59164 7.20641 9.88688L8.06512 10.3993C8.30938 9.99003 8.47361 9.53276 8.56265 9.03345L7.57819 8.85788ZM7.20641 9.88688C7.02638 10.1885 6.80493 10.4417 6.5415 10.6501L7.16184 11.4344C7.52342 11.1485 7.82469 10.8022 8.06512 10.3993L7.20641 9.88688ZM6.54371 10.6484C6.27827 10.8559 5.97916 11.0151 5.64308 11.1255L5.95515 12.0755C6.39748 11.9302 6.80007 11.7173 7.15963 11.4362L6.54371 10.6484ZM5.64205 11.1258C5.31034 11.2356 4.9504 11.2923 4.55906 11.2923V12.2923C5.0484 12.2923 5.51516 12.2211 5.95618 12.0752L5.64205 11.1258ZM4.55906 11.2923C3.90017 11.2923 3.33195 11.1326 2.83901 10.8233L2.30752 11.6703C2.97366 12.0883 3.72931 12.2923 4.55906 12.2923V11.2923ZM2.83901 10.8233C2.34488 10.5132 1.94871 10.0694 1.65333 9.47358L0.757394 9.91775C1.12679 10.6629 1.64255 11.2531 2.30752 11.6703L2.83901 10.8233ZM1.65333 9.47358C1.36214 8.88621 1.20678 8.1701 1.20678 7.3093H0.206784C0.206784 8.28941 0.383816 9.16421 0.757394 9.91775L1.65333 9.47358ZM1.20678 7.3093C1.20678 6.4485 1.36214 5.73239 1.65333 5.14503L0.757394 4.70085C0.383816 5.45439 0.206784 6.32919 0.206784 7.3093H1.20678ZM1.65333 5.14503C1.94871 4.54923 2.34488 4.10538 2.83901 3.79533L2.30752 2.94827C1.64255 3.3655 1.12679 3.95574 0.757394 4.70085L1.65333 5.14503ZM2.83901 3.79533C3.33195 3.48604 3.90017 3.32635 4.55906 3.32635V2.32635C3.72931 2.32635 2.97366 2.5303 2.30752 2.94827L2.83901 3.79533ZM4.55906 3.32635C4.9504 3.32635 5.31034 3.38304 5.64205 3.4928L5.95618 2.54342C5.51516 2.39749 5.0484 2.32635 4.55906 2.32635V3.32635ZM5.64308 3.49314C5.97804 3.60316 6.27641 3.76312 6.5415 3.97278L7.16184 3.18844C6.80193 2.90378 6.3986 2.68874 5.95515 2.54308L5.64308 3.49314ZM6.54371 3.97451C6.80593 4.17952 7.0267 4.4306 7.20641 4.73172L8.06512 4.21927C7.82437 3.81585 7.52241 3.47033 7.15963 3.18671L6.54371 3.97451ZM7.20732 4.73326C7.3825 5.02442 7.50797 5.36452 7.57809 5.76019L8.56275 5.58569C8.47378 5.08363 8.30948 4.62544 8.0642 4.21774L7.20732 4.73326ZM18.0832 9.69567L17.6352 9.47358L17.6352 9.47358L18.0832 9.69567ZM16.7153 11.2468L16.9811 11.6703L16.9811 11.6703L16.7153 11.2468ZM12.7437 11.2468L12.478 11.6703L12.478 11.6703L12.7437 11.2468ZM11.3758 9.69567L11.8238 9.47358L11.8238 9.47358L11.3758 9.69567ZM16.7153 3.3718L16.9811 2.94827L16.9811 2.94827L16.7153 3.3718ZM18.0832 4.92294L17.6352 5.14503L17.6352 5.14503L18.0832 4.92294ZM17.1798 5.39595L16.7292 5.61264L16.7302 5.61463L17.1798 5.39595ZM16.1613 4.21555L15.8958 4.63924L15.8971 4.64003L16.1613 4.21555ZM13.2934 4.21555L13.0292 3.79108L13.0279 3.79187L13.2934 4.21555ZM12.275 5.39595L11.8253 5.17727L11.8244 5.17927L12.275 5.39595ZM12.275 9.22266L11.8244 9.43934L11.8253 9.44133L12.275 9.22266ZM13.2934 10.4031L13.0279 10.8267L13.0292 10.8275L13.2934 10.4031ZM16.1613 10.4031L15.8971 9.97858L15.8958 9.97937L16.1613 10.4031ZM17.1798 9.22266L16.7302 9.00397L16.7292 9.00597L17.1798 9.22266ZM18.0818 7.3093C18.0818 8.1701 17.9264 8.88621 17.6352 9.47358L18.5312 9.91775C18.9048 9.16421 19.0818 8.28941 19.0818 7.3093H18.0818ZM17.6352 9.47358C17.3399 10.0694 16.9437 10.5132 16.4496 10.8233L16.9811 11.6703C17.646 11.2531 18.1618 10.6629 18.5312 9.91775L17.6352 9.47358ZM16.4496 10.8233C15.9566 11.1326 15.3884 11.2923 14.7295 11.2923V12.2923C15.5593 12.2923 16.3149 12.0883 16.9811 11.6703L16.4496 10.8233ZM14.7295 11.2923C14.0706 11.2923 13.5024 11.1326 13.0095 10.8233L12.478 11.6703C13.1441 12.0883 13.8998 12.2923 14.7295 12.2923V11.2923ZM13.0095 10.8233C12.5153 10.5132 12.1192 10.0694 11.8238 9.47358L10.9279 9.91775C11.2973 10.6629 11.813 11.2531 12.478 11.6703L13.0095 10.8233ZM11.8238 9.47358C11.5326 8.88621 11.3773 8.1701 11.3773 7.3093H10.3773C10.3773 8.28941 10.5543 9.16421 10.9279 9.91775L11.8238 9.47358ZM11.3773 7.3093C11.3773 6.4485 11.5326 5.73239 11.8238 5.14503L10.9279 4.70085C10.5543 5.45439 10.3773 6.32919 10.3773 7.3093H11.3773ZM11.8238 5.14503C12.1192 4.54923 12.5153 4.10538 13.0095 3.79533L12.478 2.94827C11.813 3.3655 11.2973 3.95574 10.9279 4.70085L11.8238 5.14503ZM13.0095 3.79533C13.5024 3.48604 14.0706 3.32635 14.7295 3.32635V2.32635C13.8998 2.32635 13.1441 2.5303 12.478 2.94827L13.0095 3.79533ZM14.7295 3.32635C15.3884 3.32635 15.9566 3.48604 16.4496 3.79533L16.9811 2.94827C16.3149 2.5303 15.5593 2.32635 14.7295 2.32635V3.32635ZM16.4496 3.79533C16.9437 4.10538 17.3399 4.54923 17.6352 5.14503L18.5312 4.70085C18.1618 3.95574 17.646 3.3655 16.9811 2.94827L16.4496 3.79533ZM17.6352 5.14503C17.9264 5.73239 18.0818 6.4485 18.0818 7.3093H19.0818C19.0818 6.32919 18.9048 5.45439 18.5312 4.70085L17.6352 5.14503ZM18.0591 7.3093C18.0591 6.50021 17.924 5.78289 17.6295 5.17727L16.7302 5.61463C16.9413 6.04878 17.0591 6.60703 17.0591 7.3093H18.0591ZM17.6304 5.17927C17.3453 4.58625 16.9461 4.11511 16.4256 3.79108L15.8971 4.64003C16.2345 4.85009 16.5144 5.16588 16.7292 5.61264L17.6304 5.17927ZM16.4269 3.79187C15.917 3.47237 15.3469 3.31498 14.7295 3.31498V4.31498C15.169 4.31498 15.5534 4.42464 15.8958 4.63923L16.4269 3.79187ZM14.7295 3.31498C14.1122 3.31498 13.5412 3.47236 13.0292 3.79108L13.5577 4.64003C13.9037 4.42466 14.29 4.31498 14.7295 4.31498V3.31498ZM13.0279 3.79187C12.5111 4.11574 12.1129 4.58602 11.8253 5.17727L12.7246 5.61463C12.9428 5.16611 13.2235 4.84945 13.559 4.63923L13.0279 3.79187ZM11.8244 5.17927C11.5334 5.78434 11.4 6.50091 11.4 7.3093H12.4C12.4 6.60633 12.5166 6.04734 12.7256 5.61264L11.8244 5.17927ZM11.4 7.3093C11.4 8.1177 11.5334 8.83427 11.8244 9.43934L12.7256 9.00597C12.5166 8.57127 12.4 8.01227 12.4 7.3093H11.4ZM11.8253 9.44133C12.1129 10.0326 12.5111 10.5029 13.0279 10.8267L13.559 9.97937C13.2235 9.76915 12.9428 9.4525 12.7246 9.00398L11.8253 9.44133ZM13.0292 10.8275C13.5412 11.1462 14.1122 11.3036 14.7295 11.3036V10.3036C14.29 10.3036 13.9037 10.1939 13.5577 9.97858L13.0292 10.8275ZM14.7295 11.3036C15.3469 11.3036 15.917 11.1462 16.4269 10.8267L15.8958 9.97937C15.5534 10.194 15.169 10.3036 14.7295 10.3036V11.3036ZM16.4256 10.8275C16.9461 10.5035 17.3453 10.0324 17.6304 9.43934L16.7292 9.00597C16.5144 9.45273 16.2345 9.76852 15.8971 9.97858L16.4256 10.8275ZM17.6295 9.44133C17.924 8.83571 18.0591 8.11839 18.0591 7.3093H17.0591C17.0591 8.01158 16.9413 8.56982 16.7302 9.00398L17.6295 9.44133ZM23.09 11.5025L22.888 11.9599L22.8891 11.9604L23.09 11.5025ZM22.0459 10.6971L21.6436 10.9939L21.6463 10.9976L22.0459 10.6971ZM21.6283 9.49112V8.99112H21.1029L21.1289 9.51594L21.6283 9.49112ZM22.7022 9.49112L23.2006 9.45085L23.1634 8.99112H22.7022V9.49112ZM22.992 10.2198L22.6079 10.5399L22.6101 10.5425L22.992 10.2198ZM23.661 10.6886L23.4745 11.1525L23.4745 11.1525L23.661 10.6886ZM26.2562 10.1133L25.848 9.82455L25.848 9.82455L26.2562 10.1133ZM26.2647 8.45561L25.8443 8.72624L25.8457 8.72845L26.2647 8.45561ZM25.5658 7.87606L25.3592 8.33139L25.3593 8.33139L25.5658 7.87606ZM23.742 7.66726H23.242V8.16726H23.742V7.66726ZM23.742 6.72976V6.22976H23.242V6.72976H23.742ZM25.3528 6.54226L25.1389 6.09029L25.137 6.09119L25.3528 6.54226ZM25.9707 6.01385L25.5538 5.73769L25.5514 5.74135L25.9707 6.01385ZM26.0005 4.4414L26.4297 4.18498L26.4297 4.18498L26.0005 4.4414ZM25.4465 3.93004L25.2165 4.374L25.2187 4.37512L25.4465 3.93004ZM23.759 3.913L23.9481 4.37586L23.9506 4.37482L23.759 3.913ZM23.1113 4.38601L23.498 4.70293L23.5002 4.7003L23.1113 4.38601ZM22.8386 5.12748V5.62748H23.3147L23.338 5.15196L22.8386 5.12748ZM21.8158 5.12748L21.3162 5.10886L21.2969 5.62748H21.8158V5.12748ZM22.2292 3.92578L22.6288 4.22631L22.63 4.22473L22.2292 3.92578ZM23.2434 3.11612L23.0346 2.66178L23.0335 2.66232L23.2434 3.11612ZM26.0175 3.15447L25.7712 3.58958L25.7736 3.59094L26.0175 3.15447ZM26.9082 4.01101L26.4764 4.26316L26.4764 4.26316L26.9082 4.01101ZM26.8315 6.41868L26.4307 6.11973L26.4291 6.12185L26.8315 6.41868ZM25.7874 7.13885L25.6423 6.66036L25.2874 6.76798V7.13885H25.7874ZM25.7874 7.20703H25.2874V7.63131L25.7061 7.70036L25.7874 7.20703ZM27.0786 7.91016L26.6919 8.22709L26.6931 8.22852L27.0786 7.91016ZM27.1553 10.582L26.7427 10.2997L26.7422 10.3004L27.1553 10.582ZM26.107 11.4684L26.326 11.9179L26.326 11.9179L26.107 11.4684ZM24.5942 11.2923C24.0893 11.2923 23.658 11.2057 23.2909 11.0446L22.8891 11.9604C23.4026 12.1856 23.9742 12.2923 24.5942 12.2923V11.2923ZM23.2919 11.0451C22.9237 10.8825 22.6471 10.6646 22.4456 10.3966L21.6463 10.9976C21.9618 11.4171 22.3812 11.7361 22.888 11.9599L23.2919 11.0451ZM22.4483 10.4003C22.2548 10.1379 22.1459 9.83199 22.1277 9.46631L21.1289 9.51594C21.1562 10.065 21.3257 10.5631 21.6436 10.9939L22.4483 10.4003ZM21.6283 9.99112H22.7022V8.99112H21.6283V9.99112ZM22.2038 9.53139C22.2343 9.90897 22.3673 10.2512 22.6079 10.5399L23.3761 9.89972C23.2757 9.7793 23.2155 9.63578 23.2006 9.45085L22.2038 9.53139ZM22.6101 10.5425C22.8394 10.814 23.1328 11.0151 23.4745 11.1525L23.8475 10.2247C23.6381 10.1404 23.4854 10.0291 23.3739 9.89708L22.6101 10.5425ZM23.4745 11.1525C23.8165 11.29 24.1862 11.3548 24.5772 11.3548V10.3548C24.2977 10.3548 24.0567 10.3087 23.8475 10.2247L23.4745 11.1525ZM24.5772 11.3548C25.0105 11.3548 25.415 11.2791 25.7799 11.1145L25.3688 10.2029C25.1542 10.2997 24.8939 10.3548 24.5772 10.3548V11.3548ZM25.7799 11.1145C26.1414 10.9515 26.4425 10.7158 26.6644 10.402L25.848 9.82455C25.7404 9.97669 25.5868 10.1046 25.3688 10.2029L25.7799 11.1145ZM26.6644 10.402C26.8935 10.0782 27.0033 9.70565 27.0033 9.30362H26.0033C26.0033 9.51523 25.9484 9.68249 25.848 9.82455L26.6644 10.402ZM27.0033 9.30362C27.0033 8.8959 26.9009 8.51639 26.6837 8.18277L25.8457 8.72845C25.9466 8.88346 26.0033 9.0693 26.0033 9.30362H27.0033ZM26.6851 8.18499C26.4667 7.84565 26.1537 7.59371 25.7724 7.42074L25.3593 8.33139C25.5916 8.43683 25.7445 8.57125 25.8443 8.72623L26.6851 8.18499ZM25.7724 7.42074C25.3837 7.24436 24.9338 7.16726 24.4408 7.16726V8.16726C24.8342 8.16726 25.1344 8.22936 25.3592 8.33139L25.7724 7.42074ZM24.4408 7.16726H23.742V8.16726H24.4408V7.16726ZM24.242 7.66726V6.72976H23.242V7.66726H24.242ZM23.742 7.22976H24.4408V6.22976H23.742V7.22976ZM24.4408 7.22976C24.8476 7.22976 25.2278 7.15625 25.5685 6.99332L25.137 6.09119C24.955 6.17827 24.7272 6.22976 24.4408 6.22976V7.22976ZM25.5666 6.99423C25.9078 6.83281 26.1877 6.5974 26.3899 6.28634L25.5514 5.74135C25.4582 5.88484 25.3262 6.0017 25.1389 6.09029L25.5666 6.99423ZM26.3875 6.28999C26.5989 5.97083 26.6965 5.60501 26.6965 5.21271H25.6965C25.6965 5.43405 25.6435 5.60232 25.5538 5.7377L26.3875 6.28999ZM26.6965 5.21271C26.6965 4.84157 26.6137 4.4929 26.4297 4.18498L25.5713 4.69783C25.6487 4.82741 25.6965 4.99294 25.6965 5.21271H26.6965ZM26.4297 4.18498C26.2484 3.88141 25.9919 3.64754 25.6744 3.48497L25.2187 4.37512C25.3784 4.45686 25.4912 4.5639 25.5713 4.69783L26.4297 4.18498ZM25.6765 3.48608C25.3563 3.32018 24.9958 3.2468 24.6113 3.2468V4.2468C24.8688 4.2468 25.0652 4.29559 25.2165 4.374L25.6765 3.48608ZM24.6113 3.2468C24.2472 3.2468 23.8977 3.31413 23.5674 3.45117L23.9506 4.37482C24.1544 4.29028 24.3731 4.2468 24.6113 4.2468V3.2468ZM23.5699 3.45014C23.2333 3.58767 22.9467 3.79417 22.7224 4.07172L23.5002 4.7003C23.6111 4.56308 23.7563 4.45423 23.9481 4.37585L23.5699 3.45014ZM22.7245 4.0691C22.4824 4.36463 22.3581 4.71716 22.3392 5.103L23.338 5.15196C23.3475 4.95827 23.405 4.81648 23.498 4.70292L22.7245 4.0691ZM22.8386 4.62748H21.8158V5.62748H22.8386V4.62748ZM22.3155 5.14611C22.329 4.78379 22.4356 4.48315 22.6288 4.22631L21.8296 3.62525C21.5057 4.05591 21.3368 4.55641 21.3162 5.10886L22.3155 5.14611ZM22.63 4.22473C22.8356 3.94911 23.1062 3.73048 23.4533 3.56992L23.0335 2.66232C22.5453 2.88812 22.1399 3.20927 21.8284 3.62683L22.63 4.22473ZM23.4521 3.57046C23.8016 3.4099 24.1912 3.32635 24.6283 3.32635V2.32635C24.0598 2.32635 23.5261 2.43598 23.0346 2.66178L23.4521 3.57046ZM24.6283 3.32635C25.1003 3.32635 25.4746 3.42165 25.7712 3.58958L26.2639 2.71937C25.7878 2.4498 25.2359 2.32635 24.6283 2.32635V3.32635ZM25.7736 3.59094C26.0882 3.76673 26.3175 3.99103 26.4764 4.26316L27.3399 3.75886C27.0841 3.32076 26.7196 2.97403 26.2614 2.718L25.7736 3.59094ZM26.4764 4.26316C26.639 4.54162 26.7192 4.8381 26.7192 5.16158H27.7192C27.7192 4.66119 27.5921 4.19063 27.3399 3.75886L26.4764 4.26316ZM26.7192 5.16158C26.7192 5.5607 26.6162 5.87106 26.4307 6.11973L27.2322 6.71763C27.5638 6.27311 27.7192 5.74541 27.7192 5.16158H26.7192ZM26.4291 6.12185C26.2419 6.37566 25.9871 6.55583 25.6423 6.66036L25.9325 7.61733C26.4684 7.45483 26.9097 7.15488 27.2338 6.7155L26.4291 6.12185ZM25.2874 7.13885V7.20703H26.2874V7.13885H25.2874ZM25.7061 7.70036C26.1557 7.77453 26.4702 7.95661 26.6919 8.22709L27.4653 7.59322C27.0677 7.10802 26.5215 6.82135 25.8688 6.7137L25.7061 7.70036ZM26.6931 8.22852C26.9185 8.50157 27.0431 8.84874 27.0431 9.30362H28.0431C28.0431 8.65054 27.858 8.06874 27.4642 7.59179L26.6931 8.22852ZM27.0431 9.30362C27.0431 9.68117 26.9421 10.0082 26.7427 10.2997L27.568 10.8644C27.8856 10.4002 28.0431 9.87494 28.0431 9.30362H27.0431ZM26.7422 10.3004C26.5397 10.5974 26.26 10.8377 25.888 11.0189L26.326 11.9179C26.8405 11.6673 27.2596 11.3167 27.5684 10.8637L26.7422 10.3004ZM25.888 11.0189C25.5224 11.197 25.0949 11.2923 24.5942 11.2923V12.2923C25.2243 12.2923 25.8052 12.1716 26.326 11.9179L25.888 11.0189ZM30.1294 13.7866H29.6294V14.2866H30.1294V13.7866ZM30.1294 10.7354V10.2354H29.6294V10.7354H30.1294ZM30.6919 10.7354V11.2354H30.8856L31.0288 11.1049L30.6919 10.7354ZM31.2374 9.9897L30.7965 9.7538L30.7958 9.75522L31.2374 9.9897ZM31.6763 8.69425L31.1885 8.58443L31.1881 8.58632L31.6763 8.69425ZM31.9192 6.62748L31.4198 6.60205L31.4198 6.6037L31.9192 6.62748ZM32.1067 2.94567V2.44567H31.6315L31.6073 2.92024L32.1067 2.94567ZM37.2885 2.94567H37.7885V2.44567H37.2885V2.94567ZM37.2885 10.7354H36.7885V11.2354H37.2885V10.7354ZM38.2942 10.7354H38.7942V10.2354H38.2942V10.7354ZM38.2942 13.7695V14.2695H38.7942V13.7695H38.2942ZM37.2885 13.7695H36.7885V14.2695H37.2885V13.7695ZM37.2885 11.6729H37.7885V11.1729H37.2885V11.6729ZM31.1351 11.6729V11.1729H30.6351V11.6729H31.1351ZM31.1351 13.7866V14.2866H31.6351V13.7866H31.1351ZM31.9533 10.7354L31.5307 10.4681L31.0453 11.2354H31.9533V10.7354ZM36.2828 10.7354V11.2354H36.7828V10.7354H36.2828ZM36.2828 3.88317H36.7828V3.38317H36.2828V3.88317ZM33.0612 3.88317V3.38317H32.5855L32.5618 3.85835L33.0612 3.88317ZM32.9249 6.62748L33.4242 6.65423L33.4243 6.6523L32.9249 6.62748ZM32.7459 8.3576L33.2392 8.43936L33.2392 8.43892L32.7459 8.3576ZM32.4178 9.7255L32.8914 9.88565L32.8918 9.88463L32.4178 9.7255ZM30.6294 13.7866V10.7354H29.6294V13.7866H30.6294ZM30.1294 11.2354H30.6919V10.2354H30.1294V11.2354ZM31.0288 11.1049C31.2774 10.8783 31.4913 10.5776 31.679 10.2242L30.7958 9.75522C30.6425 10.0439 30.4928 10.2403 30.355 10.366L31.0288 11.1049ZM31.6782 10.2256C31.881 9.84663 32.0398 9.36648 32.1645 8.80217L31.1881 8.58632C31.0742 9.10155 30.9403 9.48505 30.7965 9.7538L31.6782 10.2256ZM32.1641 8.80406C32.2949 8.22287 32.3781 7.50257 32.4186 6.65127L31.4198 6.6037C31.3807 7.42286 31.302 8.08039 31.1885 8.58443L32.1641 8.80406ZM32.4185 6.65291L32.606 2.9711L31.6073 2.92024L31.4198 6.60205L32.4185 6.65291ZM32.1067 3.44567H37.2885V2.44567H32.1067V3.44567ZM36.7885 2.94567V10.7354H37.7885V2.94567H36.7885ZM37.2885 11.2354H38.2942V10.2354H37.2885V11.2354ZM37.7942 10.7354V13.7695H38.7942V10.7354H37.7942ZM38.2942 13.2695H37.2885V14.2695H38.2942V13.2695ZM37.7885 13.7695V11.6729H36.7885V13.7695H37.7885ZM37.2885 11.1729H31.1351V12.1729H37.2885V11.1729ZM30.6351 11.6729V13.7866H31.6351V11.6729H30.6351ZM31.1351 13.2866H30.1294V14.2866H31.1351V13.2866ZM31.9533 11.2354H36.2828V10.2354H31.9533V11.2354ZM36.7828 10.7354V3.88317H35.7828V10.7354H36.7828ZM36.2828 3.38317H33.0612V4.38317H36.2828V3.38317ZM32.5618 3.85835L32.4255 6.60267L33.4243 6.6523L33.5606 3.90798L32.5618 3.85835ZM32.4256 6.60074C32.3923 7.22256 32.3342 7.78066 32.2525 8.27628L33.2392 8.43892C33.328 7.90044 33.3893 7.30513 33.4242 6.65423L32.4256 6.60074ZM32.2526 8.27584C32.1707 8.7698 32.0671 9.19906 31.9438 9.56637L32.8918 9.88463C33.0355 9.45648 33.1506 8.97381 33.2392 8.43936L32.2526 8.27584ZM31.9441 9.56534C31.8201 9.93203 31.6809 10.2308 31.5307 10.4681L32.3758 11.0028C32.5779 10.6833 32.7484 10.3087 32.8914 9.88565L31.9441 9.56534ZM41.6891 11.6729V12.1729H42.0422L42.1603 11.8402L41.6891 11.6729ZM40.5811 11.6729L40.1118 11.5006L39.8649 12.1729H40.5811V11.6729ZM43.7857 2.94567V2.44567H43.4366L43.3163 2.77332L43.7857 2.94567ZM44.8766 2.94567L45.3459 2.77332L45.2256 2.44567H44.8766V2.94567ZM48.0811 11.6729V12.1729H48.7974L48.5505 11.5006L48.0811 11.6729ZM46.9732 11.6729L46.502 11.8402L46.6201 12.1729H46.9732V11.6729ZM44.3652 4.32635L44.8364 4.15908L44.7183 3.82635H44.3652V4.32635ZM44.297 4.32635V3.82635H43.944L43.8259 4.15908L44.297 4.32635ZM42.0982 8.26385V7.76385H41.5982V8.26385H42.0982ZM46.5641 8.26385H47.0641V7.76385H46.5641V8.26385ZM46.5641 9.20135V9.70135H47.0641V9.20135H46.5641ZM42.0982 9.20135H41.5982V9.70135H42.0982V9.20135ZM41.6891 11.1729H40.5811V12.1729H41.6891V11.1729ZM41.0505 11.8453L44.255 3.11801L43.3163 2.77332L40.1118 11.5006L41.0505 11.8453ZM43.7857 3.44567H44.8766V2.44567H43.7857V3.44567ZM44.4072 3.11801L47.6118 11.8453L48.5505 11.5006L45.3459 2.77332L44.4072 3.11801ZM48.0811 11.1729H46.9732V12.1729H48.0811V11.1729ZM47.4444 11.5057L44.8364 4.15908L43.894 4.49362L46.502 11.8402L47.4444 11.5057ZM44.3652 3.82635H44.297V4.82635H44.3652V3.82635ZM43.8259 4.15908L41.2179 11.5057L42.1603 11.8402L44.7682 4.49362L43.8259 4.15908ZM42.0982 8.76385H46.5641V7.76385H42.0982V8.76385ZM46.0641 8.26385V9.20135H47.0641V8.26385H46.0641ZM46.5641 8.70135H42.0982V9.70135H46.5641V8.70135ZM42.5982 9.20135V8.26385H41.5982V9.20135H42.5982ZM50.8805 11.6729H50.3805V12.1729H50.8805V11.6729ZM50.8805 2.94567V2.44567H50.3805V2.94567H50.8805ZM51.9373 2.94567H52.4373V2.44567H51.9373V2.94567ZM51.9373 6.83203H51.4373V7.33203H51.9373V6.83203ZM56.5907 6.83203V7.33203H57.0907V6.83203H56.5907ZM56.5907 2.94567V2.44567H56.0907V2.94567H56.5907ZM57.6476 2.94567H58.1476V2.44567H57.6476V2.94567ZM57.6476 11.6729V12.1729H58.1476V11.6729H57.6476ZM56.5907 11.6729H56.0907V12.1729H56.5907V11.6729ZM56.5907 7.76953H57.0907V7.26953H56.5907V7.76953ZM51.9373 7.76953V7.26953H51.4373V7.76953H51.9373ZM51.9373 11.6729V12.1729H52.4373V11.6729H51.9373ZM51.3805 11.6729V2.94567H50.3805V11.6729H51.3805ZM50.8805 3.44567H51.9373V2.44567H50.8805V3.44567ZM51.4373 2.94567V6.83203H52.4373V2.94567H51.4373ZM51.9373 7.33203H56.5907V6.33203H51.9373V7.33203ZM57.0907 6.83203V2.94567H56.0907V6.83203H57.0907ZM56.5907 3.44567H57.6476V2.44567H56.5907V3.44567ZM57.1476 2.94567V11.6729H58.1476V2.94567H57.1476ZM57.6476 11.1729H56.5907V12.1729H57.6476V11.1729ZM57.0907 11.6729V7.76953H56.0907V11.6729H57.0907ZM56.5907 7.26953H51.9373V8.26953H56.5907V7.26953ZM51.4373 7.76953V11.6729H52.4373V7.76953H51.4373ZM51.9373 11.1729H50.8805V12.1729H51.9373V11.1729ZM61.2033 2.94567V2.44567H60.7033V2.94567H61.2033ZM62.2431 2.94567H62.7431V2.44567H62.2431V2.94567ZM62.2431 9.81498H61.7431V10.315H62.2431V9.81498ZM62.3283 9.81498V10.315H62.5898L62.7389 10.1003L62.3283 9.81498ZM67.101 2.94567V2.44567H66.8396L66.6904 2.66037L67.101 2.94567ZM68.1238 2.94567H68.6238V2.44567H68.1238V2.94567ZM68.1238 11.6729V12.1729H68.6238V11.6729H68.1238ZM67.067 11.6729H66.567V12.1729H67.067V11.6729ZM67.067 4.82067H67.567V4.32067H67.067V4.82067ZM66.9817 4.82067V4.32067H66.7201L66.571 4.53558L66.9817 4.82067ZM62.226 11.6729V12.1729H62.4877L62.6368 11.958L62.226 11.6729ZM61.2033 11.6729H60.7033V12.1729H61.2033V11.6729ZM61.2033 3.44567H62.2431V2.44567H61.2033V3.44567ZM61.7431 2.94567V9.81498H62.7431V2.94567H61.7431ZM62.2431 10.315H62.3283V9.31498H62.2431V10.315ZM62.7389 10.1003L67.5117 3.23096L66.6904 2.66037L61.9177 9.52969L62.7389 10.1003ZM67.101 3.44567H68.1238V2.44567H67.101V3.44567ZM67.6238 2.94567V11.6729H68.6238V2.94567H67.6238ZM68.1238 11.1729H67.067V12.1729H68.1238V11.1729ZM67.567 11.6729V4.82067H66.567V11.6729H67.567ZM67.067 4.32067H66.9817V5.32067H67.067V4.32067ZM66.571 4.53558L61.8153 11.3879L62.6368 11.958L67.3925 5.10575L66.571 4.53558ZM62.226 11.1729H61.2033V12.1729H62.226V11.1729ZM61.7033 11.6729V2.94567H60.7033V11.6729H61.7033ZM71.6785 11.6729H71.1785V12.1729H71.6785V11.6729ZM71.6785 2.94567V2.44567H71.1785V2.94567H71.6785ZM76.9455 2.94567H77.4455V2.44567H76.9455V2.94567ZM76.9455 3.88317V4.38317H77.4455V3.88317H76.9455ZM72.7353 3.88317V3.38317H72.2353V3.88317H72.7353ZM72.7353 6.83203H72.2353V7.33203H72.7353V6.83203ZM76.6728 6.83203H77.1728V6.33203H76.6728V6.83203ZM76.6728 7.76953V8.26953H77.1728V7.76953H76.6728ZM72.7353 7.76953V7.26953H72.2353V7.76953H72.7353ZM72.7353 10.7354H72.2353V11.2354H72.7353V10.7354ZM77.0137 10.7354H77.5137V10.2354H77.0137V10.7354ZM77.0137 11.6729V12.1729H77.5137V11.6729H77.0137ZM72.1785 11.6729V2.94567H71.1785V11.6729H72.1785ZM71.6785 3.44567H76.9455V2.44567H71.6785V3.44567ZM76.4455 2.94567V3.88317H77.4455V2.94567H76.4455ZM76.9455 3.38317H72.7353V4.38317H76.9455V3.38317ZM72.2353 3.88317V6.83203H73.2353V3.88317H72.2353ZM72.7353 7.33203H76.6728V6.33203H72.7353V7.33203ZM76.1728 6.83203V7.76953H77.1728V6.83203H76.1728ZM76.6728 7.26953H72.7353V8.26953H76.6728V7.26953ZM72.2353 7.76953V10.7354H73.2353V7.76953H72.2353ZM72.7353 11.2354H77.0137V10.2354H72.7353V11.2354ZM76.5137 10.7354V11.6729H77.5137V10.7354H76.5137ZM77.0137 11.1729H71.6785V12.1729H77.0137V11.1729ZM85.5656 11.7923H85.0656V12.2923H85.5656V11.7923ZM85.5656 10.8036V10.3036H85.0656V10.8036H85.5656ZM86.6394 10.68L86.3923 10.2454L86.3886 10.2475L86.6394 10.68ZM86.9974 10.3604L86.5953 10.0632L86.5911 10.069L86.9974 10.3604ZM87.236 9.95135L87.6937 10.1527L87.6968 10.1454L87.236 9.95135ZM87.3724 9.62748L87.8332 9.82151L87.9178 9.6205L87.8281 9.42172L87.3724 9.62748ZM84.3553 2.94567V2.44567H83.581L83.8996 3.15143L84.3553 2.94567ZM85.4974 2.94567L85.9545 2.743L85.8226 2.44567H85.4974V2.94567ZM87.9008 8.36612L87.4437 8.56879L87.9213 9.6458L88.3641 8.55408L87.9008 8.36612ZM90.0997 2.94567V2.44567H89.7629L89.6363 2.75771L90.0997 2.94567ZM91.2247 2.94567L91.6869 3.13637L91.9718 2.44567H91.2247V2.94567ZM88.2076 10.2582L88.6658 10.4586L88.6698 10.4489L88.2076 10.2582ZM87.7985 11.0167L87.3809 10.7417L87.3786 10.7453L87.7985 11.0167ZM87.1806 11.5792L86.9419 11.1399L86.9399 11.141L87.1806 11.5792ZM86.0656 11.7923V10.8036H85.0656V11.7923H86.0656ZM85.5656 11.3036H86.111V10.3036H85.5656V11.3036ZM86.111 11.3036C86.3851 11.3036 86.6535 11.2499 86.8903 11.1126L86.3886 10.2475C86.3413 10.275 86.2574 10.3036 86.111 10.3036V11.3036ZM86.8866 11.1147C87.0919 10.9979 87.2663 10.8434 87.4037 10.6519L86.5911 10.069C86.541 10.1389 86.4768 10.1974 86.3923 10.2454L86.8866 11.1147ZM87.3995 10.6576C87.5171 10.4986 87.6156 10.3302 87.6937 10.1527L86.7784 9.74998C86.7315 9.85656 86.6709 9.96095 86.5953 10.0632L87.3995 10.6576ZM87.6968 10.1454L87.8332 9.82151L86.9116 9.43346L86.7752 9.75732L87.6968 10.1454ZM87.8281 9.42172L84.811 2.7399L83.8996 3.15143L86.9167 9.83325L87.8281 9.42172ZM84.3553 3.44567H85.4974V2.44567H84.3553V3.44567ZM85.0403 3.14834L87.4437 8.56879L88.3579 8.16345L85.9545 2.743L85.0403 3.14834ZM88.3641 8.55408L90.563 3.13362L89.6363 2.75771L87.4375 8.17817L88.3641 8.55408ZM90.0997 3.44567H91.2247V2.44567H90.0997V3.44567ZM90.7625 2.75497L87.7454 10.0675L88.6698 10.4489L91.6869 3.13637L90.7625 2.75497ZM87.7495 10.0578C87.6408 10.3062 87.5178 10.5339 87.3809 10.7417L88.2161 11.2917C88.3861 11.0335 88.5358 10.7555 88.6657 10.4586L87.7495 10.0578ZM87.3786 10.7453C87.2767 10.9029 87.1352 11.0348 86.9419 11.1399L87.4194 12.0185C87.7488 11.8395 88.0192 11.5964 88.2185 11.2881L87.3786 10.7453ZM86.9399 11.141C86.783 11.2271 86.526 11.2923 86.1281 11.2923V12.2923C86.6165 12.2923 87.0612 12.2153 87.4214 12.0174L86.9399 11.141ZM86.1281 11.2923H85.5656V12.2923H86.1281V11.2923ZM94.0336 11.6729H93.5336V12.1729H94.0336V11.6729ZM94.0336 2.94567V2.44567H93.5336V2.94567H94.0336ZM95.0905 2.94567H95.5905V2.44567H95.0905V2.94567ZM95.0905 6.83203H94.5905V7.33203H95.0905V6.83203ZM99.7439 6.83203V7.33203H100.244V6.83203H99.7439ZM99.7439 2.94567V2.44567H99.2439V2.94567H99.7439ZM100.801 2.94567H101.301V2.44567H100.801V2.94567ZM100.801 11.6729V12.1729H101.301V11.6729H100.801ZM99.7439 11.6729H99.2439V12.1729H99.7439V11.6729ZM99.7439 7.76953H100.244V7.26953H99.7439V7.76953ZM95.0905 7.76953V7.26953H94.5905V7.76953H95.0905ZM95.0905 11.6729V12.1729H95.5905V11.6729H95.0905ZM94.5336 11.6729V2.94567H93.5336V11.6729H94.5336ZM94.0336 3.44567H95.0905V2.44567H94.0336V3.44567ZM94.5905 2.94567V6.83203H95.5905V2.94567H94.5905ZM95.0905 7.33203H99.7439V6.33203H95.0905V7.33203ZM100.244 6.83203V2.94567H99.2439V6.83203H100.244ZM99.7439 3.44567H100.801V2.44567H99.7439V3.44567ZM100.301 2.94567V11.6729H101.301V2.94567H100.301ZM100.801 11.1729H99.7439V12.1729H100.801V11.1729ZM100.244 11.6729V7.76953H99.2439V11.6729H100.244ZM99.7439 7.26953H95.0905V8.26953H99.7439V7.26953ZM94.5905 7.76953V11.6729H95.5905V7.76953H94.5905ZM95.0905 11.1729H94.0336V12.1729H95.0905V11.1729ZM104.356 2.94567V2.44567H103.856V2.94567H104.356ZM105.396 2.94567H105.896V2.44567H105.396V2.94567ZM105.396 9.81498H104.896V10.315H105.396V9.81498ZM105.481 9.81498V10.315H105.743L105.892 10.1003L105.481 9.81498ZM110.254 2.94567V2.44567H109.993L109.844 2.66037L110.254 2.94567ZM111.277 2.94567H111.777V2.44567H111.277V2.94567ZM111.277 11.6729V12.1729H111.777V11.6729H111.277ZM110.22 11.6729H109.72V12.1729H110.22V11.6729ZM110.22 4.82067H110.72V4.32067H110.22V4.82067ZM110.135 4.82067V4.32067H109.873L109.724 4.53558L110.135 4.82067ZM105.379 11.6729V12.1729H105.641L105.79 11.958L105.379 11.6729ZM104.356 11.6729H103.856V12.1729H104.356V11.6729ZM104.356 3.44567H105.396V2.44567H104.356V3.44567ZM104.896 2.94567V9.81498H105.896V2.94567H104.896ZM105.396 10.315H105.481V9.31498H105.396V10.315ZM105.892 10.1003L110.665 3.23096L109.844 2.66037L105.071 9.52969L105.892 10.1003ZM110.254 3.44567H111.277V2.44567H110.254V3.44567ZM110.777 2.94567V11.6729H111.777V2.94567H110.777ZM111.277 11.1729H110.22V12.1729H111.277V11.1729ZM110.72 11.6729V4.82067H109.72V11.6729H110.72ZM110.22 4.32067H110.135V5.32067H110.22V4.32067ZM109.724 4.53558L104.968 11.3879L105.79 11.958L110.546 5.10575L109.724 4.53558ZM105.379 11.1729H104.356V12.1729H105.379V11.1729ZM104.856 11.6729V2.94567H103.856V11.6729H104.856ZM119.962 11.6729L119.562 11.9727L119.712 12.1729H119.962V11.6729ZM116.962 7.66726L117.362 7.36753L117.212 7.16726H116.962V7.66726ZM115.888 7.66726V7.16726H115.388V7.66726H115.888ZM115.888 11.6729V12.1729H116.388V11.6729H115.888ZM114.832 11.6729H114.332V12.1729H114.832V11.6729ZM114.832 2.94567V2.44567H114.332V2.94567H114.832ZM115.888 2.94567H116.388V2.44567H115.888V2.94567ZM115.888 6.72976H115.388V7.22976H115.888V6.72976ZM116.349 6.72976V7.22976H116.568L116.716 7.06897L116.349 6.72976ZM119.843 2.94567V2.44567H119.624L119.476 2.60646L119.843 2.94567ZM121.104 2.94567L121.472 3.28419L122.244 2.44567H121.104V2.94567ZM117.576 6.78089L117.208 6.44237L116.927 6.74744L117.175 7.07978L117.576 6.78089ZM121.224 11.6729V12.1729H122.22L121.624 11.3741L121.224 11.6729ZM120.362 11.3732L117.362 7.36753L116.562 7.96698L119.562 11.9727L120.362 11.3732ZM116.962 7.16726H115.888V8.16726H116.962V7.16726ZM115.388 7.66726V11.6729H116.388V7.66726H115.388ZM115.888 11.1729H114.832V12.1729H115.888V11.1729ZM115.332 11.6729V2.94567H114.332V11.6729H115.332ZM114.832 3.44567H115.888V2.44567H114.832V3.44567ZM115.388 2.94567V6.72976H116.388V2.94567H115.388ZM115.888 7.22976H116.349V6.22976H115.888V7.22976ZM116.716 7.06897L120.21 3.28488L119.476 2.60646L115.981 6.39055L116.716 7.06897ZM119.843 3.44567H121.104V2.44567H119.843V3.44567ZM120.736 2.60714L117.208 6.44237L117.944 7.11942L121.472 3.28419L120.736 2.60714ZM117.175 7.07978L120.823 11.9718L121.624 11.3741L117.977 6.48201L117.175 7.07978ZM121.224 11.1729H119.962V12.1729H121.224V11.1729ZM124.387 11.6729V12.1729H124.74L124.859 11.8402L124.387 11.6729ZM123.279 11.6729L122.81 11.5006L122.563 12.1729H123.279V11.6729ZM126.484 2.94567V2.44567H126.135L126.015 2.77332L126.484 2.94567ZM127.575 2.94567L128.044 2.77332L127.924 2.44567H127.575V2.94567ZM130.779 11.6729V12.1729H131.496L131.249 11.5006L130.779 11.6729ZM129.671 11.6729L129.2 11.8402L129.318 12.1729H129.671V11.6729ZM127.064 4.32635L127.535 4.15908L127.417 3.82635H127.064V4.32635ZM126.995 4.32635V3.82635H126.642L126.524 4.15908L126.995 4.32635ZM124.796 8.26385V7.76385H124.296V8.26385H124.796ZM129.262 8.26385H129.762V7.76385H129.262V8.26385ZM129.262 9.20135V9.70135H129.762V9.20135H129.262ZM124.796 9.20135H124.296V9.70135H124.796V9.20135ZM124.387 11.1729H123.279V12.1729H124.387V11.1729ZM123.749 11.8453L126.953 3.11801L126.015 2.77332L122.81 11.5006L123.749 11.8453ZM126.484 3.44567H127.575V2.44567H126.484V3.44567ZM127.106 3.11801L130.31 11.8453L131.249 11.5006L128.044 2.77332L127.106 3.11801ZM130.779 11.1729H129.671V12.1729H130.779V11.1729ZM130.143 11.5057L127.535 4.15908L126.592 4.49362L129.2 11.8402L130.143 11.5057ZM127.064 3.82635H126.995V4.82635H127.064V3.82635ZM126.524 4.15908L123.916 11.5057L124.859 11.8402L127.467 4.49362L126.524 4.15908ZM124.796 8.76385H129.262V7.76385H124.796V8.76385ZM128.762 8.26385V9.20135H129.762V8.26385H128.762ZM129.262 8.70135H124.796V9.70135H129.262V8.70135ZM125.296 9.20135V8.26385H124.296V9.20135H125.296ZM132.829 11.6729H132.329V12.1729H132.829V11.6729ZM132.829 10.7013V10.2013H132.329V10.7013H132.829ZM133.932 10.3519L133.554 10.0246L133.554 10.0246L133.932 10.3519ZM134.367 9.22266L133.875 9.13653L133.874 9.13915L134.367 9.22266ZM134.55 7.15589L134.051 7.13769L134.051 7.13769L134.55 7.15589ZM134.704 2.94567V2.44567H134.222L134.204 2.92746L134.704 2.94567ZM140.022 2.94567H140.522V2.44567H140.022V2.94567ZM140.022 11.6729V12.1729H140.522V11.6729H140.022ZM138.965 11.6729H138.465V12.1729H138.965V11.6729ZM138.965 3.88317H139.465V3.38317H138.965V3.88317ZM135.709 3.88317V3.38317H135.229L135.21 3.86357L135.709 3.88317ZM135.573 7.36044L135.073 7.34085L135.073 7.34182L135.573 7.36044ZM135.322 9.69567L135.811 9.79747L135.811 9.79747L135.322 9.69567ZM134.619 11.1658L134.974 11.5179L134.974 11.5179L134.619 11.1658ZM133.329 11.6729V10.7013H132.329V11.6729H133.329ZM132.829 11.2013H133.084V10.2013H132.829V11.2013ZM133.084 11.2013C133.564 11.2013 133.996 11.0419 134.31 10.6792L133.554 10.0246C133.465 10.1279 133.332 10.2013 133.084 10.2013V11.2013ZM134.31 10.6792C134.601 10.3437 134.766 9.85978 134.86 9.30616L133.874 9.13915C133.792 9.62531 133.667 9.89418 133.554 10.0246L134.31 10.6792ZM134.86 9.30878C134.956 8.75697 135.018 8.04262 135.05 7.17409L134.051 7.13769C134.02 7.98508 133.96 8.64856 133.875 9.13653L134.86 9.30878ZM135.05 7.1741L135.203 2.96387L134.204 2.92746L134.051 7.13769L135.05 7.1741ZM134.704 3.44567H140.022V2.44567H134.704V3.44567ZM139.522 2.94567V11.6729H140.522V2.94567H139.522ZM140.022 11.1729H138.965V12.1729H140.022V11.1729ZM139.465 11.6729V3.88317H138.465V11.6729H139.465ZM138.965 3.38317H135.709V4.38317H138.965V3.38317ZM135.21 3.86357L135.073 7.34085L136.073 7.38003L136.209 3.90276L135.21 3.86357ZM135.073 7.34182C135.04 8.23869 134.958 8.98756 134.832 9.59386L135.811 9.79747C135.952 9.11968 136.038 8.31174 136.073 7.37906L135.073 7.34182ZM134.832 9.59386C134.711 10.1758 134.509 10.5657 134.264 10.8138L134.974 11.5179C135.398 11.0898 135.665 10.4997 135.811 9.79747L134.832 9.59386ZM134.264 10.8138C134.051 11.0279 133.709 11.1729 133.153 11.1729V12.1729C133.88 12.1729 134.515 11.98 134.974 11.5179L134.264 10.8138ZM133.153 11.1729H132.829V12.1729H133.153V11.1729ZM144.358 6.61044V6.11044H143.858V6.61044H144.358ZM148.427 6.91726L148.212 7.36858L148.213 7.36913L148.427 6.91726ZM149.407 7.78231L148.978 8.03812L148.979 8.04052L149.407 7.78231ZM149.407 10.4371L148.975 10.186L148.974 10.1884L149.407 10.4371ZM148.427 11.3448L148.201 10.8988L148.2 10.8994L148.427 11.3448ZM143.573 11.6729H143.073V12.1729H143.573V11.6729ZM143.573 2.94567V2.44567H143.073V2.94567H143.573ZM144.63 2.94567H145.13V2.44567H144.63V2.94567ZM144.63 10.7525H144.13V11.2525H144.63V10.7525ZM147.856 10.5138L148.106 10.9469L148.108 10.9461L147.856 10.5138ZM148.487 9.89169L148.052 9.64518L148.051 9.64679L148.487 9.89169ZM148.223 8.00391L147.879 8.36697L147.881 8.36857L148.223 8.00391ZM144.358 7.54794H143.858V8.04794H144.358V7.54794ZM144.358 7.11044H146.846V6.11044H144.358V7.11044ZM146.846 7.11044C147.419 7.11044 147.868 7.20452 148.212 7.36858L148.642 6.46594C148.128 6.22091 147.523 6.11044 146.846 6.11044V7.11044ZM148.213 7.36913C148.565 7.53573 148.812 7.75999 148.978 8.03811L149.837 7.52651C149.559 7.06032 149.153 6.70787 148.641 6.46539L148.213 7.36913ZM148.979 8.04052C149.149 8.32276 149.244 8.6693 149.244 9.09908H150.244C150.244 8.51749 150.114 7.98618 149.835 7.52411L148.979 8.04052ZM149.244 9.09908C149.244 9.52839 149.149 9.88555 148.975 10.186L149.84 10.6883C150.114 10.216 150.244 9.68113 150.244 9.09908H149.244ZM148.974 10.1884C148.805 10.4828 148.554 10.7201 148.201 10.8988L148.653 11.7908C149.164 11.532 149.567 11.1642 149.841 10.6859L148.974 10.1884ZM148.2 10.8994C147.859 11.0732 147.415 11.1729 146.846 11.1729V12.1729C147.527 12.1729 148.137 12.0539 148.654 11.7902L148.2 10.8994ZM146.846 11.1729H143.573V12.1729H146.846V11.1729ZM144.073 11.6729V2.94567H143.073V11.6729H144.073ZM143.573 3.44567H144.63V2.44567H143.573V3.44567ZM144.13 2.94567V10.7525H145.13V2.94567H144.13ZM144.63 11.2525H146.846V10.2525H144.63V11.2525ZM146.846 11.2525C147.31 11.2525 147.738 11.1595 148.106 10.9469L147.606 10.0808C147.423 10.1863 147.178 10.2525 146.846 10.2525V11.2525ZM148.108 10.9461C148.454 10.7444 148.732 10.4756 148.923 10.1366L148.051 9.64679C147.957 9.81347 147.815 9.95947 147.605 10.0816L148.108 10.9461ZM148.922 10.1382C149.108 9.81004 149.204 9.45558 149.204 9.08203H148.204C148.204 9.27666 148.156 9.46197 148.052 9.64518L148.922 10.1382ZM149.204 9.08203C149.204 8.5181 148.98 8.02916 148.565 7.63924L147.881 8.36857C148.107 8.58092 148.204 8.81073 148.204 9.08203H149.204ZM148.566 7.64084C148.124 7.22192 147.525 7.04794 146.846 7.04794V8.04794C147.361 8.04794 147.679 8.17793 147.879 8.36697L148.566 7.64084ZM146.846 7.04794H144.358V8.04794H146.846V7.04794ZM144.858 7.54794V6.61044H143.858V7.54794H144.858ZM152.853 11.6729H152.353V12.1729H152.853V11.6729ZM152.853 2.94567V2.44567H152.353V2.94567H152.853ZM153.91 2.94567H154.41V2.44567H153.91V2.94567ZM153.91 6.83203H153.41V7.33203H153.91V6.83203ZM158.564 6.83203V7.33203H159.064V6.83203H158.564ZM158.564 2.94567V2.44567H158.064V2.94567H158.564ZM159.62 2.94567H160.12V2.44567H159.62V2.94567ZM159.62 11.6729V12.1729H160.12V11.6729H159.62ZM158.564 11.6729H158.064V12.1729H158.564V11.6729ZM158.564 7.76953H159.064V7.26953H158.564V7.76953ZM153.91 7.76953V7.26953H153.41V7.76953H153.91ZM153.91 11.6729V12.1729H154.41V11.6729H153.91ZM153.353 11.6729V2.94567H152.353V11.6729H153.353ZM152.853 3.44567H153.91V2.44567H152.853V3.44567ZM153.41 2.94567V6.83203H154.41V2.94567H153.41ZM153.91 7.33203H158.564V6.33203H153.91V7.33203ZM159.064 6.83203V2.94567H158.064V6.83203H159.064ZM158.564 3.44567H159.62V2.44567H158.564V3.44567ZM159.12 2.94567V11.6729H160.12V2.94567H159.12ZM159.62 11.1729H158.564V12.1729H159.62V11.1729ZM159.064 11.6729V7.76953H158.064V11.6729H159.064ZM158.564 7.26953H153.91V8.26953H158.564V7.26953ZM153.41 7.76953V11.6729H154.41V7.76953H153.41ZM153.91 11.1729H152.853V12.1729H153.91V11.1729ZM163.96 6.61044V6.11044H163.46V6.61044H163.96ZM168.03 6.91726L167.815 7.36858L167.816 7.36913L168.03 6.91726ZM169.01 7.78231L168.58 8.03812L168.582 8.04052L169.01 7.78231ZM169.01 10.4371L168.578 10.186L168.576 10.1884L169.01 10.4371ZM168.03 11.3448L167.804 10.8988L167.803 10.8994L168.03 11.3448ZM163.176 11.6729H162.676V12.1729H163.176V11.6729ZM163.176 2.94567V2.44567H162.676V2.94567H163.176ZM164.233 2.94567H164.733V2.44567H164.233V2.94567ZM164.233 10.7525H163.733V11.2525H164.233V10.7525ZM167.459 10.5138L167.709 10.9469L167.71 10.9461L167.459 10.5138ZM168.089 9.89169L167.654 9.64518L167.654 9.64679L168.089 9.89169ZM167.825 8.00391L167.481 8.36697L167.483 8.36857L167.825 8.00391ZM163.96 7.54794H163.46V8.04794H163.96V7.54794ZM171.256 2.94567H171.756V2.44567H171.256V2.94567ZM171.256 11.6729V12.1729H171.756V11.6729H171.256ZM170.199 11.6729H169.699V12.1729H170.199V11.6729ZM170.199 2.94567V2.44567H169.699V2.94567H170.199ZM163.96 7.11044H166.449V6.11044H163.96V7.11044ZM166.449 7.11044C167.022 7.11044 167.471 7.20452 167.815 7.36858L168.245 6.46594C167.731 6.22091 167.126 6.11044 166.449 6.11044V7.11044ZM167.816 7.36913C168.168 7.53573 168.415 7.75999 168.58 8.03811L169.44 7.52651C169.162 7.06032 168.756 6.70787 168.244 6.46539L167.816 7.36913ZM168.582 8.04052C168.752 8.32276 168.847 8.6693 168.847 9.09908H169.847C169.847 8.51749 169.717 7.98618 169.438 7.52411L168.582 8.04052ZM168.847 9.09908C168.847 9.52839 168.752 9.88555 168.578 10.186L169.442 10.6883C169.717 10.216 169.847 9.68113 169.847 9.09908H168.847ZM168.576 10.1884C168.407 10.4828 168.157 10.7201 167.804 10.8988L168.256 11.7908C168.767 11.532 169.169 11.1642 169.444 10.6859L168.576 10.1884ZM167.803 10.8994C167.462 11.0732 167.018 11.1729 166.449 11.1729V12.1729C167.13 12.1729 167.74 12.0539 168.257 11.7902L167.803 10.8994ZM166.449 11.1729H163.176V12.1729H166.449V11.1729ZM163.676 11.6729V2.94567H162.676V11.6729H163.676ZM163.176 3.44567H164.233V2.44567H163.176V3.44567ZM163.733 2.94567V10.7525H164.733V2.94567H163.733ZM164.233 11.2525H166.449V10.2525H164.233V11.2525ZM166.449 11.2525C166.913 11.2525 167.34 11.1595 167.709 10.9469L167.209 10.0808C167.026 10.1863 166.78 10.2525 166.449 10.2525V11.2525ZM167.71 10.9461C168.057 10.7444 168.335 10.4756 168.525 10.1366L167.654 9.64679C167.56 9.81347 167.417 9.95947 167.207 10.0816L167.71 10.9461ZM168.524 10.1382C168.71 9.81004 168.807 9.45558 168.807 9.08203H167.807C167.807 9.27666 167.758 9.46197 167.654 9.64518L168.524 10.1382ZM168.807 9.08203C168.807 8.5181 168.583 8.02916 168.167 7.63924L167.483 8.36857C167.71 8.58092 167.807 8.81073 167.807 9.08203H168.807ZM168.169 7.64084C167.727 7.22192 167.128 7.04794 166.449 7.04794V8.04794C166.963 8.04794 167.282 8.17793 167.481 8.36697L168.169 7.64084ZM166.449 7.04794H163.96V8.04794H166.449V7.04794ZM164.46 7.54794V6.61044H163.46V7.54794H164.46ZM170.756 2.94567V11.6729H171.756V2.94567H170.756ZM171.256 11.1729H170.199V12.1729H171.256V11.1729ZM170.699 11.6729V2.94567H169.699V11.6729H170.699ZM170.199 3.44567H171.256V2.44567H170.199V3.44567ZM175.323 2.94567L175.748 2.68228L175.601 2.44567H175.323V2.94567ZM177.573 6.57635L177.148 6.83973L177.294 7.07635H177.573V6.57635ZM177.641 6.57635V7.07635H177.919L178.066 6.83973L177.641 6.57635ZM179.891 2.94567V2.44567H179.613L179.466 2.68228L179.891 2.94567ZM181.135 2.94567L181.559 3.21185L182.04 2.44567H181.135V2.94567ZM178.391 7.3093L177.968 7.04312L177.8 7.3093L177.968 7.57549L178.391 7.3093ZM181.135 11.6729V12.1729H182.04L181.559 11.4068L181.135 11.6729ZM179.891 11.6729L179.468 11.9399L179.615 12.1729H179.891V11.6729ZM177.641 8.11044L178.064 7.84344L177.917 7.61044H177.641V8.11044ZM177.573 8.11044V7.61044H177.297L177.15 7.84344L177.573 8.11044ZM175.323 11.6729V12.1729H175.598L175.746 11.9399L175.323 11.6729ZM174.078 11.6729L173.658 11.4021L173.161 12.1729H174.078V11.6729ZM176.891 7.3093L177.311 7.58018L177.486 7.3093L177.311 7.03843L176.891 7.3093ZM174.078 2.94567V2.44567H173.161L173.658 3.21654L174.078 2.94567ZM174.898 3.20905L177.148 6.83973L177.998 6.31296L175.748 2.68228L174.898 3.20905ZM177.573 7.07635H177.641V6.07635H177.573V7.07635ZM178.066 6.83973L180.316 3.20905L179.466 2.68228L177.216 6.31296L178.066 6.83973ZM179.891 3.44567H181.135V2.44567H179.891V3.44567ZM180.712 2.67948L177.968 7.04312L178.814 7.57549L181.559 3.21185L180.712 2.67948ZM177.968 7.57549L180.712 11.9391L181.559 11.4068L178.814 7.04312L177.968 7.57549ZM181.135 11.1729H179.891V12.1729H181.135V11.1729ZM180.314 11.4059L178.064 7.84344L177.218 8.37744L179.468 11.9399L180.314 11.4059ZM177.641 7.61044H177.573V8.61044H177.641V7.61044ZM177.15 7.84344L174.9 11.4059L175.746 11.9399L177.996 8.37744L177.15 7.84344ZM175.323 11.1729H174.078V12.1729H175.323V11.1729ZM174.499 11.9438L177.311 7.58018L176.471 7.03843L173.658 11.4021L174.499 11.9438ZM177.311 7.03843L174.499 2.67479L173.658 3.21654L176.471 7.58018L177.311 7.03843ZM174.078 3.44567H175.323V2.44567H174.078V3.44567ZM195.788 5.67294V6.17294H196.385L196.281 5.58569L195.788 5.67294ZM194.732 5.67294L194.242 5.77364L194.324 6.17294H194.732V5.67294ZM194.403 4.8718L193.987 5.14916L193.99 5.15268L194.403 4.8718ZM193.841 4.29226L193.547 4.69667L193.553 4.70089L193.841 4.29226ZM193.112 3.9343L192.97 4.4135L192.97 4.4135L193.112 3.9343ZM190.841 4.21555L190.577 3.79108L190.575 3.79187L190.841 4.21555ZM189.822 5.39595L189.373 5.17727L189.372 5.17927L189.822 5.39595ZM189.822 9.22266L189.372 9.43934L189.373 9.44133L189.822 9.22266ZM190.841 10.4031L190.575 10.8267L190.577 10.8275L190.841 10.4031ZM193.112 10.6843L192.97 10.2051L192.97 10.2051L193.112 10.6843ZM193.841 10.3306L194.132 10.7375L194.133 10.7368L193.841 10.3306ZM194.403 9.7468L193.988 9.46828L193.987 9.46945L194.403 9.7468ZM194.732 8.94567V8.44567H194.325L194.242 8.84406L194.732 8.94567ZM195.788 8.94567L196.281 9.03345L196.385 8.44567H195.788V8.94567ZM195.354 10.1431L194.924 9.88688L194.924 9.88688L195.354 10.1431ZM194.57 11.0423L194.878 11.4362L194.88 11.4344L194.57 11.0423ZM193.517 11.6005L193.361 11.1255L193.36 11.1258L193.517 11.6005ZM190.291 11.2468L190.025 11.6703L190.025 11.6703L190.291 11.2468ZM188.923 9.69567L189.371 9.47358L189.371 9.47358L188.923 9.69567ZM193.517 3.01811L193.36 3.4928L193.361 3.49314L193.517 3.01811ZM194.57 3.58061L194.259 3.97278L194.262 3.97451L194.57 3.58061ZM195.354 4.4755L194.924 4.73173L194.925 4.73326L195.354 4.4755ZM195.788 5.17294H194.732V6.17294H195.788V5.17294ZM195.221 5.57224C195.147 5.21124 195.014 4.88147 194.817 4.59093L193.99 5.15268C194.105 5.32236 194.191 5.52668 194.242 5.77364L195.221 5.57224ZM194.819 4.59445C194.633 4.31412 194.402 4.0761 194.129 3.88363L193.553 4.70089C193.723 4.82091 193.867 4.96926 193.987 5.14915L194.819 4.59445ZM194.135 3.88789C193.869 3.69445 193.575 3.55034 193.255 3.45511L192.97 4.4135C193.184 4.47735 193.375 4.57188 193.547 4.69663L194.135 3.88789ZM193.255 3.45511C192.94 3.36122 192.613 3.31498 192.277 3.31498V4.31498C192.52 4.31498 192.751 4.34829 192.97 4.4135L193.255 3.45511ZM192.277 3.31498C191.66 3.31498 191.089 3.47236 190.577 3.79108L191.105 4.64003C191.451 4.42466 191.838 4.31498 192.277 4.31498V3.31498ZM190.575 3.79187C190.059 4.11574 189.66 4.58602 189.373 5.17727L190.272 5.61463C190.49 5.16611 190.771 4.84945 191.106 4.63923L190.575 3.79187ZM189.372 5.17927C189.081 5.78434 188.947 6.50091 188.947 7.3093H189.947C189.947 6.60633 190.064 6.04734 190.273 5.61264L189.372 5.17927ZM188.947 7.3093C188.947 8.1177 189.081 8.83427 189.372 9.43934L190.273 9.00597C190.064 8.57127 189.947 8.01227 189.947 7.3093H188.947ZM189.373 9.44133C189.66 10.0326 190.059 10.5029 190.575 10.8267L191.106 9.97937C190.771 9.76915 190.49 9.4525 190.272 9.00398L189.373 9.44133ZM190.577 10.8275C191.089 11.1462 191.66 11.3036 192.277 11.3036V10.3036C191.838 10.3036 191.451 10.1939 191.105 9.97858L190.577 10.8275ZM192.277 11.3036C192.613 11.3036 192.94 11.2574 193.255 11.1635L192.97 10.2051C192.751 10.2703 192.52 10.3036 192.277 10.3036V11.3036ZM193.255 11.1635C193.573 11.0688 193.866 10.927 194.132 10.7375L193.55 9.92374C193.378 10.0467 193.186 10.1408 192.97 10.2051L193.255 11.1635ZM194.133 10.7368C194.404 10.5421 194.633 10.3036 194.819 10.0242L193.987 9.46945C193.867 9.6502 193.721 9.80095 193.549 9.92445L194.133 10.7368ZM194.819 10.0253C195.014 9.73379 195.147 9.40551 195.221 9.04727L194.242 8.84406C194.191 9.0881 194.105 9.29391 193.988 9.46829L194.819 10.0253ZM194.732 9.44567H195.788V8.44567H194.732V9.44567ZM195.296 8.85788C195.226 9.25062 195.101 9.59164 194.924 9.88688L195.783 10.3993C196.027 9.99003 196.192 9.53276 196.281 9.03345L195.296 8.85788ZM194.924 9.88688C194.744 10.1885 194.523 10.4417 194.259 10.6501L194.88 11.4344C195.241 11.1485 195.543 10.8022 195.783 10.3993L194.924 9.88688ZM194.262 10.6484C193.996 10.8559 193.697 11.0151 193.361 11.1255L193.673 12.0755C194.115 11.9302 194.518 11.7173 194.878 11.4362L194.262 10.6484ZM193.36 11.1258C193.028 11.2356 192.668 11.2923 192.277 11.2923V12.2923C192.766 12.2923 193.233 12.2211 193.674 12.0752L193.36 11.1258ZM192.277 11.2923C191.618 11.2923 191.05 11.1326 190.557 10.8233L190.025 11.6703C190.692 12.0883 191.447 12.2923 192.277 12.2923V11.2923ZM190.557 10.8233C190.063 10.5132 189.667 10.0694 189.371 9.47358L188.475 9.91775C188.845 10.6629 189.361 11.2531 190.025 11.6703L190.557 10.8233ZM189.371 9.47358C189.08 8.88621 188.925 8.1701 188.925 7.3093H187.925C187.925 8.28941 188.102 9.16421 188.475 9.91775L189.371 9.47358ZM188.925 7.3093C188.925 6.4485 189.08 5.73239 189.371 5.14503L188.475 4.70085C188.102 5.45439 187.925 6.32919 187.925 7.3093H188.925ZM189.371 5.14503C189.667 4.54923 190.063 4.10538 190.557 3.79533L190.025 2.94827C189.361 3.3655 188.845 3.95574 188.475 4.70085L189.371 5.14503ZM190.557 3.79533C191.05 3.48604 191.618 3.32635 192.277 3.32635V2.32635C191.447 2.32635 190.692 2.5303 190.025 2.94827L190.557 3.79533ZM192.277 3.32635C192.668 3.32635 193.028 3.38304 193.36 3.4928L193.674 2.54342C193.233 2.39749 192.766 2.32635 192.277 2.32635V3.32635ZM193.361 3.49314C193.696 3.60316 193.994 3.76312 194.259 3.97278L194.88 3.18844C194.52 2.90378 194.117 2.68874 193.673 2.54308L193.361 3.49314ZM194.262 3.97451C194.524 4.17952 194.745 4.4306 194.924 4.73172L195.783 4.21927C195.542 3.81585 195.24 3.47033 194.878 3.18671L194.262 3.97451ZM194.925 4.73326C195.1 5.02442 195.226 5.36452 195.296 5.76019L196.281 5.58569C196.192 5.08363 196.027 4.62544 195.782 4.21774L194.925 4.73326ZM199.294 11.6729V12.1729H199.647L199.765 11.8402L199.294 11.6729ZM198.186 11.6729L197.717 11.5006L197.47 12.1729H198.186V11.6729ZM201.391 2.94567V2.44567H201.042L200.921 2.77332L201.391 2.94567ZM202.482 2.94567L202.951 2.77332L202.831 2.44567H202.482V2.94567ZM205.686 11.6729V12.1729H206.402L206.155 11.5006L205.686 11.6729ZM204.578 11.6729L204.107 11.8402L204.225 12.1729H204.578V11.6729ZM201.97 4.32635L202.441 4.15908L202.323 3.82635H201.97V4.32635ZM201.902 4.32635V3.82635H201.549L201.431 4.15908L201.902 4.32635ZM199.703 8.26385V7.76385H199.203V8.26385H199.703ZM204.169 8.26385H204.669V7.76385H204.169V8.26385ZM204.169 9.20135V9.70135H204.669V9.20135H204.169ZM199.703 9.20135H199.203V9.70135H199.703V9.20135ZM199.294 11.1729H198.186V12.1729H199.294V11.1729ZM198.655 11.8453L201.86 3.11801L200.921 2.77332L197.717 11.5006L198.655 11.8453ZM201.391 3.44567H202.482V2.44567H201.391V3.44567ZM202.012 3.11801L205.217 11.8453L206.155 11.5006L202.951 2.77332L202.012 3.11801ZM205.686 11.1729H204.578V12.1729H205.686V11.1729ZM205.049 11.5057L202.441 4.15908L201.499 4.49362L204.107 11.8402L205.049 11.5057ZM201.97 3.82635H201.902V4.82635H201.97V3.82635ZM201.431 4.15908L198.823 11.5057L199.765 11.8402L202.373 4.49362L201.431 4.15908ZM199.703 8.76385H204.169V7.76385H199.703V8.76385ZM203.669 8.26385V9.20135H204.669V8.26385H203.669ZM204.169 8.70135H199.703V9.70135H204.169V8.70135ZM200.203 9.20135V8.26385H199.203V9.20135H200.203ZM208.486 2.94567V2.44567H207.986V2.94567H208.486ZM209.525 2.94567H210.025V2.44567H209.525V2.94567ZM209.525 9.81498H209.025V10.315H209.525V9.81498ZM209.611 9.81498V10.315H209.872L210.021 10.1003L209.611 9.81498ZM214.383 2.94567V2.44567H214.122L213.973 2.66037L214.383 2.94567ZM215.406 2.94567H215.906V2.44567H215.406V2.94567ZM215.406 11.6729V12.1729H215.906V11.6729H215.406ZM214.349 11.6729H213.849V12.1729H214.349V11.6729ZM214.349 4.82067H214.849V4.32067H214.349V4.82067ZM214.264 4.82067V4.32067H214.002L213.853 4.53558L214.264 4.82067ZM209.508 11.6729V12.1729H209.77L209.919 11.958L209.508 11.6729ZM208.486 11.6729H207.986V12.1729H208.486V11.6729ZM212.781 0.763848V0.263848H212.281V0.763848H212.781ZM213.718 0.763848H214.218V0.263848H213.718V0.763848ZM213.241 1.89311L212.903 1.52508L212.903 1.52508L213.241 1.89311ZM210.663 1.89311L210.323 2.25963L210.325 2.26114L210.663 1.89311ZM210.19 0.763848V0.263848H209.69V0.763848H210.19ZM211.128 0.763848H211.628V0.263848H211.128V0.763848ZM211.311 1.34765L210.907 1.64217L210.91 1.64657L211.311 1.34765ZM212.585 1.34765L212.191 1.0402L212.187 1.04443L212.585 1.34765ZM208.486 3.44567H209.525V2.44567H208.486V3.44567ZM209.025 2.94567V9.81498H210.025V2.94567H209.025ZM209.525 10.315H209.611V9.31498H209.525V10.315ZM210.021 10.1003L214.794 3.23096L213.973 2.66037L209.2 9.52969L210.021 10.1003ZM214.383 3.44567H215.406V2.44567H214.383V3.44567ZM214.906 2.94567V11.6729H215.906V2.94567H214.906ZM215.406 11.1729H214.349V12.1729H215.406V11.1729ZM214.849 11.6729V4.82067H213.849V11.6729H214.849ZM214.349 4.32067H214.264V5.32067H214.349V4.32067ZM213.853 4.53558L209.097 11.3879L209.919 11.958L214.675 5.10575L213.853 4.53558ZM209.508 11.1729H208.486V12.1729H209.508V11.1729ZM208.986 11.6729V2.94567H207.986V11.6729H208.986ZM212.781 1.26385H213.718V0.263848H212.781V1.26385ZM213.218 0.763848C213.218 1.09437 213.111 1.33381 212.903 1.52508L213.58 2.26114C214.008 1.86718 214.218 1.35378 214.218 0.763848H213.218ZM212.903 1.52508C212.699 1.71225 212.4 1.83203 211.946 1.83203V2.83203C212.582 2.83203 213.147 2.6592 213.58 2.26114L212.903 1.52508ZM211.946 1.83203C211.502 1.83203 211.206 1.71355 211.002 1.52508L210.325 2.26114C210.756 2.6579 211.315 2.83203 211.946 2.83203V1.83203ZM211.003 1.5266C210.798 1.33575 210.69 1.09587 210.69 0.763848H209.69C209.69 1.35229 209.898 1.86524 210.323 2.25962L211.003 1.5266ZM210.19 1.26385H211.128V0.263848H210.19V1.26385ZM210.628 0.763848C210.628 1.08361 210.718 1.383 210.907 1.64215L211.715 1.05316C211.659 0.977087 211.628 0.887272 211.628 0.763848H210.628ZM210.91 1.64657C211.165 1.98865 211.561 2.09908 211.946 2.09908V1.09908C211.841 1.09908 211.78 1.08407 211.747 1.07134C211.72 1.06045 211.714 1.05164 211.712 1.04874L210.91 1.64657ZM211.946 2.09908C212.332 2.09908 212.725 1.98833 212.983 1.65088L212.187 1.04443C212.184 1.04942 212.175 1.05946 212.146 1.07092C212.113 1.08411 212.05 1.09908 211.946 1.09908V2.09908ZM212.979 1.65509C213.182 1.39569 213.281 1.09172 213.281 0.763848H212.281C212.281 0.879157 212.25 0.964397 212.191 1.04022L212.979 1.65509ZM218.483 3.88317H217.983V4.38317H218.483V3.88317ZM218.483 2.94567V2.44567H217.983V2.94567H218.483ZM225.029 2.94567H225.529V2.44567H225.029V2.94567ZM225.029 3.88317V4.38317H225.529V3.88317H225.029ZM222.285 3.88317V3.38317H221.785V3.88317H222.285ZM222.285 11.6729V12.1729H222.785V11.6729H222.285ZM221.228 11.6729H220.728V12.1729H221.228V11.6729ZM221.228 3.88317H221.728V3.38317H221.228V3.88317ZM218.983 3.88317V2.94567H217.983V3.88317H218.983ZM218.483 3.44567H225.029V2.44567H218.483V3.44567ZM224.529 2.94567V3.88317H225.529V2.94567H224.529ZM225.029 3.38317H222.285V4.38317H225.029V3.38317ZM221.785 3.88317V11.6729H222.785V3.88317H221.785ZM222.285 11.1729H221.228V12.1729H222.285V11.1729ZM221.728 11.6729V3.88317H220.728V11.6729H221.728ZM221.228 3.38317H218.483V4.38317H221.228V3.38317ZM234.602 9.69567L234.154 9.47358L234.154 9.47358L234.602 9.69567ZM233.234 11.2468L233.5 11.6703L233.5 11.6703L233.234 11.2468ZM229.262 11.2468L228.996 11.6703L228.996 11.6703L229.262 11.2468ZM227.894 9.69567L228.342 9.47358L228.342 9.47358L227.894 9.69567ZM233.234 3.3718L233.5 2.94827L233.5 2.94827L233.234 3.3718ZM234.602 4.92294L234.154 5.14503L234.154 5.14503L234.602 4.92294ZM233.698 5.39595L233.248 5.61264L233.249 5.61463L233.698 5.39595ZM232.68 4.21555L232.414 4.63924L232.416 4.64003L232.68 4.21555ZM229.812 4.21555L229.548 3.79108L229.546 3.79187L229.812 4.21555ZM228.793 5.39595L228.344 5.17727L228.343 5.17927L228.793 5.39595ZM228.793 9.22266L228.343 9.43934L228.344 9.44133L228.793 9.22266ZM229.812 10.4031L229.546 10.8267L229.548 10.8275L229.812 10.4031ZM232.68 10.4031L232.416 9.97858L232.414 9.97937L232.68 10.4031ZM233.698 9.22266L233.249 9.00397L233.248 9.00597L233.698 9.22266ZM234.6 7.3093C234.6 8.1701 234.445 8.88621 234.154 9.47358L235.05 9.91775C235.423 9.16421 235.6 8.28941 235.6 7.3093H234.6ZM234.154 9.47358C233.858 10.0694 233.462 10.5132 232.968 10.8233L233.5 11.6703C234.164 11.2531 234.68 10.6629 235.05 9.91775L234.154 9.47358ZM232.968 10.8233C232.475 11.1326 231.907 11.2923 231.248 11.2923V12.2923C232.078 12.2923 232.833 12.0883 233.5 11.6703L232.968 10.8233ZM231.248 11.2923C230.589 11.2923 230.021 11.1326 229.528 10.8233L228.996 11.6703C229.663 12.0883 230.418 12.2923 231.248 12.2923V11.2923ZM229.528 10.8233C229.034 10.5132 228.638 10.0694 228.342 9.47358L227.446 9.91775C227.816 10.6629 228.331 11.2531 228.996 11.6703L229.528 10.8233ZM228.342 9.47358C228.051 8.88621 227.896 8.1701 227.896 7.3093H226.896C226.896 8.28941 227.073 9.16421 227.446 9.91775L228.342 9.47358ZM227.896 7.3093C227.896 6.4485 228.051 5.73239 228.342 5.14503L227.446 4.70085C227.073 5.45439 226.896 6.32919 226.896 7.3093H227.896ZM228.342 5.14503C228.638 4.54923 229.034 4.10538 229.528 3.79533L228.996 2.94827C228.331 3.3655 227.816 3.95574 227.446 4.70085L228.342 5.14503ZM229.528 3.79533C230.021 3.48604 230.589 3.32635 231.248 3.32635V2.32635C230.418 2.32635 229.663 2.5303 228.996 2.94827L229.528 3.79533ZM231.248 3.32635C231.907 3.32635 232.475 3.48604 232.968 3.79533L233.5 2.94827C232.833 2.5303 232.078 2.32635 231.248 2.32635V3.32635ZM232.968 3.79533C233.462 4.10538 233.858 4.54923 234.154 5.14503L235.05 4.70085C234.68 3.95574 234.164 3.3655 233.5 2.94827L232.968 3.79533ZM234.154 5.14503C234.445 5.73239 234.6 6.4485 234.6 7.3093H235.6C235.6 6.32919 235.423 5.45439 235.05 4.70085L234.154 5.14503ZM234.578 7.3093C234.578 6.50021 234.442 5.78289 234.148 5.17727L233.249 5.61463C233.46 6.04878 233.578 6.60703 233.578 7.3093H234.578ZM234.149 5.17927C233.864 4.58625 233.465 4.11511 232.944 3.79108L232.416 4.64003C232.753 4.85009 233.033 5.16588 233.248 5.61264L234.149 5.17927ZM232.945 3.79187C232.435 3.47237 231.865 3.31498 231.248 3.31498V4.31498C231.687 4.31498 232.072 4.42464 232.414 4.63923L232.945 3.79187ZM231.248 3.31498C230.631 3.31498 230.06 3.47236 229.548 3.79108L230.076 4.64003C230.422 4.42466 230.808 4.31498 231.248 4.31498V3.31498ZM229.546 3.79187C229.03 4.11574 228.631 4.58602 228.344 5.17727L229.243 5.61463C229.461 5.16611 229.742 4.84945 230.077 4.63923L229.546 3.79187ZM228.343 5.17927C228.052 5.78434 227.918 6.50091 227.918 7.3093H228.918C228.918 6.60633 229.035 6.04734 229.244 5.61264L228.343 5.17927ZM227.918 7.3093C227.918 8.1177 228.052 8.83427 228.343 9.43934L229.244 9.00597C229.035 8.57127 228.918 8.01227 228.918 7.3093H227.918ZM228.344 9.44133C228.631 10.0326 229.03 10.5029 229.546 10.8267L230.077 9.97937C229.742 9.76915 229.461 9.4525 229.243 9.00398L228.344 9.44133ZM229.548 10.8275C230.06 11.1462 230.631 11.3036 231.248 11.3036V10.3036C230.808 10.3036 230.422 10.1939 230.076 9.97858L229.548 10.8275ZM231.248 11.3036C231.865 11.3036 232.435 11.1462 232.945 10.8267L232.414 9.97937C232.072 10.194 231.687 10.3036 231.248 10.3036V11.3036ZM232.944 10.8275C233.465 10.5035 233.864 10.0324 234.149 9.43934L233.248 9.00597C233.033 9.45273 232.753 9.76852 232.416 9.97858L232.944 10.8275ZM234.148 9.44133C234.442 8.83571 234.578 8.11839 234.578 7.3093H233.578C233.578 8.01158 233.46 8.56982 233.249 9.00398L234.148 9.44133ZM238.317 11.6729H237.817V12.1729H238.317V11.6729ZM238.317 2.94567V2.44567H237.817V2.94567H238.317ZM242.873 3.26101L242.638 3.70237L242.64 3.70367L242.873 3.26101ZM243.755 4.1005L243.316 4.34091L243.317 4.34241L243.755 4.1005ZM243.844 6.19283L243.405 5.95303L243.403 5.957L243.844 6.19283ZM243.324 6.77237L243.05 6.35465L243.047 6.35635L243.324 6.77237ZM242.63 7.08771L242.498 6.60533L242.13 6.70581V7.08771H242.63ZM242.63 7.17294H242.13V7.64204L242.598 7.67192L242.63 7.17294ZM243.435 7.45419L243.168 7.87693L243.168 7.87693L243.435 7.45419ZM244.087 10.5352L244.522 10.7825L244.522 10.7825L244.087 10.5352ZM243.145 11.3661L242.93 10.9148L242.93 10.9148L243.145 11.3661ZM239.374 10.7354H238.874V11.2354H239.374V10.7354ZM242.941 10.3349L243.28 10.7025L243.28 10.7024L242.941 10.3349ZM243.154 8.53658L242.724 8.79241L242.726 8.79454L243.154 8.53658ZM242.51 7.93146L242.269 8.36939L242.273 8.37126L242.51 7.93146ZM239.374 7.70135V7.20135H238.874V7.70135H239.374ZM239.374 6.78089H238.874V7.28089H239.374V6.78089ZM242.195 6.59339L241.977 6.14325L241.975 6.1442L242.195 6.59339ZM242.809 6.06498L242.394 5.78524L242.392 5.78884L242.809 6.06498ZM242.638 4.288L242.283 4.63968L242.285 4.64155L242.638 4.288ZM239.374 3.88317V3.38317H238.874V3.88317H239.374ZM238.817 11.6729V2.94567H237.817V11.6729H238.817ZM238.317 3.44567H241.368V2.44567H238.317V3.44567ZM241.368 3.44567C241.922 3.44567 242.336 3.54196 242.638 3.70236L243.108 2.81966C242.619 2.5596 242.03 2.44567 241.368 2.44567V3.44567ZM242.64 3.70367C242.958 3.87058 243.176 4.08419 243.316 4.34091L244.193 3.86008C243.948 3.41225 243.577 3.06621 243.105 2.81834L242.64 3.70367ZM243.317 4.34241C243.467 4.61281 243.544 4.91646 243.544 5.26385H244.544C244.544 4.75897 244.429 4.28705 244.192 3.85858L243.317 4.34241ZM243.544 5.26385C243.544 5.58293 243.487 5.80335 243.405 5.95304L244.283 6.43261C244.468 6.09366 244.544 5.69477 244.544 5.26385H243.544ZM243.403 5.957C243.309 6.13324 243.191 6.26173 243.05 6.35466L243.599 7.19008C243.89 6.99892 244.118 6.74104 244.285 6.42865L243.403 5.957ZM243.047 6.35635C242.879 6.46822 242.697 6.55112 242.498 6.60533L242.761 7.57009C243.063 7.48794 243.343 7.36061 243.602 7.1884L243.047 6.35635ZM242.13 7.08771V7.17294H243.13V7.08771H242.13ZM242.598 7.67192C242.767 7.6827 242.955 7.74257 243.168 7.87693L243.702 7.03144C243.375 6.8249 243.027 6.69727 242.662 6.67395L242.598 7.67192ZM243.168 7.87693C243.359 7.99763 243.531 8.17746 243.679 8.43521L244.547 7.93907C244.33 7.56047 244.051 7.25166 243.702 7.03144L243.168 7.87693ZM243.679 8.43521C243.807 8.66084 243.885 8.9596 243.885 9.35476H244.885C244.885 8.82946 244.782 8.34981 244.547 7.93907L243.679 8.43521ZM243.885 9.35476C243.885 9.71341 243.805 10.0203 243.653 10.2878L244.522 10.7825C244.767 10.3511 244.885 9.87111 244.885 9.35476H243.885ZM243.653 10.2878C243.513 10.5332 243.284 10.746 242.93 10.9148L243.361 11.8174C243.865 11.5771 244.264 11.236 244.522 10.7825L243.653 10.2878ZM242.93 10.9148C242.592 11.0763 242.114 11.1729 241.471 11.1729V12.1729C242.202 12.1729 242.841 12.0651 243.361 11.8174L242.93 10.9148ZM241.471 11.1729H238.317V12.1729H241.471V11.1729ZM239.374 11.2354H241.471V10.2354H239.374V11.2354ZM241.471 11.2354C242.2 11.2354 242.849 11.0991 243.28 10.7025L242.602 9.96719C242.453 10.1047 242.122 10.2354 241.471 10.2354V11.2354ZM243.28 10.7024C243.671 10.3419 243.88 9.88378 243.88 9.35476H242.88C242.88 9.59278 242.796 9.78804 242.602 9.96733L243.28 10.7024ZM243.88 9.35476C243.88 8.96958 243.78 8.6075 243.582 8.27861L242.726 8.79454C242.829 8.96566 242.88 9.14902 242.88 9.35476H243.88ZM243.583 8.28075C243.383 7.94456 243.1 7.68177 242.748 7.49166L242.273 8.37126C242.478 8.48229 242.623 8.62291 242.724 8.7924L243.583 8.28075ZM242.752 7.49354C242.386 7.29207 241.97 7.20135 241.522 7.20135V8.20135C241.835 8.20135 242.078 8.26403 242.269 8.36938L242.752 7.49354ZM241.522 7.20135H239.374V8.20135H241.522V7.20135ZM238.874 7.70135V10.7354H239.874V7.70135H238.874ZM239.374 7.28089H241.334V6.28089H239.374V7.28089ZM241.334 7.28089C241.72 7.28089 242.083 7.20478 242.415 7.04259L241.975 6.1442C241.796 6.23201 241.585 6.28089 241.334 6.28089V7.28089ZM242.413 7.04354C242.748 6.88164 243.023 6.64728 243.226 6.34113L242.392 5.78884C242.294 5.93724 242.16 6.05515 241.977 6.14325L242.413 7.04354ZM243.223 6.34472C243.439 6.02518 243.539 5.65805 243.539 5.26385H242.539C242.539 5.48328 242.485 5.65025 242.394 5.78525L243.223 6.34472ZM243.539 5.26385C243.539 4.75003 243.354 4.29688 242.992 3.93444L242.285 4.64155C242.456 4.8132 242.539 5.01062 242.539 5.26385H243.539ZM242.994 3.93632C242.593 3.53166 242.012 3.38317 241.368 3.38317V4.38317C241.883 4.38317 242.149 4.50456 242.283 4.63967L242.994 3.93632ZM241.368 3.38317H239.374V4.38317H241.368V3.38317ZM238.874 3.88317V6.78089H239.874V3.88317H238.874Z" fill="#A07C4A"/>
</svg>
