<svg width="326" height="107" viewBox="0 0 326 107" fill="none" xmlns="http://www.w3.org/2000/svg">
<rect width="13" height="107" fill="#141519"/>
<rect x="11" y="13" width="13" height="286" transform="rotate(-90 11 13)" fill="#141519"/>
<rect x="12" y="58" width="13" height="285" transform="rotate(-90 12 58)" fill="#141519"/>
<path d="M296 0C303.691 -3.36197e-07 312.068 3.05535 317.506 8.4939C322.945 13.9325 326 21.3087 326 29C326 36.6913 322.945 44.0675 317.506 49.5061C312.068 54.9446 303.691 58 296 58V45C300.152 45 305.135 43.0073 308.071 40.0711C311.007 37.1349 312.657 33.1525 312.657 29C312.657 24.8475 311.007 20.8651 308.071 17.9289C305.135 14.9927 300.152 13 296 13L296 0Z" fill="#141519"/>
</svg>
