<svg width="109" height="126" viewBox="0 0 109 126" fill="none" xmlns="http://www.w3.org/2000/svg">
<path d="M90.8333 29.25V27H45.4167V29.25C45.4167 30.8906 45.1328 32.4727 44.5651 33.9961C43.9974 35.5195 43.1222 36.9844 41.9395 38.3906C40.7567 39.7969 39.6686 40.9688 38.6751 41.9062C37.6816 42.8437 36.4043 43.9922 34.8431 45.3516C34.7012 45.4453 34.5947 45.5273 34.5238 45.5977C34.4528 45.668 34.3464 45.7617 34.2044 45.8789C34.0625 45.9961 33.9442 46.1016 33.8496 46.1953C30.0176 49.5703 26.5877 52.1953 23.5599 54.0703C22.5191 54.7266 20.9106 55.6172 18.7344 56.7422C18.5924 56.7891 18.0602 57.0352 17.1377 57.4805C16.2152 57.9258 15.3636 58.3594 14.583 58.7812C13.8024 59.2031 12.9627 59.6719 12.0638 60.1875C11.1649 60.7031 10.4435 61.207 9.89941 61.6992C9.35536 62.1914 9.08333 62.625 9.08333 63C9.08333 66.3281 9.8048 69.0352 11.2477 71.1211C12.6906 73.207 14.997 74.25 18.1667 74.25C20.201 74.25 22.1998 73.8984 24.1631 73.1953C26.1264 72.4922 27.7349 71.7188 28.9886 70.875C30.2423 70.0312 31.5433 69.2578 32.8916 68.5547C34.2399 67.8516 35.3872 67.5 36.3333 67.5L36.3333 108C36.3333 110.344 37.244 112.43 39.0654 114.258C40.8868 116.086 43.0039 117 45.4167 117C47.8767 117 50.0056 116.109 51.8034 114.328C53.6011 112.547 54.5 110.438 54.5 108V84.7266C55.3043 85.4297 56.4278 86.0156 57.8708 86.4844C59.3137 86.9531 60.6265 87.1875 61.8092 87.1875C65.0736 87.1875 67.8885 85.9453 70.2539 83.4609C71.7678 84.3047 73.4 84.7266 75.1504 84.7266C76.9008 84.7266 78.6394 84.3164 80.3662 83.4961C82.093 82.6758 83.3348 81.5625 84.0918 80.1562C85.2272 80.3438 86.5519 80.4375 88.0658 80.4375C92.087 80.4375 95.0675 79.3008 97.0072 77.0273C98.9468 74.7539 99.9167 71.5781 99.9167 67.5C99.9167 63.5625 99.1597 59.2734 97.6458 54.6328C96.1319 49.9922 94.6181 45.4453 93.1042 40.9922C91.5903 36.5391 90.8333 32.625 90.8333 29.25ZM86.2917 9C85.0616 9 83.9972 9.44531 83.0983 10.3359C82.1994 11.2266 81.75 12.2812 81.75 13.5C81.75 14.7188 82.1994 15.7734 83.0983 16.6641C83.9972 17.5547 85.0616 18 86.2917 18C87.5217 18 88.5862 17.5547 89.485 16.6641C90.3839 15.7734 90.8333 14.7188 90.8333 13.5C90.8333 12.2812 90.3839 11.2266 89.485 10.3359C88.5862 9.44531 87.5217 9 86.2917 9ZM45.4167 0H90.8333C93.3407 0 95.4814 0.878906 97.2555 2.63672C99.0296 4.39453 99.9167 6.51563 99.9167 9L99.9167 29.25C99.9167 32.0156 101.312 37.2422 104.104 44.9297C107.368 53.8359 109 61.2656 109 67.2188C109 73.875 107.167 79.2656 103.5 83.3906C99.8339 87.5156 94.689 89.5547 88.0658 89.5078L87.7109 89.4375C84.1154 92.2969 79.9049 93.7266 75.0794 93.7266C74.0386 93.7266 73.0215 93.6562 72.028 93.5156C69.3314 95.0625 66.5165 95.9297 63.5833 96.1172V108C63.5833 112.922 61.7856 117.152 58.1901 120.691C54.5946 124.23 50.3131 126 45.3457 126C40.4729 126 36.2387 124.219 32.6432 120.656C29.0477 117.094 27.25 112.875 27.25 108L27.25 81.7031C24.4115 82.7344 21.3837 83.25 18.1667 83.25C12.395 83.25 7.92426 81.3398 4.75456 77.5195C1.58485 73.6992 0 68.8594 0 63C0 61.2187 0.413954 59.5898 1.24186 58.1133C2.06977 56.6367 3.24067 55.3477 4.75456 54.2461C6.26845 53.1445 7.75868 52.1953 9.22526 51.3984C10.6918 50.6016 12.395 49.7344 14.3346 48.7969C16.2743 47.8594 17.7409 47.0859 18.7344 46.4766C21.3364 44.8359 24.3878 42.4922 27.8887 39.4453C28.0306 39.3516 28.4327 39.0234 29.0951 38.4609C29.7574 37.8984 30.2659 37.4531 30.6208 37.125C30.9756 36.7969 31.4842 36.3164 32.1465 35.6836C32.8088 35.0508 33.341 34.4883 33.7432 33.9961C34.1453 33.5039 34.5711 32.9766 35.0205 32.4141C35.4699 31.8516 35.8011 31.3008 36.014 30.7617C36.2269 30.2227 36.3333 29.7187 36.3333 29.25V9C36.3333 6.51563 37.2204 4.39453 38.9945 2.63672C40.7686 0.878906 42.9093 0 45.4167 0Z" fill="#141519"/>
</svg>
